<svg xmlns="http://www.w3.org/2000/svg" viewBox="0 0 100 100"><title>circles</title><g id="Layer_2" data-name="Layer 2"><g id="Layer_1-2" data-name="Layer 1"><path d="M17,100a6.41,6.41,0,0,1,.25-2,2.63,2.63,0,0,1,.6-1.1.13.13,0,0,1,0-.06c.74-1.37,2.87-.67,3.85,0a2.18,2.18,0,0,1,1.16,1.38,4.51,4.51,0,0,1-.12,1.86h-.2a3.42,3.42,0,0,0,.15-.65,3.63,3.63,0,0,0,0-1.23,1.87,1.87,0,0,0-.86-1,4.49,4.49,0,0,0-2-.87,2.17,2.17,0,0,0-1.59.36s0,.06,0,.07l-.23.21,0,0a.05.05,0,0,1-.05,0,3.19,3.19,0,0,0-.69,1.76,5.36,5.36,0,0,0-.07,1.26Zm76.84,0a.34.34,0,0,1,.33-.21,0,0,0,0,1,0,0,.69.69,0,0,1,.34.17.08.08,0,0,1,0,0h-.18a.19.19,0,0,0-.09,0h0a.58.58,0,0,0-.19,0Zm-74.89,0a.76.76,0,0,1-.21-.52,1.64,1.64,0,0,1,1.17-1.71h0a1.27,1.27,0,0,1,.8.12,1.19,1.19,0,0,1,.54.75A1.67,1.67,0,0,1,21,100h-.27a1.21,1.21,0,0,0,.38-1.26c-.13-.47-.86-1.1-1.37-.73a0,0,0,0,1-.07,0,1.61,1.61,0,0,0-.78,1.21.73.73,0,0,0,.41.81ZM91,100a2.41,2.41,0,0,1,1-2,3,3,0,0,1,2-.57,2.76,2.76,0,0,1,2,.69A3.1,3.1,0,0,1,96.9,100h-.17a2.78,2.78,0,0,0-.64-1.62,2.58,2.58,0,0,0-2.15-.77,3.51,3.51,0,0,0-1.67.31l-.28.21,0,.06h0a2.08,2.08,0,0,0-.78,1.39,1.86,1.86,0,0,0,0,.41Zm-2.41,0a2,2,0,0,1,.05-.26,6.29,6.29,0,0,1,1.25-2.94,3.73,3.73,0,0,1,2.81-1.24,11.19,11.19,0,0,1,3.55.37,0,0,0,0,1,0,0l0,0,.19.06a.08.08,0,0,1,0,.08A5.24,5.24,0,0,1,99.07,100H98.9a5,5,0,0,0-2.66-3.81s0,0-.06-.09c-2.11-.53-5-.83-6.4,1.13a6.79,6.79,0,0,0-1,2.77ZM90,100c0-1.19.15-2.47,1.33-2.91a1.49,1.49,0,0,1,.75-.2c.59-.07,1.13-.32,1.71-.42a3,3,0,0,1,1.57.31,6.33,6.33,0,0,1,1.32.61,2.5,2.5,0,0,1,1.24,1.92,5.34,5.34,0,0,1,.05.69h-.2a2.62,2.62,0,0,0-1-2.28,6.57,6.57,0,0,0-1.27-.64,3.75,3.75,0,0,0-1.5-.39,10,10,0,0,0-1.38.36c-.39.08-1,0-1.35.31,0,0,0,0,0,0a2.58,2.58,0,0,0-1,2.37V100Zm-29.48,0a5.65,5.65,0,0,1-.45-.61,4.64,4.64,0,0,1-.45-3.11A4.33,4.33,0,0,1,61,93.49a5,5,0,0,1,3-1,8.34,8.34,0,0,1,2,.21,3.4,3.4,0,0,1,.57.15,4.77,4.77,0,0,1,3.19,5.28,6.82,6.82,0,0,1-.53,1.9h-.22a5.86,5.86,0,0,0,.64-2.88,4.54,4.54,0,0,0-2.47-3.79s0,0-.05,0l0,0a5.24,5.24,0,0,0-.78-.3.08.08,0,0,1,0-.07c-.28-.06-.56-.1-.8-.13a7.23,7.23,0,0,0-1.8-.09,4.15,4.15,0,0,0-4,4.51A3.64,3.64,0,0,0,60.81,100Zm31.73,0c0-.11,0-.23,0-.35a1.58,1.58,0,0,1,.61-1.14.65.65,0,0,1,.2-.17h0a2.5,2.5,0,0,1,1.29-.19,1.59,1.59,0,0,1,1.32.71A2.24,2.24,0,0,1,96,100h-.16a1.85,1.85,0,0,0-.37-1.11,1.58,1.58,0,0,0-1.28-.54,2.06,2.06,0,0,0-1.13.16,2,2,0,0,0-.7,1.12c0,.12,0,.25-.05.37Zm-29.62,0a4.58,4.58,0,0,1-1.33-2.09,3.89,3.89,0,0,1,.8-3.65.05.05,0,0,1,0,0l.05,0,.15-.14a2.65,2.65,0,0,1,.41-.41s.13,0,.17,0l.43-.15a2.57,2.57,0,0,1,1.33-.29,6.4,6.4,0,0,1,2.8,1,3.56,3.56,0,0,1,1.24,2.06,3.67,3.67,0,0,1,0,2.36,3.75,3.75,0,0,1-.93,1.38h-.31l.06-.06a3.2,3.2,0,0,0,1.19-2.69,4.08,4.08,0,0,0-1.29-2.78,6.14,6.14,0,0,0-1.36-.67,4.4,4.4,0,0,0-1.5-.4,3.64,3.64,0,0,0-1.38.3c-.14,0-.28.06-.42.12s0,0,0,0a3.86,3.86,0,0,0-1.51,2.73,4.33,4.33,0,0,0,1,2.78,4.77,4.77,0,0,0,.69.65Zm-46.94,0a7.1,7.1,0,0,1,.17-1.08,7.18,7.18,0,0,1,.81-2.7,3.23,3.23,0,0,1,2.06-1.17,10.2,10.2,0,0,1,1.74-.13,2.36,2.36,0,0,1,1.31.25.07.07,0,0,1,0,.07,5.06,5.06,0,0,1,2.09,1.93,3.44,3.44,0,0,1,.21,2.74l0,.09h-.21l.08-.23c.63-2.14-.83-3.54-2.53-4.53l0,0a3.71,3.71,0,0,0-1.11-.08,8.9,8.9,0,0,0-1.46.12,2.93,2.93,0,0,0-2.25,1.49,13.62,13.62,0,0,0-.61,2.52,4.69,4.69,0,0,0-.09.73Zm77.41,0a1.16,1.16,0,0,1,.5-.85h0a1.42,1.42,0,0,1,1.52.36.64.64,0,0,1,.17.49h-.19a.63.63,0,0,0-.42-.55,1.37,1.37,0,0,0-1.06-.15h0a.69.69,0,0,0-.13.11l0,0,0,0a1,1,0,0,0-.21.53ZM18,100a3.06,3.06,0,0,1,.34-1.84s0,0,0,0c.28-1.43,1.88-1.46,2.94-.82.86.52.86,1.78.55,2.7h-.18A2,2,0,0,0,21,97.37a2.58,2.58,0,0,0-1.36-.29,1.3,1.3,0,0,0-1,.75v0l-.14.33h0a3.23,3.23,0,0,0-.31,1.8Zm45.26-5.38a2.12,2.12,0,0,1,.92-.29,3.51,3.51,0,0,1,2.27.37,3.17,3.17,0,0,1,1.36,3,3.47,3.47,0,0,1-1,1.57,2.7,2.7,0,0,1-1.75.58,2.25,2.25,0,0,1-1.69-.43A3.83,3.83,0,0,1,62.41,98a3,3,0,0,1,.41-2.88,1.14,1.14,0,0,1,.26-.34l.1-.11S63.22,94.61,63.23,94.62Zm-43,4a.47.47,0,0,1,.39.57.67.67,0,0,1-.68.53c-.67-.1-.33-1.34.28-1.11Zm42.66-3.3a3.55,3.55,0,0,0-.54,1.44,3.16,3.16,0,0,0,.79,2,2.68,2.68,0,0,0,3.59.23,2.42,2.42,0,0,0,.94-2.19,3.57,3.57,0,0,0-1-1.79,2.9,2.9,0,0,0-1.89-.59,2.78,2.78,0,0,0-1.5.36c-.11.14-.22.29-.32.44v0S62.86,95.33,62.85,95.33Zm-42.72,3.4c-.46-.09-.68.79-.18.8a.54.54,0,0,0,.46-.29c.15-.24,0-.45-.28-.51Zm43.61-2.9c.11-.34.4-.45.76-.52a1.83,1.83,0,0,1,1.55.32A1.68,1.68,0,0,1,66.38,98a1.56,1.56,0,0,1-2.46,0A2.09,2.09,0,0,1,63.74,95.83Zm.28-.2v0a1.86,1.86,0,0,0,0,2.32,1.32,1.32,0,0,0,2,.12,1.43,1.43,0,0,0-.1-2.33,1.82,1.82,0,0,0-1-.38A1.61,1.61,0,0,0,64,95.63Zm.64.85c.26-.28.64.16.71.41s.11.75-.27.83C64.36,97.87,64.1,96.84,64.66,96.48Zm.16.13,0,0a.47.47,0,0,0-.25.63.56.56,0,0,0,.48.25c.32,0,.29-.41.2-.63a.42.42,0,0,0-.29-.26A.14.14,0,0,0,64.82,96.61ZM43.3,86.2a6.18,6.18,0,0,1,3.43,1.46,5.37,5.37,0,0,1,1.65,3A4.82,4.82,0,0,1,45,95.59c-2.07.66-4.6.72-6.19-1a5.38,5.38,0,0,1-1.29-2.88,6.41,6.41,0,0,1,.1-1.69A5,5,0,0,1,38,88.64a3.54,3.54,0,0,1,2-1.75,6.19,6.19,0,0,1,3.28-.7Zm0,.17a6.69,6.69,0,0,0-3.21.71,3.35,3.35,0,0,0-2.16,2.37,5.64,5.64,0,0,0,.06,3.13A4.38,4.38,0,0,0,39.61,95c1.75,1.14,4,.89,5.84.19A4.4,4.4,0,0,0,48,89.82a5.29,5.29,0,0,0-.85-1.33,6,6,0,0,0-1-1.06A9,9,0,0,0,43.25,86.37ZM40.07,87.9a3.12,3.12,0,0,1,1.21-.45,4.67,4.67,0,0,1,1.58-.14,5.84,5.84,0,0,1,2.77.79,3.59,3.59,0,0,1,1.47,3.82,3.21,3.21,0,0,1-1.37,2,7.1,7.1,0,0,1-1.55.53,4.37,4.37,0,0,1-1.34.22,5.49,5.49,0,0,1-1.45-.29A5,5,0,0,1,40.07,94a3.3,3.3,0,0,1-1.28-1.9,5.34,5.34,0,0,1,0-1.44c0-.49.06-1,.12-1.49A1.45,1.45,0,0,1,40.07,87.9Zm-.09.25a1.63,1.63,0,0,0-.73.46,3.14,3.14,0,0,0-.3,1.56,8.59,8.59,0,0,0-.06,1.52A2.59,2.59,0,0,0,39.48,93a2.15,2.15,0,0,0,.94.85c.32.12.68.18,1,.27a4.8,4.8,0,0,0,2.52.15,4.1,4.1,0,0,0,2.34-1.15,3.34,3.34,0,0,0,.76-2.21,3.47,3.47,0,0,0-2.5-3.13,6.49,6.49,0,0,0-2.31-.32,5.91,5.91,0,0,0-1.25.26,4.65,4.65,0,0,0-.69.23.09.09,0,0,1,0,.08l-.17.06a.08.08,0,0,0,0,0S40,88.17,40,88.15Zm1.76.18a.05.05,0,0,1,0,0,8.68,8.68,0,0,1,2.57.5A2.28,2.28,0,0,1,45.84,90a2.35,2.35,0,0,1-.67,3,2.79,2.79,0,0,1-1.83.37,3.8,3.8,0,0,1-1.88-.37,3.74,3.74,0,0,1-1.35-1.24,3.11,3.11,0,0,1-.27-1.75A2,2,0,0,1,41.74,88.33Zm.35.17h0a2,2,0,0,0-1.7.69,2.39,2.39,0,0,0-.26,2.26A3.38,3.38,0,0,0,41.73,93a4.49,4.49,0,0,0,2,.26,2.13,2.13,0,0,0,2-3.17,2.58,2.58,0,0,0-1.79-1.2A7.94,7.94,0,0,0,42.09,88.5Zm1.36,1.14c.77.17,1.65.88,1.53,1.7-.17,1.1-1.66,1.28-2.5,1s-1.82-1.06-1.55-2.09S42.67,89.26,43.45,89.64Zm-.42,0c-.71-.14-1.68-.14-1.94.55-.34.91.61,1.6,1.34,1.86a1.92,1.92,0,0,0,2.23-.47c.61-.92-.78-1.9-1.58-1.85C43,89.75,43,89.7,43,89.66Zm.34,1c.18.22.32.48.1.75a.6.6,0,0,1-.58.13,1.37,1.37,0,0,1-.59-.16.57.57,0,0,1,0-.86c.19-.15.37,0,.59,0s.35,0,.44.15Zm-.15,0c-.15,0-.29,0-.45,0s-.41-.07-.49.17l.12.45.22,0a2.09,2.09,0,0,0,.56.06.29.29,0,0,0,.23-.45,2,2,0,0,0-.18-.23S43.22,90.64,43.22,90.63Zm-26.71-15a6.58,6.58,0,0,1,6.23,5.21,5.77,5.77,0,0,1-3,6.24,9.22,9.22,0,0,1-4.46,1,5.31,5.31,0,0,1-3.55-1.12c-2.12-1.8-2.43-4.91-1.8-7.47a4.2,4.2,0,0,1,2.16-2.68,9.89,9.89,0,0,1,2.26-.84,5.92,5.92,0,0,1,2.12-.33Zm-.2.17a8.1,8.1,0,0,0-2.27.45,8.82,8.82,0,0,0-2,.79,4.22,4.22,0,0,0-1.53,1.41,5,5,0,0,0-.64,2.22c-.27,2.48.38,5.37,2.8,6.59a7.55,7.55,0,0,0,3.77.47,8.49,8.49,0,0,0,3.69-1.19,5.54,5.54,0,0,0,2.11-6.68,6.57,6.57,0,0,0-5.92-4Zm62.57-1.87c1.59-.11,2.85.73,4.19,1.52a5.25,5.25,0,0,1,2.29,3.26,6.67,6.67,0,0,1-.44,4.15,8.85,8.85,0,0,1-.87,1.84,4.35,4.35,0,0,1-1.36,1.2,7,7,0,0,1-2,1,4.92,4.92,0,0,1-2.16,0,7.72,7.72,0,0,1-3.85-1.51,5.82,5.82,0,0,1-2-3.23,9.55,9.55,0,0,1,0-2,8.62,8.62,0,0,1,.34-2,6,6,0,0,1,5.85-4.2Zm-.35.19A6.09,6.09,0,0,0,73,79a6.93,6.93,0,0,0,.17,4,5.88,5.88,0,0,0,2.69,2.75,9.69,9.69,0,0,0,3.78.85,6.22,6.22,0,0,0,3.57-1.47,6.72,6.72,0,0,0,1.86-3.33,5.44,5.44,0,0,0-.26-4.15,5.07,5.07,0,0,0-1.13-1.54,10.68,10.68,0,0,0-1.64-1,7.19,7.19,0,0,0-1.53-.8,4.48,4.48,0,0,0-1.89-.15S78.54,74.12,78.53,74.08ZM15.74,77a7,7,0,0,1,2,0,3.69,3.69,0,0,1,1.59.52A3.92,3.92,0,0,1,21.23,80a7.87,7.87,0,0,1,0,3.17,4.17,4.17,0,0,1-.73,1.4,4.46,4.46,0,0,1-1,1.07,6.41,6.41,0,0,1-3.18.88,5.19,5.19,0,0,1-3.18-.7,3.5,3.5,0,0,1-.94-1.15,12,12,0,0,1-.75-1.31,5.24,5.24,0,0,1-.07-3.16A2.85,2.85,0,0,1,12.64,78a16.54,16.54,0,0,1,1.83-.79A3,3,0,0,1,15.74,77Zm-.14.13a4.09,4.09,0,0,0-1.35.39c-.5.22-1,.43-1.5.68-1.07.56-1.23,1.82-1.38,2.91a3.94,3.94,0,0,0,.11,2,7.87,7.87,0,0,0,.66,1.21A5.22,5.22,0,0,0,13,85.44a3.08,3.08,0,0,0,1.2.63,6.53,6.53,0,0,0,3,.15,4.91,4.91,0,0,0,2.71-1.1,4.59,4.59,0,0,0,1.38-3,9.18,9.18,0,0,0-.06-1.39,3.31,3.31,0,0,0-.42-1.66,4.47,4.47,0,0,0-2.14-1.75,6.18,6.18,0,0,0-2.93-.14S15.6,77.16,15.6,77.11Zm-2.32,2.07a.12.12,0,0,1,0-.1,4.81,4.81,0,0,1,2.63-1,3.16,3.16,0,0,1,2.67.26,3.87,3.87,0,0,1,1.62,1.82,4.21,4.21,0,0,1-.07,2.2,5,5,0,0,1-1.29,2.11,3.92,3.92,0,0,1-2.2.85,3,3,0,0,1-2.33-.34,5.46,5.46,0,0,1-1.48-1.89,4,4,0,0,1-.2-2.14A3.14,3.14,0,0,1,13.28,79.18Zm63.26-3a3.66,3.66,0,0,1,3-1,4.83,4.83,0,0,1,3.28,1.42A4.14,4.14,0,0,1,84.29,79a7.22,7.22,0,0,1-.83,3.35,4.62,4.62,0,0,1-.69,1.32,6.34,6.34,0,0,1-1.22,1.09,2.78,2.78,0,0,1-1.53.44,9,9,0,0,1-1.8,0,4,4,0,0,1-2.43-1.51A4.91,4.91,0,0,1,74.32,81,5.86,5.86,0,0,1,74.68,78,4,4,0,0,1,76.54,76.14Zm-63,3a.08.08,0,0,1,0,0,3.7,3.7,0,0,0-.72,2.67A4,4,0,0,0,14,84.39a2.76,2.76,0,0,0,2.64.65,3.6,3.6,0,0,0,2.42-1.2,4.93,4.93,0,0,0,1.06-2.56,2.2,2.2,0,0,0-.42-1.7,5.48,5.48,0,0,0-1.05-1,3.19,3.19,0,0,0-2.87-.3A5.15,5.15,0,0,0,13.49,79.12Zm63-2.78a3.91,3.91,0,0,0-1.85,2.13,5,5,0,0,0,.17,3.69,8.06,8.06,0,0,0,1.8,2.1,4,4,0,0,0,2.76.75A4.88,4.88,0,0,0,81,84.8a3.62,3.62,0,0,0,1.14-.8,3.69,3.69,0,0,0,1-1.34c.18-.44.34-.88.51-1.31A3.6,3.6,0,0,0,83.73,78a6.37,6.37,0,0,0-1.9-1.9c-1.35-.89-3.79-1.08-5.07.1a.1.1,0,0,1,0,0l0,0-.07.08A.05.05,0,0,1,76.53,76.34ZM14,80.46a.15.15,0,0,1,0-.11,2,2,0,0,1,.93-1.26,2.9,2.9,0,0,1,1-.13c.43,0,.87,0,1.3,0a2.06,2.06,0,0,1,2.15,1.82,3,3,0,0,1-1.29,2.79c-1,.55-2.58.75-3.45-.19A3.2,3.2,0,0,1,14,80.46Zm67.1-3.7a4.26,4.26,0,0,1,1.8,1.69,3.33,3.33,0,0,1,.24,2.28,3.86,3.86,0,0,1-1.24,1.86,3.71,3.71,0,0,1-2.23,1.2,3.42,3.42,0,0,1-2.37-.44,4.34,4.34,0,0,1-1.43-1.87,3.85,3.85,0,0,1,.57-4,4,4,0,0,1,4.41-.83,0,0,0,0,1,0,0l.12.06a.2.2,0,0,0,.08,0S81.09,76.75,81.1,76.76Zm-67,3.6c-.2,1.32-.06,3,1.49,3.38a3.84,3.84,0,0,0,2.06-.27,2.17,2.17,0,0,0,1.26-1.32,2.43,2.43,0,0,0,0-2.17,2.3,2.3,0,0,0-1.72-.8,10.94,10.94,0,0,0-1.81,0A1.49,1.49,0,0,0,14.13,80.36Zm66.76-3.51a3.88,3.88,0,0,0-4.74,1.32,3.84,3.84,0,0,0,1.36,5,3.67,3.67,0,0,0,2.82.19,5,5,0,0,0,2.23-1.86,3,3,0,0,0,.36-2.63A4,4,0,0,0,80.89,76.85ZM16.57,79.94a.06.06,0,0,1,.06,0c.55.13,1.25-.09,1.69.36a1.2,1.2,0,0,1,.25,1.11,2.05,2.05,0,0,1-2.13,1.52,1.88,1.88,0,0,1-1.68-1.72,1.28,1.28,0,0,1,.37-1.05A2.09,2.09,0,0,1,16.57,79.94Zm0,.13a4.48,4.48,0,0,0-1,0,1,1,0,0,0-.68,1.31,1.68,1.68,0,0,0,1.65,1.26,2,2,0,0,0,1.77-1.18.92.92,0,0,0-.87-1.33,5,5,0,0,1-.87-.08Zm61.78-2.4a.82.82,0,0,1,.28-.14,3.12,3.12,0,0,1,1.05-.12,2.81,2.81,0,0,1,1.89.75,2.65,2.65,0,0,1-.73,4,4.84,4.84,0,0,1-1,.31,2.64,2.64,0,0,1-.92.14,3.33,3.33,0,0,1-1.44-.86,2.46,2.46,0,0,1-.73-1.31,3,3,0,0,1,.38-1.56,3.29,3.29,0,0,1,1.15-1.25A0,0,0,0,1,78.35,77.67ZM78.1,78a3.2,3.2,0,0,0-1,1.29,2.82,2.82,0,0,0-.24,1,2.09,2.09,0,0,0,.55,1.18,2.9,2.9,0,0,0,1.74.85,4.23,4.23,0,0,0,1.73-.48A2.69,2.69,0,0,0,82,80.19a1.85,1.85,0,0,0-.76-2,3,3,0,0,0-2-.55,2.07,2.07,0,0,0-1,.22A2.92,2.92,0,0,0,78.1,78ZM16.77,80.78c.39.08.77.36.59.79a.9.9,0,0,1-1.21.37.6.6,0,0,1-.33-.86A.85.85,0,0,1,16.77,80.78Zm0,.13a.74.74,0,0,0-.59.08c-.18.1-.29.18-.31.4s.23.36.42.41a.91.91,0,0,0,.84-.15C17.51,81.27,17.06,81,16.77,80.91Zm62.32-2.13a1.53,1.53,0,0,1,2,.45c.37.78-.35,1.53-1,1.81s-1.76.36-2-.46a1.54,1.54,0,0,1,1-1.8S79.08,78.78,79.09,78.78Zm-.3.28a1.56,1.56,0,0,0-.41.4,1,1,0,0,0,0,1.3c.35.38,1.19.24,1.6.08.73-.28,1.58-1.38.53-1.87a1.94,1.94,0,0,0-1.66.1Zm.57.41s0-.06,0-.06c.23,0,.67.26.55.56,0,.07-.09.14-.12.22a.81.81,0,0,1-.1.18.41.41,0,0,1-.37.09c-.24,0-.66-.31-.51-.61A.79.79,0,0,1,79.36,79.47Zm.12.11a.74.74,0,0,0-.39.16c-.12.11-.18.24,0,.37a.83.83,0,0,0,.29.16c.26.06.39-.11.47-.33s0,0,0-.12a.35.35,0,0,0-.11-.13A.65.65,0,0,0,79.48,79.58ZM36.55,61.46a10.35,10.35,0,0,1,4.76,1.28,6,6,0,0,1,2.58,3.37,5.83,5.83,0,0,1-.13,3.8,8.51,8.51,0,0,1-1.17,2,9.68,9.68,0,0,1-1.53,1.73,6.24,6.24,0,0,1-4.39,1.22,11.69,11.69,0,0,1-4.83-1.25c-2.53-1.42-3-4.69-2.1-7.24a7.57,7.57,0,0,1,6.75-5A.06.06,0,0,1,36.55,61.46Zm-.18.13a7.38,7.38,0,0,0-6.72,5.74,6.16,6.16,0,0,0,.42,4.14,5.15,5.15,0,0,0,3.28,2.47c2.83.86,6.18,1.22,8.32-1.23A9.15,9.15,0,0,0,43.9,68.9,5.58,5.58,0,0,0,43.28,65a5.9,5.9,0,0,0-2.74-2.53A14.16,14.16,0,0,0,36.37,61.59ZM32.8,63.83a2.49,2.49,0,0,1,1.27-.89,10.4,10.4,0,0,1,2-.14,7.65,7.65,0,0,1,2.19,0,6.18,6.18,0,0,1,1.95.71c1.87,1.06,3.62,3.3,2.84,5.54a5.55,5.55,0,0,1-2,2.89,8.72,8.72,0,0,1-3.6,1.53,6.29,6.29,0,0,1-3.72-.79,3.78,3.78,0,0,1-1.5-1c-.16-.21-.28-.45-.44-.67a7.93,7.93,0,0,1-.6-.83,4.86,4.86,0,0,1,0-3.36,5.84,5.84,0,0,1,1.51-2.91S32.79,63.82,32.8,63.83Zm-.11.33a6.38,6.38,0,0,0-1.43,3.27,5.39,5.39,0,0,0-.14,1.92,5.82,5.82,0,0,0,1.06,1.81A5.43,5.43,0,0,0,35.1,73a5.65,5.65,0,0,0,3.38,0,8.73,8.73,0,0,0,2.94-1.58,3.86,3.86,0,0,0,1-1.33,5.51,5.51,0,0,0,.66-1.76c.3-2.34-2-4.38-4-5a5.44,5.44,0,0,0-1.69-.28c-.55,0-1.09.11-1.64.12a4.86,4.86,0,0,0-1.74.11,2.45,2.45,0,0,0-1.18,1S32.72,64.2,32.69,64.16Zm2.93-.33a4.53,4.53,0,0,1,5,1.66,5.51,5.51,0,0,1,1.26,2.43,2.62,2.62,0,0,1-1,2.26c-1.4,1.28-3.58,2.27-5.46,1.62a4.12,4.12,0,0,1-2.78-3.89,4.28,4.28,0,0,1,.68-2.28,5.85,5.85,0,0,1,2.27-1.82A0,0,0,0,1,35.62,63.83Zm-.45.38a5,5,0,0,0-1.84,1.7,4,4,0,0,0-.46,2.75,4,4,0,0,0,3.4,3,6.15,6.15,0,0,0,4.65-1.93,2.31,2.31,0,0,0,.75-1.62,3.27,3.27,0,0,0-.45-1.28,6.56,6.56,0,0,0-1.56-2A4.08,4.08,0,0,0,35.17,64.21ZM0,62a6.61,6.61,0,0,1,1.33.23A5.78,5.78,0,0,1,4.15,63.9a4,4,0,0,1,.47,4.77A4.53,4.53,0,0,1,0,70.6v-.26a5.73,5.73,0,0,0,.82,0,4.17,4.17,0,0,0,3.93-2.46,3.79,3.79,0,0,0-1.51-4.56A6.15,6.15,0,0,0,0,62.21Zm100,8.6-.37-.06a4,4,0,0,1-2.42-1.42,4,4,0,0,1-.79-1.18,4.26,4.26,0,0,1,0-1.38A6.3,6.3,0,0,1,96.52,65a5.78,5.78,0,0,1,.61-1.31,2.88,2.88,0,0,1,1.58-1.42A2.61,2.61,0,0,1,100,62v.21a3,3,0,0,0-.79.1s0,0,0,0l-.1,0a1.83,1.83,0,0,0-.5.26.07.07,0,0,1-.11,0A3.78,3.78,0,0,0,97,64.34a4.25,4.25,0,0,0-.46,1.75,7.84,7.84,0,0,0,0,1.45,2.79,2.79,0,0,0,.77,1.31,4.73,4.73,0,0,0,.88.85,4.06,4.06,0,0,0,1.83.64ZM35.28,65.21a2.72,2.72,0,0,1,1.39-.44,3.7,3.7,0,0,1,2.26.59,2.38,2.38,0,0,1,1.16,1.26A2.66,2.66,0,0,1,40,68.31a3.06,3.06,0,0,1-3,2.2,4.14,4.14,0,0,1-1.77-.66,2.38,2.38,0,0,1-.63-.78,4.28,4.28,0,0,1-.45-.81,3.19,3.19,0,0,1,.19-1.72,1.93,1.93,0,0,1,.36-.83c.17-.19.41-.3.58-.5A0,0,0,0,1,35.28,65.21Zm-.3.45-.16.13A2.23,2.23,0,0,0,34.33,67a2,2,0,0,0,0,1.41,7.75,7.75,0,0,0,.59.9,3.21,3.21,0,0,0,1.7,1,2.44,2.44,0,0,0,2.19-.63,3.48,3.48,0,0,0,1.13-1.92,1.84,1.84,0,0,0-.93-2A3.75,3.75,0,0,0,37,65c-.3,0-.6.09-.9.12a1.49,1.49,0,0,0-1,.55S35,65.68,35,65.66ZM0,63.34c.19,0,.37,0,.57.08a7.47,7.47,0,0,1,1.24.21A3.48,3.48,0,0,1,4,66.31a2.84,2.84,0,0,1-.46,2,2.76,2.76,0,0,1-1.67,1,5.8,5.8,0,0,1-1.9.14V69.2a4,4,0,0,0,3.28-.9,2.44,2.44,0,0,0,.44-2.6A3.72,3.72,0,0,0,2.24,64,5.42,5.42,0,0,0,0,63.49H0Zm100,6.09a3.06,3.06,0,0,1-2.11-1,2.28,2.28,0,0,1-.68-1.56,10.24,10.24,0,0,1,.42-2.26v0c.12-.74,1.06-.94,1.67-1.15a1.64,1.64,0,0,1,.69-.06v.15a2.49,2.49,0,0,0-1.16.29c-.41.17-1,.32-1.08.82,0,0,0,0,0,0A7.37,7.37,0,0,0,97.34,67,2.37,2.37,0,0,0,98,68.14a2.45,2.45,0,0,0,.92.74,4.18,4.18,0,0,0,1.12.32ZM37.42,65.79l0,0a1.63,1.63,0,0,1,1.5,2,1.93,1.93,0,0,1-2.24,1.37c-.8-.2-1.89-1-1.57-1.94A2.31,2.31,0,0,1,37.42,65.79Zm.22.21s0,0,0,0a2.08,2.08,0,0,0-2,.78c-.8.89.16,1.82,1,2.08a1.77,1.77,0,0,0,2-.79A1.35,1.35,0,0,0,37.64,66ZM0,64.24a4.34,4.34,0,0,1,2.05.39,2,2,0,0,1,.76,2.82c-.37.68-.79.72-1.5.81a4.15,4.15,0,0,1-1.31,0v-.2a3,3,0,0,0,1.39,0A1.58,1.58,0,0,0,2.7,67.3a1.85,1.85,0,0,0,0-2,2.46,2.46,0,0,0-1.42-.83A3.72,3.72,0,0,0,0,64.38Zm100,0v.14l-.28,0a2.07,2.07,0,0,0-.82.21,1.82,1.82,0,0,0-.44.68.05.05,0,0,1,0,0,3.29,3.29,0,0,0,.2,1.81,1.72,1.72,0,0,0,1.18.9l.2.06v.2a2.45,2.45,0,0,1-.78-.28,1.65,1.65,0,0,1-.84-1.31,2.9,2.9,0,0,1,0-1.49.13.13,0,0,1,0-.06l0,0a1,1,0,0,1,.07-.15s0,0,0,0a1.13,1.13,0,0,1,.44-.52,3,3,0,0,1,1-.2ZM37.41,66.86a.78.78,0,0,1,.32,1.1.85.85,0,0,1-1.23.1.57.57,0,0,1-.35-.51.9.9,0,0,1,.22-.54C36.57,66.8,37.24,66.48,37.41,66.86Zm-.14.08a.76.76,0,0,0-.59.06c-.4.21-.51.69-.06.93a.84.84,0,0,0,.81,0,.47.47,0,0,0,.13-.74A1,1,0,0,0,37.3,67,.09.09,0,0,1,37.27,66.94ZM0,65.16a5.76,5.76,0,0,1,1.25.09h0c.41,0,.53.16.79.51a.88.88,0,0,1,.22.83A1.68,1.68,0,0,1,.35,67.73,1.51,1.51,0,0,1,0,67.59v-.24l.06,0a1.43,1.43,0,0,0,1.69-.26A.87.87,0,0,0,2,65.91a.87.87,0,0,0-.68-.5s0,0,0,0H1.09a4.41,4.41,0,0,0-1.09,0Zm100,0v.21a1.7,1.7,0,0,0-.53.16c-.46.22-.34,1-.08,1.33a2.09,2.09,0,0,0,.61.49v.24a1.73,1.73,0,0,1-1-1.73C99.09,65.38,99.52,65.2,100,65.16ZM.78,65.89l.06,0a.82.82,0,0,1,.57.74c0,.29-.5.52-.75.47S0,66.78.1,66.36A.55.55,0,0,1,.78,65.89Zm.11.19s0,0,0,0c-.32-.06-.69,0-.67.42s.36.43.61.38.5-.19.49-.4S1.1,66.12.89,66.08ZM63.37,54a8.14,8.14,0,0,1,3.25-1.06,5.4,5.4,0,0,1,2.62.11,7.61,7.61,0,0,1,2.06,1.2,5.49,5.49,0,0,1,2.11,3.32,12,12,0,0,1,.2,2.07,7.59,7.59,0,0,1-.09,2.18c-.71,2.83-4.48,3.36-6.9,3.49a5.37,5.37,0,0,1-4-1.17,7.54,7.54,0,0,1-2.51-3.39A5.92,5.92,0,0,1,63.3,54,.06.06,0,0,1,63.37,54Zm-1,.89a6.18,6.18,0,0,0-2,2.68,4.92,4.92,0,0,0,.72,4.64,7.38,7.38,0,0,0,3,2.61A7.53,7.53,0,0,0,68,65a9,9,0,0,0,4-1.3,3.81,3.81,0,0,0,1.15-1.28,4.28,4.28,0,0,0,.35-2.18,9.14,9.14,0,0,0-.64-3.84,6.56,6.56,0,0,0-2.94-2.74A5.65,5.65,0,0,0,66,53.34a7.29,7.29,0,0,0-3.52,1.58S62.41,54.92,62.4,54.88Zm4-.59a5,5,0,0,1,5.4,2.05,5.35,5.35,0,0,1-.11,6,3.12,3.12,0,0,1-1.4.93,12.64,12.64,0,0,1-1.78.65,9,9,0,0,1-1,.1,7,7,0,0,1-1,.16,4.65,4.65,0,0,1-1.68-.57c-1.89-.89-3.67-2.94-3.4-5.17a3.82,3.82,0,0,1,1.31-2.43,7.57,7.57,0,0,1,1.7-.93c.65-.29,1.29-.6,2-.86C66.34,54.25,66.36,54.27,66.37,54.29Zm-1.16.61a10.57,10.57,0,0,0-2.42,1.29,3.64,3.64,0,0,0-1.29,3,5.3,5.3,0,0,0,1.51,3,7,7,0,0,0,2.75,1.65,3.65,3.65,0,0,0,1.77,0,7.13,7.13,0,0,0,1.72-.37c1-.4,2-.68,2.6-1.71a5.05,5.05,0,0,0-.95-6.07,4.84,4.84,0,0,0-5.62-.69S65.23,54.94,65.21,54.9Zm-2.09,5.6s0,0-.06,0a2.58,2.58,0,0,1-.34-2.33,3.51,3.51,0,0,1,1.78-1.84,9.83,9.83,0,0,1,2.65-.88,2.78,2.78,0,0,1,2.47.56,5.27,5.27,0,0,1,1.52,2A4.56,4.56,0,0,1,71,60.61a2.18,2.18,0,0,1-1.35,1.57,5.94,5.94,0,0,1-2.77.79A5.14,5.14,0,0,1,63.12,60.5ZM63,60.14l0,0a5.08,5.08,0,0,0,3.84,2.6,5.17,5.17,0,0,0,2.32-.58,5.8,5.8,0,0,0,1.07-.58,1.86,1.86,0,0,0,.63-1.13,3.71,3.71,0,0,0-.12-2.8,5.36,5.36,0,0,0-1.44-1.63c-1.3-.94-3.12-.24-4.44.34a4.07,4.07,0,0,0-1.83,1.42A2.25,2.25,0,0,0,63,60.14ZM64,58.93c-.2-.53.4-1,.78-1.25a5.21,5.21,0,0,1,2-.91,2.38,2.38,0,0,1,3,1.23A3.56,3.56,0,0,1,69,61.28c-.88,1.09-2.27.81-3.3.11a4.61,4.61,0,0,1-1.45-1.25A2.16,2.16,0,0,1,64,58.93Zm.19-.4h0c0,.83-.06,1.56.66,2.11a6.74,6.74,0,0,0,1.6,1,2.17,2.17,0,0,0,1.91,0,3.23,3.23,0,0,0,1.24-1.76,2.39,2.39,0,0,0-.2-2.26,2.05,2.05,0,0,0-1.82-.67,5,5,0,0,0-1.82.47A3.57,3.57,0,0,0,64.16,58.53Zm.87.32c0-.32.55-.45.8-.58a3.4,3.4,0,0,1,1.94-.58c1.2.21,1.09,1.54.69,2.4-.2.43-.54,1-1.06,1a1.81,1.81,0,0,1-1-.24,9.16,9.16,0,0,1-1-.42A1.12,1.12,0,0,1,65,58.85Zm.52-.21a.1.1,0,0,1,0,0,.9.9,0,0,0,0,1.64c.26.14.55.25.83.37.46.19,1,.44,1.43.08a2.42,2.42,0,0,0,.66-1.08c.19-.55.28-1.35-.33-1.66A1.48,1.48,0,0,0,67,58a6.93,6.93,0,0,0-1,.42C65.91,58.49,65.73,58.55,65.55,58.64Zm.61.68c0-.41.7-.57,1-.52a.59.59,0,0,1,.46.85c-.22.49-.86.44-1.25.22-.14-.08-.34-.18-.32-.37A.34.34,0,0,1,66.16,59.32Zm.37-.15-.09.12c0,.05-.16.11-.18.17-.09.23.22.36.37.42a.75.75,0,0,0,.92-.25.41.41,0,0,0-.28-.62,1.11,1.11,0,0,0-.48,0A1,1,0,0,0,66.53,59.17ZM13.7,40.87A7.09,7.09,0,0,1,17,42,5.56,5.56,0,0,1,19,44.83,4.17,4.17,0,0,1,17.23,50a8.08,8.08,0,0,1-3.35,1,4.57,4.57,0,0,1-2.79-1,5.36,5.36,0,0,1-1.8-5.4A5.09,5.09,0,0,1,11,42a3.25,3.25,0,0,1,2.7-1.14S13.69,40.86,13.7,40.87Zm-.31.15a3.88,3.88,0,0,0-2.63,1.44,4.57,4.57,0,0,0-1.43,2.9,4.91,4.91,0,0,0,2.76,4.87,6,6,0,0,0,5.35-.69,3.79,3.79,0,0,0,1.65-2.64,4.71,4.71,0,0,0-.69-3c-.88-1.76-3.07-2.66-4.94-2.78A.08.08,0,0,1,13.39,41Zm72.48-4s0,0,0,0a4.62,4.62,0,0,1,2.42.06,11,11,0,0,1,2.31,1.18,4.85,4.85,0,0,1,2.44,3.43,7,7,0,0,1-2.55,7.17A11.83,11.83,0,0,1,88.6,50a4.82,4.82,0,0,1-2.26.23A8.14,8.14,0,0,1,82.43,49a7.49,7.49,0,0,1-2.63-3.42,5.38,5.38,0,0,1,.11-4A7.1,7.1,0,0,1,85.87,37.05Zm.55.13a.07.07,0,0,1,0,0,7.1,7.1,0,0,0-6.53,5.37,4.93,4.93,0,0,0-.07,2.26,6.48,6.48,0,0,0,.92,1.91,6,6,0,0,0,2.79,2.48,9.55,9.55,0,0,0,3.77.69,4.15,4.15,0,0,0,2.13-.72A10,10,0,0,0,91.1,48a6.86,6.86,0,0,0,1.52-7.21,4.08,4.08,0,0,0-1.15-1.71,11.61,11.61,0,0,0-1.68-1.06A5.54,5.54,0,0,0,86.42,37.18ZM12.24,42.74a3.71,3.71,0,0,1,3.53,0,3.1,3.1,0,0,1,1.76,1.39,4.11,4.11,0,0,1,.31,2.27,3.06,3.06,0,0,1-1,2.09,6.42,6.42,0,0,1-1.18.57,5.24,5.24,0,0,1-1.2.44,2.86,2.86,0,0,1-2.28-.62A4,4,0,0,1,10.79,47a5,5,0,0,1,.2-2.3c.06-.23.13-.45.21-.67a.11.11,0,0,1,0-.08,3.12,3.12,0,0,1,1-1.24S12.23,42.73,12.24,42.74Zm-.77,1A5.05,5.05,0,0,0,11,45.34a3.62,3.62,0,0,0,0,1.73,3.8,3.8,0,0,0,.79,1.12,3.05,3.05,0,0,0,2.39,1.11,6.91,6.91,0,0,0,2.53-1c.88-.52,1.11-2,1-2.89A3.33,3.33,0,0,0,17.28,44a2.53,2.53,0,0,0-1.21-.9,4.39,4.39,0,0,0-2.69-.62A2.73,2.73,0,0,0,11.47,43.78Zm29.06-7.31a7.07,7.07,0,0,1,6.25,4.19,5.81,5.81,0,0,1-2.28,6.85,8.67,8.67,0,0,1-4,1.65A5.2,5.2,0,0,1,36.79,48,5.58,5.58,0,0,1,35,44.93a9,9,0,0,1-.3-4.16,5.57,5.57,0,0,1,5.82-4.31Zm-.29.18a6.26,6.26,0,0,0-3.86,1.47,5.37,5.37,0,0,0-1.65,3.76,10.38,10.38,0,0,0,.74,3.89,4.81,4.81,0,0,0,2.35,2.55,5.14,5.14,0,0,0,4,.22,10,10,0,0,0,3.34-1.89,5.72,5.72,0,0,0,1.75-3.1A4.92,4.92,0,0,0,46,39.69a7,7,0,0,0-5.69-3A.09.09,0,0,1,40.24,36.65Zm43.33,2.44c.44-.3.89-.6,1.35-.86a3.34,3.34,0,0,1,2-.36,6.36,6.36,0,0,1,1.94.43,5.65,5.65,0,0,1,1.6,1.24,5.55,5.55,0,0,1,1,5.76,4,4,0,0,1-.78,1.41,14.2,14.2,0,0,1-1.46,1.09,6,6,0,0,1-3.24,1,3.85,3.85,0,0,1-3.14-1.29,5.76,5.76,0,0,1-1.6-2.89,7.49,7.49,0,0,1,.24-3.42A4.07,4.07,0,0,1,83.57,39.09Zm.76-.3s0,0,0,0L82.62,40a2.63,2.63,0,0,0-1,1.75,6,6,0,0,0,.2,3.75,5.91,5.91,0,0,0,2.06,2.4,4.23,4.23,0,0,0,3.22.36,5.31,5.31,0,0,0,1.6-.45c.41-.23.77-.57,1.16-.84a3.29,3.29,0,0,0,1.2-1.2,5.79,5.79,0,0,0,.51-1.52,4.88,4.88,0,0,0-2.14-5.36,3.72,3.72,0,0,0-1.57-.63,6.06,6.06,0,0,0-1.75-.18A4.06,4.06,0,0,0,84.33,38.79ZM12.25,44.44a.06.06,0,0,1,0-.06,1.54,1.54,0,0,1,1.37-.91,3.18,3.18,0,0,1,2,.26,2.82,2.82,0,0,1,1.09,3A2.78,2.78,0,0,1,14,48.34a2.22,2.22,0,0,1-2.11-2A3.62,3.62,0,0,1,12.25,44.44Zm.87-.64s0,0,0,0c-.68.2-.95,1-1.08,1.68a2.13,2.13,0,0,0,.53,2,2.54,2.54,0,0,0,3.11.14,1.86,1.86,0,0,0,1-1.84A2.61,2.61,0,0,0,15.76,44,2.27,2.27,0,0,0,14,43.63,3.27,3.27,0,0,0,13.12,43.8Zm69.56-1.74a.22.22,0,0,1,0-.08,3.57,3.57,0,0,1,1.37-2.35,3.93,3.93,0,0,1,3.1-.64,3.51,3.51,0,0,1,2.09,1.06,5.48,5.48,0,0,1,.68,1.26,8.24,8.24,0,0,1,.6,1.32,2,2,0,0,1,0,1.13c-.15.46-.55.79-.74,1.25a4.45,4.45,0,0,1-.53,1.15,2.78,2.78,0,0,1-.86.66,3.4,3.4,0,0,1-2.71.51,5.66,5.66,0,0,1-2.34-1.77A4,4,0,0,1,82.63,43,7.6,7.6,0,0,1,82.68,42.06Zm-69.2,2.25a1,1,0,0,1,.2-.13,1.66,1.66,0,0,1,.76-.14,1.18,1.18,0,0,1,1,.72,1.63,1.63,0,0,1-.19,2.31,1.86,1.86,0,0,1-1.46.22,1.41,1.41,0,0,1-.94-.81A1.73,1.73,0,0,1,13.48,44.31Zm24.41-5.86a4.67,4.67,0,0,1,3-.56,6.47,6.47,0,0,1,1.7.25,3.76,3.76,0,0,1,1.37.92,6,6,0,0,1,1.74,2.35,3.77,3.77,0,0,1-.41,2.78,5,5,0,0,1-2.17,1.93,5,5,0,0,1-3.16,1,4.21,4.21,0,0,1-1.5-.24,2.94,2.94,0,0,1-.95-.94,6.2,6.2,0,0,1-1.28-2.7C36,41.75,36.09,39,37.89,38.45ZM13.18,44.73a1.58,1.58,0,0,0,.25,2.15,1.63,1.63,0,0,0,1.94-.18,1.27,1.27,0,0,0,.17-1.53,2.26,2.26,0,0,0-.53-.75,1.25,1.25,0,0,0-1.23-.08,3.19,3.19,0,0,0-.57.39A0,0,0,0,1,13.18,44.73ZM82.82,42.1a6,6,0,0,0,.05,1.79,2.94,2.94,0,0,0,.57,1.44,7.82,7.82,0,0,0,1,.92,3,3,0,0,0,2.26.86,4.49,4.49,0,0,0,2.19-1c.58-.47.62-1.29,1-1.89a1.67,1.67,0,0,0,.44-1.46,4.66,4.66,0,0,0-.47-1.13,4,4,0,0,0-1.4-2,4.59,4.59,0,0,0-2-.56A3.57,3.57,0,0,0,84,40a2.43,2.43,0,0,0-.7.83h0v0A4.76,4.76,0,0,0,82.84,42Zm-45-3.44A2.8,2.8,0,0,0,36.37,41a6.21,6.21,0,0,0,.43,3.38,7.32,7.32,0,0,0,.76,1.22,3.29,3.29,0,0,0,1,1A4,4,0,0,0,40,46.9a4.44,4.44,0,0,0,1.45-.14,8.68,8.68,0,0,0,2.38-1.36,3.73,3.73,0,0,0,1.13-1,5.68,5.68,0,0,0,.55-1.2,2.85,2.85,0,0,0-.6-2.91,6.44,6.44,0,0,0-2-1.83,6.37,6.37,0,0,0-2.61-.42,4.3,4.3,0,0,0-2.18.42s0,0,0,0l0,0-.21.13A.05.05,0,0,1,37.77,38.66ZM14.4,45.08a.92.92,0,0,1,.35,1,.5.5,0,0,1-.85.19.85.85,0,0,1-.22-1.07C13.82,45,14.25,44.84,14.4,45.08Zm-.09.09a.38.38,0,0,0-.16-.06.36.36,0,0,0-.37.15.64.64,0,0,0,.32.93.39.39,0,0,0,.53-.47A1.29,1.29,0,0,0,14.31,45.17Zm70.77-5a1.72,1.72,0,0,1,.82-.2,4.06,4.06,0,0,1,2.45.73,2.94,2.94,0,0,1,.88,3.25c-.36,1.23-1.49,2.57-2.91,2.14a3.28,3.28,0,0,1-1-.4,5.36,5.36,0,0,1-.79-.79A3.64,3.64,0,0,1,83.73,43a2.82,2.82,0,0,1,.73-2.3,1.1,1.1,0,0,1,.22-.21A3.69,3.69,0,0,1,85.08,40.15Zm-.33.41a3,3,0,0,0-.44,3.71,3.34,3.34,0,0,0,1.8,1.45,1.69,1.69,0,0,0,1.23.06,3.16,3.16,0,0,0,.87-.51,3,3,0,0,0,.32-4.16,4,4,0,0,0-2.17-1,2,2,0,0,0-1.17.09A4.39,4.39,0,0,0,84.75,40.56Zm-46.36-1a4.5,4.5,0,0,1,4.82.14,2.89,2.89,0,0,1,.92,3.54,3.86,3.86,0,0,1-3.31,2.42,2.81,2.81,0,0,1-2-.54,4.08,4.08,0,0,1-1-1.81,3.64,3.64,0,0,1,.48-3.62l0,0h0l.09-.09S38.38,39.52,38.39,39.54Zm-.15.27c-1.09,1.35-.7,3.58.36,4.86s3.44.86,4.48-.24a3.67,3.67,0,0,0,1.18-2.51A2.92,2.92,0,0,0,43,39.74a4.4,4.4,0,0,0-4.67.08S38.25,39.83,38.24,39.81ZM87.05,41.4a3.89,3.89,0,0,1,1,1,1.1,1.1,0,0,1,.13,1,1.85,1.85,0,0,1-2.53,1c-1-.41-.93-1.74-.62-2.57a1.44,1.44,0,0,1,1-1A1.18,1.18,0,0,1,87.05,41.4Zm-48.49,0a1.08,1.08,0,0,1,.41-1,3.94,3.94,0,0,1,2.24-.5,2.17,2.17,0,0,1,2.25,2.64,1.51,1.51,0,0,1-.35.6,6,6,0,0,1-.84.91,2.73,2.73,0,0,1-2.26.35C38.72,44.13,38.46,42.63,38.56,41.43Zm.09.32a3.34,3.34,0,0,0,.11,1.15A2,2,0,0,0,40,44.21,2.72,2.72,0,0,0,41.84,44,3.44,3.44,0,0,0,43.1,42.9a1.74,1.74,0,0,0-.3-2.21,2.28,2.28,0,0,0-1.58-.59,4.91,4.91,0,0,0-1.67.2,1.3,1.3,0,0,0-.73.47.72.72,0,0,0-.1.22l-.06.48c0,.08,0,.16,0,.23A.06.06,0,0,1,38.65,41.75Zm48-.44a1,1,0,0,0-.82-.12,1.39,1.39,0,0,0-.8,1c-.28.93-.09,2,1,2.11.79.05,1.62-.13,1.84-1s-.6-1.54-1.22-1.89C86.7,41.4,86.69,41.36,86.69,41.31Zm-.15.95a1.06,1.06,0,0,1,.46.88.74.74,0,0,1-.36.52.51.51,0,0,1-.58-.1.76.76,0,0,1-.19-1.15c.1-.16.26-.33.47-.28A.3.3,0,0,1,86.54,42.26ZM41.33,41.15a1.14,1.14,0,0,1,.85,1.62,1.47,1.47,0,0,1-1.9.71,1.59,1.59,0,0,1-.73-1.89A1.05,1.05,0,0,1,41.33,41.15Zm45,1.16c-.12,0-.22.09-.3.2a.79.79,0,0,0-.17.46.56.56,0,0,0,.31.39c.17.11.29.17.48,0a.44.44,0,0,0,.16-.54.62.62,0,0,0-.42-.44A.13.13,0,0,1,86.29,42.31ZM41.16,41.17a1,1,0,0,0-1.55.72,1.37,1.37,0,0,0,.84,1.49A1.29,1.29,0,0,0,42,42.75c.49-.82-.31-1.12-.81-1.54Zm-.06.75a.69.69,0,0,1,.26.38.49.49,0,0,1-.1.45.62.62,0,0,1-.91-.15.73.73,0,0,1,.25-.89C40.74,41.63,41.13,41.72,41.1,41.92Zm-.16-.06a.32.32,0,0,0-.25,0,.52.52,0,0,0-.29.65c.1.24.49.29.7.2.37-.16.06-.6-.14-.74A.06.06,0,0,1,40.94,41.86ZM66.25,26.75l0,0a4.64,4.64,0,0,1,1.87.35,2.51,2.51,0,0,1,1.27.89,6.06,6.06,0,0,1,1,3.55,8.83,8.83,0,0,1-.67,3.32,4.13,4.13,0,0,1-2.23,2,5.68,5.68,0,0,1-6.05-1.28,3.9,3.9,0,0,1-1.26-2.67,5.76,5.76,0,0,1,.53-3.25,5.25,5.25,0,0,1,2-2.29A7,7,0,0,1,66.25,26.75Zm.37.24h0a8.15,8.15,0,0,0-3.53.57A5.13,5.13,0,0,0,60.87,30a5.61,5.61,0,0,0-.31,3.46,4.06,4.06,0,0,0,1.75,2.39,5.43,5.43,0,0,0,5.52.53,3.8,3.8,0,0,0,2-2.26,8.32,8.32,0,0,0,.43-3.05,5.38,5.38,0,0,0-1.08-3A3.82,3.82,0,0,0,66.62,27Zm-3.78,1.94a3.37,3.37,0,0,1,2.51-1.21,4.17,4.17,0,0,1,2.82.61,4.1,4.1,0,0,1,1.45,2.14,2.82,2.82,0,0,1-.16,2.37A5.14,5.14,0,0,1,67.87,35a3.53,3.53,0,0,1-2.46.91,4.39,4.39,0,0,1-3.51-3.3,5.21,5.21,0,0,1,.17-2.45A3,3,0,0,1,62.84,28.93Zm.89-.53s0,0,0,0a3.55,3.55,0,0,0-1.63,2.26,4,4,0,0,0,.32,2.76c.78,1.3,2.39,2.59,4,2.15a4.73,4.73,0,0,0,2-1.26,6.38,6.38,0,0,0,1.19-2.09,3.36,3.36,0,0,0-.54-2.8,3.11,3.11,0,0,0-1.65-1.31A4.46,4.46,0,0,0,65,28,4.51,4.51,0,0,0,63.73,28.4Zm.48.93s0,0,0,0a3,3,0,0,1,4,.51,2.48,2.48,0,0,1,.54,1.73,2.23,2.23,0,0,1-.54,1.63c-.84,1-2,1.92-3.34,1.41a3.39,3.39,0,0,1-1.49-1.34,3,3,0,0,1-.28-1.79A3,3,0,0,1,64.21,29.33Zm.81-.26a3.08,3.08,0,0,0-1.66,3.53A2.84,2.84,0,0,0,65,34.32a2.14,2.14,0,0,0,2-.27,5.85,5.85,0,0,0,1.37-1.35,2.46,2.46,0,0,0-.07-2.56A3,3,0,0,0,65,29.07Zm-.25,1.13a.1.1,0,0,1,.07-.07,4.55,4.55,0,0,1,1.8,0c.32.07.77.21.85.57.19.86-.76,1.74-1.37,2.14C64,34.23,63.54,30.74,64.77,30.2Zm.18.15c-.79.24-.93,1.78-.38,2.32s1.47,0,1.94-.46,1.28-1.45.24-1.79A4,4,0,0,0,65,30.35Zm.68.63a0,0,0,0,1,0,0c.29-.12.47.31.43.53a.63.63,0,0,1-.75.45c-.14,0-.31-.05-.37-.2a.64.64,0,0,1,0-.41A.53.53,0,0,1,65.63,31Zm0,.15a.47.47,0,0,0-.51.19.54.54,0,0,0-.09.25c0,.16.17.16.28.17a.55.55,0,0,0,.53-.19C66,31.32,65.82,31.23,65.67,31.13Zm-42-14.93s0,0,.06,0a5.9,5.9,0,0,1,5.55,3.39,4.19,4.19,0,0,1,.17,3.09,6.24,6.24,0,0,1-1.9,2.88,4.43,4.43,0,0,1-3.24.63,5.53,5.53,0,0,1-3.14-1,5.43,5.43,0,0,1-1.63-5.41A4.56,4.56,0,0,1,23.63,16.2Zm0,.15a4.49,4.49,0,0,0-4.09,4.12,4.79,4.79,0,0,0,2.48,4.94,8,8,0,0,0,3,.51,3.46,3.46,0,0,0,2.84-1.15,6.08,6.08,0,0,0,1.46-2.89,4.2,4.2,0,0,0-.9-3.18,6,6,0,0,0-4.8-2.34ZM21.84,18c1.55-1.29,3.61-.45,5.09.53a3.22,3.22,0,0,1,1.5,1.63,3.42,3.42,0,0,1-.39,2.4,3.57,3.57,0,0,1-3.69,2.23,3.51,3.51,0,0,1-3.46-2.58C20.6,20.91,20.54,18.85,21.84,18Zm0,.2A3.23,3.23,0,0,0,20.89,21a3.44,3.44,0,0,0,1.05,2.71A4.27,4.27,0,0,0,26.8,24a4.75,4.75,0,0,0,1.49-2.62A2.35,2.35,0,0,0,27,18.84c-1.4-1-3.38-1.88-4.93-.78h0a1.56,1.56,0,0,0-.2.16S21.81,18.25,21.8,18.23ZM0,13.37c.35,0,.71,0,1.06,0a3.86,3.86,0,0,1,1.32.23,5.59,5.59,0,0,1,4.2,5.55A5.69,5.69,0,0,1,2,23.94,6.11,6.11,0,0,1,0,24v-.29a6.09,6.09,0,0,0,2.47-.21c2.13-.64,4.08-2.59,4-4.95a5.57,5.57,0,0,0-3.71-4.63.05.05,0,0,1-.08,0l-.15-.09a3.78,3.78,0,0,0-.57-.1s-.07,0-.08-.1a8.22,8.22,0,0,0-1.3-.07l-.54,0Zm100,0v.25a6.58,6.58,0,0,0-1.53.23,4.72,4.72,0,0,0-2.74,2.22,5.05,5.05,0,0,0,1,6.09A5.68,5.68,0,0,0,100,23.73V24a5.83,5.83,0,0,1-4.14-2.51A5.28,5.28,0,0,1,96,15.29a4.74,4.74,0,0,1,2.87-1.79A8.5,8.5,0,0,1,100,13.37ZM22.16,19.56a1.61,1.61,0,0,1,.74-.72,2.58,2.58,0,0,1,1.84-.43A3,3,0,0,1,27,20.85a2.58,2.58,0,0,1-1.48,2.74,2.75,2.75,0,0,1-3.12-1,2.88,2.88,0,0,1-.21-3Zm-.05.36a2.67,2.67,0,0,0,1.1,3.2,2.75,2.75,0,0,0,1.56.41,2.22,2.22,0,0,0,1.69-1.08,2.6,2.6,0,0,0-1.09-3.61,2.37,2.37,0,0,0-1.77-.19c-.52.16-1.4.58-1.41,1.23C22.19,20,22.13,20,22.11,19.92Zm1,0h0a1.41,1.41,0,0,1,2.32-.2,2.17,2.17,0,0,1,.06,2.7c-.74.83-2.17.09-2.61-.74A1.72,1.72,0,0,1,23.14,19.9Zm0,.13a2.26,2.26,0,0,0-.22.47A1.34,1.34,0,0,0,23.4,22c.66.52,1.68.88,2.18,0a1.83,1.83,0,0,0-.65-2.43,1.29,1.29,0,0,0-1.19,0,.05.05,0,0,1,0,.05,1.41,1.41,0,0,0-.29.18,1.55,1.55,0,0,0-.2.28S23.19,20,23.17,20ZM0,14.77a5.47,5.47,0,0,1,1.4.08,5.77,5.77,0,0,1,2.48.91A5,5,0,0,1,5.29,18a2.51,2.51,0,0,1-.35,2.25,3.75,3.75,0,0,1-1.79,1.64A7.08,7.08,0,0,1,0,22.45v-.26a7,7,0,0,0,3.17-.59A3.61,3.61,0,0,0,4.84,20a2.54,2.54,0,0,0-.13-2.85,3.2,3.2,0,0,0-1.62-1.56A7.55,7.55,0,0,0,.8,15,7.09,7.09,0,0,0,0,15Zm100,0V15a5.67,5.67,0,0,0-1.62.36,2.68,2.68,0,0,0-1.67,1.3,5.43,5.43,0,0,0,.08,3,4.21,4.21,0,0,0,1.77,2.13,3.6,3.6,0,0,0,1.44.43v.26a3.42,3.42,0,0,1-2.15-.92,5,5,0,0,1-1.3-2.13,5,5,0,0,1,0-2.49.11.11,0,0,1,0-.1,2.48,2.48,0,0,1,1.73-1.64A5.8,5.8,0,0,1,100,14.77ZM23.94,20.33c.22-.35.79-.09,1,.15a.57.57,0,0,1,.13.54,1,1,0,0,1-.39.61c-.34.23-.84-.21-.95-.52A.71.71,0,0,1,23.94,20.33Zm.28,0s0,.05,0,.05a.53.53,0,0,0-.29.81.91.91,0,0,0,.63.39c.17,0,.33-.29.39-.43a.51.51,0,0,0-.22-.65A.9.9,0,0,0,24.22,20.3ZM0,15.58a4.75,4.75,0,0,1,1.48.1,3.73,3.73,0,0,1,2.09,1.07,2.78,2.78,0,0,1,.33,3.39c-.89,1.29-2.46,1.19-3.83,1H0v-.24A4.09,4.09,0,0,0,.6,21a4,4,0,0,0,2-.12,2.58,2.58,0,0,0,1.5-1.69,2.87,2.87,0,0,0-.67-2.24,3.42,3.42,0,0,0-2-1.05,4.9,4.9,0,0,0-1.21-.07H0Zm100,0v.21a4.7,4.7,0,0,0-.53,0,.05.05,0,0,1,0,0,2.24,2.24,0,0,0-1,.56,2.76,2.76,0,0,0-.52,1A2.58,2.58,0,0,0,98,18.86a3,3,0,0,0,.56,1.29,2.89,2.89,0,0,0,1.49.74v.24a2.86,2.86,0,0,1-1.66-.91,3.83,3.83,0,0,1-.64-1.82,2.57,2.57,0,0,1,2.3-2.82ZM0,16.43a2.91,2.91,0,0,1,1.93.05,2.92,2.92,0,0,1,1.39,1.23,1.91,1.91,0,0,1-1.25,2.78A2.73,2.73,0,0,1,0,20.26V20a2.6,2.6,0,0,0,2.17.15,1.94,1.94,0,0,0,1.16-1.1,1.75,1.75,0,0,0-.57-1.83A2.82,2.82,0,0,0,0,16.59Zm100,0v.16h0a1.45,1.45,0,0,0-.94.72,1.92,1.92,0,0,0,.19,2A2.23,2.23,0,0,0,100,20v.22a2.47,2.47,0,0,1-1.2-1.52,1.92,1.92,0,0,1,.13-1.54,1.38,1.38,0,0,1,.69-.6.08.08,0,0,1,0-.07ZM0,17.48a1,1,0,0,1,.31-.15,1.8,1.8,0,0,1,2,.35A1.54,1.54,0,0,1,2,19.63a1.25,1.25,0,0,1-1.27,0,1.37,1.37,0,0,1-.7-.57v-.27l.24.32a1.23,1.23,0,0,0,1.9.09,1.17,1.17,0,0,0-.38-1.74A2.13,2.13,0,0,0,0,17.62H0l0,0ZM1.28,18h.1a1,1,0,0,1,.2.16.45.45,0,0,1,.14.4c0,.36-.2.64-.6.53a.78.78,0,0,1-.46-.32.54.54,0,0,1,0-.48A.47.47,0,0,1,1,18,.34.34,0,0,1,1.28,18ZM100,17.48v.17a.78.78,0,0,0-.15.88,1.35,1.35,0,0,0,.15.26v.27c-.08-.13-.16-.26-.23-.4A.94.94,0,0,1,100,17.48Zm-98.64.68h0c-.1,0-.18-.07-.28-.06a.35.35,0,0,0-.31.29.37.37,0,0,0,.21.5.57.57,0,0,0,.31.06.32.32,0,0,0,.33-.26.47.47,0,0,0-.1-.41l-.1-.09ZM75.77,8.42a5.89,5.89,0,0,1,5.4,3.51,3.44,3.44,0,0,1,.21,1.56,7.13,7.13,0,0,1-.17,1.6,3.79,3.79,0,0,1-1.55,2.29,5.08,5.08,0,0,1-3.25.61,6.68,6.68,0,0,1-3.15-.65A6,6,0,0,1,71.12,15c-.49-1-.14-2.31-.06-3.38a3.55,3.55,0,0,1,1.56-2.42,6.37,6.37,0,0,1,3.11-.83S75.76,8.4,75.77,8.42Zm-.39.19a5.88,5.88,0,0,0-2.92,1,4.06,4.06,0,0,0-1,1.35,4.7,4.7,0,0,0-.29,1.75,4.71,4.71,0,0,0,0,1.87,3.83,3.83,0,0,0,.86,1.3,4.55,4.55,0,0,0,2.38,1.61,11.79,11.79,0,0,0,2.9.27A3.94,3.94,0,0,0,80,16.81a3.93,3.93,0,0,0,1.2-2.7,5.7,5.7,0,0,0,0-1.7,4.32,4.32,0,0,0-.79-1.4,5.59,5.59,0,0,0-5-2.39Zm-28.85-1s0,0,.07,0a5.12,5.12,0,0,1,1.93.32,7.57,7.57,0,0,1,1.84.81,4.54,4.54,0,0,1,1.5,2.79,4.6,4.6,0,0,1-2,4.84,4.42,4.42,0,0,1-3,.49c-.63-.07-1.27-.13-1.88-.25a2.69,2.69,0,0,1-1.29-.73,5.42,5.42,0,0,1-1.77-2.38A6.35,6.35,0,0,1,42,10.3C42.53,8.21,44.62,7.7,46.53,7.58Zm25.94,3.95v0c-.2-2,2.33-2.35,3.75-1.94a13.33,13.33,0,0,1,1.4.43,5.26,5.26,0,0,1,1.08.73,3.85,3.85,0,0,1,1.36,1.73A4.42,4.42,0,0,1,80,14.93a2,2,0,0,1-1.43,1.57c-.49.1-1,0-1.51.09a4.9,4.9,0,0,1-1.43,0,4.81,4.81,0,0,1-2.2-.94,3.31,3.31,0,0,1-1-3.07v0C72.41,12.22,72.43,11.88,72.47,11.53ZM47,7.76a.05.05,0,0,1-.05,0,8,8,0,0,0-3.28.72A3.23,3.23,0,0,0,42,11.17a4.24,4.24,0,0,0,.46,3,6.23,6.23,0,0,0,1,1.07,3.75,3.75,0,0,0,1.11.84,7.85,7.85,0,0,0,1.68.27c.46.06.92.13,1.39.15a3.81,3.81,0,0,0,2.47-.79,4.38,4.38,0,0,0,1.36-5,5.17,5.17,0,0,0-.7-1.31,2.73,2.73,0,0,0-1.18-.88A7.45,7.45,0,0,0,47,7.76Zm25.5,4.91a5,5,0,0,0,.05,1.4,2.9,2.9,0,0,0,1.9,2,5.07,5.07,0,0,0,2.75.27,6.29,6.29,0,0,0,1.57-.12,2,2,0,0,0,1-1.23,3.42,3.42,0,0,0-.28-3.27,5.37,5.37,0,0,0-2.23-1.66,5.67,5.67,0,0,0-2.72-.43,2.09,2.09,0,0,0-1.91,1.44c0,.27,0,.55-.07.82a3.64,3.64,0,0,1-.06.74A.43.43,0,0,1,72.49,12.67ZM73.76,11A1.8,1.8,0,0,1,75,10.12a4,4,0,0,1,2.16.54,3.16,3.16,0,0,1,2,2.61A3.36,3.36,0,0,1,78.83,15a1.83,1.83,0,0,1-1.34.76,3.7,3.7,0,0,1-2-.24A3.27,3.27,0,0,1,74,14.61a4.24,4.24,0,0,1-.3-3.47v0l0-.11S73.75,11,73.76,11ZM45.28,8.75a2.54,2.54,0,0,1,2.37-.07,7.68,7.68,0,0,1,2.5,1.46A1.9,1.9,0,0,1,50.8,12a4.83,4.83,0,0,1-.6,2.17c-.84,1.31-2.8,1.6-4.23,1.31a3.34,3.34,0,0,1-1.91-1.28,3.16,3.16,0,0,1-1-1.93A3.81,3.81,0,0,1,43.58,10,4.75,4.75,0,0,1,45.28,8.75Zm28.49,2.41a5.61,5.61,0,0,0-.12,2.12,2.3,2.3,0,0,0,.55,1.33A2.38,2.38,0,0,0,75,15a4.78,4.78,0,0,0,2,.52,1.9,1.9,0,0,0,1.88-1,3,3,0,0,0-.12-2.23,3.61,3.61,0,0,0-1.51-1.41,4.46,4.46,0,0,0-1.88-.59,1.7,1.7,0,0,0-1,.23A2.15,2.15,0,0,0,73.77,11.16ZM45.15,9a3.66,3.66,0,0,0-1.64,1.46,3.2,3.2,0,0,0,.23,3,4.12,4.12,0,0,0,1.93,1.67,5.07,5.07,0,0,0,2.73-.07,2.71,2.71,0,0,0,1.92-1.65,4.89,4.89,0,0,0,.27-1.19,1.82,1.82,0,0,0-.4-1.76A7.69,7.69,0,0,0,47.93,9a2.51,2.51,0,0,0-2.71,0S45.17,9.05,45.15,9Zm29.39,3c.81-2,4.58.08,3.32,2a2.07,2.07,0,0,1-2.91.34A2,2,0,0,1,74.5,12S74.52,12,74.54,12Zm0,.29a1.69,1.69,0,0,0,.84,2.15A1.94,1.94,0,0,0,77.64,14c1.48-1.77-2.42-4-3.09-1.8T74.52,12.27ZM45.31,10c.28-.46.9-.41,1.38-.38a4.18,4.18,0,0,1,2.05.54,2,2,0,0,1,.69,2.69,2.69,2.69,0,0,1-2.89,1.57,2.27,2.27,0,0,1-2.15-2.08A2.6,2.6,0,0,1,45.31,10ZM75.43,12c.92-.87,2.69.8,1.68,1.89a1.2,1.2,0,0,1-1.83-.13A1.58,1.58,0,0,1,75.37,12S75.42,12,75.43,12ZM45.79,9.81a.06.06,0,0,1,0,.08,2.43,2.43,0,0,0-.92,3.34,2.72,2.72,0,0,0,3.5.52,3,3,0,0,0,1.06-1.36,1.67,1.67,0,0,0-.61-2A3.56,3.56,0,0,0,47,9.8,3.24,3.24,0,0,0,45.79,9.81ZM75.4,12.2a1.33,1.33,0,0,0,.11,1.61,1.14,1.14,0,0,0,1.37,0C78.09,12.89,76.12,11.26,75.4,12.2Zm.81.38,0,0a.6.6,0,0,1,.35.61c0,.12-.07.26-.2.29a.44.44,0,0,1-.36-.13c-.19-.15-.38-.44-.16-.65A.54.54,0,0,1,76.21,12.58Zm-29.94-2s0-.08.06-.08c.72,0,2.07.21,2.19,1.11a1.94,1.94,0,0,1-1.38,1.76,1.46,1.46,0,0,1-1.67-1.21C45.42,11.62,45.69,10.73,46.27,10.57Zm30.1,2.2s-.05,0-.05,0-.21,0-.24,0a.3.3,0,0,0-.17.12c-.1.17.17.34.3.4s.18.07.24,0a.35.35,0,0,0,0-.25A.41.41,0,0,0,76.37,12.77ZM46.48,10.68a1.33,1.33,0,0,0-.77,1.74,1.24,1.24,0,0,0,1.63.61,2.5,2.5,0,0,0,.56-.47,1.48,1.48,0,0,0,.36-.47.4.4,0,0,0,0-.5.47.47,0,0,0-.36-.54A3.07,3.07,0,0,0,46.48,10.68Zm.31.72h0a.44.44,0,0,1,.62.3.7.7,0,0,1-.37.77.47.47,0,0,1-.66-.4A.61.61,0,0,1,46.79,11.4Zm.12.1,0,0a.47.47,0,0,0-.36.58.33.33,0,0,0,.5.16c.19-.11.37-.37.26-.59A.38.38,0,0,0,46.91,11.5ZM99.07,0a5.28,5.28,0,0,1-.13,1.85,7.5,7.5,0,0,1-1.46,2.9,4.54,4.54,0,0,1-3,1.25,5.12,5.12,0,0,1-1.81-.36A18.8,18.8,0,0,1,90.88,5,4.52,4.52,0,0,1,88.6,3.07a5,5,0,0,1,0-3.07h.18c0,.08,0,.17,0,.25-.19,1.13-.4,2.36.46,3.27A6.62,6.62,0,0,0,91.71,5a6.17,6.17,0,0,0,3.07.6A4.1,4.1,0,0,0,97.6,4.17a7.72,7.72,0,0,0,1.27-2.89A5,5,0,0,0,98.9,0ZM97.93,0a4.21,4.21,0,0,1-.32,1.72,5.19,5.19,0,0,1-1.76,2,3.17,3.17,0,0,1-2.41.58,3.23,3.23,0,0,1-2.26-1,3.65,3.65,0,0,1-1.11-2.17C90,.81,90,.41,90,0h.15a4.2,4.2,0,0,0,.79,2.68A4,4,0,0,0,92,3.7,3.46,3.46,0,0,0,93.44,4,3.72,3.72,0,0,0,95,3.91a3.7,3.7,0,0,0,1.16-.76A4.13,4.13,0,0,0,97.67.64,3.47,3.47,0,0,0,97.73,0ZM24.05,0a7.43,7.43,0,0,1-1.23,2.41,3.25,3.25,0,0,1-2.3,1.07c-1.74.22-3.72-.26-4.58-1.94A2.89,2.89,0,0,1,15.65,0h.19a2.6,2.6,0,0,0,.51,1.8,4.48,4.48,0,0,0,4.43,1.36A2.83,2.83,0,0,0,22.88,2a7.38,7.38,0,0,0,1-1.95ZM96.9,0a3,3,0,0,1-.21,1.36,3.05,3.05,0,0,1-2.91,1.91,3.65,3.65,0,0,1-1.73-1A3.85,3.85,0,0,1,91.11.64,2.15,2.15,0,0,1,91,0h.16a2.49,2.49,0,0,0,.31.93,4.78,4.78,0,0,0,.45.87,4.91,4.91,0,0,0,.88.75,1.91,1.91,0,0,0,1,.46,2.5,2.5,0,0,0,1.88-.61A2.91,2.91,0,0,0,96.73,0ZM69.31,0a3.74,3.74,0,0,1-.77,1.15,4.16,4.16,0,0,1-2.7,1.1A6.87,6.87,0,0,1,60.48,0h.33c0,.06.11.11.17.17a6.57,6.57,0,0,0,5.3,1.76A3.73,3.73,0,0,0,68.79.5a4.14,4.14,0,0,0,.3-.5ZM96,0a2.19,2.19,0,0,1-.67,1.68,1.79,1.79,0,0,1-1.49.54,1.7,1.7,0,0,1-1.41-.87A2,2,0,0,1,92.21,0h.14a1.94,1.94,0,0,0,.31,1.33,1.78,1.78,0,0,0,2.51.23A2,2,0,0,0,95.88,0ZM22.73,0c0,.07-.05.14-.07.2a3.12,3.12,0,0,1-2.86,2c-1.21,0-2.66-.69-2.81-2,0-.07,0-.13,0-.2h.15a1.83,1.83,0,0,0,.6,1.25,3.09,3.09,0,0,0,3.92,0A2.85,2.85,0,0,0,22.53,0ZM95.27,0a1.83,1.83,0,0,1-.63,1.14.9.9,0,0,1-.91.14,1.16,1.16,0,0,1-.57-.62,1.13,1.13,0,0,1-.1-.66h.14a1.06,1.06,0,0,0,.2.71.8.8,0,0,0,.58.38.67.67,0,0,0,.61-.21A1.73,1.73,0,0,0,95,.23a.66.66,0,0,0,0-.23ZM21.8,0a2.2,2.2,0,0,1-.18.41,1.6,1.6,0,0,1-1.35.87A2.47,2.47,0,0,1,18.56,1,1.5,1.5,0,0,1,18,0h.14a1.23,1.23,0,0,0,.68.83A2.3,2.3,0,0,0,21.34.49,2.6,2.6,0,0,0,21.62,0Zm46,0c-.19.19-.4.37-.6.54a2.65,2.65,0,0,1-2.27.62A4.84,4.84,0,0,1,62.59,0h.31a5,5,0,0,0,1.86.91A2.85,2.85,0,0,0,67.45,0ZM94.54,0a.37.37,0,0,1,0,.29A.52.52,0,0,1,94,.67c-.1,0-.2,0-.24-.14a1,1,0,0,1,0-.38A.94.94,0,0,1,93.82,0h.23a.29.29,0,0,0-.16.18.71.71,0,0,0,0,.21c0,.09.07.1.16.1a.4.4,0,0,0,.38-.17.22.22,0,0,0,0-.32ZM21,0a1,1,0,0,1-.52.39A1.57,1.57,0,0,1,18.93,0h.36l.07,0a2.06,2.06,0,0,0,.77.18A.92.92,0,0,0,20.72,0Z" style="fill:#f5f5f5;opacity:0.25"/></g></g></svg>