<svg xmlns="http://www.w3.org/2000/svg" viewBox="0 0 595.28 595.28"><title>circles_white_1</title><g id="Layer_2" data-name="Layer 2"><g id="Layer_1-2" data-name="Layer 1"><path d="M101.06,595.28a38,38,0,0,1,1.52-12.19,15.7,15.7,0,0,1,3.55-6.57.66.66,0,0,1,.07-.32c4.39-8.17,17.06-4,22.91-.21,3.13,2,6.27,4.3,6.89,8.2a26.2,26.2,0,0,1-.72,11.09h-1.15a19.59,19.59,0,0,0,.88-3.85,22.2,22.2,0,0,0,0-7.32c-.65-2.77-3-4.41-5.14-6-3.45-2.48-7.6-4.66-11.88-5.17-3.14-.38-7,0-9.52,2.12a.49.49,0,0,1-.08.44,15,15,0,0,0-1.37,1.26c-.06.09-.11.19-.17.29s-.19.23-.29.21c-2.54,2.91-3.63,6.52-4.14,10.51a34.41,34.41,0,0,0-.39,7.48Zm457.44,0a2.11,2.11,0,0,1,2-1.25.21.21,0,0,1,.19,0,3.9,3.9,0,0,1,2,1,1.64,1.64,0,0,1,.14.22h-1.07a1.72,1.72,0,0,0-.55-.25.23.23,0,0,1-.21.08,2.32,2.32,0,0,0-1.09.17Zm-445.82,0a4.77,4.77,0,0,1-1.26-3.12c-.08-4.25,2.38-9.41,7-10.12h.06a7.61,7.61,0,0,1,4.77.73,7,7,0,0,1,3.2,4.45,9.8,9.8,0,0,1-1.45,8.06h-1.6a7.33,7.33,0,0,0,2.25-7.52c-.78-2.79-5.13-6.54-8.19-4.34-.18.13-.33,0-.41-.13a9.53,9.53,0,0,0-4.64,7.2,4.37,4.37,0,0,0,2.46,4.79Zm428.91,0c-.28-4.82,2.13-9.06,5.94-12.08,3.26-3,7.9-3.34,12.22-3.38s9,.79,12.18,4.07a18.62,18.62,0,0,1,4.9,11.39h-1a17.08,17.08,0,0,0-3.81-9.67c-3.08-3.83-8.15-4.63-12.78-4.53-3.29.08-7.09.11-10,1.8-.57.42-1.13.84-1.66,1.28l-.32.34c-.06.07-.12.09-.17.07a12.23,12.23,0,0,0-4.6,8.29,10.87,10.87,0,0,0,0,2.42Zm-14.38,0c.11-.52.21-1,.31-1.55,1.24-6.3,3.22-12.56,7.48-17.51,4.41-5.13,10.11-7,16.71-7.39a66.24,66.24,0,0,1,21.12,2.2.32.32,0,0,1,.3,0l.25.13,1.14.33a.5.5,0,0,1,.28.48,31.12,31.12,0,0,1,14.93,23.29h-1a29.61,29.61,0,0,0-15.82-22.65.75.75,0,0,1-.34-.54c-12.6-3.18-29.68-5-38.08,6.69-3.5,4.85-5.11,10.69-6.17,16.5Zm8.3,0c-.29-7.07.92-14.67,7.91-17.3,1.24-1,2.77-1,4.47-1.21,3.52-.43,6.72-1.88,10.18-2.51,3.27-.59,6.32.74,9.35,1.84a40.71,40.71,0,0,1,7.88,3.62,15,15,0,0,1,7.38,11.46,31,31,0,0,1,.3,4.1h-1.21c.08-5.27-1.54-10.31-6.12-13.54a34.63,34.63,0,0,0-7.56-3.82c-2.8-1.09-5.87-2.51-8.92-2.33-2.78.18-5.49,1.56-8.22,2.12-2.34.47-6.29,0-8,1.84-.13.14-.25.08-.33-.06-4.71,2.8-6.29,8.71-6.2,14.1,0,.56,0,1.12,0,1.69Zm-175.47,0a30.2,30.2,0,0,1-2.69-3.61c-3.46-5.44-3.54-12.34-2.66-18.54.91-6.39,3.55-12.47,8.64-16.61s11.67-6,18.15-6.13a51.2,51.2,0,0,1,11.9,1.25,28.23,28.23,0,0,1,3.37.89c13.36,4.17,20.9,17.72,19,31.41a41.73,41.73,0,0,1-3.13,11.34h-1.3a35.33,35.33,0,0,0,3.81-17.15c-.34-9.66-6.35-18.2-14.74-22.53-.07.08-.16.1-.27,0l-.31-.29a27.39,27.39,0,0,0-4.6-1.74.54.54,0,0,1-.35-.44c-1.62-.37-3.29-.57-4.72-.79a44.43,44.43,0,0,0-10.74-.49c-6.6.58-13.3,3.19-17.85,8.15s-6.16,12-6.25,18.7a21.76,21.76,0,0,0,6.7,16.58Zm188.89,0c.06-.67.14-1.38.22-2.11a9.37,9.37,0,0,1,3.64-6.78,4.76,4.76,0,0,1,1.15-1l.07,0a.29.29,0,0,1,.16-.09c2.19-1.25,5.34-1.2,7.65-1.1a9.45,9.45,0,0,1,7.88,4.25,13.29,13.29,0,0,1,2,6.88h-1a10.81,10.81,0,0,0-2.15-6.58c-1.91-2.48-4.68-3.13-7.67-3.25-2.18-.08-4.82-.26-6.7.95-2,2.13-3.68,3.5-4.19,6.66-.12.76-.22,1.5-.28,2.22Zm-176.34,0a26.9,26.9,0,0,1-7.9-12.47c-2.11-7.35-.56-16.09,4.74-21.71a.28.28,0,0,1,.1-.2,3.55,3.55,0,0,0,.31-.23c.29-.29.59-.56.9-.83a17.75,17.75,0,0,1,2.42-2.41c.28-.19.81,0,1-.09,1-.33,1.66-.52,2.54-.9a15.9,15.9,0,0,1,8-1.7,37.23,37.23,0,0,1,16.66,6c4.19,2.83,6,7.59,7.4,12.23a20.12,20.12,0,0,1-5.39,22.27h-1.87l.41-.38c4.69-4.42,7.61-9.32,7.05-16-.48-5.64-2.94-13-7.65-16.53a36.86,36.86,0,0,0-8.11-4,28,28,0,0,0-8.95-2.39c-3.06-.16-5.37.92-8.17,1.82-.86.27-1.72.35-2.53.68a.23.23,0,0,1-.07.11c-4.8,3.65-8.74,10.14-9,16.25a25.49,25.49,0,0,0,5.84,16.56,26.47,26.47,0,0,0,4.08,3.88Zm-279.43,0a42.63,42.63,0,0,1,1-6.4c1.14-5.19,1.66-11.68,4.86-16.12,2.88-4,7.57-6.06,12.28-7a59.46,59.46,0,0,1,10.33-.78c2.78,0,5.33.08,7.81,1.47a.58.58,0,0,1,.24.46c5,2.76,9.63,6.34,12.44,11.45s2.89,10.82,1.24,16.32c0,.18-.11.37-.17.55h-1.24c.15-.46.3-.92.43-1.38,3.76-12.74-5-21-15.06-27a.4.4,0,0,1-.13-.13,23.58,23.58,0,0,0-6.62-.44,57.67,57.67,0,0,0-8.71.68c-5.38,1-11,3.65-13.37,8.91-2,4.53-2.63,10.14-3.63,15a30.63,30.63,0,0,0-.59,4.35Zm460.79,0a7,7,0,0,1,3-5,.18.18,0,0,1,.13,0c2.64-1.51,7.23.08,9.08,2.17a4,4,0,0,1,1,2.91H566c0-1.5-1-2.56-2.55-3.3s-4.48-1.79-6.26-.88a.27.27,0,0,1-.08.07,5.64,5.64,0,0,0-.79.66l-.11.16a.25.25,0,0,1-.15.13,5.69,5.69,0,0,0-1.24,3.16Zm-447,0c-.68-3.57.37-7.64,2-11a.49.49,0,0,1,0-.24c1.67-8.5,11.24-8.69,17.52-4.87,5.12,3.12,5.11,10.63,3.26,16.09h-1.07c2.26-5.47,1.51-13.06-4-15.68a15.79,15.79,0,0,0-8.11-1.69,7.56,7.56,0,0,0-6.12,4.47.28.28,0,0,1,0,.16c-.28.63-.56,1.3-.84,2l0,0c-1.36,3.4-2.58,7.41-1.8,10.71Zm269.44-32a12.66,12.66,0,0,1,5.43-1.75c4.51-.58,9.52-.24,13.53,2.18,4.94,3,9.73,11.84,8.1,17.62a20.11,20.11,0,0,1-6,9.37c-3.06,2.62-6.46,3.29-10.38,3.44-3.69.14-7.23,0-10.12-2.51-2.51-2.23-4.11-5.43-5.42-8.47C369,577.36,370.49,571,374,566a7,7,0,0,1,1.53-2l.58-.65C376.22,563.18,376.33,563.19,376.42,563.27ZM120.21,587.13a2.8,2.8,0,0,1,2.29,3.37c-.36,1.74-2.19,3.47-4,3.19-4-.59-2-8,1.68-6.61Zm253.92-19.64A20.49,20.49,0,0,0,371,576c-.49,4.07,2.18,9,4.66,12.17,4.75,6.11,15.66,6.22,21.38,1.35,3.65-3.09,6.6-8.15,5.62-13a21.13,21.13,0,0,0-6.12-10.71c-2.74-2.46-7.74-3.61-11.28-3.48-2.86.1-6.55.35-8.92,2.16a30.42,30.42,0,0,0-1.92,2.59l0,.1A.4.4,0,0,1,374.13,567.49ZM119.82,587.73c-2.7-.53-4.06,4.71-1,4.78a3.43,3.43,0,0,0,2.74-1.72c.89-1.46-.28-2.72-1.65-3Zm259.6-17.26c.68-2,2.37-2.68,4.51-3.08,3.56-.67,6.3-.29,9.26,1.87a10,10,0,0,1,2,14.33c-3.72,4.69-11,5.17-14.68.27C377.69,580.13,377,574.56,379.42,570.47Zm1.7-1.19a.26.26,0,0,1-.05.12,11.13,11.13,0,0,0,.33,13.79c3.1,3.77,8,3.84,11.63.75a8.56,8.56,0,0,0-.62-13.9,10.74,10.74,0,0,0-6.24-2.25A9.68,9.68,0,0,0,381.12,569.28Zm3.79,5c1.57-1.63,3.83,1,4.24,2.45.48,1.76.66,4.48-1.6,4.93C383.15,582.59,381.57,576.46,384.91,574.32Zm.92.77a.33.33,0,0,1-.16.15c-1.34.65-2.32,2.33-1.46,3.75a3.21,3.21,0,0,0,2.86,1.45c1.87-.11,1.69-2.43,1.15-3.73a2.59,2.59,0,0,0-1.67-1.57A2,2,0,0,0,385.83,575.09Zm-128-62c7,1.12,15.45,3.51,20.4,8.7,4.75,5,9.07,10.89,9.8,17.91,1.36,13.17-7.8,25.39-20.05,29.31s-27.35,4.27-36.82-5.95A32.59,32.59,0,0,1,223.38,546a40.86,40.86,0,0,1,.62-10.11,29.77,29.77,0,0,1,2.18-8.2c2.35-5.17,6.86-8.26,12-10.39,5.94-2.47,13-5.37,19.56-4.17Zm-.32,1c-6.48-.74-13.18,1.71-19.09,4.19-6.54,2.74-11.22,7-12.85,14.13-1.42,6.21-1.81,12.59.32,18.63,2,5.67,4.84,10.76,10,14.11,10.41,6.8,23.63,5.28,34.72,1.09,11.83-4.46,20-19.51,15.36-31.64a29.1,29.1,0,0,0-5.06-7.92,34,34,0,0,0-6-6.31C269.79,516.85,263.31,515.81,257.46,514.17Zm-18.92,9.06c1.93-1.55,4.89-2.11,7.19-2.68a29.82,29.82,0,0,1,9.41-.84c5.54.43,11.78,1.6,16.46,4.71a21.32,21.32,0,0,1,8.76,22.76c-1.14,4.66-3.83,9.62-8.12,12.06-2.81,1.59-6.18,2.36-9.27,3.21a27.21,27.21,0,0,1-8,1.29,35.11,35.11,0,0,1-8.65-1.72c-2.53-.73-5.6-1.23-7.87-2.61-3.49-2.13-6.77-7.38-7.6-11.32-.59-2.79-.26-5.75-.09-8.57s.36-5.95.72-8.88C232.07,526.31,234.77,524.5,238.54,523.23Zm-.55,1.5a9.41,9.41,0,0,0-4.32,2.78c-1.79,2.37-1.56,6.36-1.79,9.25a53.67,53.67,0,0,0-.4,9,15.68,15.68,0,0,0,3.54,7.93c1.56,2.08,3.06,4.13,5.58,5,1.94.7,4,1.07,6,1.61,5.17,1.43,9.71,2.13,15,.93,5-1.14,10.52-2.76,13.89-6.85a19.88,19.88,0,0,0,4.54-13.16c-.27-8.76-6.64-16.13-14.85-18.65a38.66,38.66,0,0,0-13.78-1.93,33.81,33.81,0,0,0-7.44,1.6,26.79,26.79,0,0,0-4.1,1.32.52.52,0,0,1-.29.5l-1.05.37-.21.2C238.21,524.86,238.08,524.84,238,524.73Zm10.49,1.06a.32.32,0,0,1,.31-.23,53.86,53.86,0,0,1,15.27,3c4.38,1.57,6.69,3.2,8.8,7.34,3.18,6.25,2,14-4,18.12-3.36,2.3-6.94,2.46-10.88,2.23s-7.62-.07-11.17-2.19c-2.93-1.75-6.41-4.35-8.07-7.42a18.64,18.64,0,0,1-1.6-10.39A12,12,0,0,1,248.48,525.79Zm2.09,1h-.1A11.78,11.78,0,0,0,240.38,531c-3,3.57-3.1,9.16-1.56,13.42,1.38,3.84,6,7.17,9.58,9s7.94,1.46,11.73,1.54c10.29.22,16.46-9.6,11.83-18.84-2.21-4.41-6.15-5.81-10.63-7.2A52.6,52.6,0,0,0,250.57,526.81Zm8.07,6.83c4.61,1,9.83,5.22,9.11,10.07-1,6.59-9.87,7.64-14.87,6-5.15-1.71-10.83-6.33-9.25-12.41S254,531.35,258.64,533.64Zm-2.47.12c-4.24-.84-10-.88-11.56,3.26-2,5.39,3.63,9.51,8,11.08s10.46,1.4,13.27-2.84c3.61-5.45-4.66-11.29-9.41-11C256.24,534.26,256.14,534,256.17,533.76Zm2,5.74c1.05,1.32,1.91,2.86.57,4.45-.86,1-2.18,1-3.39.79a8.51,8.51,0,0,1-3.54-1c-1.68-1.25-1.28-3.87.21-5.09,1.13-.93,2.21-.21,3.52-.17,1.1,0,2.07-.19,2.62.92C258.16,539.47,258.17,539.48,258.17,539.5Zm-.9,0c-.9-.13-1.74-.06-2.69-.15s-2.44-.45-2.9,1c.25.89.49,1.79.74,2.68a4.23,4.23,0,0,0,1.27.32,10.61,10.61,0,0,0,3.36.33A1.7,1.7,0,0,0,258.4,541a8.24,8.24,0,0,0-1.07-1.38A.35.35,0,0,1,257.27,539.48ZM98.26,450c17.8.95,33.64,13,37.13,31,2.87,14.79-4.23,30.33-17.8,37.15A55.12,55.12,0,0,1,91,524.05c-7.92-.22-14.94-1.43-21.13-6.7-12.58-10.7-14.42-29.24-10.68-44.43,1.76-7.15,6.45-12.48,12.83-16a57.53,57.53,0,0,1,13.44-5c4.11-1.08,8.37-2.44,12.65-2A.25.25,0,0,1,98.26,450Zm-1.16,1c-4.53-.1-9.2,1.48-13.5,2.71a52.2,52.2,0,0,0-11.74,4.67,26,26,0,0,0-9.14,8.4c-2.49,3.95-3.29,8.64-3.79,13.22-1.61,14.78,2.24,32,16.66,39.22,6.66,3.34,15.18,3.32,22.47,2.81a49.83,49.83,0,0,0,22-7.09c13.28-8.26,18.14-25.45,12.58-39.77s-20-23.41-35.24-24A.35.35,0,0,1,97.1,451Zm372.44-11.08c9.47-.69,17,4.33,25,9,7.05,4.12,11.6,11.68,13.65,19.44,2.2,8.35.42,16.81-2.64,24.7-1.44,3.71-2.9,7.65-5.18,11a26,26,0,0,1-8.09,7.15c-3.77,2.34-7.75,4.68-12.08,5.79a31,31,0,0,1-12.9.11c-8-1.37-16.62-3.56-22.87-9-5.51-4.8-10.74-11.86-11.88-19.23-.61-3.9-.18-8,.08-11.9a50.1,50.1,0,0,1,2-12,35.8,35.8,0,0,1,34.86-25ZM467.46,441c-16.18,1.3-30.12,13-33,29.3-1.33,7.47-2.37,16.78,1,23.82,3.27,6.78,9.07,13.27,16,16.38A57.67,57.67,0,0,0,474,515.58c7.61,0,15.33-4.16,21.25-8.74S504,494,506.26,487a32.13,32.13,0,0,0-1.53-24.69,29.72,29.72,0,0,0-6.74-9.16c-2.91-2.62-6.46-4-9.75-6.05-3-1.83-5.72-3.73-9.11-4.79a26.19,26.19,0,0,0-11.23-.88C467.66,441.44,467.52,441.25,467.46,441ZM93.71,458.23a40.82,40.82,0,0,1,12.14,0,21.14,21.14,0,0,1,9.46,3.09c5.22,3.43,10.21,8.77,11.08,15.11.84,6.16,1.51,12.77-.17,18.85a25.23,25.23,0,0,1-4.36,8.38c-1.68,2.25-3.39,4.71-5.72,6.33-5.13,3.58-12.79,4.93-18.92,5.27s-13.63-.51-18.92-4.2c-2.52-1.75-4.08-4.21-5.64-6.8a81.21,81.21,0,0,1-4.43-7.81c-2.71-6-1.6-12.59-.44-18.81,1-5.29,2.43-10.32,7.43-13.09a90.82,90.82,0,0,1,10.9-4.73A18.12,18.12,0,0,1,93.71,458.23Zm-.86.79a24,24,0,0,0-8,2.33c-3,1.32-6.06,2.55-8.94,4.06-6.36,3.33-7.32,10.81-8.25,17.28-.56,3.89-.7,8,.68,11.72a43.6,43.6,0,0,0,3.94,7.18c1.46,2.44,2.82,5.11,5,7.05a18.47,18.47,0,0,0,7.1,3.71,39.07,39.07,0,0,0,17.6.92c5.37-.88,12.21-2.47,16.09-6.57,4.72-5,7.92-10.84,8.23-17.76a59.86,59.86,0,0,0-.34-8.25c-.32-3.44-.49-6.92-2.48-9.87-2.94-4.35-7.7-8.81-12.76-10.4a36.08,36.08,0,0,0-17.42-.88C93,459.59,92.86,459.32,92.85,459ZM79,471.36a.76.76,0,0,1,.12-.59c3.91-4.31,10.32-5,15.7-6.22,5.78-1.36,10.67-1.79,15.87,1.56,3.78,2.44,8.26,6.37,9.66,10.81,1.24,3.92.64,9.22-.46,13.11a30.08,30.08,0,0,1-7.67,12.59c-3.59,3.36-8.4,4.29-13.09,5.07s-9.75.89-13.87-2.08c-3.74-2.69-6.73-7.19-8.77-11.26-1.94-3.87-1.66-8.51-1.23-12.71A18.87,18.87,0,0,1,79,471.36Zm376.61-18.1c4.43-4.93,11.28-5.89,17.61-5.69,7.8.25,13.87,3.22,19.55,8.47,4.18,3.87,8.24,8.59,9,14.44.87,6.89-2.59,13.72-5,20a26.11,26.11,0,0,1-4.08,7.85,37.19,37.19,0,0,1-7.28,6.49,16.73,16.73,0,0,1-9.11,2.65,53.32,53.32,0,0,1-10.72-.28c-6.05-1-10.5-4.45-14.43-9-4.06-4.67-8.11-9.42-8.74-15.8-.6-6-.51-12.62,2.14-18.15A23.36,23.36,0,0,1,455.64,453.26ZM80.31,471a.44.44,0,0,1-.11.27c-4,4.27-4.36,10.36-4.28,15.91s3.58,11.16,7.47,15.17c4.36,4.5,9.86,4.88,15.74,3.9,5.47-.91,10.89-2.58,14.39-7.16a29.35,29.35,0,0,0,6.29-15.23c.38-3.79,0-7.11-2.5-10.16a32.18,32.18,0,0,0-6.22-5.84c-5.62-4-10.7-3.32-17.09-1.83C89.37,467.11,84,467.76,80.31,471ZM455.6,454.41a23.22,23.22,0,0,0-11.06,12.74c-2.22,6.33-2.44,16.06,1,21.94A48.3,48.3,0,0,0,456.3,501.6c4.74,3.81,10.51,4.68,16.43,4.47,3.07-.1,6.42-.2,9.32-1.27,2.62-1,4.75-2.91,6.81-4.74a21.78,21.78,0,0,0,6-8c1.07-2.57,2-5.19,3-7.79,2.59-6.71,4.52-13.4.52-20A37.67,37.67,0,0,0,487.11,453c-8-5.33-22.58-6.45-30.19.56a.39.39,0,0,1-.21.32l-.24.12c-.15.15-.3.3-.44.46S455.7,454.57,455.6,454.41ZM83.32,479a.79.79,0,0,1-.09-.65c1-2.92,2.53-6.16,5.52-7.49,1.8-.8,3.9-.66,5.83-.75a67.15,67.15,0,0,1,7.77-.1c6.29.48,12.51,3.9,12.78,10.83.24,6.08-2,13.58-7.71,16.61-6.17,3.3-15.34,4.48-20.52-1.1C82.54,491.61,82.07,485,83.32,479Zm399.45-22c4.31,2.5,8.45,5.46,10.73,10a19.83,19.83,0,0,1,1.42,13.61c-1.15,4.53-4,7.95-7.36,11.09-4.05,3.81-7.66,6.45-13.31,7.11-4.84.56-10,.25-14.12-2.64a25.48,25.48,0,0,1-8.47-11.08c-3.26-8-2.46-17.28,3.35-23.91,6.24-7.1,17.65-8.44,26.25-4.94a.21.21,0,0,1,.23,0l.68.39.46.22A.29.29,0,0,1,482.77,457ZM84.09,478.39c-1.2,7.83-.35,18,8.91,20.09,4,.91,8.46-.21,12.22-1.63a12.6,12.6,0,0,0,7.53-7.81c1.47-3.85,2.45-9.38-.14-12.93-2.36-3.22-6.43-4.46-10.22-4.79a62.71,62.71,0,0,0-10.79.15C87.45,471.84,85.4,474.79,84.09,478.39Zm397.45-20.92c-9.84-3.85-22.61-1.6-28.22,7.87-5.85,9.87-1.74,24.08,8.07,29.94,4.74,2.84,11.59,2.72,16.78,1.14,5-1.54,10.29-6.79,13.27-11.06a17.66,17.66,0,0,0,2.14-15.69C491.61,463.8,486.7,460.36,481.54,457.47ZM98.64,475.89a.31.31,0,0,1,.36-.19c3.28.77,7.43-.58,10,2.14a7.11,7.11,0,0,1,1.49,6.6,12.27,12.27,0,0,1-12.65,9.07,11.26,11.26,0,0,1-10-10.24c-.15-2.17.39-4.79,2.16-6.24C92,475.4,95.8,475.53,98.64,475.89Zm0,.73a26.44,26.44,0,0,0-5.79.28c-3.71.89-4.91,4.25-4.06,7.76a10,10,0,0,0,9.86,7.49,11.93,11.93,0,0,0,10.53-7c1.76-4.32-.89-7.62-5.23-7.93a29.52,29.52,0,0,1-5.14-.48A.3.3,0,0,1,98.66,476.62Zm367.75-14.26a5.87,5.87,0,0,1,1.65-.86,19.93,19.93,0,0,1,6.29-.72,17,17,0,0,1,11.24,4.48c5.13,4.85,4.91,11.44,2,17.5a14.41,14.41,0,0,1-6.29,6.51,26.31,26.31,0,0,1-6,1.81c-1.76.43-3.69,1.1-5.49.84-2.86-.41-6.54-3.19-8.57-5.12A14.25,14.25,0,0,1,456.9,479c-.43-3,.93-6.61,2.22-9.29,1.54-3.19,4.06-5.38,6.89-7.41A.26.26,0,0,1,466.41,462.36Zm-1.48,2.11a19.25,19.25,0,0,0-5.73,7.73,15.91,15.91,0,0,0-1.43,5.79A12.48,12.48,0,0,0,461,485c2.33,2.29,7.05,5.19,10.37,5.06a25.12,25.12,0,0,0,10.28-2.87c3.61-2.15,5.6-6,6.67-9.89,1.33-4.88-.53-9.15-4.52-12.15a17.74,17.74,0,0,0-11.58-3.27,12.53,12.53,0,0,0-5.63,1.32A15.47,15.47,0,0,0,464.93,464.47ZM99.85,480.84c2.29.53,4.56,2.17,3.51,4.74-1.17,2.88-4.64,3.13-7.2,2.2a3.58,3.58,0,0,1-2-5.14C95.11,481.11,98.07,480,99.85,480.84Zm0,.8a4.4,4.4,0,0,0-3.53.51c-1.08.57-1.73,1.06-1.84,2.36-.14,1.66,1.36,2.12,2.47,2.41a5.19,5.19,0,0,0,5-.9C104.26,483.81,101.57,482.42,99.85,481.64ZM470.8,469c3.91-1.82,9.91-1.43,11.87,2.66,2.21,4.64-2.07,9.09-6.06,10.76-3.74,1.56-10.53,2.15-12.13-2.7-1.46-4.43,2-9.39,6.14-10.74A.19.19,0,0,1,470.8,469ZM469,470.65a9,9,0,0,0-2.44,2.37c-1.52,2.24-2.28,5.54-.19,7.76s7.13,1.39,9.55.46c4.35-1.66,9.4-8.2,3.17-11.17-3.33-1.58-6.7-.73-9.91.61A.17.17,0,0,1,469,470.65Zm3.43,2.42c0-.18.1-.35.26-.34,1.36.12,4,1.55,3.3,3.29-.19.47-.54.83-.74,1.31a2.75,2.75,0,0,1-.59,1.07,2.44,2.44,0,0,1-2.18.58c-1.47-.31-3.93-1.86-3.07-3.64A4.85,4.85,0,0,1,472.44,473.07Zm.67.63a4.79,4.79,0,0,0-2.31,1c-.73.64-1.06,1.44-.3,2.22a4.14,4.14,0,0,0,1.76.89c1.53.41,2.33-.6,2.76-1.94.16-.48.31.06.05-.69a1.55,1.55,0,0,0-.62-.8A5,5,0,0,0,473.11,473.7ZM217.58,365.88c9.72.56,20,2.46,28.32,7.59a35.62,35.62,0,0,1,15.37,20.06,34.7,34.7,0,0,1-.76,22.63,51.56,51.56,0,0,1-7,12,59.84,59.84,0,0,1-9.1,10.29c-7.2,6-17,7.84-26.14,7.27-9.57-.59-20.35-2.71-28.77-7.44-15-8.47-18-27.93-12.51-43.12a45.09,45.09,0,0,1,40.22-29.61C217.42,365.56,217.53,365.7,217.58,365.88Zm-1.06.78c-19.35,1.41-35.86,15-40.05,34.16-1.79,8.19-1.31,17.07,2.55,24.63,4,7.82,11.32,12.17,19.49,14.68,16.85,5.17,36.81,7.27,49.57-7.29,5.71-6.52,11.31-14.09,13.23-22.71a33.21,33.21,0,0,0-3.69-22.94,35,35,0,0,0-16.31-15.08C233.46,368.55,225,367.71,216.52,366.66ZM195.28,380a14.63,14.63,0,0,1,7.52-5.31c3.9-1.16,8-.4,12-.82,4.45-.46,8.61-.91,13.05-.11A37,37,0,0,1,239.49,378c11.1,6.29,21.52,19.62,16.91,32.95-2.37,6.86-6,13.07-12,17.18-6.33,4.31-13.8,8.09-21.47,9.12-7.9,1.06-15.11-1.17-22.12-4.69-3.3-1.66-6.74-3.13-8.94-6.22-.92-1.31-1.65-2.74-2.59-4a42.38,42.38,0,0,1-3.57-5c-3.16-6-1.31-13.77.26-20,1.61-6.4,4.1-12.68,9-17.29C195.08,379.94,195.18,379.92,195.28,380Zm-.67,2c-5,5.36-7.13,12.3-8.51,19.41-.72,3.71-1.51,7.68-.82,11.44.78,4.27,4.05,7.23,6.28,10.77,3.57,5.68,11.17,8.67,17.38,10.72,6.65,2.19,13.49,1.75,20.14-.21a52.35,52.35,0,0,0,17.47-9.39,23.23,23.23,0,0,0,6-7.92c1.68-3.3,3.48-6.75,3.95-10.47,1.78-13.93-12.11-26.08-24.12-30a33.19,33.19,0,0,0-10.07-1.7c-3.27,0-6.47.69-9.73.75-3.56.05-6.92-.68-10.36.65a14.67,14.67,0,0,0-7,6C195,382.24,194.75,382.17,194.61,382ZM212,380c10.61-4,22.4,1.1,29.54,9.85,3.23,4,6.75,9.3,7.52,14.47s-2.13,10.08-5.86,13.49c-8.33,7.58-21.28,13.51-32.51,9.64a24.59,24.59,0,0,1-16.53-23.19,25.15,25.15,0,0,1,4-13.57c3.3-5,8.32-8,13.51-10.8A.2.2,0,0,1,212,380Zm-2.67,2.27c-4.29,2.65-8.37,5.6-10.93,10.09a23.79,23.79,0,0,0-2.75,16.38c1.93,9.53,10.65,16.85,20.21,17.91,9.9,1.1,20.91-4.57,27.72-11.5,2.5-2.53,4.56-5.91,4.42-9.6-.11-2.68-1.46-5.3-2.68-7.65A39.48,39.48,0,0,0,236.12,386C228.88,379.84,217.92,377.61,209.36,382.25ZM0,369.09a34.61,34.61,0,0,1,7.9,1.38c6.36,1.75,12.42,4.92,16.83,9.91a23.89,23.89,0,0,1,2.75,28.41C21.61,418.4,10.6,421.63,0,420.24v-1.5a40.61,40.61,0,0,0,4.89.3c9.81.06,19.58-5.32,23.39-14.65,4.18-10.23-.2-21-9-27.19-4.78-3.36-12.45-6.87-19.31-6.89Zm595.28,51.15q-1.11-.14-2.22-.36a23.66,23.66,0,0,1-14.39-8.45c-1.71-2.05-3.85-4.45-4.71-7s-.32-5.6-.27-8.19a36,36,0,0,1,.89-9.26,34.56,34.56,0,0,1,3.62-7.8c2.21-3.77,5.26-7.28,9.43-8.46a14.61,14.61,0,0,1,7.65-1.61v1.22a16.63,16.63,0,0,0-4.71.61.28.28,0,0,1-.2.17l-.65.11a12.1,12.1,0,0,0-3,1.56c-.29.21-.52,0-.63-.25-4,2.18-6.59,6.29-8.66,10.47a25,25,0,0,0-2.73,10.46c-.12,2.7-.62,6-.21,8.64.49,3.13,2.64,5.4,4.6,7.75a27.46,27.46,0,0,0,5.25,5.08,24.41,24.41,0,0,0,10.89,3.83ZM210,388.16c2.35-1.76,5.27-2.24,8.3-2.6,4.75-.58,9.42,1.17,13.44,3.52,3,1.75,5.81,4.07,6.92,7.49,1,3.22.3,7-.83,10.07-2.71,7.42-9.54,13.95-17.93,13.11a24.84,24.84,0,0,1-10.55-4c-1.66-1.13-2.7-3-3.74-4.63a23.83,23.83,0,0,1-2.65-4.79c-1.1-3.24.27-7.09,1.11-10.25a11.37,11.37,0,0,1,2.15-4.94c1-1.14,2.45-1.8,3.46-3C209.79,388,209.9,388.06,210,388.16Zm-1.73,2.68c-.32.25-.65.51-1,.8-1.93,1.73-2.36,4.56-2.92,7-.65,2.83-1.44,5.67,0,8.39a43.46,43.46,0,0,0,3.47,5.33c2.19,2.94,6.61,4.78,10.13,5.73,4.68,1.27,9.53-.66,13.07-3.74a20.72,20.72,0,0,0,6.71-11.41c1.06-5.3-1.17-9.15-5.54-12a22.14,22.14,0,0,0-12.13-4.09,36,36,0,0,0-5.35.7,8.78,8.78,0,0,0-6,3.28C208.53,391,208.38,391,208.26,390.84ZM0,377c1.1.1,2.22.31,3.38.48a44.5,44.5,0,0,1,7.37,1.25c6.21,2,12.81,9.32,13.22,16,.26,4.16-.17,8.18-2.73,11.59a16.63,16.63,0,0,1-9.95,6.14A35.17,35.17,0,0,1,0,413.32v-1.41c7,1,15-.64,19.52-5.33,3.67-3.79,5-10.7,2.64-15.49a22.72,22.72,0,0,0-8.84-10c-3.91-2.18-8.9-2.84-13.32-3.14H0Zm595.28,36.29a18.4,18.4,0,0,1-12.54-6.18c-2.21-2.6-4.32-5.83-4.07-9.34a57.11,57.11,0,0,1,2.53-13.41.38.38,0,0,1,0-.15c.74-4.39,6.35-5.6,10-6.82a9.83,9.83,0,0,1,4.1-.39v.91c-2.49-.17-4.63.78-6.89,1.72-2.43,1-5.82,1.92-6.43,4.88a.71.71,0,0,1-.09.26c-1.23,4.53-2.78,9.63-2.45,14.19.17,2.28,2.31,4.86,3.71,6.66a14.55,14.55,0,0,0,5.46,4.37,23.45,23.45,0,0,0,6.69,1.89Zm-372.5-21.68a.24.24,0,0,1,.24-.09c5.7.78,10.6,5.59,8.91,11.7-1.56,5.65-7.66,9.56-13.35,8.15-4.76-1.18-11.27-5.95-9.31-11.57C210.92,395.07,217.63,390.71,222.78,391.64ZM224,392.9a.23.23,0,0,1-.2,0c-4.5-1.33-9.14,1.29-12.1,4.6-4.73,5.29.94,10.86,6.12,12.4,4.86,1.45,9.07-.78,11.89-4.72C233.56,399.85,229.4,394.33,224,392.9ZM0,382.4a25.58,25.58,0,0,1,12.22,2.33c6.24,3.14,7.75,10.92,4.51,16.81-2.21,4-4.72,4.23-8.93,4.81a25.38,25.38,0,0,1-7.8.17v-1.2a18,18,0,0,0,8.3,0c3.47-.74,5.93-1.35,7.78-4.68A10.94,10.94,0,0,0,15.81,389c-2-2.76-5.29-4.07-8.44-4.93a23.25,23.25,0,0,0-7.37-.8Zm595.28,0v.82c-.54,0-1.09.08-1.64.15-1.56.2-3.6.36-4.93,1.26s-1.93,2.76-2.6,4a.31.31,0,0,1-.23.19,19.32,19.32,0,0,0,1.18,10.76c1.19,3,4.15,4.44,7.05,5.37.39.13.78.24,1.17.34v1.2a14.87,14.87,0,0,1-4.66-1.66c-3.22-1.79-4.31-4.29-5-7.78-.6-3-1.05-6-.14-8.88a.67.67,0,0,1,.08-.35l.1-.17c.11-.3.24-.59.38-.88.05-.1.11-.12.17-.1a6.53,6.53,0,0,1,2.6-3.11,16.86,16.86,0,0,1,5.83-1.16ZM222.67,398c2.2,1.46,3.57,4,2,6.52-1.73,2.72-5,2.12-7.38.63-1.15-.74-2.1-1.6-2.06-3.06a5.15,5.15,0,0,1,1.34-3.19C217.67,397.63,221.67,395.73,222.67,398Zm-.83.45a4.44,4.44,0,0,0-3.48.37c-2.37,1.28-3.07,4.13-.35,5.55a4.87,4.87,0,0,0,4.8.18,2.82,2.82,0,0,0,.78-4.45,9.21,9.21,0,0,0-1.55-1.23A.6.6,0,0,1,221.84,398.47ZM0,387.9a32.35,32.35,0,0,1,7.43.52h0c2.4,0,3.14,1,4.7,3,1.2,1.6,1.8,2.91,1.28,4.93-1.17,4.57-6.76,8-11.33,6.77A10.57,10.57,0,0,1,0,402.36v-1.45l.35.19a8.45,8.45,0,0,0,10.05-1.54c2.22-2.1,2.92-4.4,1.22-7.22-1-1.74-2.22-2.81-4.06-2.95H7.45l-.29,0a4,4,0,0,0-.48,0,.25.25,0,0,1-.2-.09A27.53,27.53,0,0,0,0,389.15Zm595.28,0v1.25a10.14,10.14,0,0,0-3.14.92c-2.74,1.34-2.06,5.85-.48,8a12,12,0,0,0,3.62,2.88v1.45a10.28,10.28,0,0,1-5.82-10.29C589.85,389.19,592.4,388.15,595.28,387.9ZM4.66,392.25a.32.32,0,0,1,.35-.11,4.81,4.81,0,0,1,3.39,4.37c-.12,1.71-3,3.12-4.48,2.8C1.58,398.82.2,397.5.61,395.06A3.23,3.23,0,0,1,4.66,392.25Zm.66,1.13a.29.29,0,0,1-.16,0c-1.87-.39-4.09.09-4,2.48.08,1.77,2.13,2.54,3.66,2.23,1.14-.22,3-1.08,2.92-2.34A2.6,2.6,0,0,0,5.32,393.38Zm371.94-72c5.73-3.62,12.5-5.34,19.31-6.33,5.23-.76,10.52-1.13,15.59.64a44.69,44.69,0,0,1,12.27,7.19A32.45,32.45,0,0,1,437,342.63,76.08,76.08,0,0,1,438.21,355c.16,4.28.51,8.78-.54,13-4.22,16.86-26.7,20-41.12,20.81-8.7.5-16.76-1.26-23.52-7-6.36-5.38-12.51-12.06-15-20.18-4.95-16.29,4.49-32.55,18.75-40.28A.32.32,0,0,1,377.26,321.4Zm-5.82,5.3a36.52,36.52,0,0,0-11.75,16A29.35,29.35,0,0,0,364,370.29c4.47,6.08,10.8,12.81,18,15.53s15.22,2,22.62.87c8.23-1.24,17.05-2.7,23.93-7.73a23,23,0,0,0,6.85-7.64c2.14-4,2.18-8.48,2.08-12.94-.18-7.7-.43-15.79-3.82-22.87s-10.56-12.69-17.51-16.33c-7.46-3.92-15.26-3.26-23.27-1.68-7.58,1.5-15.15,4.17-21,9.43C371.66,327.13,371.5,327,371.44,326.7Zm23.62-3.53a29.46,29.46,0,0,1,32.16,12.21c6.89,10.32,7.31,26-.64,35.93a18.46,18.46,0,0,1-8.32,5.58c-3.46,1.34-7,3-10.61,3.84a57.24,57.24,0,0,1-6.14.61c-2,.25-4,1-6,1-3.52-.13-6.89-1.95-10-3.41-11.25-5.28-21.87-17.52-20.23-30.75A22.49,22.49,0,0,1,373,333.67c3-2.46,6.62-3.95,10.11-5.54,3.87-1.75,7.71-3.6,11.67-5.13C394.91,322.94,395,323,395.06,323.17Zm-6.86,3.67c-5.08,2.16-10.28,4.3-14.42,7.68a21.49,21.49,0,0,0-7.66,17.65c.43,6.61,4.58,13.08,9,17.84s10.41,7.72,16.36,9.81c3.79,1.34,6.78.29,10.56-.16a41.11,41.11,0,0,0,10.22-2.22c6.2-2.32,12.06-4,15.5-10.17a30.08,30.08,0,0,0-5.7-36.1A28.74,28.74,0,0,0,388.6,327C388.42,327.13,388.28,327,388.2,326.84Zm-12.48,33.32c-.09.08-.21.06-.32-.12-2.65-4.4-3.88-8.9-2-13.88s5.93-8.63,10.56-11a61.9,61.9,0,0,1,15.8-5.24c5.42-1.05,10.4-.28,14.67,3.33,3.65,3.09,7.43,7.43,9.07,12,1.8,5,.57,10.53-.64,15.53-1.17,4.78-3.73,7.21-8.06,9.36-5.1,2.54-10.68,4.94-16.49,4.71C388.82,374.47,380.94,367.66,375.72,360.16ZM375.2,358a.32.32,0,0,1,.17.16c5.18,7.83,13,15.18,22.89,15.51,4.84.17,9.48-1.5,13.82-3.5a32.11,32.11,0,0,0,6.34-3.44c2.18-1.71,3.14-4.09,3.75-6.72,1.31-5.57,2.34-11.44-.69-16.67a32.64,32.64,0,0,0-8.6-9.71c-7.73-5.56-18.58-1.4-26.42,2.05-4.26,1.87-8.33,4.45-10.88,8.44C372.63,348.74,372.92,353.42,375.2,358Zm5.58-7.22c-1.16-3.14,2.41-5.77,4.64-7.42a31.48,31.48,0,0,1,12.06-5.45c7-1.5,14.93-.12,17.64,7.31,2.4,6.56-.46,14.36-4.67,19.56-5.25,6.5-13.49,4.81-19.67.64-3-2-6.76-4.27-8.62-7.42A13.31,13.31,0,0,1,380.78,350.79Zm1.13-2.36v.06c-.24,4.9-.3,9.25,3.93,12.55a41.63,41.63,0,0,0,9.54,5.86c3.59,1.47,7.91,2,11.4-.07s6-6.65,7.36-10.48c1.52-4.37,1.77-9.58-1.19-13.44-2.57-3.36-6.81-4.27-10.82-4a30.61,30.61,0,0,0-10.86,2.82C388.67,342.88,383.64,345.25,381.91,348.43Zm5.18,1.91c.26-1.91,3.29-2.71,4.76-3.45,3.51-1.77,7.45-4.15,11.56-3.45,7.13,1.21,6.53,9.13,4.11,14.27-1.2,2.57-3.22,5.76-6.28,6.19-2,.28-4-.68-5.73-1.42-1.92-.81-4-1.53-5.79-2.52A6.71,6.71,0,0,1,387.09,350.34Zm3.11-1.29a.53.53,0,0,1-.23.31c-4.24,2.33-3.94,7.64.27,9.79,1.59.81,3.29,1.46,4.94,2.17,2.74,1.18,5.83,2.62,8.52.5a14.28,14.28,0,0,0,4-6.43c1.09-3.28,1.66-8.06-2-9.91a8.93,8.93,0,0,0-6.72-.23,43.31,43.31,0,0,0-5.76,2.52C392.38,348.17,391.26,348.56,390.2,349.05Zm3.64,4.05c.28-2.45,4.16-3.37,6.18-3.09a3.57,3.57,0,0,1,2.76,5.1c-1.3,2.91-5.14,2.61-7.45,1.28-.82-.47-2-1.08-1.91-2.2A2.47,2.47,0,0,1,393.84,353.1Zm2.2-.89a2.76,2.76,0,0,1-.51.71c-.24.29-1,.7-1.13,1-.51,1.35,1.33,2.17,2.26,2.51,1.89.69,4.33.4,5.43-1.49a2.44,2.44,0,0,0-1.66-3.71,6.32,6.32,0,0,0-2.83.27A6.43,6.43,0,0,0,396,352.21ZM81.55,243.31a41.42,41.42,0,0,1,19.39,6.79c6.31,4.23,9.54,9.83,12.27,16.78,4.29,10.93.25,25.37-10.67,30.7-6.09,3-13,5.67-19.9,5.69A27.12,27.12,0,0,1,66,297.33C56.63,290,52.37,276.7,55.27,265.18c1.54-6.09,5.35-11.15,9.95-15.31,4.43-4,9.82-7.94,16.1-6.76A.33.33,0,0,1,81.55,243.31Zm-1.83.89c-6.15-.2-11.55,4.37-15.69,8.55-4.72,4.76-7.93,10.5-8.49,17.28-1,11.91,5.36,24.06,16.43,29,10.34,4.61,22.42,1.3,31.87-4.1,5.64-3.23,8.53-9.56,9.77-15.75,1.3-6.46-1.24-12.37-4.08-18-5.23-10.47-18.25-15.84-29.38-16.54A.5.5,0,0,1,79.72,244.2Zm431.43-23.67a.33.33,0,0,1,.19-.14,27.26,27.26,0,0,1,14.42.34c5,1.45,9.31,4.47,13.74,7,8,4.61,12.71,11.36,14.51,20.45,3.13,15.72-1.64,33.22-15.16,42.64a67.88,67.88,0,0,1-11.43,6.63c-4.27,1.85-8.93,1.66-13.47,1.34-8.11-.58-16.37-2.36-23.25-6.88-7.08-4.66-12.48-12.58-15.69-20.33s-2.22-16.18.69-23.82A42.3,42.3,0,0,1,511.15,220.53Zm3.31.78a.38.38,0,0,1-.32.25c-18.32,1.15-34.68,13.8-38.88,31.95-1,4.39-1.5,9.07-.39,13.48,1,4.1,3.19,7.85,5.43,11.39,4.18,6.57,9.4,11.71,16.65,14.76a57.44,57.44,0,0,0,22.46,4.06c4.87,0,8.59-1.85,12.67-4.24a58.86,58.86,0,0,0,10.2-7c11.31-10.3,14.35-28.85,9.09-42.9a24.5,24.5,0,0,0-6.87-10.21c-3-2.56-6.62-4.29-10-6.29C528,222.7,521.73,220.78,514.46,221.31ZM72.87,254.42c6-3.77,14.25-3.29,21,.05,4.31,2.13,8.34,3.68,10.47,8.29a25,25,0,0,1,1.84,13.51c-.53,4.29-2,9.8-5.73,12.45-2.06,1.48-4.71,2.35-7,3.4a33.62,33.62,0,0,1-7.14,2.63c-4.85,1-9.77-.78-13.6-3.74-3.4-2.63-7.35-6.81-8.51-11.06s.22-9.64,1.21-13.68a26.9,26.9,0,0,1,1.28-4,.72.72,0,0,1,0-.5,16.36,16.36,0,0,1,4-5.73,14.55,14.55,0,0,1,1.92-1.64A.16.16,0,0,1,72.87,254.42Zm-4.62,6.19a30.81,30.81,0,0,0-2.75,9.27c-.5,3.21-1.47,7.19-.27,10.33.92,2.41,3,4.76,4.71,6.63,3.67,4,8.66,7,14.24,6.61,4.87-.38,10.81-3.24,15-5.7,5.29-3.08,6.62-11.62,6.16-17.17a20,20,0,0,0-2.5-8.61c-1.71-2.81-4.35-4-7.19-5.33-5.15-2.5-10.14-4.68-16-3.69A16.3,16.3,0,0,0,68.25,260.61Zm173-43.53c15.83.43,31,10.23,37.18,25s-.69,32-13.53,40.79c-6.9,4.7-15.14,9.08-23.58,9.8A30.92,30.92,0,0,1,219,285.78c-5.77-4.77-8.93-11.16-10.71-18.32-2-8.12-3.65-16.47-1.82-24.78C210,226.75,224.86,216,241.14,217Zm-1.72,1.07c-8.31.43-16.74,3.15-23,8.8s-9.56,14-9.84,22.34c-.25,7.54,1.69,16.18,4.42,23.2a28.74,28.74,0,0,0,14,15.16,30.83,30.83,0,0,0,23.6,1.32c6.93-2.4,14.41-6.34,19.84-11.29A34,34,0,0,0,279,259.26c1.64-8.27-.43-16.14-5.17-23a42,42,0,0,0-33.91-17.82A.44.44,0,0,1,239.55,218.15Zm258,14.52c2.62-1.78,5.27-3.55,8-5.09a19.55,19.55,0,0,1,12.14-2.12c3.78.4,8.08.91,11.54,2.51s6.82,4.62,9.55,7.39c8.88,9,10,22.73,6,34.28a22.64,22.64,0,0,1-4.65,8.39c-2.47,2.56-5.85,4.32-8.64,6.5-5.31,4.14-12.68,5.38-19.28,5.83-7.49.52-13.57-2.33-18.71-7.66-4.68-4.85-8.24-10.49-9.52-17.18a44.36,44.36,0,0,1,1.4-20.37C487,239.29,492.39,235.86,497.5,232.67Zm4.47-1.78a.26.26,0,0,1-.11.14c-3.33,2.45-6.69,4.86-10,7.32-3.76,2.78-5.17,5.89-6.16,10.4-1.6,7.33-2,15.38,1.16,22.37a35.25,35.25,0,0,0,12.28,14.24c5.83,3.82,12.59,3.4,19.15,2.16,3.19-.6,6.66-1.08,9.53-2.66,2.49-1.36,4.6-3.42,6.94-5,3-2,5.44-3.89,7.13-7.16a35.23,35.23,0,0,0,3.07-9,32.55,32.55,0,0,0-1.11-17.87c-2.22-5.86-6.7-10.32-11.65-14a21.7,21.7,0,0,0-9.35-3.78,37.46,37.46,0,0,0-10.43-1.07C508.77,227.22,505.27,228.88,502,230.89Zm-429,33.66a.59.59,0,0,1,0-.37c1.36-3.48,4.64-5,8.19-5.39,4-.46,8.43-.69,12,1.52,5.49,3.42,8.2,11.46,6.48,17.66s-10.18,10.2-16.27,9.81A13.26,13.26,0,0,1,70.71,276,21.51,21.51,0,0,1,72.92,264.55Zm5.2-3.84a.22.22,0,0,1-.13.12c-4,1.22-5.67,6.27-6.41,10-.86,4.35-.2,8.87,3.12,12,5.1,4.87,12.85,4.41,18.51.82,4.05-2.56,6.22-6,5.78-10.95-.36-4-1.92-8.26-5.15-10.89s-6.74-2.52-10.51-2.17A21,21,0,0,0,78.12,260.71Zm414.09-10.35a.82.82,0,0,1,0-.47c1.17-5.45,3.36-10.78,8.16-14a23.51,23.51,0,0,1,18.47-3.8c4.59.84,9.32,2.64,12.42,6.29,1.88,2.21,2.81,4.94,4,7.52s2.8,5.05,3.57,7.83a11.65,11.65,0,0,1,.07,6.72c-.91,2.77-3.29,4.75-4.41,7.45-1,2.33-1.56,4.83-3.15,6.84a16.38,16.38,0,0,1-5.14,3.94c-4.9,2.73-10.55,4.86-16.14,3-5.31-1.74-10.37-6.33-13.94-10.52s-4.22-10.05-4.25-15.23A38.82,38.82,0,0,1,492.21,250.36Zm-412,13.44A4.57,4.57,0,0,1,81.4,263a10.22,10.22,0,0,1,4.56-.86c3.16.12,4.6,1.78,6.15,4.28,2.8,4.5,3.65,10.16-1.13,13.75-2.46,1.85-5.78,1.85-8.73,1.35-2.52-.42-4.43-2.63-5.57-4.82C74.5,272.52,76,266.2,80.24,263.8Zm145.33-34.94c5.37-3.59,11.87-3.75,18.16-3.31,3.36.24,6.91.38,10.12,1.47a22.47,22.47,0,0,1,8.13,5.49c4.12,4,8.56,8.41,10.37,14s0,11.37-2.47,16.57c-2.65,5.64-7.81,8.27-12.87,11.49-6,3.82-11.61,6.45-18.86,5.95-2.82-.2-6.27-.18-8.89-1.42-2.38-1.13-4.12-3.57-5.68-5.6-3.64-4.73-6.62-10.12-7.63-16.06C214.44,248.54,214.84,231.93,225.57,228.86ZM78.45,266.27c-3.12,3.61-2.19,9.76,1.51,12.79,3,2.5,9,1.57,11.52-1.06s2.61-6,1-9.13c-.75-1.45-1.8-3.47-3.11-4.47-2.06-1.58-5.07-1.39-7.35-.46a18.77,18.77,0,0,0-3.37,2.34A.14.14,0,0,1,78.45,266.27ZM493,250.6a36.7,36.7,0,0,0,.33,10.69c.51,3.13,1.34,6.09,3.41,8.55a44.82,44.82,0,0,0,5.87,5.48c3.89,3.2,8.24,5.65,13.45,5.1a26.67,26.67,0,0,0,13-5.62c3.47-2.82,3.73-7.71,6.22-11.24,2-2.82,3.38-5.06,2.62-8.73a28.09,28.09,0,0,0-2.83-6.74c-2.27-4.52-3.74-8.94-8.33-11.63a27.88,27.88,0,0,0-12.16-3.38,21.93,21.93,0,0,0-14.7,4.77,16.06,16.06,0,0,0-4.15,5,.11.11,0,0,1,0,.06l-.07.12a26.36,26.36,0,0,0-2.52,7.27A.83.83,0,0,1,493,250.6ZM224.87,230.11c-5.38,2.54-7.72,8.29-8.38,14.18-.78,6.83-.41,13.83,2.58,20.11a41,41,0,0,0,4.53,7.3c1.62,2.13,3.45,4.75,5.88,6s5.9,1.3,8.64,1.47a25,25,0,0,0,8.6-.79c5.24-1.53,9.72-5.08,14.18-8.11,2.45-1.66,5.1-3.19,6.74-5.73a33.76,33.76,0,0,0,3.25-7.13c2.25-6.52.66-12.06-3.53-17.32-3.16-4-7.25-8.62-11.86-10.92s-10.5-2.37-15.52-2.5c-4.51-.11-9,.38-13,2.54a.24.24,0,0,1-.15.16l-.31.1c-.41.24-.81.5-1.21.78A.29.29,0,0,1,224.87,230.11ZM85.7,268.33c1.68,1.33,2.8,3.73,2.1,5.82-.8,2.37-3.26,2.6-5,1.09s-2.7-4.34-1.33-6.37C82.28,267.62,84.84,266.93,85.7,268.33Zm-.5.58a2.86,2.86,0,0,0-.94-.41,2.34,2.34,0,0,0-2.24.94c-1.47,1.88-.12,4.69,1.91,5.53s3.5-.94,3.19-2.82C86.91,270.89,85.94,269.92,85.2,268.91ZM506.49,239a9.53,9.53,0,0,1,4.83-1.22,23.81,23.81,0,0,1,14.58,4.38c6,4.28,7.27,12.59,5.28,19.32-2.15,7.29-8.9,15.3-17.31,12.73-2-.62-4.3-1.09-6-2.39a32.55,32.55,0,0,1-4.72-4.67,21.64,21.64,0,0,1-4.71-11.48A16.79,16.79,0,0,1,502.76,242a5.37,5.37,0,0,1,1.33-1.27A17.21,17.21,0,0,1,506.49,239Zm-2,2.42a17.8,17.8,0,0,0-2.62,22.07,20,20,0,0,0,10.71,8.64c2.62.86,4.68,1.37,7.35.38a19.17,19.17,0,0,0,5.15-3.06c6.75-5.51,8.3-18.46,1.94-24.74-3.18-3.14-8.54-5.27-12.93-5.81-2.07-.25-5.06-.49-7,.55C506.77,239.69,505.54,240.61,504.5,241.45Zm-275.95-6.1a26.75,26.75,0,0,1,28.65.85c6.45,4.45,9.1,14.15,5.52,21.05-4.19,8.1-10.18,14-19.72,14.42-4.21.17-8.83-.3-12.11-3.19-3.13-2.74-4.93-6.91-6.21-10.78-2.44-7.28-2.42-15.65,2.84-21.58a.49.49,0,0,1,.16-.21l.1-.06c.16-.18.33-.35.5-.53A.15.15,0,0,1,228.55,235.35Zm-.92,1.65c-6.48,8-4.16,21.31,2.15,28.9s20.48,5.11,26.66-1.4c3.46-3.64,7.65-9.79,7-15s-3.19-10.33-7.71-13c-8.66-5-19.47-5.18-27.83.44A.19.19,0,0,1,227.63,237Zm290.55,9.43a24.32,24.32,0,0,1,5.69,5.89c1.47,2.06,1.34,3.74.74,6.19-1.55,6.26-9.3,8.62-15,6.27-5.9-2.42-5.57-10.34-3.71-15.28,1-2.66,2.92-5.39,5.92-5.91C514.39,243.14,516.52,244.62,518.18,246.43Zm-288.62.22c-.14-2.31.36-4.56,2.4-6,3.62-2.63,9-3,13.36-3,8.25,0,15.7,7,13.38,15.71a8.93,8.93,0,0,1-2.09,3.61c-1.52,1.78-3.08,4-5,5.42-3.83,2.91-9,3.08-13.46,2.07C230.49,262.7,228.93,253.79,229.56,246.65Zm.49,1.9a20.59,20.59,0,0,0,.69,6.85c1,3.21,3.84,7,7.23,7.8a16.82,16.82,0,0,0,11.09-1c3.09-1.29,5.5-4.23,7.52-6.83,3-3.89,1.56-9.86-1.78-13.12-2.59-2.52-5.92-3.43-9.45-3.51a29.17,29.17,0,0,0-9.93,1.16,7.91,7.91,0,0,0-4.35,2.83,5.36,5.36,0,0,0-.6,1.29c-.12.92-.23,1.88-.31,2.86,0,.46,0,.92,0,1.38A.35.35,0,0,1,230.05,248.55Zm286-2.61a5.74,5.74,0,0,0-4.84-.76c-2.63.86-4,3.46-4.76,5.92-1.72,5.52-.56,12,6.15,12.53,4.7.35,9.66-.77,11-5.88,1.16-4.51-3.54-9.17-7.26-11.22A.69.69,0,0,1,516,245.94Zm-.89,5.61c1.7.87,2.86,3.58,2.74,5.24a4.29,4.29,0,0,1-2.11,3.08c-1.23.76-2.39.21-3.47-.56-2.48-1.77-2.84-4.31-1.14-6.85.62-.93,1.55-2,2.78-1.7A2.2,2.2,0,0,1,515.14,251.55ZM246,244.94c4.35,1.33,7.23,5.19,5.07,9.63-1.9,3.91-7.29,6.48-11.33,4.24s-5.59-6.8-4.33-11.21C236.89,242.6,242.37,241.75,246,244.94Zm267.64,6.92c-.74-.07-1.32.53-1.8,1.2a4.39,4.39,0,0,0-1,2.71,3.33,3.33,0,0,0,1.85,2.35c1,.65,1.74,1,2.85.28a2.6,2.6,0,0,0,.94-3.2,3.77,3.77,0,0,0-2.51-2.64C513.79,252.49,513.67,252.16,513.68,251.86ZM245,245.06c-3.91-2.1-8.45-.7-9.22,4.3a8.2,8.2,0,0,0,5,8.9c3.64,1.36,7.31-.65,9.19-3.8,2.9-4.86-1.85-6.65-4.85-9.17A.35.35,0,0,1,245,245.06Zm-.36,4.47a4.26,4.26,0,0,1,1.56,2.25,3.09,3.09,0,0,1-.58,2.69c-1.32,1.5-4.58.84-5.45-.87s-.19-4.43,1.47-5.32C242.5,247.83,244.83,248.35,244.66,249.53Zm-.95-.35a1.86,1.86,0,0,0-1.52-.23,3.07,3.07,0,0,0-1.67,3.88c.6,1.39,2.89,1.69,4.15,1.15,2.18-.92.37-3.57-.85-4.38C243.7,249.53,243.68,249.34,243.71,249.18Zm150.68-90a.42.42,0,0,1,.28-.14c3.71-.35,7.69.85,11.16,2.06a15.17,15.17,0,0,1,7.55,5.3c4.34,5.89,6.27,13.92,6.22,21.14a51.35,51.35,0,0,1-4,19.73c-2.56,5.69-7.59,9.7-13.28,12-12.35,5-26.58,1.63-36-7.57a23.41,23.41,0,0,1-7.48-15.88c-.45-6.83-.17-13.29,3.14-19.39,2.92-5.4,6.53-10.7,12.11-13.6C380.15,159.74,387.58,159,394.39,159.22Zm2.21,1.42a.37.37,0,0,1-.27.11c-7-.08-14.59.34-21,3.39-6.11,2.91-10,8.65-13,14.52s-3.16,14-1.88,20.56c1.18,6,5.59,10.77,10.45,14.25,9.5,6.8,22.24,8.38,32.83,3.15a22.52,22.52,0,0,0,12-13.47A49.87,49.87,0,0,0,418.31,185c-.42-6.15-2.41-13.13-6.42-17.94C408.71,163.26,401.9,160.82,396.6,160.64Zm-22.54,11.55c3.23-4.8,9.48-6.55,15-7.2a24.88,24.88,0,0,1,16.77,3.68c4.52,3.07,6.81,7.67,8.65,12.68,1.9,5.17,1.32,9.23-.95,14.15-2.34,5.07-4.87,9.57-9.46,12.92s-8.95,6-14.66,5.4c-9.41-.91-19.28-10.4-20.92-19.66a31.11,31.11,0,0,1,1-14.56A18.19,18.19,0,0,1,374.06,172.19Zm5.29-3.15a.38.38,0,0,1-.15.27c-5,3.44-8.47,7.37-9.68,13.44-1.07,5.38-1,11.63,1.89,16.44,4.61,7.73,14.22,15.38,23.74,12.79,4.18-1.13,8.65-4.38,11.59-7.49,3.2-3.38,5.47-8.13,7.09-12.44,2.1-5.56-.26-11.77-3.19-16.68a18.72,18.72,0,0,0-9.84-7.81,26.27,26.27,0,0,0-13.82-.83A28.57,28.57,0,0,0,379.35,169Zm2.9,5.56a.32.32,0,0,1,.1-.13c7.72-5.84,17.83-4.06,24.1,3.06,2.63,3,3.19,6.37,3.2,10.26s-.61,6.68-3.17,9.74c-5,6-11.63,11.4-19.9,8.36-3.64-1.33-6.81-4.73-8.85-7.94s-2-7.09-1.7-10.69A17.76,17.76,0,0,1,382.25,174.6ZM387,173c-7.89,3.64-11.78,12.29-9.87,21,1,4.36,5.61,8.59,9.68,10.21a12.68,12.68,0,0,0,11.84-1.55,35.22,35.22,0,0,0,8.16-8.05c2.83-3.79,2.4-11.57-.41-15.24C402,173.65,393.84,170.76,387,173Zm-1.44,6.75a.5.5,0,0,1,.39-.4c3.53-.58,7.21-1,10.73-.11,1.91.47,4.61,1.25,5.08,3.45,1.11,5.07-4.54,10.31-8.19,12.73C381,203.78,378.23,183,385.58,179.78Zm1.06.9c-4.71,1.41-5.54,10.59-2.24,13.78,3.51,3.4,8.72-.25,11.5-2.73,3-2.68,7.65-8.64,1.47-10.67C393.91,179.93,390.19,180.19,386.64,180.68Zm4,3.73.09-.06c1.69-.69,2.8,1.87,2.53,3.19-.42,2.09-2.52,2.92-4.46,2.64-.8-.12-1.86-.3-2.17-1.17a3.77,3.77,0,0,1,.29-2.47A3.17,3.17,0,0,1,390.66,184.41Zm.24.92a2.65,2.65,0,0,0-3,1.1,3,3,0,0,0-.56,1.5c.06.94,1,1,1.69,1a3.26,3.26,0,0,0,3.13-1.18C393.07,186.43,391.82,185.88,390.9,185.33ZM140.69,96.41a.38.38,0,0,1,.3-.21,35.1,35.1,0,0,1,33.07,20.19,25,25,0,0,1,1,18.39c-2,6.28-6.1,13-11.35,17.12-5.52,4.33-12.59,4.44-19.28,3.77s-13.34-1.54-18.7-5.95c-9.22-7.57-12.45-20.89-9.68-32.21S128.87,96.8,140.69,96.41Zm.15,1c-13.06.62-22.88,11.53-24.37,24.49-1.31,11.4,3.77,24.55,14.77,29.44,5.4,2.4,12.23,2.89,18.11,3,6.67.12,12.44-1.74,16.91-6.85,4.17-4.77,7.68-10.89,8.71-17.19,1.12-6.82-1.33-13.5-5.39-18.93A35.43,35.43,0,0,0,141,97.41.35.35,0,0,1,140.84,97.36Zm-10.84,10c9.26-7.67,21.51-2.69,30.33,3.12,3.69,2.43,7.6,5.25,8.91,9.7,1.42,4.81-.26,10-2.33,14.33-4.28,9-11.78,14.09-21.94,13.27-9.55-.77-18.5-5.51-20.62-15.4C122.66,124.48,122.29,112.22,130,107.35Zm-.23,1.19c-5,3.78-5.59,10.7-5.39,16.72s1.3,12.19,6.22,16.1c7.56,6,21.05,7.49,28.92,1.37,4.57-3.55,7.68-10,8.88-15.55,1.49-7-2.32-11.31-7.64-15.05-8.31-5.84-20.12-11.2-29.34-4.64l-.07.05h0c-.41.3-.81.62-1.21,1C130,108.63,129.86,108.62,129.77,108.54ZM0,79.61c2.11-.09,4.22,0,6.32.06A22.8,22.8,0,0,1,14.19,81c14.17,2.87,26.33,18.73,25,33-1.34,14.54-13.86,25.56-27.61,28.43A36,36,0,0,1,0,143v-1.73A35.8,35.8,0,0,0,14.69,140c12.67-3.82,24.29-15.42,23.56-29.44C37.63,98.7,27.7,86.59,16.17,83a.3.3,0,0,1-.47.13,8.44,8.44,0,0,0-.86-.51,22.36,22.36,0,0,0-3.41-.6c-.28,0-.43-.32-.46-.63A47.64,47.64,0,0,0,3.2,81c-1.07,0-2.13,0-3.2.06Zm595.28,0v1.44a38.27,38.27,0,0,0-9.09,1.41,27.84,27.84,0,0,0-16.33,13.21c-6.81,12.08-3.85,26.66,5.85,36.21a33.6,33.6,0,0,0,19.57,9.37V143a34.69,34.69,0,0,1-24.63-14.92A31.59,31.59,0,0,1,571.44,91a28.46,28.46,0,0,1,17.11-10.61A42.31,42.31,0,0,1,595.28,79.61ZM131.93,116.45c.75-1.91,2.54-3.21,4.41-4.32,3.43-2,6.93-3.31,11-2.51,7,1.4,11.93,7.67,13.27,14.48,1.25,6.39-2.74,13.81-8.85,16.35-6.54,2.72-14.65-.66-18.58-6.2a17.39,17.39,0,0,1-1.23-17.76S131.92,116.46,131.93,116.45Zm-.33,2.13c-2.45,7.09-.12,15,6.54,19a16.2,16.2,0,0,0,9.32,2.43c4.44-.27,7.59-2.88,10.08-6.39,5-7.08.86-17.7-6.51-21.51A14.26,14.26,0,0,0,140.51,111c-3.13,1-8.38,3.48-8.41,7.35C132.1,118.79,131.72,118.87,131.6,118.58Zm6.14-.14s0,0,0,0c2.91-5.37,9.86-5.58,13.8-1.18,3.67,4.1,4.18,11.86.39,16.08-4.43,4.92-13,.55-15.54-4.43C134.78,125.74,135.51,121.36,137.74,118.44Zm.19.77a12.29,12.29,0,0,0-1.29,2.85,7.88,7.88,0,0,0,2.67,8.91c3.93,3.1,10,5.26,13-.19,2.63-4.83,1.14-11.84-3.87-14.49a7.83,7.83,0,0,0-7.12-.19.3.3,0,0,1-.13.28,6.55,6.55,0,0,0-1.73,1.07,6.94,6.94,0,0,0-1.2,1.64C138.14,119.27,138,119.29,137.93,119.21ZM0,87.94a33.29,33.29,0,0,1,8.34.44c4.81.88,10.81,2.35,14.74,5.42s6.91,8.76,8.42,13.36c1.58,4.83.6,9.18-2.12,13.37s-5.7,7.86-10.62,9.79C13,132.6,6.29,134.22,0,133.67v-1.59c6.41.56,13.33-1.17,18.87-3.47,4.64-1.94,7.36-5.56,10-9.71,3.65-5.82,2.47-11.31-.82-17-2.42-4.18-5-7.48-9.61-9.29a47.35,47.35,0,0,0-13.63-3.4A33.16,33.16,0,0,0,0,89.2Zm595.28,0V89.2a33.8,33.8,0,0,0-9.63,2.1c-3.86,1.46-8.38,3.7-9.94,7.73-1,6.1-1.86,11.88.49,17.82a24.86,24.86,0,0,0,10.5,12.7,21,21,0,0,0,8.58,2.53v1.59a20.87,20.87,0,0,1-12.82-5.48,29.9,29.9,0,0,1-7.7-12.72c-1.56-5-.92-9.85,0-14.81a.61.61,0,0,1-.19-.59c1-5.14,5.79-8,10.32-9.77A34.16,34.16,0,0,1,595.28,87.94ZM142.51,121c1.34-2,4.69-.49,6,.92a3.51,3.51,0,0,1,.81,3.24,6.68,6.68,0,0,1-2.33,3.61c-2,1.35-5.05-1.29-5.69-3.14A4.26,4.26,0,0,1,142.51,121Zm1.68-.16a.31.31,0,0,1-.2.3,3.15,3.15,0,0,0-1.75,4.83c.7,1,2.48,2.38,3.79,2.29,1-.06,2-1.72,2.29-2.56a3,3,0,0,0-1.3-3.87A5.54,5.54,0,0,0,144.19,120.84ZM0,92.73a28.5,28.5,0,0,1,8.79.6c4.4,1,9.55,2.74,12.49,6.37,4.72,5.82,6.37,13.8,2,20.21-5.3,7.68-14.65,7.07-22.85,5.94L0,125.79v-1.44a25.72,25.72,0,0,0,3.55.45c4.22.24,8.16,1,12.19-.74a15.55,15.55,0,0,0,8.91-10c1.12-4.44-1.28-9.78-4-13.33s-7.76-5.3-12.05-6.26A28.72,28.72,0,0,0,1.45,94H0Zm595.28,0V94a19.2,19.2,0,0,0-3.13.14.32.32,0,0,1-.15.2c-2.34.84-4.51,1.41-6.22,3.36a16.13,16.13,0,0,0-3.14,5.76c-.89,3-.38,5.91.44,8.82.73,2.6,1.41,5.65,3.35,7.66a16.62,16.62,0,0,0,8.85,4.42v1.44a17,17,0,0,1-9.9-5.43c-2.3-2.83-3.29-7.31-3.8-10.85-1-6.88,2.54-13.54,9.12-15.59A13.72,13.72,0,0,1,595.28,92.73ZM0,97.83c3.82-1,7.75-1.39,11.5.24a17.91,17.91,0,0,1,8.27,7.33c3.84,6.78-.2,14.55-7.45,16.56A16.45,16.45,0,0,1,0,120.62v-1.3a15.48,15.48,0,0,0,12.93.84,11.41,11.41,0,0,0,6.88-6.51c1.5-4.09-.53-8-3.39-10.91-4.77-4.8-10.35-5.11-16.42-4Zm595.28,0v.93l-.26,0a8.77,8.77,0,0,0-5.55,4.28c-2.14,3.89-1.18,8.22,1.13,11.8a13.45,13.45,0,0,0,4.68,4.43v1.3a14.84,14.84,0,0,1-7.15-9.08,11.7,11.7,0,0,1,.75-9.17A8.85,8.85,0,0,1,593,98.8c0-.16.05-.33.17-.37C593.89,98.21,594.58,98,595.28,97.83ZM0,104.08a5,5,0,0,1,1.84-.9c4-1.64,9.42-1.35,12.1,2,2.54,3.21.86,9.33-2.2,11.6-2.43,1.8-5,1-7.59,0A8.49,8.49,0,0,1,0,113.44v-1.57c.47.66,1,1.3,1.45,1.87C4,117,10,118.22,12.76,114.32c2.37-3.35,1.64-8.65-2.29-10.36-2.72-1.19-7.91-.83-10.28,1l-.06,0-.13.13Zm7.61,3.16a1.77,1.77,0,0,1,.59,0,5.31,5.31,0,0,1,1.18.94,2.78,2.78,0,0,1,.88,2.36c0,2.16-1.2,3.82-3.6,3.2a4.76,4.76,0,0,1-2.72-1.9A3.21,3.21,0,0,1,4,109a2.92,2.92,0,0,1,2-2.1A2,2,0,0,1,7.61,107.24Zm587.67-3.16v1a4.68,4.68,0,0,0-.9,5.26,8.44,8.44,0,0,0,.9,1.54v1.57c-.49-.73-.93-1.52-1.37-2.34A5.63,5.63,0,0,1,595.28,104.08ZM8.1,108.1s0,0,0,0a7.59,7.59,0,0,0-1.7-.37,2.19,2.19,0,0,0-1.86,1.71,2.27,2.27,0,0,0,1.3,3,3.71,3.71,0,0,0,1.83.33,1.84,1.84,0,0,0,2-1.51A2.71,2.71,0,0,0,9,108.85a7.84,7.84,0,0,0-.61-.54A1.37,1.37,0,0,0,8.1,108.1Zm443-58c13.88-.28,26.29,8.32,32.14,20.93,1.39,3,1.33,6.09,1.25,9.31a46.93,46.93,0,0,1-1,9.53,22.54,22.54,0,0,1-9.28,13.58c-5.8,3.91-12.53,4-19.29,3.68-6.38-.34-13.1-.57-18.75-3.92a35.32,35.32,0,0,1-12.77-13.77c-2.88-6.07-.84-13.78-.37-20.16.4-5.45,4.85-11.46,9.31-14.4,5.45-3.61,12.15-4.46,18.51-4.9A.24.24,0,0,1,451.05,50.09Zm-2.33,1.17c-6.13.89-12.44,1.88-17.4,5.85a24.56,24.56,0,0,0-6,8c-1.71,3.25-1.33,6.84-1.71,10.4s-1.05,7.5.07,11.11c.94,3,3,5.42,5.09,7.77,3.93,4.5,8.25,8.13,14.18,9.57a70.32,70.32,0,0,0,17.24,1.63c5.88-.09,11.46-1.54,15.91-5.55,4.68-4.22,6.63-9.91,7.12-16.09.25-3.19.63-7-.15-10.09s-2.88-5.84-4.67-8.32c-6.9-9.56-17.62-15-29.48-14.24A.28.28,0,0,1,448.72,51.26ZM277,45.1a.4.4,0,0,1,.36-.28,31,31,0,0,1,11.53,1.91c3.58,1.24,7.83,2.62,10.94,4.81,5,3.49,7.86,10.89,8.94,16.63C310.87,79.33,306.59,91,296.72,97c-5.65,3.44-11.65,3.74-18.07,3-3.72-.46-7.53-.81-11.22-1.54-3.12-.62-5.31-2.22-7.62-4.33-4.32-3.94-9-8.34-10.59-14.15-1.57-5.6-.81-13,.67-18.57C253.2,48.84,265.63,45.85,277,45.1ZM431.42,68.65a.36.36,0,0,1,0-.11c-1.21-12,13.89-14,22.35-11.55A68.22,68.22,0,0,1,462,59.53a29.51,29.51,0,0,1,6.45,4.36c3.48,2.81,6.7,5.92,8.11,10.28,1.5,4.69.64,10.08-.67,14.73-1.19,4.21-3.91,8.46-8.52,9.34-2.89.55-6,.1-8.95.5a29.6,29.6,0,0,1-8.56.26,28.31,28.31,0,0,1-13.06-5.62c-5.79-4.63-6.49-11.42-6-18.27a.82.82,0,0,1,0-.27C431,72.77,431.18,70.71,431.42,68.65ZM279.71,46.22a.42.42,0,0,1-.3.17c-6.64.57-13.57,1-19.54,4.24-6.15,3.4-9,9-9.79,15.87-.73,6.29-1,12.63,2.74,18a40.52,40.52,0,0,0,5.83,6.38c2,1.85,4,4,6.63,4.95,3.07,1.17,6.73,1.2,10,1.62,2.76.37,5.52.81,8.3.91a22.71,22.71,0,0,0,14.69-4.7c9.22-7,11.91-19.18,8.09-29.87A30.58,30.58,0,0,0,302.19,56c-1.89-2.57-4.19-3.91-7.05-5.22C290.22,48.52,285.12,46.53,279.71,46.22ZM431.5,75.44a31.41,31.41,0,0,0,.31,8.29c1.17,5.94,6,9.68,11.34,11.88,5.54,2.29,10.56,2.34,16.37,1.63,3-.37,6.49.38,9.32-.77,3.09-1.25,4.94-4.28,6-7.29,2.24-6.38,2.78-13.92-1.63-19.47-3.25-4.1-8.41-8.18-13.31-9.88-5.35-1.85-10.52-3.4-16.2-2.57s-9.78,3.46-11.36,8.56c-.07,1.61-.24,3.26-.41,4.93a25.61,25.61,0,0,1-.32,4.38A1.08,1.08,0,0,1,431.5,75.44Zm7.61-10.09a10.59,10.59,0,0,1,7.32-5.09c4.16-.66,9.27,1.33,12.87,3.17,6.24,3.2,11.27,8.29,11.66,15.59.17,3.21-.16,7.17-1.71,10s-4.88,3.88-7.95,4.51c-4,.83-8.14-.06-11.91-1.44-3.19-1.17-6.93-2.38-9.07-5.19-4-5.32-3.63-14.45-1.76-20.66a.42.42,0,0,1,0-.12l.21-.64C438.87,65.32,439,65.29,439.11,65.35ZM269.52,52.09c4.22-3,9.41-2.09,14.11-.44a45.62,45.62,0,0,1,14.89,8.73c3.63,3.19,4.29,6.27,3.86,10.95-.41,4.4-1.09,9.09-3.53,12.88C293.8,92,282.14,93.74,273.66,92c-4.82-1-8.3-3.93-11.39-7.62-2.9-3.47-5.52-6.81-5.68-11.5-.14-4.37.14-9.91,2.84-13.54C261.7,56.3,265.84,53.89,269.52,52.09ZM439.16,66.46a33.23,33.23,0,0,0-.72,12.6c.44,2.8,1.13,5.89,3.25,7.92a14.74,14.74,0,0,0,4.55,2.54c3.8,1.64,7.59,3.2,11.8,3.08,4.46-.13,9.62-1.47,11.2-6.13a17.67,17.67,0,0,0-.68-13.27c-1.87-3.66-5.46-6.43-9-8.39a27,27,0,0,0-11.17-3.5,10.33,10.33,0,0,0-5.83,1.35C441,63.57,440.19,65,439.16,66.46ZM268.76,53.72c-3.79,2.33-8,4.58-9.73,8.65-2.32,5.52-2.21,13,1.34,17.79,3,4.11,6.45,8.37,11.49,10s11.3.92,16.26-.46c5.26-1.47,9.45-4.58,11.44-9.79a30.23,30.23,0,0,0,1.6-7.09c.51-4,.74-7.45-2.39-10.48a46.29,46.29,0,0,0-13.44-8.69c-5.13-2.27-11.43-3.92-16.14.1A.28.28,0,0,1,268.76,53.72ZM443.7,71.33c4.87-12.08,27.27.49,19.79,12.16-3.58,5.59-12.37,6.05-17.32,2-4.13-3.36-4.91-9.39-2.69-14C443.55,71.36,443.62,71.31,443.7,71.33Zm-.09,1.74a10.07,10.07,0,0,0,5,12.78c4.44,2,10.27,1.65,13.56-2.28C471,73,447.79,59.65,443.77,72.87,443.73,73,443.67,73.06,443.61,73.07ZM269.71,59.29c1.68-2.76,5.37-2.43,8.23-2.26,4.19.25,8.63.87,12.21,3.22,5.71,3.76,6.91,10,4.1,16A15.94,15.94,0,0,1,277,85.58c-7.06-1.16-12.1-5-12.77-12.37C263.8,68.29,265.45,62.17,269.71,59.29ZM449,71.56c5.45-5.17,16,4.76,10,11.25-2.82,3-8.58,2.89-10.88-.79-1.88-3-1.85-7.9.55-10.54C448.82,71.32,448.94,71.4,449,71.56ZM272.59,58.38a.5.5,0,0,1-.18.51c-7,3.24-9.54,13.33-5.5,19.84,3.93,6.33,15,7.07,20.82,3.12a17.42,17.42,0,0,0,6.32-8.12c1.75-4.59.22-8.91-3.61-11.82-3.14-2.39-7.13-3.23-11-3.57C277.53,58.16,274.74,57.74,272.59,58.38ZM448.83,72.61c-1.54,2.83-2.09,7.28.68,9.59a6.73,6.73,0,0,0,8.15.29C464.86,76.75,453.13,67,448.83,72.61Zm4.85,2.27a.17.17,0,0,1,.21-.09A3.44,3.44,0,0,1,456,78.38a1.86,1.86,0,0,1-1.19,1.75,2.74,2.74,0,0,1-2.15-.78c-1.1-.87-2.25-2.61-.92-3.85A3.2,3.2,0,0,1,453.68,74.88ZM275.41,62.93c0-.26.14-.51.37-.51,4.27,0,12.35,1.29,13,6.62.55,4.27-4.2,9.51-8.17,10.51-4.38,1.09-9.52-2.85-9.94-7.21C270.39,69.18,272,63.9,275.41,62.93ZM454.64,76c-.12.14-.34.07-.35-.23s-1.24-.12-1.42-.07a1.66,1.66,0,0,0-1,.68c-.57,1,1,2,1.78,2.39.47.23,1.08.41,1.45-.09a2,2,0,0,0,.2-1.48A2.29,2.29,0,0,0,454.64,76Zm-178-12.46A8,8,0,0,0,272.1,74c1.47,3.42,6.41,5.52,9.71,3.63a17.11,17.11,0,0,0,3.36-2.83,8.91,8.91,0,0,0,2.12-2.8,2.33,2.33,0,0,0-.19-3A2.78,2.78,0,0,0,285,65.78,18.54,18.54,0,0,0,276.68,63.58Zm1.83,4.25.06,0c1.46-.91,3.26.27,3.68,1.79a4.12,4.12,0,0,1-2.2,4.57,2.75,2.75,0,0,1-3.91-2.35A3.74,3.74,0,0,1,278.51,67.83Zm.75.65a.3.3,0,0,1-.14.11A2.87,2.87,0,0,0,277,72.05a2,2,0,0,0,3,.91c1.11-.65,2.2-2.18,1.52-3.46A2.07,2.07,0,0,0,279.26,68.48ZM589.73,0A31,31,0,0,1,589,11c-1.47,5.83-4.71,12.75-8.7,17.27s-12,7.27-18.06,7.46c-3.74.12-7.23-1-10.73-2.18a102.05,102.05,0,0,1-10.48-4c-5.2-2.43-11-5.86-13.59-11.27S526,5.9,527.21,0h1.09L528,1.51c-1.13,6.71-2.38,14,2.73,19.47,4,4.3,9.72,6.93,15.14,9,5.78,2.21,12,4.55,18.3,3.61,6.13-.92,13.23-3.49,16.8-8.8,3.4-5.07,6.57-11.12,7.54-17.18A27.48,27.48,0,0,0,588.71,0ZM583,0a25.78,25.78,0,0,1-2,10.24c-2.1,4.94-6.25,8.69-10.47,11.85-4.44,3.32-8.85,4-14.31,3.47s-9.65-1.8-13.47-5.82-5.89-7.48-6.61-12.87c-.28-2.08-.56-4.44-.66-6.87h.91c.19,5.63,1,11.62,4.67,16,1.92,2.26,4,4.67,6.7,6.08a20.46,20.46,0,0,0,8.42,1.85c3,.19,6.18.38,9-.6,2.63-.9,4.83-2.75,6.91-4.53,4.68-4,8.3-8.69,9.27-14.94A27.66,27.66,0,0,0,581.77,0ZM143.18,0a44.74,44.74,0,0,1-7.33,14.37c-3.48,4.33-8.36,5.63-13.68,6.32C111.79,22,100,19.2,94.91,9.19A17.37,17.37,0,0,1,93.16,0h1.1a15.82,15.82,0,0,0,3.07,10.72c6.11,8.16,16.89,9.65,26.35,8.09,5.37-.88,9.4-2.6,12.55-7.19A46.86,46.86,0,0,0,141.94,0ZM576.83,0a17.2,17.2,0,0,1-1.28,8.07c-2.78,6.39-10,12.42-17.32,11.37-4-.57-7.35-3.51-10.28-6.06-2.62-2.27-4.51-6.38-5.61-9.59A14.3,14.3,0,0,1,541.59,0h.92a16.37,16.37,0,0,0,1.85,5.52c.86,1.67,1.53,3.71,2.68,5.19,1.36,1.74,3.52,3.12,5.25,4.48a11.6,11.6,0,0,0,6,2.73,14.57,14.57,0,0,0,11.15-3.64A17.25,17.25,0,0,0,575.82,0ZM412.59,0A23.4,23.4,0,0,1,408,6.83c-4.2,4.27-10.21,6.21-16.09,6.55C380.49,14,367.7,8.88,360,0H362c.34.34.68.68,1,1,8.26,7.66,20.23,12.22,31.52,10.49C400.37,10.6,406,7.87,409.47,3a25.87,25.87,0,0,0,1.82-3ZM571.7,0a13.08,13.08,0,0,1-4,10c-2.54,2.26-5.48,3.71-8.91,3.19-3.89-.6-6.4-1.78-8.4-5.18a12.45,12.45,0,0,1-1.5-8h.81a11.79,11.79,0,0,0,1.84,7.94c3.27,4.89,10.64,4.72,14.94,1.33A11.86,11.86,0,0,0,570.73,0ZM135.28,0c-.12.41-.25.82-.4,1.21a18.51,18.51,0,0,1-17,12c-7.21.1-15.82-4.12-16.69-12,0-.39-.08-.79-.1-1.19H102a10.75,10.75,0,0,0,3.55,7.42,18.35,18.35,0,0,0,23.34.28A17.25,17.25,0,0,0,134.13,0ZM567.11,0C567,2.54,565,5.34,563.4,6.77a5.42,5.42,0,0,1-5.43.85c-1.6-.53-2.68-2.27-3.42-3.7A6.64,6.64,0,0,1,554,0h.88A6.27,6.27,0,0,0,556,4.22a4.73,4.73,0,0,0,3.45,2.26,4.09,4.09,0,0,0,3.64-1.23,11,11,0,0,0,2.68-3.89A4.14,4.14,0,0,0,566,0ZM129.75,0a19.13,19.13,0,0,1-1,2.46c-1.64,3.21-4.52,4.78-8,5.14-3.35.34-7.45.24-10.22-1.87A9.08,9.08,0,0,1,107,0h.85a7.19,7.19,0,0,0,4,4.92c4.24,2.15,12.12,2,15.18-2A13.2,13.2,0,0,0,128.68,0ZM403.36,0a44.56,44.56,0,0,1-3.58,3.2c-4,3.24-8.36,4.72-13.48,3.71A29,29,0,0,1,372.59,0h1.84a29.55,29.55,0,0,0,11.06,5.41c6.44,1.51,11.41-1.2,16-5.41ZM562.81,0a2.4,2.4,0,0,1,.09,1.73A3.06,3.06,0,0,1,559.65,4c-.65,0-1.23-.17-1.44-.83a4.93,4.93,0,0,1-.05-2.26A3.27,3.27,0,0,1,558.5,0h1.39a1.78,1.78,0,0,0-1,1.06,3,3,0,0,0-.12,1.24c0,.57.41.63,1,.64a2.48,2.48,0,0,0,2.25-1A1.38,1.38,0,0,0,561.74,0ZM125,0a6.41,6.41,0,0,1-3.14,2.33A9.38,9.38,0,0,1,112.68,0h2.16a3.25,3.25,0,0,0,.43.18,12.45,12.45,0,0,0,4.55,1.1A5.73,5.73,0,0,0,123.37,0Z" style="fill:#fff"/></g></g></svg>