<svg xmlns="http://www.w3.org/2000/svg" viewBox="0 0 1080 1080"><title>circles_white1</title><g id="Layer_2" data-name="Layer 2"><g id="Layer_1-2" data-name="Layer 1"><path d="M183.34,1080a69.15,69.15,0,0,1,2.77-22.12,28.46,28.46,0,0,1,6.44-11.91,1.18,1.18,0,0,1,.12-.6c8-14.81,31-7.31,41.57-.38,5.67,3.71,11.38,7.82,12.49,14.88a47.17,47.17,0,0,1-1.29,20.13h-2.1a35.33,35.33,0,0,0,1.6-7c.52-4.1.89-9.2-.07-13.27-1.18-5-5.38-8-9.33-10.85-6.26-4.49-13.79-8.45-21.55-9.38-5.7-.68-12.74,0-17.26,3.86a1,1,0,0,1-.15.79,26.1,26.1,0,0,0-2.49,2.29c-.1.17-.21.35-.3.54s-.36.41-.53.37c-4.6,5.28-6.6,11.83-7.52,19.07A62.25,62.25,0,0,0,185,1080Zm829.93,0a3.86,3.86,0,0,1,3.57-2.28.42.42,0,0,1,.35,0c1.23.43,2.81.77,3.64,1.88a2.5,2.5,0,0,1,.25.41h-1.94a2.7,2.7,0,0,0-1-.46.42.42,0,0,1-.38.16,3.92,3.92,0,0,0-2,.3Zm-808.84,0a8.66,8.66,0,0,1-2.28-5.67c-.16-7.71,4.32-17.06,12.64-18.36a.14.14,0,0,1,.11,0,13.79,13.79,0,0,1,8.65,1.31c3,1.64,4.95,4.85,5.82,8.09a17.83,17.83,0,0,1-2.64,14.62h-2.91a13.31,13.31,0,0,0,4.09-13.65c-1.41-5.06-9.31-11.86-14.86-7.87-.33.24-.6.06-.74-.24a17.3,17.3,0,0,0-8.42,13.06,7.89,7.89,0,0,0,4.46,8.7Zm778.15,0c-.5-8.75,3.88-16.43,10.78-21.92,5.92-5.5,14.33-6.06,22.17-6.13s16.37,1.43,22.11,7.39a33.72,33.72,0,0,1,8.88,20.66h-1.83a30.93,30.93,0,0,0-6.91-17.54c-5.59-7-14.79-8.4-23.2-8.22-6,.13-12.85.19-18.09,3.27-1,.76-2,1.52-3,2.31-.2.2-.39.4-.58.62s-.22.16-.31.13c-4.41,3.84-7.62,8.31-8.35,15a20.2,20.2,0,0,0,0,4.4Zm-26.07,0c.18-1,.37-1.89.55-2.82,2.25-11.42,5.85-22.79,13.57-31.76,8-9.31,18.34-12.73,30.32-13.42a120.37,120.37,0,0,1,38.31,4,.59.59,0,0,1,.56,0l.45.24,2.06.59a.9.9,0,0,1,.51.87,56.47,56.47,0,0,1,27.1,42.26h-1.86a53.75,53.75,0,0,0-28.71-41.1,1.35,1.35,0,0,1-.62-1c-22.85-5.77-53.85-9-69.08,12.14-6.34,8.79-9.26,19.39-11.19,29.93Zm15,0c-.53-12.83,1.67-26.62,14.35-31.39,2.25-1.74,5-1.82,8.11-2.19,6.39-.79,12.19-3.42,18.46-4.55,5.95-1.07,11.47,1.34,17,3.32a73.84,73.84,0,0,1,14.31,6.58c7.94,5,12.08,11.51,13.38,20.79a57.52,57.52,0,0,1,.54,7.44h-2.2c.15-9.56-2.79-18.71-11.1-24.57a63.28,63.28,0,0,0-13.71-6.93c-5.07-2-10.66-4.56-16.19-4.22-5.05.32-10,2.82-14.91,3.84-4.25.86-11.4.08-14.58,3.34-.25.26-.46.14-.6-.12-8.56,5.1-11.41,15.82-11.25,25.6,0,1,0,2,.07,3.06Zm-318.35,0a56.22,56.22,0,0,1-4.88-6.55c-6.28-9.87-6.43-22.38-4.83-33.63,1.65-11.6,6.45-22.64,15.68-30.15s21.16-10.83,32.93-11.11a92.81,92.81,0,0,1,21.59,2.27,48.49,48.49,0,0,1,6.11,1.62c24.24,7.55,37.92,32.14,34.41,57a75,75,0,0,1-5.67,20.57h-2.36a64.24,64.24,0,0,0,6.92-31.12c-.63-17.52-11.54-33-26.75-40.87a.3.3,0,0,1-.49,0c-.18-.18-.37-.35-.56-.52a49.69,49.69,0,0,0-8.35-3.17,1,1,0,0,1-.64-.79c-2.94-.67-6-1-8.56-1.44a80.44,80.44,0,0,0-19.48-.88c-12,1-24.13,5.79-32.39,14.78-8.41,9.16-11.16,21.81-11.34,33.92s3.87,21.68,12.16,30.09Zm342.7,0c.1-1.23.25-2.5.4-3.83.7-6,2.74-8.83,6.61-12.31a8.93,8.93,0,0,1,2.08-1.8l.12-.1a.63.63,0,0,1,.3-.16c4-2.26,9.67-2.18,13.88-2,5.88.26,11,2.67,14.29,7.7a24.13,24.13,0,0,1,3.62,12.49h-1.76a19.64,19.64,0,0,0-3.9-12c-3.46-4.49-8.48-5.68-13.9-5.88-4-.15-8.75-.47-12.16,1.73-3.62,3.85-6.69,6.34-7.61,12.08-.22,1.37-.39,2.71-.5,4ZM676,1080a48.8,48.8,0,0,1-14.32-22.62c-3.83-13.33-1-29.2,8.59-39.4a.47.47,0,0,1,.19-.35l.57-.42c.52-.52,1.07-1,1.63-1.52a31.51,31.51,0,0,1,4.38-4.35c.52-.36,1.47,0,1.88-.18,1.78-.6,3-.93,4.59-1.63,4.86-2.12,9-3.46,14.45-3.07,10,.71,21.93,5.35,30.23,10.95,7.61,5.12,10.82,13.76,13.42,22.18s3.25,17.12.31,25.47c-2,5.68-5.76,10.63-10.08,14.94h-3.4l.74-.69c8.51-8,13.81-16.9,12.79-29-.86-10.23-5.33-23.68-13.87-30-4.37-3.24-9.72-5.23-14.73-7.26-5.19-2.11-10.57-4-16.23-4.34s-9.74,1.68-14.82,3.3c-1.55.49-3.12.64-4.6,1.25a.37.37,0,0,1-.12.2c-8.7,6.62-15.86,18.39-16.26,29.48-.38,10.53,3.87,22,10.61,30a48.14,48.14,0,0,0,7.39,7ZM169,1080a74.93,74.93,0,0,1,1.79-11.62c2.06-9.41,3-21.18,8.81-29.23,5.23-7.24,13.73-11,22.27-12.62a107.92,107.92,0,0,1,18.74-1.41c5.06-.06,9.68.15,14.18,2.66a1.08,1.08,0,0,1,.44.83c9.1,5,17.47,11.5,22.57,20.77s5.24,19.63,2.25,29.62c-.1.33-.2.67-.31,1h-2.25c.27-.83.53-1.67.78-2.5,6.82-23.12-9-38.2-27.33-48.93a.75.75,0,0,1-.24-.23c-3.87-1-7.94-.89-12-.79a104.37,104.37,0,0,0-15.79,1.23c-9.77,1.73-20,6.63-24.25,16.17-3.64,8.22-4.78,18.39-6.59,27.16A51.28,51.28,0,0,0,171,1080Zm836,0c.48-3.72,2.4-7.33,5.4-9.16a.36.36,0,0,1,.24-.06c4.79-2.74,13.12.15,16.47,3.93a7.22,7.22,0,0,1,1.76,5.29h-2c0-2.73-1.85-4.65-4.62-6s-8.14-3.26-11.37-1.61a.57.57,0,0,1-.14.13,8.82,8.82,0,0,0-1.43,1.2,3,3,0,0,0-.2.29.5.5,0,0,1-.28.24,10.3,10.3,0,0,0-2.25,5.73Zm-810.94,0c-1.22-6.47.68-13.86,3.63-19.92a1,1,0,0,1,0-.43c3-15.42,20.39-15.77,31.78-8.84,9.3,5.65,9.29,19.29,5.92,29.19h-1.94c4.09-9.93,2.74-23.69-7.17-28.45-4.37-2.11-9.85-3.6-14.72-3.06-5.41.6-8.9,3.76-11.09,8.11a.44.44,0,0,1,0,.28c-.49,1.15-1,2.36-1.52,3.62l0,.07c-2.47,6.16-4.69,13.44-3.27,19.43Zm488.85-58.07a23.24,23.24,0,0,1,9.85-3.19c8.19-1,17.27-.42,24.55,4,9,5.4,17.65,21.48,14.69,32a36.52,36.52,0,0,1-10.92,17c-5.55,4.75-11.72,6-18.84,6.23-6.68.26-13.11.08-18.35-4.56-4.56-4-7.46-9.84-9.84-15.35-4.55-10.51-1.9-22,4.42-31.18a12.75,12.75,0,0,1,2.79-3.62c.35-.4.69-.8,1.05-1.18S682.77,1021.78,682.93,1021.93Zm-464.84,43.28c2.87.26,4.72,3.36,4.16,6.12-.65,3.16-4,6.3-7.35,5.79-7.22-1.08-3.58-14.55,3-12A.38.38,0,0,1,218.09,1065.21Zm460.68-35.63a37.3,37.3,0,0,0-5.77,15.48c-.89,7.39,4,16.32,8.45,22.09,8.62,11.09,28.42,11.28,38.8,2.46,6.61-5.62,12-14.79,10.19-23.58a38.41,38.41,0,0,0-11.11-19.43c-5-4.46-14-6.55-20.46-6.32-5.19.19-11.88.64-16.17,3.93a51.35,51.35,0,0,0-3.49,4.69l-.07.19A.77.77,0,0,1,678.77,1029.58Zm-461.39,36.71c-4.9-1-7.36,8.55-1.9,8.67a6.18,6.18,0,0,0,5-3.12c1.61-2.63-.51-4.93-3-5.52A.09.09,0,0,1,217.38,1066.29Zm471-31.31c1.23-3.69,4.31-4.86,8.19-5.58,6.46-1.21,11.42-.53,16.79,3.4a18.12,18.12,0,0,1,3.59,26c-6.74,8.52-20,9.38-26.62.5C685.23,1052.52,684,1042.41,688.37,1035Zm3.09-2.16a.63.63,0,0,1-.09.22,20.17,20.17,0,0,0,.6,25c5.62,6.85,14.51,7,21.1,1.36,8.34-7.09,7.8-18.94-1.13-25.22-3.16-2.22-7.37-4.26-11.32-4.07C697.91,1030.26,694,1030.91,691.46,1032.82Zm6.87,9.14c2.84-3,6.95,1.78,7.69,4.45.87,3.19,1.21,8.13-2.9,9C695.14,1057,692.26,1045.86,698.33,1042Zm1.68,1.41a.8.8,0,0,1-.3.28c-2.43,1.16-4.2,4.22-2.64,6.8a5.8,5.8,0,0,0,5.17,2.62c3.4-.2,3.07-4.41,2.1-6.76a4.77,4.77,0,0,0-3-2.86A3.54,3.54,0,0,0,700,1043.37ZM467.68,930.93c12.77,2,28,6.38,37,15.8,8.61,9,16.46,19.74,17.78,32.49,2.46,23.89-14.15,46-36.37,53.16s-49.62,7.76-66.8-10.79c-7.34-7.93-12.78-20.33-14-31.07-.69-6,.29-12.42,1.12-18.34a54,54,0,0,1,4-14.89c4.27-9.37,12.45-15,21.71-18.84,10.79-4.48,23.68-9.74,35.5-7.56Zm-.58,1.91c-11.75-1.34-23.9,3.11-34.63,7.6-11.86,5-20.36,12.76-23.31,25.64-2.58,11.26-3.28,22.84.57,33.8,3.61,10.29,8.79,19.51,18.1,25.6,18.88,12.34,42.87,9.58,63,2,21.45-8.1,36.33-35.41,27.86-57.42-2.07-5.37-5.53-10-9.17-14.36-3.35-4.05-6.66-8.36-10.95-11.45C489.47,937.7,477.72,935.82,467.1,932.84Zm-34.33,16.44c3.5-2.8,8.87-3.84,13-4.86a53.48,53.48,0,0,1,17.09-1.52c10,.77,21.37,2.9,29.86,8.55a38.69,38.69,0,0,1,15.89,41.28c-2.06,8.46-6.95,17.46-14.74,21.88-5.09,2.88-11.21,4.28-16.81,5.82-4.73,1.31-9.47,2.47-14.42,2.35-5.37-.15-10.57-1.66-15.69-3.13-4.6-1.33-10.16-2.22-14.28-4.73-6.35-3.87-12.29-13.39-13.8-20.54-1.07-5.06-.47-10.43-.15-15.54.34-5.36.64-10.79,1.3-16.12C421,954.86,425.93,951.59,432.77,949.28Zm-1,2.72c-3,1.13-6,2.58-7.82,5-3.26,4.3-2.84,11.55-3.25,16.78-.42,5.41-1.24,11-.74,16.41s3.19,10.06,6.43,14.38c2.82,3.77,5.54,7.5,10.13,9.17,3.51,1.27,7.33,1.94,10.93,2.93,9.38,2.58,17.63,3.85,27.24,1.67,9.09-2.06,19.08-5,25.19-12.42a36,36,0,0,0,8.24-23.87c-.48-15.9-12.05-29.27-26.93-33.84-7.89-2.43-16.74-4.11-25-3.51a62.6,62.6,0,0,0-13.51,2.9,50.44,50.44,0,0,0-7.42,2.39,1,1,0,0,1-.53.91l-1.91.68a4.27,4.27,0,0,0-.38.36C432.17,952.23,431.94,952.19,431.77,952Zm19,1.92a.58.58,0,0,1,.56-.42,97.8,97.8,0,0,1,27.7,5.43c7.95,2.84,12.14,5.82,16,13.32,5.77,11.34,3.71,25.39-7.22,32.87-6.1,4.18-12.59,4.46-19.75,4s-13.82-.11-20.26-4c-5.33-3.18-11.63-7.9-14.65-13.47-2.9-5.36-3.6-12.88-2.89-18.85A21.82,21.82,0,0,1,450.81,953.92Zm3.79,1.85a.36.36,0,0,1-.18,0,21.38,21.38,0,0,0-18.31,7.51c-5.4,6.48-5.62,16.62-2.83,24.35,2.5,7,10.92,13,17.38,16.33,6.23,3.19,14.41,2.64,21.29,2.79,18.66.4,29.86-17.4,21.45-34.18-4-8-11.14-10.55-19.27-13.05A95,95,0,0,0,454.6,955.77Zm14.64,12.39c8.36,1.77,17.85,9.48,16.53,18.28-1.79,11.95-17.91,13.85-27,10.83-9.34-3.1-19.64-11.49-16.77-22.52S460.82,964,469.24,968.16Zm-4.48.22c-7.7-1.53-18.17-1.6-21,5.91-3.65,9.8,6.59,17.26,14.48,20.11s19,2.54,24.08-5.16c6.54-9.88-8.46-20.47-17.08-20C464.88,969.29,464.71,968.8,464.76,968.38Zm3.63,10.41c1.9,2.41,3.47,5.21,1,8.07-1.57,1.86-4,1.79-6.17,1.44-2-.33-4.71-.46-6.41-1.73-3.05-2.26-2.32-7,.37-9.23,2.06-1.69,4-.38,6.39-.3,2,.06,3.77-.34,4.76,1.68A.64.64,0,0,1,468.39,978.79Zm-1.64,0c-1.62-.24-3.14-.11-4.87-.27-2-.19-4.42-.82-5.26,1.76.45,1.63.89,3.25,1.33,4.88a8.34,8.34,0,0,0,2.3.57c1.89.34,4.19.91,6.1.6,2.33-.38,3.7-2.21,2.46-4.78a16.74,16.74,0,0,0-1.94-2.52A.68.68,0,0,1,466.75,978.77ZM178.26,816.42c32.31,1.72,61,23.63,67.37,56.18,5.21,26.82-7.67,55-32.29,67.4a100.13,100.13,0,0,1-48.24,10.77c-14.37-.4-27.1-2.6-38.35-12.16-22.82-19.42-26.15-53-19.36-80.61,3.19-13,11.7-22.64,23.27-29,7.61-4.22,16-6.81,24.38-9,7.46-2,15.19-4.42,23-3.63A.54.54,0,0,1,178.26,816.42Zm-2.09,1.75c-8.23-.18-16.7,2.69-24.5,4.91a94.12,94.12,0,0,0-21.29,8.47c-6.52,3.75-12.54,8.82-16.59,15.23-4.51,7.17-6,15.7-6.87,24-2.93,26.83,4.07,58,30.23,71.16,12.07,6.06,27.53,6,40.75,5.1a90.44,90.44,0,0,0,39.83-12.87c24.09-15,32.91-46.16,22.83-72.15-10.17-26.24-36.32-42.47-63.94-43.6A.57.57,0,0,1,176.17,818.17Zm675.7-20.11c17.18-1.26,30.76,7.85,45.31,16.34,12.79,7.46,21,21.19,24.75,35.26,4,15.14.78,30.49-4.78,44.81-2.62,6.73-5.27,13.88-9.39,19.87-3.79,5.5-9.07,9.49-14.69,13-6.84,4.24-14.05,8.48-21.92,10.49-7.7,2-15.61,1.53-23.39.2-14.5-2.48-30.15-6.45-41.5-16.33-10-8.71-19.49-21.51-21.56-34.88-1.1-7.08-.32-14.49.15-21.59a91.32,91.32,0,0,1,3.61-21.85A65,65,0,0,1,851.71,798Zm-3.77,2c-29.36,2.36-54.65,23.58-59.9,53.16-2.41,13.56-4.29,30.45,1.85,43.21,5.93,12.31,16.45,24.08,29,29.72,12.11,5.44,27.56,9.28,40.8,9.22,13.8-.06,27.81-7.55,38.56-15.86,11-8.47,16-23.24,20.06-36,4.89-15.22,4.28-30.34-2.77-44.8a54.06,54.06,0,0,0-12.23-16.63c-5.28-4.74-11.73-7.3-17.7-11-5.42-3.33-10.37-6.77-16.52-8.69a47.33,47.33,0,0,0-20.38-1.6C848.47,800.89,848.2,800.54,848.1,800.09ZM170,831.35c7.22-1.39,14.75-.85,22,0,6.12.67,12,2.19,17.17,5.6,9.48,6.22,18.52,15.91,20.1,27.41,1.53,11.18,2.75,23.17-.3,34.2a45.65,45.65,0,0,1-7.92,15.2c-3,4.07-6.15,8.55-10.37,11.49-9.31,6.5-23.2,8.94-34.32,9.55-11.38.63-24.73-.93-34.32-7.61-4.58-3.18-7.42-7.64-10.24-12.34s-5.82-9.23-8.05-14.16c-4.92-10.87-2.9-22.85-.78-34.14,1.8-9.6,4.4-18.72,13.48-23.74,6.18-3.42,13.19-6,19.76-8.6C160.83,832.39,165.24,831.12,170,831.35Zm-1.56,1.44c-5,.31-9.79,2.15-14.51,4.23-5.4,2.38-11,4.62-16.22,7.36-11.54,6-13.27,19.61-15,31.35-1,7-1.27,14.47,1.24,21.26,1.71,4.64,4.6,8.82,7.14,13,2.66,4.41,5.12,9.26,9,12.77,3.63,3.3,8.24,5.33,12.88,6.74a70.77,70.77,0,0,0,31.93,1.66c9.76-1.59,22.15-4.48,29.21-11.9,8.56-9,14.36-19.68,14.92-32.23a108.47,108.47,0,0,0-.61-15c-.59-6.24-.89-12.56-4.51-17.91-5.34-7.89-14-16-23.14-18.87a65.87,65.87,0,0,0-31.61-1.6C168.73,833.82,168.47,833.33,168.45,832.79Zm-25.06,22.38a1.38,1.38,0,0,1,.2-1.07c7.11-7.81,18.74-9,28.49-11.28,10.5-2.46,19.37-3.25,28.8,2.83,6.85,4.42,15,11.56,17.53,19.61,2.25,7.12,1.16,16.74-.83,23.78a54.47,54.47,0,0,1-13.94,22.85c-6.5,6.1-15.23,7.79-23.73,9.19-8.73,1.43-17.7,1.62-25.18-3.76-6.79-4.89-12.2-13-15.9-20.43-3.52-7-3-15.44-2.24-23.07C137.29,867,139.07,860.46,143.39,855.17Zm683.27-32.83c8-9,20.47-10.7,31.94-10.33,14.16.46,25.17,5.85,35.47,15.37,7.59,7,14.95,15.58,16.3,26.2,1.58,12.51-4.7,24.89-9,36.22-2,5.11-3.83,10-7.39,14.24a67.4,67.4,0,0,1-13.21,11.79c-5,3.43-10.55,4.55-16.53,4.81-6.41.28-13.09.49-19.45-.51-11-1.74-19-8.07-26.17-16.25-7.38-8.48-14.73-17.11-15.87-28.67-1.08-10.88-.93-22.91,3.89-32.94A42.38,42.38,0,0,1,826.66,822.34Zm-681,32.19a.8.8,0,0,1-.19.48c-7.22,7.74-7.91,18.8-7.77,28.87.14,10.25,6.49,20.23,13.55,27.53,7.91,8.15,17.89,8.85,28.56,7.07,9.93-1.66,19.75-4.7,26.11-13s10.36-17.23,11.41-27.63c.69-6.88-.05-12.9-4.55-18.43a57.28,57.28,0,0,0-11.28-10.6c-10.18-7.21-19.41-6-31-3.32C162.15,847.46,152.37,848.64,145.7,854.53Zm680.88-30.1a42.07,42.07,0,0,0-20.07,23.1c-4,11.5-4.42,29.13,1.85,39.82A87.54,87.54,0,0,0,827.85,910c8.6,6.91,19.06,8.49,29.82,8.11,5.56-.19,11.63-.37,16.89-2.3,4.76-1.75,8.62-5.29,12.36-8.61,4.75-4.21,8.44-8.65,10.9-14.55,1.95-4.66,3.7-9.42,5.52-14.13,4.71-12.17,8.21-24.3.95-36.3-4.9-8.11-12.68-15.23-20.55-20.45-14.58-9.67-41-11.7-54.76,1a.76.76,0,0,1-.38.58l-.44.21c-.28.27-.54.55-.81.84S826.77,824.71,826.58,824.43ZM151.17,868.94a1.5,1.5,0,0,1-.18-1.17c1.81-5.31,4.61-11.17,10-13.59,3.27-1.46,7.08-1.21,10.58-1.36a118.5,118.5,0,0,1,14.1-.18c11.42.87,22.69,7.07,23.19,19.65.43,11-3.68,24.63-14,30.13-11.21,6-27.85,8.12-37.25-2C149.74,891.91,148.9,879.86,151.17,868.94ZM875.87,829c7.82,4.54,15.33,9.91,19.48,18.2a35.93,35.93,0,0,1,2.56,24.68c-2.08,8.22-7.29,14.42-13.35,20.12-7.35,6.91-13.89,11.7-24.14,12.9-8.79,1-18.17.46-25.63-4.78-6.87-4.84-12.2-12.4-15.35-20.11-5.92-14.53-4.47-31.35,6.08-43.37,11.3-12.88,32-15.32,47.61-9a.38.38,0,0,1,.42,0l1.24.7c.28.12.55.25.83.39A.61.61,0,0,1,875.87,829ZM152.55,867.94c-2.16,14.19-.63,32.66,16.18,36.44,7.29,1.64,15.35-.39,22.17-3S202,894,204.56,887.26c2.66-7,4.45-17-.25-23.47-4.28-5.85-11.66-8.09-18.56-8.68a114.11,114.11,0,0,0-19.56.26C158.65,856,154.94,861.4,152.55,867.94Zm721.09-38c-17.85-7-41-2.91-51.19,14.28-10.62,17.91-3.15,43.68,14.63,54.32,8.61,5.16,21,4.94,30.45,2.07,9.15-2.79,18.67-12.32,24.07-20.07a32,32,0,0,0,3.89-28.46C891.91,841.46,883,835.23,873.64,830ZM179,863.39a.56.56,0,0,1,.65-.34c6,1.4,13.5-1,18.21,3.88,3.05,3.19,3.67,7.81,2.7,12-2.35,10-12.75,17.37-22.95,16.46a20.45,20.45,0,0,1-18.12-18.58c-.28-3.95.71-8.7,3.91-11.33C167,862.5,173.81,862.75,179,863.39Zm.05,1.32c-3.51,0-7.21-.28-10.5.52-6.75,1.62-8.92,7.71-7.37,14.07A18.1,18.1,0,0,0,179,892.89c8-.23,16.05-5.19,19.11-12.69,3.19-7.85-1.62-13.83-9.49-14.39-3.18-.23-6.2-.11-9.32-.88A.53.53,0,0,1,179,864.71Zm667.19-25.87a10.27,10.27,0,0,1,3-1.55,36,36,0,0,1,11.4-1.31A30.91,30.91,0,0,1,881,844.1c9.31,8.8,8.89,20.77,3.53,31.75a26.26,26.26,0,0,1-11.41,11.82c-3.37,1.71-7.18,2.41-10.83,3.29-3.17.76-6.68,2-9.95,1.52-5.18-.74-11.87-5.79-15.55-9.29s-7.13-8.91-7.86-14.15c-.77-5.5,1.69-12,4-16.85,2.79-5.78,7.36-9.75,12.49-13.43A.48.48,0,0,1,846.19,838.84Zm-2.68,3.83c-4.48,4-8.13,8.07-10.4,14-1.23,3.21-2.69,7-2.6,10.51.11,4,3.09,10,5.9,12.8,4.22,4.15,12.79,9.41,18.81,9.18,5.59-.22,13.83-2.33,18.66-5.21,6.54-3.91,10.16-10.81,12.1-18,2.41-8.85-1-16.59-8.19-22a32.19,32.19,0,0,0-21-5.94c-3.42.19-7.23.63-10.22,2.38A32.72,32.72,0,0,0,843.51,842.67Zm-662.35,29.7c4.15,1,8.26,4,6.37,8.61-2.12,5.22-8.42,5.68-13.07,4-3.57-1.31-5.89-5.69-3.63-9.32C172.55,872.86,177.93,870.84,181.16,872.37Zm0,1.45a8,8,0,0,0-6.41.92c-2,1-3.14,1.94-3.34,4.28-.26,3,2.46,3.85,4.49,4.38,3.1.82,6.64.7,9.07-1.63C189.16,877.76,184.27,875.24,181.16,873.82Zm673-23c7.1-3.3,18-2.6,21.53,4.83,4,8.41-3.76,16.49-11,19.51-6.78,2.84-19.1,3.9-22-4.9-2.64-8,3.68-17,11.13-19.48A.36.36,0,0,1,854.16,850.84Zm-3.24,3a16.36,16.36,0,0,0-4.44,4.3c-2.76,4.06-4.13,10-.34,14.07s12.93,2.52,17.32.85c7.89-3,17-14.89,5.75-20.27-6-2.88-12.14-1.33-18,1.1A.3.3,0,0,1,850.92,853.89Zm6.21,4.39c0-.34.18-.64.48-.61,2.46.2,7.3,2.8,6,6-.35.84-1,1.5-1.34,2.36a5.14,5.14,0,0,1-1.08,1.94,4.39,4.39,0,0,1-3.95,1c-2.67-.56-7.13-3.37-5.57-6.59A8.7,8.7,0,0,1,857.13,858.28Zm1.23,1.15a8.53,8.53,0,0,0-4.2,1.79c-1.33,1.16-1.93,2.6-.55,4a7.69,7.69,0,0,0,3.19,1.63c2.78.72,4.23-1.09,5-3.53.28-.88.55.1.08-1.26a2.82,2.82,0,0,0-1.12-1.44A8.71,8.71,0,0,0,858.36,859.43ZM394.74,663.8c17.64,1,36.24,4.47,51.4,13.77A64.66,64.66,0,0,1,474,714a62.81,62.81,0,0,1-1.38,41A93.44,93.44,0,0,1,460,776.83c-4.93,6.59-10.2,13.37-16.52,18.68-13.07,11-30.8,14.21-47.42,13.18-17.36-1.07-36.92-4.91-52.2-13.5-27.3-15.37-32.74-50.66-22.7-78.23a81.85,81.85,0,0,1,73-53.73C394.45,663.22,394.66,663.48,394.74,663.8Zm-1.91,1.42c-35.12,2.57-65.06,27.23-72.66,62-3.25,14.86-2.38,31,4.61,44.67,7.24,14.2,20.54,22.09,35.38,26.64,30.56,9.38,66.77,13.2,89.92-13.22,10.36-11.83,20.53-25.57,24-41.21,3.13-14.07.23-29.09-6.69-41.61A63.61,63.61,0,0,0,437.8,675.1C423.55,668.65,408.15,667.13,392.83,665.22Zm-38.55,24.14a26.61,26.61,0,0,1,13.65-9.63c7.08-2.11,14.55-.73,21.79-1.48,8.07-.83,15.62-1.65,23.68-.21a67.26,67.26,0,0,1,21.1,7.7c20.14,11.4,39,35.59,30.68,59.79-4.3,12.43-10.83,23.7-21.81,31.17-11.48,7.81-25,14.67-38.95,16.53-14.33,1.92-27.42-2.11-40.12-8.5-6-3-12.24-5.68-16.22-11.3-1.68-2.36-3-4.95-4.71-7.3-2.18-3-4.74-5.69-6.48-9-5.73-10.91-2.37-25,.47-36.25,2.93-11.63,7.45-23,16.34-31.37A.5.5,0,0,1,354.28,689.36Zm-1.2,3.61c-9.1,9.72-12.94,22.32-15.44,35.23-1.31,6.72-2.75,13.92-1.5,20.75,1.42,7.74,7.36,13.11,11.4,19.53,6.48,10.31,20.26,15.73,31.54,19.45,12.06,4,24.47,3.18,36.53-.38a95,95,0,0,0,31.69-17c4.86-3.91,8-8.88,10.81-14.37,3.07-6,6.32-12.24,7.18-19,3.22-25.27-22-47.32-43.76-54.48a60.12,60.12,0,0,0-18.28-3.08c-5.92-.05-11.73,1.26-17.64,1.35-6.46.11-12.56-1.22-18.79,1.19a26.52,26.52,0,0,0-12.76,10.8C353.7,693.48,353.33,693.35,353.08,693Zm31.59-3.59c19.25-7.22,40.64,2,53.6,17.87,5.87,7.19,12.25,16.88,13.64,26.25s-3.85,18.3-10.63,24.48c-15.11,13.76-38.6,24.51-59,17.5a44.6,44.6,0,0,1-30-42.07,45.71,45.71,0,0,1,7.31-24.64c6-9.12,15.1-14.54,24.52-19.58A.35.35,0,0,1,384.67,689.38Zm-4.83,4.13c-7.79,4.8-15.18,10.16-19.84,18.31a43.2,43.2,0,0,0-5,29.7c3.51,17.3,19.33,30.57,36.67,32.5,18,2,37.95-8.29,50.3-20.86,4.53-4.6,8.27-10.73,8-17.41-.19-4.87-2.65-9.63-4.86-13.88a71.79,71.79,0,0,0-16.75-21.51C415.25,689.13,395.36,685.08,379.84,693.51ZM0,669.62a63.4,63.4,0,0,1,14.34,2.51c11.54,3.18,22.53,8.92,30.52,18,12.69,14.39,15.11,35,5,51.54C39.21,759.08,19.22,765,0,762.43V759.7a76.51,76.51,0,0,0,8.86.56c17.81.1,35.54-9.66,42.45-26.58C58.89,715.1,51,695.52,35,684.34c-8.68-6.1-22.59-12.45-35-12.51Zm1080,92.81c-1.35-.17-2.69-.39-4-.65a43,43,0,0,1-26.12-15.33c-3.1-3.72-7-8.08-8.54-12.74s-.59-10.17-.5-14.87c.11-5.62.06-11.34,1.62-16.8A62.89,62.89,0,0,1,1049,687.9c4-6.84,9.54-13.22,17.11-15.34a26.54,26.54,0,0,1,13.88-2.94v2.21a30.17,30.17,0,0,0-8.55,1.13.5.5,0,0,1-.36.29c-.4.06-.8.13-1.19.21a21.87,21.87,0,0,0-5.34,2.82c-.53.38-.94.06-1.14-.45-7.24,3.95-12,11.41-15.71,19a45.5,45.5,0,0,0-5,19c-.21,4.9-1.13,10.83-.37,15.68.88,5.68,4.78,9.81,8.33,14.06a49.84,49.84,0,0,0,9.53,9.22c5.72,4,12.72,6,19.76,6.94ZM381,704.22c4.26-3.18,9.55-4.05,15-4.72,8.63-1,17.1,2.13,24.39,6.39,5.44,3.18,10.54,7.39,12.55,13.59,1.9,5.84.55,12.66-1.5,18.27-4.92,13.47-17.32,25.31-32.52,23.78a44.89,44.89,0,0,1-19.15-7.19c-3-2.05-4.89-5.4-6.79-8.41-1.72-2.73-3.75-5.58-4.8-8.68-2-5.87.48-12.87,2-18.6.84-3.15,1.66-6.49,3.91-9,1.87-2.07,4.45-3.25,6.27-5.41C380.61,704,380.82,704,381,704.22Zm-3.15,4.88c-.58.45-1.17.91-1.76,1.44-3.49,3.15-4.28,8.28-5.28,12.65-1.18,5.13-2.61,10.28,0,15.21a77.74,77.74,0,0,0,6.29,9.67c4,5.35,12,8.68,18.38,10.41,8.49,2.31,17.29-1.2,23.7-6.79A37.76,37.76,0,0,0,431.35,731c1.91-9.62-2.13-16.59-10.07-21.83-6.85-4.52-13.69-7.25-22-7.44-3.3-.07-6.46.89-9.72,1.27a15.9,15.9,0,0,0-11,6C378.33,709.32,378.05,709.3,377.83,709.1ZM0,684c2,.18,4,.56,6.14.87,4.42.64,9.1.86,13.36,2.25,11.27,3.7,23.24,16.91,24,29,.46,7.54-.31,14.84-5,21-4.51,6-10.8,9.51-18,11.13A64.25,64.25,0,0,1,0,749.88v-2.56c12.64,1.73,27.21-1.16,35.42-9.67,6.65-6.89,9-19.42,4.79-28.11-3.53-7.24-8.94-14.18-16-18.15S8,686.23,0,685.69H0Zm1080,65.84c-8.62-.91-16.74-4.17-22.76-11.22-4-4.71-7.84-10.58-7.37-16.95a103.39,103.39,0,0,1,4.58-24.32,1.22,1.22,0,0,1,0-.27c1.36-8,11.54-10.16,18.1-12.37A17.52,17.52,0,0,1,1080,684v1.65c-4.52-.31-8.39,1.41-12.5,3.11-4.42,1.83-10.57,3.48-11.66,8.86a1.34,1.34,0,0,1-.18.48c-2.23,8.21-5,17.46-4.43,25.74.3,4.12,4.19,8.8,6.72,12.08a26.25,26.25,0,0,0,9.91,7.92,42.23,42.23,0,0,0,12.14,3.44ZM404.19,710.54a.43.43,0,0,1,.43-.17c10.34,1.43,19.22,10.15,16.17,21.24-2.83,10.24-13.9,17.35-24.23,14.78-8.63-2.13-20.44-10.8-16.9-21C382.67,716.76,394.84,708.85,404.19,710.54Zm2.28,2.28a.42.42,0,0,1-.37,0c-8.15-2.42-16.59,2.34-22,8.34-8.59,9.6,1.71,19.69,11.1,22.5,8.83,2.63,16.46-1.42,21.57-8.57C423.73,725.44,416.19,715.42,406.47,712.82ZM0,693.77c7.37-.33,15.61.94,22.17,4.23,11.32,5.69,14,19.82,8.17,30.5-4,7.27-8.54,7.68-16.19,8.73-5.05.69-9.63,1.08-14.15.3v-2.17a32.71,32.71,0,0,0,15.05-.05c6.31-1.35,10.77-2.45,14.13-8.49,3.67-6.6,4-14.83-.5-21.16-3.54-5-9.6-7.39-15.31-8.95A41.68,41.68,0,0,0,0,695.27Zm1080,0v1.5q-1.49.09-3,.27c-2.83.36-6.55.65-9,2.28-2.22,1.52-3.49,5-4.71,7.31-.13.24-.27.34-.41.34-1.36,6.36-.22,13.59,2.14,19.53,2.16,5.44,7.52,8,12.78,9.75.71.23,1.42.43,2.13.61v2.17a26.55,26.55,0,0,1-8.45-3c-5.85-3.25-7.82-7.77-9.1-14.11-1.08-5.4-1.89-10.91-.25-16.12a1.06,1.06,0,0,1,.14-.62l.19-.32a17,17,0,0,1,.69-1.59c.1-.19.2-.23.3-.18,1.2-2.24,2.43-4.51,4.73-5.64,3-1.49,7.26-1.87,10.57-2.1ZM404,722.12c4,2.65,6.48,7.22,3.55,11.83-3.13,4.93-9.15,3.83-13.37,1.13-2.1-1.34-3.83-2.9-3.75-5.55a9.35,9.35,0,0,1,2.43-5.77C394.91,721.41,402.17,718,404,722.12Zm-1.5.81a8.08,8.08,0,0,0-6.32.67c-4.3,2.32-5.56,7.5-.63,10.08,2.71,1.42,6,2,8.71.31,3-1.78,3.82-5.36,1.41-8.07a17.25,17.25,0,0,0-2.8-2.23A1,1,0,0,1,402.48,722.93ZM0,703.76a58.26,58.26,0,0,1,13.47.94l.07,0c4.34-.08,5.7,1.75,8.52,5.51,2.17,2.91,3.27,5.29,2.33,8.95-2.12,8.29-12.27,14.43-20.56,12.27A19.24,19.24,0,0,1,0,730v-2.65l.64.36c6.15,3.38,13.19,1.95,18.23-2.81,4-3.79,5.3-8,2.21-13.1-1.9-3.14-4-5.09-7.37-5.35a.4.4,0,0,1-.19,0l-.52-.05-.88,0a.41.41,0,0,1-.36-.16A50.27,50.27,0,0,0,0,706Zm1080,0V706a18.26,18.26,0,0,0-5.7,1.67c-5,2.44-3.73,10.62-.86,14.44a21.82,21.82,0,0,0,6.56,5.22V730c-6.82-3.45-11.63-10.83-10.56-18.67C1070.15,706.09,1074.77,704.21,1080,703.76ZM8.46,711.65a.58.58,0,0,1,.63-.21c3.13.82,6.36,4.54,6.14,7.93-.2,3.11-5.36,5.67-8.12,5.09-4.25-.9-6.75-3.28-6-7.72C1.79,712.65,4.83,711.07,8.46,711.65Zm1.2,2a.51.51,0,0,1-.3,0c-3.39-.72-7.42.15-7.22,4.5.14,3.2,3.86,4.6,6.65,4,2.06-.41,5.34-2,5.29-4.25C14,715.48,11.88,714.07,9.66,713.69ZM684.45,583.11c10.39-6.57,22.68-9.69,35-11.48,9.49-1.38,19.08-2.06,28.29,1.15,8.11,2.84,15.51,7.82,22.25,13.05,11.94,9.26,19.79,20.92,22.8,35.8A137.27,137.27,0,0,1,795,644c.28,7.77.93,15.92-1,23.54-7.66,30.58-48.44,36.26-74.6,37.76-15.79.9-30.42-2.29-42.68-12.66-11.54-9.76-22.69-21.88-27.17-36.62-9-29.55,8.15-59,34-73.08A.6.6,0,0,1,684.45,583.11Zm-10.55,9.61c-9.48,7.62-17.21,17.44-21.32,29-6.15,17.26-3,35.46,7.74,50.1,8.11,11,19.6,23.24,32.66,28.18s27.62,3.59,41,1.57c14.92-2.24,30.94-4.9,43.41-14a41.68,41.68,0,0,0,12.42-13.86c3.89-7.33,4-15.39,3.78-23.47-.31-14-.78-28.67-6.93-41.51-6.26-13.08-19.16-23-31.77-29.63-13.54-7.1-27.69-5.9-42.22-3-13.75,2.72-27.48,7.57-38,17.11C674.29,593.5,674,593.17,673.9,592.72Zm42.85-6.41a53.46,53.46,0,0,1,58.34,22.17c12.5,18.71,13.26,47.14-1.16,65.19-4,5-9.15,7.82-15.1,10.11-6.27,2.43-12.67,5.44-19.24,7-3.69.86-7.41.64-11.14,1.1s-7.2,1.88-11,1.74c-6.39-.23-12.51-3.53-18.18-6.19-20.41-9.56-39.68-31.77-36.69-55.78a40.6,40.6,0,0,1,14.08-26.24c5.41-4.48,12-7.18,18.34-10.06,7-3.19,14-6.53,21.16-9.31C716.48,585.91,716.66,586.07,716.75,586.31ZM704.3,593c-9.21,3.92-18.66,7.81-26.16,13.93a39,39,0,0,0-13.9,32c.78,12,8.31,23.72,16.3,32.35,7.83,8.47,18.88,14,29.67,17.81,6.88,2.43,12.3.51,19.17-.3,6.61-.78,12.25-1.66,18.53-4,11.24-4.22,21.89-7.29,28.12-18.46,11.83-21.22,7.39-49-10.33-65.49A52.19,52.19,0,0,0,705,593.31C704.69,593.5,704.44,593.3,704.3,593Zm-22.63,60.47c-.18.13-.39.1-.59-.24-4.82-8-7-16.13-3.67-25.16s10.77-15.66,19.16-19.91a112.09,112.09,0,0,1,28.67-9.51c9.82-1.91,18.86-.52,26.61,6,6.63,5.61,13.49,13.49,16.45,21.72,3.27,9.09,1.05,19.1-1.16,28.17-2.11,8.67-6.76,13.08-14.62,17-9.25,4.6-19.37,9-29.92,8.54C705.42,679.39,691.13,667,681.67,653.44Zm-.95-3.91a.7.7,0,0,1,.31.28c9.39,14.22,23.5,27.55,41.52,28.15,8.79.3,17.2-2.72,25.07-6.35,3.89-1.8,8.12-3.59,11.51-6.25,4-3.1,5.69-7.42,6.81-12.18,2.37-10.11,4.23-20.76-1.26-30.24a58.82,58.82,0,0,0-15.61-17.62c-14-10.09-33.7-2.55-47.94,3.71-7.71,3.39-15.09,8.08-19.72,15.31C676.05,632.71,676.57,641.2,680.72,649.53Zm10.12-13.1c-2.1-5.7,4.36-10.48,8.41-13.46a56.88,56.88,0,0,1,21.89-9.89c12.62-2.72,27.08-.21,32,13.27,4.34,11.9-.85,26-8.48,35.48-9.53,11.79-24.47,8.72-35.69,1.17-5.36-3.61-12.27-7.75-15.64-13.47C691.09,645.71,690.68,641,690.84,636.43Zm2-4.28v.11c-.44,8.88-.56,16.78,7.13,22.77,5.3,4.12,11.07,8.07,17.31,10.63,6.5,2.66,14.35,3.53,20.68-.13,6.58-3.8,10.93-12.07,13.34-19,2.77-7.94,3.22-17.38-2.16-24.4-4.65-6.08-12.34-7.74-19.62-7.31a55.85,55.85,0,0,0-19.69,5.12C705.15,622.09,696,626.38,692.89,632.15Zm9.39,3.46c.47-3.47,6-4.92,8.64-6.26,6.36-3.2,13.51-7.52,21-6.26,12.93,2.19,11.84,16.57,7.47,25.9-2.19,4.66-5.84,10.45-11.4,11.23-3.57.5-7.24-1.25-10.4-2.59-3.48-1.47-7.18-2.77-10.51-4.56C700.29,649.42,698.46,641.22,702.28,635.61Zm5.65-2.34a1,1,0,0,1-.41.56c-7.71,4.24-7.15,13.87.48,17.76,2.89,1.48,6,2.65,9,3.94,5,2.13,10.57,4.76,15.46.9,3.42-2.69,5.88-7.64,7.21-11.66,2-5.95,3-14.62-3.64-18-3.82-1.94-8.2-1.65-12.19-.41A76.84,76.84,0,0,0,713.36,631C711.88,631.67,709.84,632.38,707.93,633.27Zm6.6,7.35c.51-4.44,7.55-6.11,11.22-5.61a6.48,6.48,0,0,1,5,9.25c-2.35,5.29-9.33,4.74-13.51,2.33-1.5-.86-3.64-2-3.47-4A4.45,4.45,0,0,1,714.53,640.62Zm4-1.61a5.4,5.4,0,0,1-.93,1.28c-.45.53-1.81,1.27-2,1.88-.95,2.44,2.41,3.93,4.09,4.55,3.42,1.25,7.86.72,9.86-2.71a4.45,4.45,0,0,0-3-6.74,11.66,11.66,0,0,0-5.14.5A11,11,0,0,0,718.53,639ZM148,441.43a75.1,75.1,0,0,1,35.18,12.32c11.45,7.68,17.31,17.84,22.27,30.45,7.78,19.83.45,46-19.36,55.68-11.06,5.4-23.63,10.29-36.11,10.33a49.2,49.2,0,0,1-30.19-10.78C102.74,526.05,95,502,100.28,481.1c2.79-11.05,9.7-20.22,18-27.77,8-7.28,17.82-14.4,29.21-12.26A.58.58,0,0,1,148,441.43ZM144.63,443c-11.16-.37-20.95,7.94-28.46,15.52-8.57,8.64-14.4,19.05-15.41,31.35-1.78,21.61,9.73,43.65,29.82,52.6,18.76,8.36,40.67,2.35,57.81-7.45,10.23-5.85,15.48-17.34,17.73-28.57,2.35-11.73-2.25-22.44-7.4-32.73-9.49-19-33.11-28.74-53.31-30A.92.92,0,0,1,144.63,443ZM927.37,400.1a.62.62,0,0,1,.34-.26,49.5,49.5,0,0,1,26.15.62c9,2.63,16.89,8.11,24.94,12.73,14.56,8.37,23.05,20.62,26.33,37.1,5.68,28.53-3,60.29-27.51,77.37a123,123,0,0,1-20.74,12c-7.74,3.35-16.2,3-24.44,2.42-14.71-1-29.7-4.29-42.18-12.49-12.85-8.44-22.65-22.81-28.46-36.88s-4-29.36,1.24-43.2A76.76,76.76,0,0,1,927.37,400.1Zm6,1.42a.69.69,0,0,1-.58.46c-33.25,2.07-62.93,25-70.53,57.95-1.85,8-2.74,16.46-.73,24.47,1.87,7.43,5.8,14.24,9.87,20.65,7.57,11.92,17,21.26,30.19,26.79,12.71,5.33,27,7.47,40.75,7.36,8.84-.06,15.59-3.36,23-7.69,6.46-3.78,12.95-7.61,18.51-12.68,20.5-18.69,26-52.35,16.49-77.84a44.58,44.58,0,0,0-12.46-18.52c-5.44-4.64-12-7.78-18.12-11.42C958,404.05,946.56,400.55,933.37,401.52ZM132.2,461.58c10.86-6.83,25.86-6,38.14.09,7.83,3.86,15.13,6.69,19,15.05,3.5,7.52,4.37,16.35,3.34,24.52-1,7.77-3.71,17.77-10.41,22.57-3.74,2.68-8.53,4.27-12.71,6.17s-8.42,3.87-12.95,4.77c-8.81,1.75-17.72-1.41-24.68-6.79-6.17-4.77-13.34-12.34-15.44-20.06-2-7.51.41-17.48,2.2-24.81a51.33,51.33,0,0,1,2.31-7.24,1.27,1.27,0,0,1,0-.9,29.67,29.67,0,0,1,7.3-10.41,28,28,0,0,1,3.49-3A.29.29,0,0,1,132.2,461.58Zm-8.37,11.24a55.46,55.46,0,0,0-5,16.81c-.92,5.84-2.68,13.05-.5,18.74,1.67,4.37,5.4,8.64,8.54,12,6.67,7.19,15.71,12.77,25.84,12,8.84-.67,19.61-5.87,27.28-10.34,9.59-5.59,12-21.07,11.17-31.14-.45-5.33-1.72-11-4.53-15.62-3.11-5.1-7.89-7.18-13-9.68-9.34-4.54-18.39-8.48-29.09-6.69A29.58,29.58,0,0,0,123.83,472.82Zm313.9-79c28.72.78,56.19,18.56,67.45,45.27s-1.25,58.15-24.54,74c-12.52,8.52-27.48,16.46-42.79,17.78a56.19,56.19,0,0,1-40.48-12.43c-10.47-8.67-16.2-20.26-19.45-33.25-3.67-14.73-6.61-29.88-3.29-44.95C381,411.38,408,391.92,437.5,393.78A.48.48,0,0,1,437.73,393.85Zm-3.12,1.93c-15.07.78-30.36,5.72-41.68,16s-17.34,25.46-17.85,40.54c-.46,13.68,3.07,29.35,8,42.09a52.18,52.18,0,0,0,25.31,27.5,55.88,55.88,0,0,0,42.82,2.4c12.57-4.36,26.15-11.51,36-20.48a61.85,61.85,0,0,0,19-33.43c3-15-.78-29.27-9.38-41.72a76.1,76.1,0,0,0-61.53-32.33A.78.78,0,0,1,434.61,395.78Zm468,26.34c4.76-3.23,9.56-6.43,14.54-9.23,7-3.9,14.17-4.68,22-3.84,6.86.72,14.66,1.65,20.94,4.55,6.45,3,12.37,8.39,17.32,13.41,16.12,16.35,18.19,41.23,10.84,62.19-1.91,5.44-4.37,11-8.43,15.22-4.5,4.64-10.61,7.84-15.68,11.79-9.64,7.51-23,9.76-35,10.59-13.59.93-24.61-4.23-33.94-13.9-8.5-8.8-15-19-17.26-31.17s-.9-25.14,2.54-37C883.6,434.14,893.32,427.91,902.6,422.12Zm8.11-3.22a.63.63,0,0,1-.2.26c-6,4.43-12.14,8.81-18.17,13.28-6.81,5-9.38,10.68-11.17,18.87-2.91,13.29-3.61,27.89,2.11,40.57a63.66,63.66,0,0,0,22.28,25.83c10.57,6.94,22.85,6.19,34.74,3.94,5.78-1.1,12.08-2,17.29-4.83,4.52-2.47,8.34-6.21,12.59-9.1,5.41-3.69,9.86-7.05,12.93-13a63.73,63.73,0,0,0,5.57-16.41c2.17-10.7,1.89-22.13-2-32.41-4-10.65-12.17-18.74-21.15-25.44-5.27-3.93-10.61-5.59-17-6.86-6.18-1.23-12.59-2.48-18.93-1.94C923.05,412.25,916.7,415.25,910.71,418.9ZM132.3,480a1.07,1.07,0,0,1,0-.68c2.48-6.3,8.43-9,14.87-9.76,7.28-.84,15.29-1.25,21.72,2.75,10,6.2,14.89,20.8,11.78,32-3.17,11.47-18.47,18.51-29.53,17.8-11.8-.75-21.58-9.43-22.83-21.3A39.18,39.18,0,0,1,132.3,480Zm9.42-7a.37.37,0,0,1-.23.21c-7.33,2.21-10.29,11.38-11.63,18.18-1.56,7.9-.35,16.09,5.67,21.85,9.24,8.84,23.3,8,33.58,1.49,7.34-4.65,11.28-10.94,10.49-19.87-.65-7.32-3.49-15-9.34-19.75-5.6-4.56-12.25-4.57-19.08-3.95A37.76,37.76,0,0,0,141.72,473ZM893,454.22a1.6,1.6,0,0,1-.06-.85c2.13-9.88,6.1-19.56,14.81-25.36,10.61-7.09,21-9.18,33.51-6.89,8.33,1.52,16.91,4.79,22.53,11.4,3.41,4,5.11,9,7.35,13.65s5.08,9.15,6.47,14.2a21.21,21.21,0,0,1,.14,12.2c-1.66,5-6,8.61-8,13.52-1.75,4.21-2.84,8.76-5.72,12.41-2.48,3.12-5.89,5.23-9.33,7.14-8.89,4.94-19.14,8.82-29.27,5.51-9.65-3.15-18.81-11.48-25.29-19.08-6.31-7.4-7.67-18.24-7.72-27.63A68.78,68.78,0,0,1,893,454.22ZM145.58,478.6a8.24,8.24,0,0,1,2.11-1.43,18.63,18.63,0,0,1,8.26-1.56c5.73.23,8.35,3.23,11.16,7.76,5.08,8.17,6.62,18.43-2.05,24.95-4.47,3.35-10.49,3.36-15.84,2.46-4.58-.77-8-4.77-10.11-8.76C135.16,494.42,137.88,483,145.58,478.6Zm263.67-63.38c9.73-6.52,21.52-6.82,32.94-6,6.1.43,12.53.69,18.37,2.66s10.43,5.82,14.75,10c7.47,7.19,15.52,15.26,18.81,25.34,3.37,10.33-.06,20.63-4.49,30.07-4.8,10.23-14.16,15-23.34,20.85-10.86,6.92-21.08,11.69-34.22,10.78-5.11-.35-11.39-.33-16.13-2.57-4.33-2.05-7.47-6.47-10.31-10.16-6.6-8.58-12-18.37-13.84-29.15C389.06,450.91,389.77,420.78,409.25,415.22ZM142.34,483.08c-5.67,6.55-4,17.71,2.72,23.22,5.51,4.52,16.28,2.83,20.91-1.93s4.73-10.93,1.82-16.57c-1.37-2.64-3.28-6.3-5.65-8.11-3.74-2.86-9.19-2.52-13.33-.84-2.44,1-4,2.83-6.12,4.26A.25.25,0,0,1,142.34,483.08Zm752.08-28.42a66.88,66.88,0,0,0,.6,19.4c.92,5.66,2.43,11,6.18,15.5a80.23,80.23,0,0,0,10.65,9.94c7.06,5.81,15,10.26,24.4,9.25,8.12-.86,17.29-5,23.63-10.19s6.76-14,11.29-20.39c3.6-5.11,6.12-9.18,4.75-15.84-.89-4.33-3.18-8.32-5.15-12.23-4.12-8.19-6.78-16.22-15.1-21.11-6.63-3.89-14.45-5.58-22.06-6.11-9.51-.67-19.14,2.78-26.68,8.65a29,29,0,0,0-7.52,9,.34.34,0,0,1,0,.12l-.13.2a48.31,48.31,0,0,0-4.57,13.2A1.49,1.49,0,0,1,894.42,454.66ZM408,417.48c-9.76,4.61-14,15-15.21,25.72-1.4,12.39-.73,25.1,4.69,36.5a75.37,75.37,0,0,0,8.22,13.24c2.94,3.87,6.26,8.62,10.66,10.86S427,506.17,432,506.47a45.52,45.52,0,0,0,15.59-1.42c9.52-2.79,17.65-9.23,25.73-14.72,4.45-3,9.26-5.78,12.23-10.41a60.92,60.92,0,0,0,5.9-12.93c4.09-11.83,1.2-21.88-6.4-31.43-5.73-7.2-13.16-15.63-21.53-19.8s-19.05-4.3-28.14-4.53c-8.19-.21-16.39.68-23.56,4.59a.45.45,0,0,1-.27.31l-.56.16c-.75.44-1.48.91-2.2,1.42A.53.53,0,0,1,408,417.48ZM155.49,486.83c3,2.41,5.08,6.77,3.8,10.56-1.45,4.29-5.91,4.71-9.13,2s-4.89-7.88-2.41-11.57C149.27,485.53,153.93,484.29,155.49,486.83Zm-.91,1.05a4.85,4.85,0,0,0-1.72-.74,4.19,4.19,0,0,0-4.05,1.69c-2.66,3.41-.22,8.52,3.47,10.05,3.49,1.44,6.34-1.71,5.77-5.12C157.67,491.48,155.92,489.7,154.58,487.88ZM918.9,433.66c2.58-1.7,5.61-2,8.77-2.2,9.11-.54,19,2.66,26.46,7.93,10.94,7.77,13.18,22.85,9.57,35.06-3.91,13.23-16.14,27.76-31.41,23.09-3.67-1.12-7.79-2-10.91-4.32a59.22,59.22,0,0,1-8.57-8.48c-5-5.79-7.56-13.28-8.55-20.83A30.45,30.45,0,0,1,912.14,439a9.84,9.84,0,0,1,2.42-2.3A30.6,30.6,0,0,1,918.9,433.66Zm-3.61,4.4c-10.67,10.16-12.69,27-4.75,40A36.21,36.21,0,0,0,930,493.78c4.74,1.55,8.48,2.49,13.33.68a35,35,0,0,0,9.34-5.54c12.26-10,15.06-33.5,3.52-44.9-5.76-5.69-15.5-9.55-23.46-10.54-3.75-.46-9.17-.89-12.62,1A52.68,52.68,0,0,0,915.29,438.06ZM414.65,427c15.63-9.61,36.73-9,52,1.53,11.7,8.09,16.52,25.69,10,38.21-7.61,14.69-18.47,25.44-35.78,26.15-7.64.31-16-.54-22-5.78-5.67-5-8.93-12.55-11.27-19.56-4.41-13.22-4.39-28.39,5.17-39.15a.82.82,0,0,1,.29-.39l.17-.11c.29-.32.6-.64.92-.95A.27.27,0,0,1,414.65,427ZM413,430c-11.76,14.58-7.55,38.67,3.9,52.43s37.15,9.27,48.38-2.54c6.27-6.6,13.87-17.75,12.71-27.13s-5.79-18.76-14-23.53c-15.72-9.14-35.33-9.4-50.48.81A.35.35,0,0,1,413,430ZM940.12,447.1a43.8,43.8,0,0,1,10.32,10.67c2.67,3.75,2.43,6.79,1.34,11.23-2.8,11.35-16.87,15.65-27.27,11.38-10.71-4.39-10.11-18.76-6.72-27.72,1.83-4.83,5.29-9.78,10.74-10.72C933.24,441.12,937.1,443.81,940.12,447.1Zm-523.64.4c-.24-4.21.66-8.28,4.35-11,6.57-4.77,16.43-5.37,24.25-5.4,15-.05,28.49,12.73,24.27,28.49a16,16,0,0,1-3.8,6.56c-2.75,3.22-5.58,7.23-9,9.82-6.95,5.29-16.32,5.59-24.42,3.76C418.17,476.6,415.34,460.45,416.48,447.5Zm.89,3.43a37.35,37.35,0,0,0,1.25,12.43c1.81,5.82,7,12.66,13.11,14.15,7.18,1.74,13.35,1,20.12-1.83,5.62-2.34,10-7.66,13.66-12.39,5.48-7.05,2.82-17.89-3.23-23.79-4.7-4.59-10.74-6.23-17.15-6.39-5.95-.14-12.35.18-18,2.12-3,1-6.11,2.38-7.89,5.12a9.79,9.79,0,0,0-1.1,2.35c-.22,1.67-.42,3.42-.57,5.19,0,.83,0,1.67.06,2.51A.62.62,0,0,1,417.37,450.93Zm518.85-4.74c-2.66-1.53-5.54-2.43-8.78-1.36-4.78,1.56-7.26,6.27-8.65,10.73-3.11,10-1,21.86,11.17,22.74,8.53.62,17.52-1.4,19.91-10.68,2.1-8.18-6.44-16.63-13.17-20.35A1.22,1.22,0,0,1,936.22,446.19Zm-1.63,10.2c3.09,1.57,5.2,6.48,5,9.5a7.81,7.81,0,0,1-3.82,5.59c-2.24,1.37-4.34.38-6.3-1-4.5-3.21-5.15-7.83-2.06-12.45,1.12-1.67,2.8-3.56,5-3.07A3.8,3.8,0,0,1,934.59,456.39Zm-488.2-12c7.89,2.41,13.11,9.41,9.19,17.48-3.45,7.07-13.22,11.74-20.56,7.68-7.55-4.18-10.13-12.34-7.84-20.34C429.77,440.15,439.73,438.6,446.39,444.39ZM932,456.93c-1.33-.11-2.39,1-3.27,2.19s-2,3.21-1.81,4.91c.18,2.07,1.84,3.28,3.35,4.27,1.79,1.18,3.16,1.84,5.18.51s2.44-3.52,1.71-5.81a6.86,6.86,0,0,0-4.55-4.79C932.15,458.08,931.94,457.49,932,456.93ZM444.54,444.6c-7.11-3.81-15.34-1.26-16.74,7.8-1,6.58,2.49,13.69,9,16.14s13.25-1.17,16.67-6.89c5.26-8.81-3.36-12.06-8.8-16.63A.6.6,0,0,1,444.54,444.6Zm-.66,8.11a7.76,7.76,0,0,1,2.83,4.09,5.62,5.62,0,0,1-1.06,4.88c-2.39,2.71-8.3,1.53-9.88-1.58-1.5-2.93-.34-8,2.66-9.65C440,449.63,444.2,450.57,443.88,452.71Zm-1.72-.63a3.35,3.35,0,0,0-2.75-.42c-2.65.75-4.11,4.58-3,7s5.25,3.05,7.53,2.08c3.94-1.67.66-6.47-1.55-7.94A.72.72,0,0,1,442.16,452.08ZM715.53,288.86a.8.8,0,0,1,.52-.25c6.72-.63,13.93,1.55,20.24,3.73A27.51,27.51,0,0,1,750,302c7.88,10.68,11.38,25.26,11.29,38.36-.09,11.68-2.42,25.07-7.22,35.79-4.64,10.32-13.77,17.59-24.1,21.81-22.41,9.16-48.22,3-65.36-13.75-8.25-8-12.79-17.27-13.56-28.81-.81-12.39-.3-24.1,5.7-35.17,5.29-9.79,11.85-19.41,22-24.67C689.69,289.82,703.17,288.46,715.53,288.86Zm4,2.59a.69.69,0,0,1-.48.19c-12.69-.15-26.49.62-38.12,6.16-11.09,5.28-18.08,15.69-23.52,26.33-5.54,10.84-5.73,25.43-3.41,37.3,2.15,10.93,10.14,19.56,19,25.87,17.23,12.33,40.34,15.19,59.56,5.7,10.49-5.18,18.12-13.23,21.75-24.43,3.34-10.33,5.37-22,4.64-32.89-.75-11.16-4.36-23.82-11.64-32.56C741.51,296.2,729.15,291.77,719.54,291.45Zm-40.89,20.94c5.86-8.7,17.2-11.88,27.14-13.05,10.45-1.24,21.64.7,30.43,6.67,8.2,5.57,12.35,13.92,15.69,23,3.45,9.37,2.39,16.73-1.73,25.66-4.24,9.21-8.84,17.37-17.16,23.45-8.07,5.89-16.24,10.81-26.6,9.8-17.07-1.65-35-18.86-37.95-35.67a56.29,56.29,0,0,1,1.87-26.41A33,33,0,0,1,678.65,312.39Zm9.59-5.71a.72.72,0,0,1-.26.5c-9,6.23-15.38,13.37-17.57,24.39-1.94,9.75-1.78,21.09,3.43,29.82,8.35,14,25.79,27.9,43.07,23.2,7.58-2.06,15.69-8,21-13.59,5.81-6.13,9.93-14.74,12.88-22.56,3.81-10.1-.49-21.37-5.8-30.26A33.88,33.88,0,0,0,727.17,304c-8.16-2.94-16.61-3.05-25.09-1.51A52.2,52.2,0,0,0,688.24,306.68Zm5.26,10.1a.65.65,0,0,1,.19-.24c14-10.6,32.35-7.37,43.72,5.54,4.78,5.43,5.78,11.56,5.8,18.62,0,7.26-1.1,12.13-5.75,17.66-9.12,10.86-21.09,20.69-36.11,15.18-6.59-2.42-12.34-8.58-16.05-14.41s-3.54-12.85-3.08-19.39C682.86,330.63,686.78,322.2,693.5,316.78Zm8.66-2.86c-14.31,6.61-21.37,22.31-17.92,38.16,1.73,7.91,10.2,15.58,17.57,18.53s15.16,1.45,21.49-2.82a64.09,64.09,0,0,0,14.8-14.6c5.12-6.87,4.35-21-.75-27.65C729.31,315.05,714.53,309.8,702.16,313.92Zm-2.62,12.25a1,1,0,0,1,.71-.73c6.41-1,13.08-1.76,19.47-.19,3.46.85,8.36,2.27,9.22,6.25,2,9.21-8.23,18.7-14.86,23.1C691.29,369.72,686.22,332,699.54,326.17Zm1.93,1.63c-8.55,2.57-10.06,19.21-4.07,25,6.37,6.16,15.83-.46,20.88-4.95,5.46-4.86,13.88-15.68,2.66-19.36C714.66,326.44,707.92,326.91,701.47,327.8Zm7.3,6.77a.58.58,0,0,1,.15-.11c3.07-1.26,5.08,3.4,4.6,5.79-.77,3.78-4.58,5.3-8.09,4.78-1.47-.22-3.37-.54-3.94-2.12a6.82,6.82,0,0,1,.52-4.48C703.13,335.67,705.89,333.67,708.77,334.57Zm.44,1.67a4.8,4.8,0,0,0-5.44,2,5.45,5.45,0,0,0-1,2.73c.11,1.7,1.86,1.77,3.06,1.88,2.11.2,4.42-.27,5.68-2.15C713.13,338.24,710.88,337.24,709.21,336.24Zm-454-161.33a.66.66,0,0,1,.55-.37c25.08-1.13,49.6,13.67,60,36.63a45.38,45.38,0,0,1,1.86,33.35c-3.7,11.41-11.07,23.59-20.58,31.06-10,7.86-22.86,8.06-35,6.86s-24.2-2.81-33.94-10.8c-16.73-13.75-22.59-37.91-17.56-58.45C215.68,192.4,233.81,175.63,255.25,174.91Zm.27,1.72c-23.69,1.13-41.51,20.92-44.22,44.45-2.37,20.67,6.85,44.53,26.8,53.4,9.8,4.36,22.2,5.24,32.87,5.43,12.09.21,22.56-3.16,30.67-12.44,7.56-8.65,13.93-19.76,15.81-31.18,2-12.38-2.42-24.49-9.79-34.35-12-16.09-31.81-25.47-51.8-25.21A.62.62,0,0,1,255.52,176.63Zm-19.67,18.14c16.8-13.93,39-4.89,55,5.65,6.7,4.41,13.79,9.53,16.17,17.6,2.57,8.73-.48,18.1-4.23,26-7.77,16.39-21.37,25.56-39.8,24.08-17.33-1.39-33.56-10-37.42-27.94C222.53,225.84,221.87,203.6,235.85,194.77Zm-.42,2.15c-9.14,6.87-10.13,19.42-9.77,30.33s2.35,22.12,11.28,29.22c13.72,10.91,38.19,13.58,52.47,2.48,8.29-6.44,13.94-18.1,16.1-28.22,2.72-12.66-4.2-20.51-13.85-27.29-15.07-10.6-36.5-20.32-53.23-8.43l-.13.1,0,0c-.75.54-1.49,1.12-2.21,1.74A.44.44,0,0,1,235.43,196.92ZM0,144.43c3.82-.16,7.66-.09,11.47.11,4.89.25,9.84.54,14.28,2.45,25.7,5.21,47.76,34,45.37,59.94C68.69,233.32,46,253.32,21,258.51a65.1,65.1,0,0,1-21,.9v-3.15A64.94,64.94,0,0,0,26.65,254c23-6.91,44.08-28,42.75-53.4-1.13-21.5-19.14-43.47-40.06-50a.55.55,0,0,1-.86.22,16.25,16.25,0,0,0-1.56-.91,39.76,39.76,0,0,0-6.19-1.1c-.49,0-.77-.58-.82-1.13-4.67-.8-9.67-.65-14.11-.67-1.93,0-3.86,0-5.8.11Zm1080,0V147a69.71,69.71,0,0,0-16.49,2.57,50.5,50.5,0,0,0-29.64,24c-12.34,21.92-7,48.35,10.62,65.69a61,61,0,0,0,35.51,17v3.15a63,63,0,0,1-44.69-27.07c-13.9-20.41-13.73-47.51,1.44-67.23a51.53,51.53,0,0,1,31-19.26A77,77,0,0,1,1080,144.43ZM239.36,211.28c1.35-3.48,4.6-5.83,8-7.84,6.23-3.69,12.57-6,19.89-4.56,12.77,2.54,21.64,13.92,24.07,26.28,2.28,11.58-5,25-16.05,29.65-11.87,4.94-26.58-1.19-33.7-11.24a31.52,31.52,0,0,1-2.24-32.22A.43.43,0,0,1,239.36,211.28Zm-.6,3.86c-4.44,12.86-.22,27.21,11.86,34.52a29.49,29.49,0,0,0,16.91,4.41c8.06-.49,13.77-5.23,18.29-11.59,9.11-12.84,1.57-32.11-11.81-39a25.81,25.81,0,0,0-19.09-2c-5.67,1.74-15.2,6.3-15.25,13.33C239.67,215.52,239,215.66,238.76,215.14Zm11.13-.27,0-.07c5.28-9.76,17.88-10.13,25-2.15,6.67,7.43,7.59,21.52.7,29.17-8,8.93-23.52,1-28.19-8C244.53,228.13,245.84,220.17,249.89,214.87Zm.35,1.41a22.36,22.36,0,0,0-2.33,5.16,14.29,14.29,0,0,0,4.84,16.17c7.13,5.63,18.15,9.54,23.54-.35,4.77-8.75,2.08-21.48-7-26.28a14.22,14.22,0,0,0-12.92-.34.52.52,0,0,1-.24.5,12.45,12.45,0,0,0-3.12,1.94,12.83,12.83,0,0,0-2.19,3C250.62,216.39,250.41,216.42,250.24,216.28ZM0,159.54a60.51,60.51,0,0,1,15.14.81c8.72,1.58,19.6,4.26,26.73,9.84s12.54,15.88,15.28,24.23c2.87,8.75,1.08,16.66-3.85,24.25C48.2,226.53,43,232.93,34,236.44c-10.48,4.13-22.64,7.07-34,6.07v-2.88c11.63,1,24.19-2.12,34.23-6.3,8.42-3.51,13.37-10.08,18.09-17.61,6.63-10.56,4.48-20.53-1.49-30.85-4.39-7.58-9-13.57-17.43-16.84-7.87-3.08-16.27-5.57-24.73-6.18a62.71,62.71,0,0,0-8.67,0Zm1080,0v2.29a61.65,61.65,0,0,0-17.48,3.81c-7,2.64-15.19,6.71-18,14-1.86,11.07-3.38,21.57.88,32.34,3.74,9.45,10.11,17.95,19,23a37.88,37.88,0,0,0,15.57,4.59v2.88c-8.51-.74-16.61-3.67-23.27-9.94a54.14,54.14,0,0,1-14-23.08c-2.84-9-1.67-17.86.07-26.87a1.1,1.1,0,0,1-.34-1.07c1.81-9.31,10.51-14.46,18.72-17.73A62.78,62.78,0,0,1,1080,159.54Zm-821.45,60c2.43-3.71,8.52-.88,10.8,1.67a6.4,6.4,0,0,1,1.46,5.88c-.53,2.22-2.26,5.28-4.22,6.56-3.71,2.44-9.16-2.34-10.32-5.7A7.73,7.73,0,0,1,258.55,219.52Zm3.05-.28a.58.58,0,0,1-.36.55,5.69,5.69,0,0,0-3.17,8.75c1.27,1.85,4.49,4.32,6.87,4.16,1.82-.12,3.56-3.12,4.16-4.65a5.46,5.46,0,0,0-2.37-7A10,10,0,0,0,261.6,219.24ZM0,168.23a52.17,52.17,0,0,1,15.94,1.09c8,1.81,17.34,5,22.67,11.56,8.55,10.56,11.56,25,3.55,36.67-9.6,13.93-26.57,12.82-41.45,10.77L0,228.21v-2.6a46.23,46.23,0,0,0,6.45.81c7.64.44,14.79,1.84,22.11-1.34,7.59-3.29,14.12-10.09,16.16-18.23s-2.33-17.76-7.21-24.2S23.43,173,15.63,171.31a51.93,51.93,0,0,0-13-.8c-.84,0-1.73,0-2.64,0Zm1080,0v2.28a35.87,35.87,0,0,0-5.69.27.44.44,0,0,1-.27.35c-4.23,1.54-8.18,2.57-11.28,6.1a29.36,29.36,0,0,0-5.7,10.46c-1.61,5.42-.68,10.71.8,16,1.33,4.72,2.56,10.26,6.08,13.89,4.26,4.39,10.08,6.85,16.06,8v2.6c-6.5-1.07-13.8-4.73-18-9.85s-6-13.26-6.9-19.67c-1.81-12.49,4.62-24.57,16.55-28.3A25.33,25.33,0,0,1,1080,168.23ZM0,177.49c6.93-1.82,14.06-2.52,20.87.44a32.48,32.48,0,0,1,15,13.3c7,12.29-.36,26.38-13.52,30A29.75,29.75,0,0,1,0,218.83v-2.35A28,28,0,0,0,23.45,218c5.5-2,10.44-6.21,12.49-11.81,2.72-7.42-1-14.55-6.15-19.79C21.13,177.68,11,177.12,0,179.18Zm1080,0v1.69l-.47.09c-4.14,1.32-7.63,3.29-10.08,7.76-3.87,7.06-2.14,14.92,2,21.4a24.34,24.34,0,0,0,8.5,8v2.35a26.93,26.93,0,0,1-13-16.47c-1.55-5.52-1.6-11.57,1.37-16.63a15.88,15.88,0,0,1,7.53-6.47c0-.31.09-.62.31-.69C1077.48,178.19,1078.74,177.82,1080,177.49ZM0,188.83a9,9,0,0,1,3.33-1.63c7.18-3,17.1-2.45,22,3.71,4.61,5.83,1.55,16.94-4,21.05-4.4,3.26-9,1.82-13.77.06A15.31,15.31,0,0,1,0,205.8V203c.85,1.2,1.82,2.36,2.63,3.38,4.62,5.85,15.54,8.13,20.53,1.06,4.3-6.09,3-15.7-4.17-18.81-4.94-2.15-14.34-1.49-18.65,1.73l-.1.06-.24.23Zm13.8,5.73a4,4,0,0,1,1.08.07,9.89,9.89,0,0,1,2.13,1.7,5,5,0,0,1,1.6,4.29c-.06,3.93-2.18,6.92-6.52,5.8A8.63,8.63,0,0,1,7.14,203c-1-1.64-.58-3.53.05-5.23s1.62-3.37,3.57-3.81A3.57,3.57,0,0,1,13.8,194.56ZM1080,188.83v1.79a8.49,8.49,0,0,0-1.63,9.55A15.26,15.26,0,0,0,1080,203v2.83a44.19,44.19,0,0,1-2.49-4.24A10.22,10.22,0,0,1,1080,188.83ZM14.69,196.12a.12.12,0,0,1-.09,0c-1.06-.17-2-.75-3.09-.67a3.91,3.91,0,0,0-3.35,3.09c-.79,2.57.09,4.44,2.34,5.46a6.7,6.7,0,0,0,3.33.6c1.84-.15,3.1-.78,3.54-2.75a4.93,4.93,0,0,0-1-4.4c-.33-.35-.74-.66-1.1-1A3.47,3.47,0,0,0,14.69,196.12ZM818.33,90.88c25.18-.52,47.69,15.09,58.31,38,2.52,5.41,2.41,11,2.27,16.88A84.21,84.21,0,0,1,877.1,163a40.84,40.84,0,0,1-16.82,24.64c-10.53,7.11-22.75,7.34-35,6.68-11.58-.62-23.77-1-34-7.1-9-5.34-18.64-15.49-23.16-25-5.24-11-1.53-25-.68-36.58.73-9.89,8.81-20.78,16.89-26.12,9.89-6.54,22.05-8.09,33.59-8.89A.5.5,0,0,1,818.33,90.88ZM814.1,93c-11.12,1.61-22.56,3.41-31.58,10.62-4.79,3.83-8.06,9.18-10.88,14.55-3.1,5.89-2.4,12.41-3.09,18.86-.72,6.68-1.92,13.61.12,20.17,1.7,5.49,5.52,9.82,9.23,14.08,7.13,8.17,15,14.76,25.73,17.38,9.88,2.4,21.13,3.11,31.28,3,10.66-.16,20.79-2.8,28.85-10.07,8.51-7.67,12-18,12.93-29.19.46-5.8,1.15-12.62-.27-18.32-1.37-5.46-5.22-10.58-8.48-15.09-12.52-17.34-32-27.25-53.47-25.82A.52.52,0,0,1,814.1,93ZM502.57,81.82a.76.76,0,0,1,.66-.51,56.58,56.58,0,0,1,20.92,3.47C530.64,87,538.34,89.54,544,93.5c9,6.33,14.26,19.76,16.21,30.18,3.79,20.24-4,41.34-21.89,52.25-10.24,6.23-21.12,6.78-32.77,5.35-6.76-.84-13.67-1.47-20.36-2.8-5.66-1.12-9.64-4-13.83-7.84-7.83-7.15-16.26-15.14-19.21-25.67-2.85-10.17-1.47-23.58,1.21-33.7C459.37,88.61,481.93,83.18,502.57,81.82Zm280.15,42.73a.59.59,0,0,1-.05-.19c-2.19-21.71,25.21-25.42,40.55-21,5,1.45,10.26,2.52,15,4.6,4.35,1.91,8,5,11.7,7.91,6.32,5.1,12.17,10.74,14.71,18.66,2.74,8.51,1.17,18.28-1.21,26.72-2.15,7.63-7.1,15.34-15.44,16.94-5.25,1-10.89.18-16.25.91s-10.27,1.28-15.53.47a51.32,51.32,0,0,1-23.7-10.2c-10.5-8.39-11.77-20.72-10.8-33.15a1.51,1.51,0,0,1-.05-.48C782,132,782.27,128.29,782.72,124.55ZM507.47,83.85a.72.72,0,0,1-.54.31c-12.05,1-24.63,1.73-35.45,7.7-11.16,6.16-16.33,16.41-17.76,28.78-1.33,11.43-1.89,22.91,5,32.75A72.55,72.55,0,0,0,469.26,165c3.63,3.36,7.33,7.2,12,9,5.57,2.11,12.2,2.17,18.07,2.94,5,.66,10,1.46,15.06,1.63A41.1,41.1,0,0,0,541.07,170c16.73-12.71,21.61-34.8,14.68-54.2a55.55,55.55,0,0,0-7.49-14.21c-3.44-4.66-7.62-7.08-12.79-9.47C526.54,88,517.29,84.42,507.47,83.85Zm275.38,53a57.21,57.21,0,0,0,.57,15c2.13,10.78,10.92,17.57,20.58,21.56,10,4.15,19.15,4.24,29.69,2.94,5.44-.67,11.78.7,16.91-1.38,5.61-2.27,9-7.78,10.89-13.23,4.06-11.58,5-25.25-3-35.33-5.9-7.44-15.26-14.84-24.16-17.92-9.7-3.35-19.08-6.17-29.39-4.67s-17.75,6.29-20.61,15.53c-.13,2.93-.43,5.93-.74,8.94a46.94,46.94,0,0,1-.59,8A1.24,1.24,0,0,1,782.85,136.86Zm13.81-18.29c3.14-4.74,7.21-8.26,13.29-9.24,7.53-1.21,16.81,2.41,23.34,5.76,11.33,5.8,20.44,15,21.15,28.27.31,5.83-.29,13-3.1,18.24s-8.86,7-14.41,8.18c-7.23,1.5-14.78-.11-21.61-2.61-5.79-2.12-12.59-4.31-16.45-9.42-7.31-9.65-6.59-26.22-3.21-37.48a.52.52,0,0,1,.07-.22c.12-.4.24-.78.37-1.16S796.46,118.45,796.66,118.57ZM489,94.51c7.66-5.41,17.08-3.8,25.61-.8a82.78,82.78,0,0,1,27,15.84c6.57,5.78,7.78,11.38,7,19.86-.74,8-2,16.49-6.41,23.37C533,167,511.87,170.08,496.5,167c-8.76-1.77-15.07-7.12-20.66-13.81-5.27-6.3-10-12.36-10.31-20.87-.26-7.93.25-18,5.14-24.57C474.8,102.14,482.31,97.78,489,94.51Zm307.78,26.07a59.89,59.89,0,0,0-1.31,22.86c.79,5.07,2,10.69,5.89,14.36,2.33,2.23,5.35,3.37,8.26,4.62,6.88,3,13.77,5.79,21.41,5.58,8.09-.23,17.45-2.67,20.32-11.12,2.59-7.6,2.43-16.87-1.24-24.07-3.39-6.64-9.91-11.66-16.32-15.23a49.09,49.09,0,0,0-20.27-6.35,18.72,18.72,0,0,0-10.58,2.46C800.05,115.34,798.63,118,796.76,120.58ZM487.6,97.47c-6.88,4.23-14.57,8.31-17.66,15.68-4.2,10-4,23.52,2.43,32.27,5.5,7.47,11.71,15.19,20.86,18.14,9,2.89,20.5,1.67,29.51-.85,9.52-2.66,17.13-8.3,20.75-17.74a55.23,55.23,0,0,0,2.89-12.88c.92-7.28,1.35-13.5-4.34-19-6.95-6.72-15.58-11.87-24.38-15.76-9.3-4.12-20.73-7.11-29.28.17A.5.5,0,0,1,487.6,97.47ZM805,129.42c8.84-21.93,49.48.88,35.91,22.05-6.5,10.15-22.44,11-31.44,3.68-7.49-6.08-8.89-17-4.87-25.42C804.71,129.47,804.85,129.38,805,129.42Zm-.17,3.15c-3.32,8.83.24,19.12,9.09,23.19,8.06,3.7,18.64,3,24.6-4.14,16-19.11-26.09-43.4-33.39-19.42C805,132.45,804.93,132.55,804.82,132.57Zm-315.5-25c3.05-5,9.75-4.41,14.94-4.1,7.6.46,15.66,1.58,22.15,5.85,10.36,6.8,12.54,18.1,7.43,29-5.73,12.19-17.86,19.16-31.25,17-12.8-2.09-21.95-9-23.17-22.43C478.61,123.91,481.61,112.8,489.32,107.57Zm325.32,22.25c9.89-9.37,29.06,8.64,18.1,20.42-5.1,5.48-15.55,5.24-19.72-1.44-3.41-5.46-3.36-14.33,1-19.11C814.28,129.39,814.5,129.53,814.64,129.82Zm-320.09-23.9a.88.88,0,0,1-.33.92c-12.63,5.89-17.3,24.19-10,36,7.12,11.47,27.3,12.82,37.77,5.66a31.66,31.66,0,0,0,11.47-14.73c3.16-8.32.39-16.17-6.55-21.44C521.23,108,514,106.46,507,105.84,503.52,105.52,498.46,104.76,494.55,105.92Zm319.74,25.81c-2.78,5.14-3.77,13.2,1.24,17.41,4,3.36,10.69,3.8,14.79.52C843.39,139.24,822.11,121.61,814.29,131.73Zm8.81,4.13a.31.31,0,0,1,.37-.18c2.57.72,4,4,3.76,6.52-.16,1.32-.72,2.83-2.15,3.17s-2.85-.58-3.9-1.4c-2-1.58-4.08-4.75-1.68-7A5.83,5.83,0,0,1,823.1,135.86ZM499.68,114.17c0-.48.23-.92.66-.93,7.75,0,22.4,2.36,23.64,12,1,7.75-7.62,17.27-14.83,19.07-7.94,2-17.27-5.17-18-13.08C490.56,125.51,493.46,115.93,499.68,114.17ZM824.84,138c-.22.25-.62.12-.63-.41s-2.26-.23-2.58-.13a2.94,2.94,0,0,0-1.79,1.23c-1,1.83,1.86,3.66,3.22,4.33.85.42,2,.74,2.63-.17a3.57,3.57,0,0,0,.36-2.68A4.12,4.12,0,0,0,824.84,138ZM502,115.35c-7.28,2.61-11.47,11.45-8.3,18.83,2.66,6.2,11.62,10,17.6,6.59a31,31,0,0,0,6.1-5.13,16.39,16.39,0,0,0,3.86-5.09q1.75-2.46-.35-5.36c.24-3-1-5-3.84-5.84A33.87,33.87,0,0,0,502,115.35Zm3.33,7.72.09-.08c2.66-1.64,5.93.48,6.69,3.24.9,3.25-1.08,6.84-4,8.3-3.33,1.67-6.67-.81-7.09-4.27A6.74,6.74,0,0,1,505.3,123.07Zm1.35,1.16a.48.48,0,0,1-.26.21c-2.65.69-4.79,3.44-3.92,6.28.73,2.37,3.6,2.72,5.46,1.64s4-3.94,2.75-6.27A3.79,3.79,0,0,0,506.65,124.23ZM1069.94,0a56.76,56.76,0,0,1-1.39,20c-2.67,10.58-8.54,23.13-15.78,31.34-7.43,8.42-21.76,13.17-32.76,13.53-6.79.21-13.13-1.8-19.48-4a186.93,186.93,0,0,1-19-7.31c-9.43-4.42-20-10.64-24.64-20.45-4.75-10.06-2.49-22.42-.36-33.13h2c-.17.91-.33,1.83-.48,2.74-2.07,12.17-4.33,25.44,5,35.32,7.33,7.8,17.62,12.57,27.47,16.35,10.48,4,21.8,8.25,33.2,6.55,11.11-1.67,24-6.33,30.47-16,6.17-9.19,11.92-20.18,13.68-31.16A50.21,50.21,0,0,0,1068.08,0Zm-12.26,0a46.62,46.62,0,0,1-3.53,18.58c-3.81,9-11.34,15.76-19,21.49-8.07,6-16.06,7.28-26,6.31s-17.5-3.27-24.44-10.57c-6.73-7.08-10.68-13.58-12-23.34-.51-3.78-1-8.07-1.19-12.47h1.65c.34,10.22,1.73,21.09,8.47,29,3.49,4.09,7.35,8.47,12.16,11s10.06,3,15.28,3.36c5.39.34,11.2.68,16.4-1.1,4.77-1.62,8.75-5,12.52-8.2,8.51-7.29,15.06-15.78,16.83-27.11a49.42,49.42,0,0,0,.61-6.95ZM259.77,0C257,9.05,252.4,18.71,246.48,26.06c-6.33,7.86-15.18,10.23-24.84,11.48C202.81,40,181.49,34.83,172.2,16.68A31.37,31.37,0,0,1,169,0h2c-.36,6.89,1,13.41,5.57,19.45,11.08,14.81,30.63,17.5,47.79,14.68,9.74-1.6,17.06-4.72,22.78-13A85.63,85.63,0,0,0,257.52,0Zm786.75,0a30.85,30.85,0,0,1-2.32,14.64c-5,11.6-18.09,22.54-31.41,20.63-7.22-1-13.34-6.37-18.66-11C989.37,20.15,986,12.71,984,6.87A26,26,0,0,1,982.58,0h1.68a29.53,29.53,0,0,0,3.36,10c1.56,3,2.77,6.72,4.86,9.4,2.46,3.16,6.38,5.67,9.53,8.14,3.38,2.65,6.61,4.45,11,4.95,7.55.88,14.5-1.79,20.23-6.6A31.27,31.27,0,0,0,1044.69,0Zm-298,0a42.73,42.73,0,0,1-8.3,12.4c-7.63,7.74-18.54,11.26-29.2,11.87C690.31,25.46,667.11,16.12,653.21,0h3.5q.91.93,1.89,1.83c15,13.89,36.7,22.17,57.19,19,10.6-1.63,20.75-6.59,27.09-15.46A47.21,47.21,0,0,0,746.19,0Zm288.66,0c.15,6.84-2.26,13.81-7.18,18.18-4.61,4.1-9.94,6.73-16.16,5.78-7.06-1.08-11.61-3.23-15.24-9.39-2.93-5-3.17-9.39-2.72-14.57h1.47c-.41,5.1.23,9.76,3.34,14.41,5.93,8.86,19.31,8.56,27.09,2.41,4.94-3.9,7.67-10.4,7.64-16.82ZM245.44,0c-.22.75-.46,1.48-.72,2.2C240.06,15,227.37,23.69,213.8,23.88c-13.06.18-28.69-7.47-30.27-21.71-.08-.72-.14-1.44-.19-2.17H185c.47,5,2.18,9.68,6.44,13.47C203.11,23.79,222,23.91,233.82,14a31.24,31.24,0,0,0,9.52-14Zm783.45,0c-.21,4.61-3.79,9.68-6.74,12.29-2.72,2.4-6.43,2.67-9.85,1.53-2.89-1-4.85-4.11-6.2-6.7A12.21,12.21,0,0,1,1005,0h1.59a11.35,11.35,0,0,0,2.11,7.66c1.74,2.3,3.3,3.74,6.25,4.09a7.4,7.4,0,0,0,6.61-2.22,20.11,20.11,0,0,0,4.87-7A7.59,7.59,0,0,0,1026.9,0ZM235.4,0a32.46,32.46,0,0,1-1.87,4.46c-3,5.83-8.2,8.68-14.57,9.33-6.07.61-13.51.43-18.54-3.4A16.55,16.55,0,0,1,194.08,0h1.55a13.1,13.1,0,0,0,7.31,8.93c7.69,3.9,22,3.57,27.54-3.68a23.32,23.32,0,0,0,3-5.25ZM731.81,0c-2.08,2.08-4.29,4-6.49,5.81-7.21,5.87-15.18,8.56-24.46,6.72A52.61,52.61,0,0,1,676,0h3.34a53.76,53.76,0,0,0,20.06,9.82c11.69,2.73,20.72-2.18,29-9.82Zm289.27,0a4.31,4.31,0,0,1,.18,3.14,5.59,5.59,0,0,1-5.91,4.07c-1.17,0-2.23-.31-2.6-1.51a8.61,8.61,0,0,1-.09-4.1,5.5,5.5,0,0,1,.61-1.6h2.52a3.17,3.17,0,0,0-1.74,1.92,5.68,5.68,0,0,0-.22,2.24c.07,1.06.75,1.15,1.72,1.18a4.48,4.48,0,0,0,4.09-1.86,2.51,2.51,0,0,0-.5-3.48ZM226.73,0A11.75,11.75,0,0,1,221,4.23C215.9,6,208.22,4.29,204.43,0h3.92c.25.12.51.23.77.33,2.59,1,5.46,2,8.27,2A10.35,10.35,0,0,0,223.82,0Z" style="fill:#fff;fill-opacity:0.4"/></g></g></svg>