<svg xmlns="http://www.w3.org/2000/svg" viewBox="0 0 100 100"><title>hearts_dim</title><g id="Layer_2" data-name="Layer 2"><g id="Layer_1-2" data-name="Layer 1"><path d="M8.79,100A1.6,1.6,0,0,1,9,99.54c.65-1.22,2-.44,2.55.43l0,0Zm3.56,0,.24-.17a1.28,1.28,0,0,1,1.83.17Zm74.88,0C86.11,98.42,85,96.47,87,95.27a2.6,2.6,0,0,1,1.67-.47c.55.13.85.7,1.1,1.16l.2.38a2.61,2.61,0,0,1,1.51-1.73c1.27-.49,2.25.43,2.52,1.64a6.75,6.75,0,0,1-.51,3.75Zm-26.68,0c-.27-.63-.51-1.28-.72-1.94a11.86,11.86,0,0,1-.75-4.16c.08-1.11,1-2.06,2.12-1.39a2.17,2.17,0,0,1,1,1.51,4.23,4.23,0,0,1,1-1.47,1.46,1.46,0,0,1,1.55-.47,1.85,1.85,0,0,1,.94,1.4c.29,1.45-.5,2.83-1.13,4.07L63.25,100ZM21,79.91a3.38,3.38,0,0,1,.62-.92,2.29,2.29,0,0,1,3.11-.37,3.08,3.08,0,0,1,.82,3,15.72,15.72,0,0,1-2,4.09c-.83,1.49-1.66,3-2.5,4.48a.19.19,0,0,1-.27.06c-1.25-.86-1.89-2.54-2.49-3.86a22.74,22.74,0,0,1-1.55-4.27,3.59,3.59,0,0,1,.73-3.51,1.94,1.94,0,0,1,2.82.17A3,3,0,0,1,21,79.91Zm28.61-3.5a4.77,4.77,0,0,1,.82-1.62c.61-.8,2-1.8,2.91-.9a4.77,4.77,0,0,1,1,1.85,3.81,3.81,0,0,1,.11,2A11.73,11.73,0,0,1,53.6,80l-1.06,2.47c-.71,1.64-1.38,3.31-2.14,4.93-.06.13-.23.25-.34.07a43.9,43.9,0,0,1-2.53-4.74,29.9,29.9,0,0,1-1.75-4.46c-.33-1.22-.57-2.83.28-3.9a1.76,1.76,0,0,1,1.38-.69,1.6,1.6,0,0,1,1.32.92A12.14,12.14,0,0,1,49.63,76.41Zm29.39.1a3.64,3.64,0,0,1,.35-.84,2.08,2.08,0,0,1,3.16-.77c1.17,1,1,2.75.77,4.13a16.64,16.64,0,0,1-4,8.07c-.15.16-.31-.07-.34-.2-.33-1.67-1.61-2.9-2.53-4.25a11.26,11.26,0,0,1-1.72-4.12c-.24-1.28-.39-3,.76-3.9s2.49-.14,3.12.92A5.6,5.6,0,0,1,79,76.51Zm21-6.22a12.05,12.05,0,0,1-1.87,2c-.11.1-.21,0-.26-.09C97,70.52,96.16,68.79,95.4,67c-.54-1.25-1.14-3-.45-4.32a2,2,0,0,1,3.14-.26,2.76,2.76,0,0,1,.69,1.23,2.37,2.37,0,0,1,1.2-1.36h0Zm-100-8c1.38-.6,2.27.86,2.25,2.08A10.18,10.18,0,0,1,1,68.65a12,12,0,0,1-1,1.64Zm31.8-1.07a2.23,2.23,0,0,1,1-1.4A1.54,1.54,0,0,1,35.06,61a5.87,5.87,0,0,1-.53,4c-.57,1.48-1.18,3-1.84,4.39,0,.12-.17.25-.3.13a5.88,5.88,0,0,1-1.11-1.63l-1.14-2a6.18,6.18,0,0,1-1.21-3.38c.08-.93.7-2.32,1.82-2.26C31.34,60.16,31.64,60.65,31.8,61.24ZM66.86,56a3.26,3.26,0,0,1,1.44-2.59,1.6,1.6,0,0,1,1.79-.07,3.45,3.45,0,0,1,.83,2c.25,1.73-.47,3.41-1,5-.59,1.75-1.29,3.44-2,5.15-.06.14-.22.24-.32.07-1-1.52-1.43-3.29-2.29-4.87-.78-1.42-1.9-2.88-2-4.54-.11-1.26.76-3,2.28-2.55C66.65,53.9,66.62,55,66.86,56ZM13.78,42.7A2,2,0,0,1,15,41.22a1.56,1.56,0,0,1,2.1,1.4A7.9,7.9,0,0,1,16,46.51c-.66,1.4-1.55,2.72-2.09,4.17,0,.12-.18.2-.27.06a10.89,10.89,0,0,1-.94-1.83c-.26-.66-.42-1.35-.68-2a11.26,11.26,0,0,1-1.2-3.69c0-.83.79-2.32,1.82-1.9a2.62,2.62,0,0,1,1,1.24Zm72.88-3.42a3.37,3.37,0,0,1,.1-.34c.36-1.2,1.3-2.31,2.67-1.83a3.09,3.09,0,0,1,1.73,3.34,14.62,14.62,0,0,1-1.58,4.92,46.75,46.75,0,0,0-2,4.78c-.07.2-.29.21-.36,0a20.82,20.82,0,0,0-2.66-5.26c-.89-1.28-2-2.47-2.43-4a3.09,3.09,0,0,1,1.08-3.47,2.11,2.11,0,0,1,3,.85A6.53,6.53,0,0,1,86.66,39.28ZM42.22,35.65a2.39,2.39,0,0,1,1.23-1.86c1.25-.64,2.35.62,2.69,1.7A6,6,0,0,1,45.39,40l-2.65,5.27c-.08.14-.22.1-.3,0a16.07,16.07,0,0,1-2.17-4c-.71-1.47-1.75-2.82-1.83-4.52,0-1.18.58-2.94,2.05-2.75A2.18,2.18,0,0,1,42.22,35.65Zm22.59-6.9a3.36,3.36,0,0,1,1-1.72,1.52,1.52,0,0,1,2.64.92c.36,3.51-2.44,6.38-3.92,9.28a.18.18,0,0,1-.31,0,22.7,22.7,0,0,1-2.26-4.55c-.59-1.41-1.45-3-1.19-4.59.2-1.21,1.33-2.23,2.54-1.49A3.88,3.88,0,0,1,64.81,28.75ZM0,21.32a2.62,2.62,0,0,1,1.05-1.25,1.81,1.81,0,0,1,1.71-.18c.55.3.71,1.12.8,1.68.54,3.36-2,6.05-3.38,8.84A.17.17,0,0,1,0,30.5ZM100,30.5l-.07,0a9.15,9.15,0,0,1-2.44-3.76,22.19,22.19,0,0,1-.68-2.14,10.18,10.18,0,0,1-.5-2.5c0-1.23.88-2.68,2.3-2.14a2.46,2.46,0,0,1,1.34,1.4l0,.05a.14.14,0,0,1,0-.06ZM25.32,17.79a1.89,1.89,0,0,1,1.72-1c1.23.08,1.54,1.47,1.33,2.47A14.72,14.72,0,0,1,26.86,23a18.66,18.66,0,0,1-2.28,3.28c-.11.13-.29,0-.33-.12-.5-1.65-1.05-3.28-1.71-4.88-.48-1.18-1.3-2.6-.83-3.91a1.85,1.85,0,0,1,2.66-1A2.05,2.05,0,0,1,25.32,17.79ZM77.18,13A2.34,2.34,0,0,1,78,12a1.85,1.85,0,0,1,2.77.63c.66,1.4-.21,3-.68,4.31q-.92,2.57-1.84,5.13c0,.15-.22.23-.33.07-1-1.55-2.13-3.07-3.13-4.64a6.4,6.4,0,0,1-1.34-4.18c.17-1.18,1.37-2.42,2.6-1.68A2.85,2.85,0,0,1,77.18,13ZM42.73,4.82a2.42,2.42,0,0,1,1-1.23c.82-.52,2.26-.61,2.55.56S45.68,6.86,45.14,8q-1.06,2.17-2.22,4.31c-.1.19-.27.07-.34-.06-.72-1.36-1.41-2.73-2.06-4.13-.48-1-1.28-2.23-1-3.43a1.55,1.55,0,0,1,2.26-1.14A2.21,2.21,0,0,1,42.73,4.82ZM14.42,0a1.22,1.22,0,0,1,.14.35,4.07,4.07,0,0,1,0,1.77,4.74,4.74,0,0,1-.81,1.54C13,4.83,12.2,6,11.4,7.16a.17.17,0,0,1-.3,0A27.9,27.9,0,0,1,9.54,3.09C9.22,2.2,8.58,1,8.79,0h2.74a4.37,4.37,0,0,1,.31.61A2.13,2.13,0,0,1,12.35,0ZM93.53,0c-.12.32-.25.63-.38.93-.73,1.71-1.46,3.41-2.21,5.1-.08.17-.23.18-.31,0a38.57,38.57,0,0,0-2.46-4.73C87.92.93,87.58.48,87.23,0ZM63.25,0,62.06,2.33a.18.18,0,0,1-.32,0A19.79,19.79,0,0,1,60.55,0Z" style="fill:#f5f5f5;opacity:0.25"/></g></g></svg>