<svg xmlns="http://www.w3.org/2000/svg" xmlns:xlink="http://www.w3.org/1999/xlink" viewBox="0 0 512 331"><defs><linearGradient id="linear-gradient" y1="59" x2="303.5" y2="59" gradientUnits="userSpaceOnUse"><stop offset="0" stop-color="#fff" stop-opacity="0"/><stop offset="1" stop-color="#79b8d1" stop-opacity="0.4"/></linearGradient><linearGradient id="linear-gradient-2" x1="-104" y1="165" x2="201" y2="165" gradientTransform="matrix(-1, 0, 0, 1, 408, 0)" gradientUnits="userSpaceOnUse"><stop offset="0" stop-color="#fff" stop-opacity="0"/><stop offset="1" stop-color="#eb6484" stop-opacity="0.4"/></linearGradient><linearGradient id="linear-gradient-3" y1="272" x2="304" y2="272" gradientTransform="matrix(1, 0, 0, -1, 0, 544)" xlink:href="#linear-gradient"/></defs><title>history_2</title><g id="Layer_2" data-name="Layer 2"><g id="gradient"><polygon points="287 105 262 118 0 118 0 0 253 0 283 11 302 30 303.5 89.43 287 105" style="fill:url(#linear-gradient)"/><polygon points="223.5 211 248.5 224 512 224 512 106 257.5 106 227.5 117 208.5 136 207 195.43 223.5 211" style="fill:url(#linear-gradient-2)"/><polygon points="287.5 226 262.5 213 0 213 0 331 253.5 331 283.5 320 302.5 301 304 241.57 287.5 226" style="fill:url(#linear-gradient-3)"/></g><g id="graphic"><path d="M253.5,6.5a53,53,0,0,1,0,106" style="fill:none;stroke:#79b8d1;stroke-linecap:round;stroke-miterlimit:10;stroke-width:13px"/><path d="M257.5,112.5a53,53,0,0,0,0,106" style="fill:none;stroke:#eb6484;stroke-linecap:round;stroke-miterlimit:10;stroke-width:13px"/><path d="M253.5,218.5a53,53,0,0,1,0,106" style="fill:none;stroke:#79b8d1;stroke-linecap:round;stroke-miterlimit:10;stroke-width:13px"/><circle cx="253" cy="113" r="9" style="fill:none;stroke:#79b8d1;stroke-miterlimit:10;stroke-width:6px"/><circle cx="253" cy="219" r="9" style="fill:none;stroke:#eb6484;stroke-miterlimit:10;stroke-width:6px"/><text transform="translate(321.12 71.59)" style="font-size:37.16147994995117px;fill:#79b8d1;stroke:#79b8d1;stroke-miterlimit:10;stroke-width:0.5px;font-family:BebasNeue-Regular, Bebas Neue">1903</text><text transform="translate(323.12 282.59)" style="font-size:37.16147994995117px;fill:#79b8d1;stroke:#79b8d1;stroke-miterlimit:10;stroke-width:0.5px;font-family:BebasNeue-Regular, Bebas Neue">2019</text><text transform="translate(126.12 178.59)" style="font-size:37.16147994995117px;fill:#eb6484;stroke:#eb6484;stroke-miterlimit:10;stroke-width:0.5px;font-family:BebasNeue-Regular, Bebas Neue">2005</text><path d="M118.41,50.31l3.55-5.2v0h-3.25v-.7H123v.51l-3.54,5.18v0h3.58v.7h-4.67Z" style="fill:#79b8d1"/><path d="M126.62,50.8l-.06-.58h0a1.72,1.72,0,0,1-1.41.68,1.3,1.3,0,0,1-1.4-1.32c0-1.11,1-1.72,2.76-1.71v-.09a1,1,0,0,0-1-1.07,2.28,2.28,0,0,0-1.2.34l-.19-.55a2.82,2.82,0,0,1,1.51-.41c1.41,0,1.75,1,1.75,1.89V49.7a7.27,7.27,0,0,0,.07,1.1Zm-.12-2.35c-.91,0-2,.14-2,1a.74.74,0,0,0,.79.8,1.14,1.14,0,0,0,1.11-.77.91.91,0,0,0,0-.27Zm.42-4.24-1.16,1.36h-.6l.84-1.36Z" style="fill:#79b8d1"/><path d="M129.49,48.31h0a6.21,6.21,0,0,1,.41-.52l1.35-1.59h1l-1.77,1.89,2,2.71h-1l-1.58-2.21-.43.48V50.8h-.83V44.05h.83Z" style="fill:#79b8d1"/><path d="M133.28,44.05h.84V50.8h-.84Z" style="fill:#79b8d1"/><path d="M138.08,50.8l-.07-.58h0a1.72,1.72,0,0,1-1.41.68,1.3,1.3,0,0,1-1.4-1.32c0-1.11,1-1.72,2.76-1.71v-.09a1,1,0,0,0-1-1.07,2.28,2.28,0,0,0-1.2.34l-.19-.55a2.82,2.82,0,0,1,1.51-.41c1.41,0,1.75,1,1.75,1.89V49.7a6.1,6.1,0,0,0,.08,1.1ZM138,48.45c-.91,0-1.95.14-1.95,1a.75.75,0,0,0,.79.8,1.16,1.16,0,0,0,1.12-.77,1.36,1.36,0,0,0,0-.27Z" style="fill:#79b8d1"/><path d="M144.09,44.05v5.56c0,.41,0,.88,0,1.19h-.76l0-.8h0a1.71,1.71,0,0,1-1.57.9,2.1,2.1,0,0,1-2-2.34,2.2,2.2,0,0,1,2.06-2.47,1.54,1.54,0,0,1,1.39.71h0V44.05Zm-.84,4a1.39,1.39,0,0,0,0-.35,1.23,1.23,0,0,0-1.21-1c-.86,0-1.37.76-1.37,1.78s.45,1.7,1.36,1.7a1.25,1.25,0,0,0,1.22-1,1.37,1.37,0,0,0,0-.36Z" style="fill:#79b8d1"/><path d="M145.48,47.44c0-.47,0-.86,0-1.24h.74l0,.76h0a1.69,1.69,0,0,1,1.52-.87c.64,0,1.62.38,1.62,2V50.8h-.83V48.15c0-.74-.28-1.36-1.07-1.36A1.23,1.23,0,0,0,146.31,48V50.8h-.83Z" style="fill:#79b8d1"/><path d="M153.3,50.8l-.06-.58h0a1.72,1.72,0,0,1-1.41.68,1.3,1.3,0,0,1-1.4-1.32c0-1.11,1-1.72,2.76-1.71v-.09a1,1,0,0,0-1-1.07,2.28,2.28,0,0,0-1.2.34l-.19-.55a2.82,2.82,0,0,1,1.51-.41c1.41,0,1.75,1,1.75,1.89V49.7a7.27,7.27,0,0,0,.07,1.1Zm-.12-2.35c-.91,0-2,.14-2,1a.74.74,0,0,0,.79.8,1.14,1.14,0,0,0,1.11-.77.91.91,0,0,0,.05-.27Zm.42-4.24-1.16,1.36h-.6l.84-1.36Z" style="fill:#79b8d1"/><path d="M157.24,49.94a2.24,2.24,0,0,0,1.11.34c.61,0,.89-.31.89-.69s-.24-.62-.86-.84c-.82-.3-1.21-.76-1.21-1.31a1.42,1.42,0,0,1,1.59-1.35,2.34,2.34,0,0,1,1.13.29l-.21.61a1.75,1.75,0,0,0-.94-.27c-.5,0-.77.29-.77.63s.27.55.87.78c.8.3,1.21.7,1.21,1.39s-.63,1.37-1.72,1.37a2.66,2.66,0,0,1-1.3-.31Zm1-4.37-.91-1.36H158l.56.9h0l.56-.9h.63l-.89,1.36Z" style="fill:#79b8d1"/><path d="M162,48.31h0l.41-.52,1.35-1.59h1L163,48.09l2,2.71h-1l-1.59-2.21-.43.48V50.8h-.82V44.05H162Z" style="fill:#79b8d1"/><path d="M169.75,48.46a2.25,2.25,0,0,1-2.29,2.44,2.18,2.18,0,0,1-2.21-2.36,2.25,2.25,0,0,1,2.28-2.45A2.18,2.18,0,0,1,169.75,48.46Zm-3.65,0c0,1,.58,1.77,1.4,1.77s1.39-.75,1.39-1.79c0-.78-.39-1.77-1.37-1.77S166.1,47.63,166.1,48.51Z" style="fill:#79b8d1"/><path d="M170.81,44.05h.83V50.8h-.83Z" style="fill:#79b8d1"/><path d="M175.6,50.8l-.07-.58h0a1.73,1.73,0,0,1-1.41.68,1.31,1.31,0,0,1-1.41-1.32c0-1.11,1-1.72,2.77-1.71v-.09a1,1,0,0,0-1.05-1.07,2.3,2.3,0,0,0-1.2.34L173,46.5a2.86,2.86,0,0,1,1.52-.41c1.4,0,1.75,1,1.75,1.89V49.7a6.17,6.17,0,0,0,.07,1.1Zm-.12-2.35c-.92,0-1.95.14-1.95,1a.74.74,0,0,0,.79.8,1.14,1.14,0,0,0,1.11-.77.91.91,0,0,0,0-.27Z" style="fill:#79b8d1"/><path d="M180.59,44.91a.52.52,0,0,1-1,0,.51.51,0,0,1,.52-.53A.5.5,0,0,1,180.59,44.91Zm-.94,5.89V46.2h.84v4.6Z" style="fill:#79b8d1"/><path d="M181.88,47.44c0-.47,0-.86,0-1.24h.74l0,.76h0a1.69,1.69,0,0,1,1.52-.87c.64,0,1.63.38,1.63,2V50.8H185V48.15c0-.74-.28-1.36-1.06-1.36A1.19,1.19,0,0,0,182.72,48V50.8h-.84Z" style="fill:#79b8d1"/><path d="M188.13,44.88V46.2h1.2v.63h-1.2v2.49c0,.57.16.89.63.89a1.76,1.76,0,0,0,.48-.06l0,.63a2,2,0,0,1-.74.11,1.17,1.17,0,0,1-.91-.35,1.74,1.74,0,0,1-.32-1.2V46.83h-.71V46.2h.71V45.09Z" style="fill:#79b8d1"/><path d="M190.68,48.65a1.48,1.48,0,0,0,1.58,1.6,3.07,3.07,0,0,0,1.27-.24l.14.6a3.78,3.78,0,0,1-1.53.28,2.14,2.14,0,0,1-2.26-2.32A2.24,2.24,0,0,1,192,46.09a2,2,0,0,1,1.9,2.17,3.1,3.1,0,0,1,0,.39Zm2.45-.6A1.19,1.19,0,0,0,192,46.69a1.38,1.38,0,0,0-1.28,1.36Z" style="fill:#79b8d1"/><path d="M195,47.63c0-.54,0-1,0-1.43h.73l0,.9h0a1.38,1.38,0,0,1,1.27-1,.88.88,0,0,1,.24,0v.79a1.23,1.23,0,0,0-.29,0A1.18,1.18,0,0,0,195.84,48a2.13,2.13,0,0,0,0,.39V50.8H195Z" style="fill:#79b8d1"/><path d="M198.13,47.44c0-.47,0-.86,0-1.24h.74l0,.76h0a1.68,1.68,0,0,1,1.52-.87c.63,0,1.62.38,1.62,2V50.8h-.83V48.15c0-.74-.28-1.36-1.07-1.36A1.23,1.23,0,0,0,199,48V50.8h-.83Z" style="fill:#79b8d1"/><path d="M206,50.8l-.06-.58h0a1.72,1.72,0,0,1-1.41.68A1.31,1.31,0,0,1,203,49.58c0-1.11,1-1.72,2.77-1.71v-.09a1,1,0,0,0-1.05-1.07,2.27,2.27,0,0,0-1.19.34l-.19-.55a2.82,2.82,0,0,1,1.51-.41c1.4,0,1.75,1,1.75,1.89V49.7a7.27,7.27,0,0,0,.07,1.1Zm-.12-2.35c-.91,0-2,.14-2,1a.74.74,0,0,0,.79.8,1.14,1.14,0,0,0,1.11-.77.91.91,0,0,0,.05-.27Zm.42-4.24-1.16,1.36h-.6l.84-1.36Z" style="fill:#79b8d1"/><path d="M209,44.88V46.2h1.2v.63H209v2.49c0,.57.16.89.63.89a1.7,1.7,0,0,0,.48-.06l0,.63a2,2,0,0,1-.74.11,1.17,1.17,0,0,1-.91-.35,1.74,1.74,0,0,1-.32-1.2V46.83h-.71V46.2h.71V45.09Z" style="fill:#79b8d1"/><path d="M211.1,47.44c0-.47,0-.86,0-1.24h.74l0,.76h0a1.69,1.69,0,0,1,1.52-.87c.64,0,1.63.38,1.63,2V50.8h-.84V48.15c0-.74-.28-1.36-1.06-1.36a1.2,1.2,0,0,0-1.13.85,1.54,1.54,0,0,0-.05.39V50.8h-.84Z" style="fill:#79b8d1"/><path d="M218.93,50.8l-.07-.58h0a1.71,1.71,0,0,1-1.41.68,1.3,1.3,0,0,1-1.4-1.32c0-1.11,1-1.72,2.76-1.71v-.09a1,1,0,0,0-1-1.07,2.28,2.28,0,0,0-1.2.34l-.19-.55a2.82,2.82,0,0,1,1.51-.41c1.41,0,1.75,1,1.75,1.89V49.7a6.1,6.1,0,0,0,.08,1.1Zm-.13-2.35c-.91,0-2,.14-2,1a.75.75,0,0,0,.79.8,1.16,1.16,0,0,0,1.12-.77,1.36,1.36,0,0,0,0-.27Z" style="fill:#79b8d1"/><path d="M117.08,59.11c0-.59,0-1.06,0-1.5h.75l0,.79h0a1.83,1.83,0,0,1,1.64-.89,2.09,2.09,0,0,1,2,2.34,2.18,2.18,0,0,1-2.09,2.47,1.62,1.62,0,0,1-1.42-.73h0v2.5h-.83Zm.83,1.23a1.76,1.76,0,0,0,0,.34,1.29,1.29,0,0,0,1.26,1c.88,0,1.39-.72,1.39-1.78s-.48-1.71-1.37-1.71a1.33,1.33,0,0,0-1.26,1,1.28,1.28,0,0,0-.06.34Z" style="fill:#79b8d1"/><path d="M122.5,59.05c0-.54,0-1,0-1.44h.73l0,.9h0a1.38,1.38,0,0,1,1.27-1,.88.88,0,0,1,.24,0v.79a1.23,1.23,0,0,0-.29,0,1.17,1.17,0,0,0-1.12,1.07,2.23,2.23,0,0,0,0,.39v2.45h-.82Z" style="fill:#79b8d1"/><path d="M126,60.06a1.47,1.47,0,0,0,1.58,1.6,2.88,2.88,0,0,0,1.27-.24l.14.6a3.59,3.59,0,0,1-1.53.29A2.14,2.14,0,0,1,125.18,60a2.23,2.23,0,0,1,2.16-2.48,2,2,0,0,1,1.9,2.16,2.79,2.79,0,0,1,0,.39Zm2.45-.59a1.19,1.19,0,0,0-1.16-1.36A1.38,1.38,0,0,0,126,59.47Z" style="fill:#79b8d1"/><path d="M132.18,61.36a2.2,2.2,0,0,0,1.1.33c.61,0,.9-.3.9-.68s-.24-.62-.86-.85c-.83-.29-1.22-.75-1.22-1.3a1.42,1.42,0,0,1,1.59-1.35,2.28,2.28,0,0,1,1.13.28l-.21.61a1.81,1.81,0,0,0-.94-.27c-.49,0-.77.29-.77.63s.28.55.88.78c.8.31,1.2.71,1.2,1.39s-.62,1.38-1.72,1.38A2.61,2.61,0,0,1,132,62Z" style="fill:#79b8d1"/><path d="M136.06,55.46h.84v6.75h-.84Z" style="fill:#79b8d1"/><path d="M142.16,61c0,.47,0,.89,0,1.25h-.74l0-.75h0a1.75,1.75,0,0,1-1.53.86c-.72,0-1.58-.4-1.58-2V57.61h.83v2.55c0,.87.27,1.46,1,1.46a1.2,1.2,0,0,0,1.1-.76,1.12,1.12,0,0,0,.08-.42V57.61h.84Z" style="fill:#79b8d1"/><path d="M146.83,62a3,3,0,0,1-1.32.27,2.19,2.19,0,0,1-2.3-2.35,2.34,2.34,0,0,1,2.48-2.44,2.91,2.91,0,0,1,1.16.23l-.19.65a2,2,0,0,0-1-.22,1.59,1.59,0,0,0-1.63,1.74,1.57,1.57,0,0,0,1.6,1.72,2.26,2.26,0,0,0,1-.23Z" style="fill:#79b8d1"/><path d="M147.81,55.46h.83v2.87h0a1.76,1.76,0,0,1,1.46-.82c.62,0,1.6.38,1.6,2v2.74h-.83V59.57c0-.74-.28-1.37-1.07-1.37a1.2,1.2,0,0,0-1.12.84,1,1,0,0,0-.06.4v2.77h-.83Z" style="fill:#79b8d1"/><path d="M157.25,59.87A2.25,2.25,0,0,1,155,62.32,2.19,2.19,0,0,1,152.75,60,2.25,2.25,0,0,1,155,57.51,2.17,2.17,0,0,1,157.25,59.87Zm-3.65.05c0,1,.58,1.77,1.4,1.77s1.4-.75,1.4-1.79c0-.78-.39-1.77-1.38-1.77S153.6,59.05,153.6,59.92Z" style="fill:#79b8d1"/><path d="M158.57,57.61l.9,2.59c.15.42.27.8.37,1.18h0c.1-.38.24-.76.39-1.18l.89-2.59H162l-1.81,4.6h-.8l-1.75-4.6Z" style="fill:#79b8d1"/><path d="M166.89,59.87a2.25,2.25,0,0,1-2.29,2.45A2.19,2.19,0,0,1,162.39,60a2.24,2.24,0,0,1,2.28-2.44A2.18,2.18,0,0,1,166.89,59.87Zm-3.65.05c0,1,.58,1.77,1.39,1.77s1.4-.75,1.4-1.79c0-.78-.39-1.77-1.38-1.77S163.24,59.05,163.24,59.92Z" style="fill:#79b8d1"/><path d="M170,59.11c0-.59,0-1.06,0-1.5h.75l0,.79h0a1.81,1.81,0,0,1,1.64-.89,2.08,2.08,0,0,1,1.94,2.34,2.17,2.17,0,0,1-2.09,2.47,1.6,1.6,0,0,1-1.41-.73h0v2.5H170Zm.83,1.23a1.76,1.76,0,0,0,0,.34,1.28,1.28,0,0,0,1.25,1c.88,0,1.4-.72,1.4-1.78s-.49-1.71-1.37-1.71a1.33,1.33,0,0,0-1.26,1,1.28,1.28,0,0,0-.06.34Z" style="fill:#79b8d1"/><path d="M179.54,59.87a2.25,2.25,0,0,1-2.29,2.45A2.19,2.19,0,0,1,175,60a2.24,2.24,0,0,1,2.28-2.44A2.18,2.18,0,0,1,179.54,59.87Zm-3.65.05c0,1,.58,1.77,1.39,1.77s1.4-.75,1.4-1.79c0-.78-.39-1.77-1.38-1.77S175.89,59.05,175.89,59.92Z" style="fill:#79b8d1"/><path d="M180.48,61.36a2.23,2.23,0,0,0,1.1.33c.61,0,.9-.3.9-.68s-.24-.62-.86-.85c-.83-.29-1.21-.75-1.21-1.3A1.41,1.41,0,0,1,182,57.51a2.28,2.28,0,0,1,1.13.28l-.2.61a1.89,1.89,0,0,0-.95-.27c-.49,0-.77.29-.77.63s.28.55.88.78c.8.31,1.21.71,1.21,1.39s-.63,1.38-1.73,1.38a2.64,2.64,0,0,1-1.29-.32Z" style="fill:#79b8d1"/><path d="M185.37,56.29v1.32h1.2v.64h-1.2v2.48c0,.57.16.89.63.89a2.33,2.33,0,0,0,.48,0l0,.62a2,2,0,0,1-.74.12,1.17,1.17,0,0,1-.9-.35,1.71,1.71,0,0,1-.33-1.2V58.25h-.71v-.64h.71v-1.1Z" style="fill:#79b8d1"/><path d="M188.44,56.32a.52.52,0,0,1-1,0,.5.5,0,0,1,.52-.52A.49.49,0,0,1,188.44,56.32Zm-.93,5.89v-4.6h.84v4.6Z" style="fill:#79b8d1"/><path d="M189.74,55.46h.83v2.87h0a1.52,1.52,0,0,1,.6-.58,1.66,1.66,0,0,1,.86-.24c.61,0,1.6.38,1.6,2v2.74h-.83V59.57c0-.74-.28-1.37-1.07-1.37a1.2,1.2,0,0,0-1.12.84,1,1,0,0,0-.06.4v2.77h-.83Z" style="fill:#79b8d1"/><path d="M195,58.86c0-.48,0-.87,0-1.25h.74l.05.76h0a1.69,1.69,0,0,1,1.52-.86c.63,0,1.62.38,1.62,2v2.74h-.83V59.56c0-.74-.28-1.36-1.07-1.36a1.18,1.18,0,0,0-1.12.86,1.1,1.1,0,0,0-.06.39v2.76H195Z" style="fill:#79b8d1"/><path d="M204.14,61c0,.47,0,.89,0,1.25h-.74l-.05-.75h0a1.72,1.72,0,0,1-1.52.86c-.72,0-1.58-.4-1.58-2V57.61h.83v2.55c0,.87.27,1.46,1,1.46a1.2,1.2,0,0,0,1.1-.76,1.12,1.12,0,0,0,.08-.42V57.61h.83Z" style="fill:#79b8d1"/><path d="M206.54,56.29v1.32h1.2v.64h-1.2v2.48c0,.57.16.89.63.89a2.54,2.54,0,0,0,.49,0l0,.62a2,2,0,0,1-.74.12,1.18,1.18,0,0,1-.9-.35,1.71,1.71,0,0,1-.32-1.2V58.25H205v-.64h.72v-1.1Z" style="fill:#79b8d1"/><path d="M209.07,57.61l1,2.72c.11.3.22.67.3.94h0c.09-.27.19-.63.3-1l.91-2.7h.89l-1.26,3.28a7,7,0,0,1-1.58,2.88,2.18,2.18,0,0,1-1,.54l-.21-.7a2.28,2.28,0,0,0,.73-.41,2.48,2.48,0,0,0,.7-.93.59.59,0,0,0,.07-.2.73.73,0,0,0-.06-.22l-1.7-4.24Zm2.64-2L210.55,57H210l.83-1.35Z" style="fill:#79b8d1"/><path d="M216.43,62a3,3,0,0,1-1.32.27A2.18,2.18,0,0,1,212.82,60a2.33,2.33,0,0,1,2.47-2.44,2.87,2.87,0,0,1,1.16.23l-.19.65a2,2,0,0,0-1-.22,1.59,1.59,0,0,0-1.62,1.74,1.57,1.57,0,0,0,1.59,1.72,2.3,2.3,0,0,0,1-.23Z" style="fill:#79b8d1"/><path d="M217.42,55.46h.83v2.87h0a1.52,1.52,0,0,1,.6-.58,1.66,1.66,0,0,1,.86-.24c.61,0,1.6.38,1.6,2v2.74h-.83V59.57c0-.74-.28-1.37-1.07-1.37a1.2,1.2,0,0,0-1.12.84,1,1,0,0,0-.06.4v2.77h-.83Z" style="fill:#79b8d1"/><path d="M145.18,73.63l-2.09-6.41H144l1,3.16c.27.86.51,1.64.68,2.39h0c.18-.74.45-1.55.73-2.38l1.09-3.17h.88l-2.29,6.41Z" style="fill:#79b8d1"/><path d="M149.83,67.73a.5.5,0,0,1-.53.52.5.5,0,0,1-.51-.52.51.51,0,0,1,.53-.52A.5.5,0,0,1,149.83,67.73Zm-.93,5.9V69h.83v4.6Z" style="fill:#79b8d1"/><path d="M151.12,66.88H152v6.75h-.84Z" style="fill:#79b8d1"/><path d="M154.3,67.73a.5.5,0,0,1-.53.52.5.5,0,0,1-.51-.52.51.51,0,0,1,.53-.52A.5.5,0,0,1,154.3,67.73Zm-.93,5.9V69h.83v4.6Z" style="fill:#79b8d1"/><path d="M158.14,73.63l-.07-.58h0a1.73,1.73,0,0,1-1.41.68,1.31,1.31,0,0,1-1.41-1.32c0-1.11,1-1.72,2.77-1.71v-.1A1,1,0,0,0,157,69.54a2.3,2.3,0,0,0-1.2.34l-.19-.55a2.89,2.89,0,0,1,1.52-.41c1.4,0,1.75,1,1.75,1.88v1.73a6.3,6.3,0,0,0,.07,1.1ZM158,71.28c-.92,0-2,.14-2,1a.73.73,0,0,0,.79.79,1.14,1.14,0,0,0,1.11-.77.8.8,0,0,0,.05-.26Z" style="fill:#79b8d1"/><path d="M160.18,70.27c0-.47,0-.86,0-1.24h.73l0,.74h0a1.58,1.58,0,0,1,1.44-.85,1.37,1.37,0,0,1,1.31.92h0a1.86,1.86,0,0,1,.51-.59,1.56,1.56,0,0,1,1-.33c.6,0,1.51.4,1.51,2v2.71h-.82V71c0-.88-.32-1.41-1-1.41a1.1,1.1,0,0,0-1,.76,1.29,1.29,0,0,0-.06.42v2.84h-.82V70.87c0-.73-.32-1.26-1-1.26a1.16,1.16,0,0,0-1,.83,1.13,1.13,0,0,0-.06.41v2.78h-.82Z" style="fill:#79b8d1"/><path d="M170.66,73.63l-.07-.58h0a1.7,1.7,0,0,1-1.4.68,1.31,1.31,0,0,1-1.41-1.32c0-1.11,1-1.72,2.77-1.71v-.1a1,1,0,0,0-1.05-1.06,2.3,2.3,0,0,0-1.2.34l-.19-.55a2.82,2.82,0,0,1,1.51-.41c1.41,0,1.75,1,1.75,1.88v1.73a6.25,6.25,0,0,0,.08,1.1Zm-.12-2.35c-.92,0-1.95.14-1.95,1a.73.73,0,0,0,.79.79,1.16,1.16,0,0,0,1.11-.77.8.8,0,0,0,0-.26Z" style="fill:#79b8d1"/><path d="M179.62,73.34a5.79,5.79,0,0,1-2,.35,3,3,0,0,1-3.29-3.23,3.21,3.21,0,0,1,3.47-3.31,4,4,0,0,1,1.6.3l-.2.67a3.36,3.36,0,0,0-1.42-.27,2.39,2.39,0,0,0-2.57,2.57A2.34,2.34,0,0,0,177.71,73a2.78,2.78,0,0,0,1.1-.17V70.93h-1.3v-.67h2.11Z" style="fill:#79b8d1"/><path d="M183.48,73.63l-.07-.58h0a1.73,1.73,0,0,1-1.41.68,1.31,1.31,0,0,1-1.41-1.32c0-1.11,1-1.72,2.77-1.71v-.1a1,1,0,0,0-1.05-1.06,2.3,2.3,0,0,0-1.2.34l-.19-.55a2.89,2.89,0,0,1,1.52-.41c1.4,0,1.75,1,1.75,1.88v1.73a6.3,6.3,0,0,0,.07,1.1Zm-.12-2.35c-.92,0-2,.14-2,1a.73.73,0,0,0,.79.79,1.14,1.14,0,0,0,1.11-.77.8.8,0,0,0,.05-.26Z" style="fill:#79b8d1"/><path d="M185.52,70.27c0-.47,0-.86,0-1.24h.74l.05.76h0a1.69,1.69,0,0,1,1.52-.87c.64,0,1.62.38,1.62,2v2.75h-.83V71c0-.75-.28-1.36-1.07-1.36a1.23,1.23,0,0,0-1.18,1.24v2.77h-.83Zm1.65-1.87L186.26,67h.64l.56.9h0L188,67h.62l-.89,1.36Z" style="fill:#79b8d1"/><path d="M194.65,72.37q0,.72,0,1.26h-.74l0-.75h0a1.74,1.74,0,0,1-1.52.85c-.73,0-1.59-.4-1.59-2V69h.83v2.54c0,.88.27,1.47,1,1.47a1.2,1.2,0,0,0,1.1-.76,1.22,1.22,0,0,0,.08-.43V69h.84Z" style="fill:#79b8d1"/><path d="M294.36,162.46a11.21,11.21,0,0,1,1.76-.14,3.66,3.66,0,0,1,2.59.8,2.94,2.94,0,0,1,.91,2.3,3.38,3.38,0,0,1-.93,2.49,3.91,3.91,0,0,1-2.83.92c-.59,0-1.08,0-1.5-.07Zm.83,5.66a4.91,4.91,0,0,0,.83,0,2.46,2.46,0,0,0,2.73-2.72,2.28,2.28,0,0,0-2.59-2.47,5.4,5.4,0,0,0-1,.08Z" style="fill:#eb6484"/><path d="M301.17,166.63a1.47,1.47,0,0,0,1.58,1.59A3.06,3.06,0,0,0,304,168l.14.6a3.78,3.78,0,0,1-1.53.28,2.14,2.14,0,0,1-2.26-2.32,2.23,2.23,0,0,1,2.16-2.48,2,2,0,0,1,1.9,2.17,3.1,3.1,0,0,1,0,.39Zm2.45-.6a1.19,1.19,0,0,0-1.16-1.36,1.38,1.38,0,0,0-1.28,1.36Z" style="fill:#eb6484"/><path d="M306.47,162.85v1.33h1.2v.63h-1.2v2.48c0,.57.17.9.63.9a1.84,1.84,0,0,0,.49-.06l0,.63a2.28,2.28,0,0,1-.75.11,1.15,1.15,0,0,1-.9-.35,1.71,1.71,0,0,1-.32-1.2v-2.51h-.72v-.63h.72v-1.11Z" style="fill:#eb6484"/><path d="M308.5,167.92a2.23,2.23,0,0,0,1.1.33c.61,0,.9-.3.9-.68s-.24-.62-.86-.85c-.83-.29-1.22-.75-1.22-1.3a1.42,1.42,0,0,1,1.59-1.35,2.18,2.18,0,0,1,1.13.29l-.21.6a1.82,1.82,0,0,0-.94-.26c-.49,0-.77.28-.77.63s.28.55.88.78c.8.3,1.21.7,1.21,1.38s-.63,1.38-1.73,1.38a2.62,2.62,0,0,1-1.29-.31Z" style="fill:#eb6484"/><path d="M313.21,166.29h0a5,5,0,0,1,.41-.53l1.35-1.58h1l-1.77,1.89,2,2.71h-1l-1.58-2.21-.43.48v1.73h-.83V162h.83Z" style="fill:#eb6484"/><path d="M317.27,164.18l1,2.71c.1.31.22.67.29.94h0c.09-.27.18-.62.29-1l.92-2.7h.88l-1.25,3.28a7,7,0,0,1-1.58,2.87,2.24,2.24,0,0,1-1,.55l-.21-.71a2,2,0,0,0,.73-.41,2.49,2.49,0,0,0,.71-.93.49.49,0,0,0,.06-.2.59.59,0,0,0-.05-.21l-1.7-4.24Zm2.63-2-1.16,1.36h-.6l.84-1.36Z" style="fill:#eb6484"/><path d="M327.43,162v5.56c0,.41,0,.87,0,1.19h-.75l0-.8h0a1.69,1.69,0,0,1-1.57.9,2.09,2.09,0,0,1-2-2.34,2.2,2.2,0,0,1,2.06-2.47,1.55,1.55,0,0,1,1.39.7h0V162Zm-.83,4a1.34,1.34,0,0,0,0-.35,1.22,1.22,0,0,0-1.21-1c-.86,0-1.38.76-1.38,1.77s.46,1.71,1.36,1.71a1.27,1.27,0,0,0,1.23-1,1.42,1.42,0,0,0,0-.36Z" style="fill:#eb6484"/><path d="M333,166.44a2.25,2.25,0,0,1-2.29,2.44,2.19,2.19,0,0,1-2.21-2.37,2.24,2.24,0,0,1,2.28-2.44A2.18,2.18,0,0,1,333,166.44Zm-3.65.05c0,1,.58,1.76,1.39,1.76s1.4-.75,1.4-1.78c0-.78-.39-1.77-1.38-1.77S329.34,165.61,329.34,166.49Z" style="fill:#eb6484"/><path d="M334,165.42c0-.47,0-.86,0-1.24h.73l0,.74h0a1.6,1.6,0,0,1,1.45-.85,1.36,1.36,0,0,1,1.3.92h0a2,2,0,0,1,.51-.6,1.58,1.58,0,0,1,1-.32c.61,0,1.51.4,1.51,2v2.71h-.81v-2.61c0-.88-.33-1.42-1-1.42a1.08,1.08,0,0,0-1,.77,1.25,1.25,0,0,0-.07.41v2.85h-.82V166c0-.73-.32-1.27-1-1.27a1.27,1.27,0,0,0-1.1,1.25v2.78H334Z" style="fill:#eb6484"/><path d="M346.14,166.44a2.25,2.25,0,0,1-2.29,2.44,2.19,2.19,0,0,1-2.21-2.37,2.24,2.24,0,0,1,2.28-2.44A2.18,2.18,0,0,1,346.14,166.44Zm-3.65.05c0,1,.58,1.76,1.4,1.76s1.39-.75,1.39-1.78c0-.78-.39-1.77-1.38-1.77S342.49,165.61,342.49,166.49Z" style="fill:#eb6484"/><path d="M347.45,164.18l.91,2.58c.15.42.27.8.37,1.18h0a11.59,11.59,0,0,1,.39-1.18l.89-2.58h.87l-1.8,4.6h-.8l-1.75-4.6Z" style="fill:#eb6484"/><path d="M359.15,166c0-.89-.11-2-.1-2.76h0c-.21.75-.48,1.55-.8,2.43l-1.13,3.11h-.63l-1-3.05c-.3-.91-.56-1.73-.74-2.49h0c0,.8-.07,1.87-.12,2.83l-.17,2.75h-.79l.44-6.41h1.06l1.09,3.1c.27.79.49,1.49.65,2.16h0c.16-.65.39-1.35.67-2.16l1.14-3.1h1.06l.4,6.41h-.81Z" style="fill:#eb6484"/><path d="M364,168.78l-.07-.58h0a1.73,1.73,0,0,1-1.41.68,1.32,1.32,0,0,1-1.41-1.32c0-1.11,1-1.72,2.77-1.71v-.1a1,1,0,0,0-1.05-1.06,2.3,2.3,0,0,0-1.2.34l-.19-.55a2.86,2.86,0,0,1,1.52-.41c1.4,0,1.75,1,1.75,1.88v1.72a6.35,6.35,0,0,0,.07,1.11Zm-.12-2.35c-.92,0-2,.14-2,1a.74.74,0,0,0,.79.8,1.14,1.14,0,0,0,1.11-.77.8.8,0,0,0,.05-.26Z" style="fill:#eb6484"/><path d="M369.86,167.52c0,.48,0,.9,0,1.26h-.75l0-.75h0a1.74,1.74,0,0,1-1.52.85c-.73,0-1.59-.4-1.59-2v-2.69h.83v2.54c0,.88.27,1.47,1,1.47a1.2,1.2,0,0,0,1.1-.76A1.22,1.22,0,0,0,369,167v-2.82h.84Z" style="fill:#eb6484"/><path d="M371.25,165.61c0-.54,0-1,0-1.43h.73l0,.9h0a1.38,1.38,0,0,1,1.27-1,.88.88,0,0,1,.24,0v.79a1.23,1.23,0,0,0-.29,0,1.18,1.18,0,0,0-1.12,1.07,2.34,2.34,0,0,0,0,.39v2.46h-.82Z" style="fill:#eb6484"/><path d="M376.1,162.19l-1.16,1.36h-.6l.83-1.36Zm-1.71,6.59v-4.6h.84v4.6Z" style="fill:#eb6484"/><path d="M379.9,168.61a3.16,3.16,0,0,1-1.32.26,2.18,2.18,0,0,1-2.29-2.35,2.34,2.34,0,0,1,2.47-2.44,2.72,2.72,0,0,1,1.16.24l-.19.64a2,2,0,0,0-1-.21,1.73,1.73,0,0,0,0,3.46,2.45,2.45,0,0,0,1-.23Z" style="fill:#eb6484"/><path d="M381.81,162.88a.52.52,0,1,1-1,0,.5.5,0,0,1,.52-.52A.5.5,0,0,1,381.81,162.88Zm-.93,5.9v-4.6h.84v4.6Z" style="fill:#eb6484"/><path d="M387,167.52q0,.72,0,1.26h-.74l-.05-.75h0a1.74,1.74,0,0,1-1.53.85c-.72,0-1.58-.4-1.58-2v-2.69h.83v2.54c0,.88.27,1.47,1,1.47a1.2,1.2,0,0,0,1.1-.76,1.22,1.22,0,0,0,.08-.43v-2.82H387Z" style="fill:#eb6484"/><path d="M388.23,167.92a2.23,2.23,0,0,0,1.1.33c.61,0,.9-.3.9-.68s-.24-.62-.86-.85c-.83-.29-1.21-.75-1.21-1.3a1.41,1.41,0,0,1,1.58-1.35,2.18,2.18,0,0,1,1.13.29l-.2.6a1.9,1.9,0,0,0-.95-.26c-.49,0-.77.28-.77.63s.28.55.88.78c.8.3,1.21.7,1.21,1.38s-.63,1.38-1.73,1.38a2.64,2.64,0,0,1-1.29-.31Z" style="fill:#eb6484"/><path d="M140.35,267.6a4.13,4.13,0,0,1-1.69.3,3,3,0,0,1-3.17-3.24,3.19,3.19,0,0,1,3.35-3.37,3.32,3.32,0,0,1,1.52.29l-.2.67a3,3,0,0,0-1.29-.26,2.38,2.38,0,0,0-2.5,2.64,2.33,2.33,0,0,0,2.46,2.58,3.34,3.34,0,0,0,1.35-.27Z" style="fill:#79b8d1"/><path d="M141.72,265.66a1.47,1.47,0,0,0,1.58,1.59,3.06,3.06,0,0,0,1.27-.23l.15.59a3.62,3.62,0,0,1-1.53.29,2.14,2.14,0,0,1-2.27-2.32,2.23,2.23,0,0,1,2.16-2.48,2,2,0,0,1,1.9,2.17c0,.17,0,.3,0,.39Zm2.46-.6A1.19,1.19,0,0,0,143,263.7a1.39,1.39,0,0,0-1.29,1.36Z" style="fill:#79b8d1"/><path d="M146,264.45c0-.48,0-.87,0-1.25h.75l0,.76h0a1.7,1.7,0,0,1,1.52-.86c.64,0,1.63.38,1.63,2v2.74h-.84v-2.65c0-.74-.27-1.36-1.06-1.36a1.18,1.18,0,0,0-1.12.86,1.14,1.14,0,0,0-.06.39v2.76H146Z" style="fill:#79b8d1"/><path d="M152.27,261.88v1.32h1.2v.64h-1.2v2.48c0,.57.16.89.63.89a1.79,1.79,0,0,0,.48,0l0,.63a2.22,2.22,0,0,1-.74.11,1.17,1.17,0,0,1-.91-.35,1.76,1.76,0,0,1-.32-1.2v-2.51h-.71v-.64h.71v-1.1Z" style="fill:#79b8d1"/><path d="M154.41,264.64c0-.54,0-1,0-1.44h.73l0,.91h0a1.38,1.38,0,0,1,1.27-1,.83.83,0,0,1,.24,0v.79a1.14,1.14,0,0,0-.28,0,1.18,1.18,0,0,0-1.13,1.07c0,.12,0,.25,0,.39v2.45h-.83Z" style="fill:#79b8d1"/><path d="M161.37,266.55c0,.48,0,.89,0,1.25h-.74l0-.75h0a1.73,1.73,0,0,1-1.52.86c-.73,0-1.59-.4-1.59-2V263.2h.84v2.55c0,.88.26,1.46,1,1.46a1.22,1.22,0,0,0,1.11-.75,1.49,1.49,0,0,0,.07-.43V263.2h.84Z" style="fill:#79b8d1"/><path d="M162.76,264.45c0-.48,0-.87,0-1.25h.73l0,.75h0a1.58,1.58,0,0,1,1.44-.85,1.37,1.37,0,0,1,1.31.92h0a1.8,1.8,0,0,1,.51-.6,1.56,1.56,0,0,1,1-.32c.6,0,1.51.4,1.51,2v2.7h-.82v-2.6c0-.88-.32-1.42-1-1.42a1.11,1.11,0,0,0-1,.76,1.77,1.77,0,0,0-.06.42v2.84h-.82v-2.75c0-.73-.32-1.27-1-1.27a1.16,1.16,0,0,0-1,.84,1.35,1.35,0,0,0-.06.41v2.77h-.82Z" style="fill:#79b8d1"/><path d="M172.71,264.71c0-.59,0-1.07,0-1.51h.75l0,.79h0a1.8,1.8,0,0,1,1.63-.89,2.09,2.09,0,0,1,1.95,2.34,2.18,2.18,0,0,1-2.09,2.47,1.64,1.64,0,0,1-1.42-.72h0v2.5h-.82Zm.82,1.22a1.67,1.67,0,0,0,0,.34,1.29,1.29,0,0,0,1.26,1c.88,0,1.39-.72,1.39-1.77s-.48-1.72-1.37-1.72a1.33,1.33,0,0,0-1.26,1,1.35,1.35,0,0,0-.06.34Z" style="fill:#79b8d1"/><path d="M178.12,264.64c0-.54,0-1,0-1.44h.73l0,.91h0a1.38,1.38,0,0,1,1.27-1,.88.88,0,0,1,.24,0v.79a1.23,1.23,0,0,0-.29,0A1.17,1.17,0,0,0,179,265a2.34,2.34,0,0,0,0,.39v2.45h-.82Z" style="fill:#79b8d1"/><path d="M181.6,265.66a1.47,1.47,0,0,0,1.58,1.59,3.09,3.09,0,0,0,1.27-.23l.14.59a3.59,3.59,0,0,1-1.53.29,2.14,2.14,0,0,1-2.26-2.32A2.23,2.23,0,0,1,183,263.1a2,2,0,0,1,1.9,2.17,3.1,3.1,0,0,1,0,.39Zm2.45-.6a1.19,1.19,0,0,0-1.16-1.36,1.38,1.38,0,0,0-1.28,1.36Z" style="fill:#79b8d1"/><path d="M191.89,261.06v5.56c0,.41,0,.87,0,1.18h-.75l0-.79h0a1.71,1.71,0,0,1-1.57.9,2.1,2.1,0,0,1-2-2.34,2.2,2.2,0,0,1,2.06-2.47,1.54,1.54,0,0,1,1.39.7h0v-2.74Zm-.84,4a1.47,1.47,0,0,0,0-.36,1.23,1.23,0,0,0-1.21-1c-.86,0-1.37.77-1.37,1.78s.45,1.7,1.36,1.7a1.25,1.25,0,0,0,1.22-1,1.42,1.42,0,0,0,0-.36Z" style="fill:#79b8d1"/><path d="M193.74,265.66a1.47,1.47,0,0,0,1.58,1.59,3.06,3.06,0,0,0,1.27-.23l.15.59a3.62,3.62,0,0,1-1.53.29,2.14,2.14,0,0,1-2.27-2.32,2.23,2.23,0,0,1,2.16-2.48,2,2,0,0,1,1.9,2.17,3.1,3.1,0,0,1,0,.39Zm2.45-.6A1.19,1.19,0,0,0,195,263.7a1.39,1.39,0,0,0-1.28,1.36Z" style="fill:#79b8d1"/><path d="M199.05,261.88v1.32h1.2v.64h-1.2v2.48c0,.57.16.89.63.89a1.84,1.84,0,0,0,.48,0l0,.63a2.22,2.22,0,0,1-.74.11,1.17,1.17,0,0,1-.91-.35,1.76,1.76,0,0,1-.32-1.2v-2.51h-.71v-.64h.71v-1.1Z" style="fill:#79b8d1"/><path d="M202.12,261.91a.49.49,0,0,1-.53.51.49.49,0,0,1-.51-.51.51.51,0,0,1,.53-.52A.5.5,0,0,1,202.12,261.91Zm-.93,5.89v-4.6H202v4.6Z" style="fill:#79b8d1"/><path d="M136.49,279.22l-.07-.58h0a1.72,1.72,0,0,1-1.41.68,1.3,1.3,0,0,1-1.4-1.32c0-1.11,1-1.72,2.76-1.71v-.1a.94.94,0,0,0-1-1.06,2.28,2.28,0,0,0-1.2.34l-.19-.55a2.82,2.82,0,0,1,1.51-.41c1.41,0,1.75,1,1.75,1.88v1.72a6.29,6.29,0,0,0,.08,1.11Zm-.13-2.35c-.91,0-2,.14-2,1a.74.74,0,0,0,.79.79,1.06,1.06,0,0,0,1.16-1Z" style="fill:#79b8d1"/><path d="M140.54,276.05c0-.54,0-1,0-1.43h.73l0,.9h0a1.38,1.38,0,0,1,1.27-1,.88.88,0,0,1,.24,0v.79a1.14,1.14,0,0,0-.28,0,1.19,1.19,0,0,0-1.13,1.07,2.38,2.38,0,0,0,0,.39v2.46h-.83Z" style="fill:#79b8d1"/><path d="M147.72,276.88a2.25,2.25,0,0,1-2.29,2.44,2.19,2.19,0,0,1-2.21-2.37,2.24,2.24,0,0,1,2.28-2.44A2.18,2.18,0,0,1,147.72,276.88Zm-3.65.05c0,1,.58,1.76,1.39,1.76s1.4-.75,1.4-1.78c0-.78-.39-1.77-1.38-1.77S144.07,276.05,144.07,276.93Z" style="fill:#79b8d1"/><path d="M152.75,272.47V278c0,.41,0,.87,0,1.19H152l0-.8h0a1.71,1.71,0,0,1-1.57.9,2.1,2.1,0,0,1-2-2.34,2.2,2.2,0,0,1,2.06-2.47,1.54,1.54,0,0,1,1.39.7h0v-2.74Zm-.84,4a1.34,1.34,0,0,0,0-.35,1.22,1.22,0,0,0-1.2-1c-.87,0-1.38.76-1.38,1.77s.45,1.71,1.36,1.71a1.25,1.25,0,0,0,1.22-1,1.42,1.42,0,0,0,0-.36Z" style="fill:#79b8d1"/><path d="M155.07,273.32a.5.5,0,0,1-.53.52.5.5,0,0,1-.51-.52.51.51,0,0,1,.53-.52A.5.5,0,0,1,155.07,273.32Zm-.93,5.9v-4.6H155v4.6Z" style="fill:#79b8d1"/><path d="M156.36,275.86c0-.47,0-.86,0-1.24h.74l0,.76h0a1.69,1.69,0,0,1,1.52-.87c.64,0,1.63.38,1.63,2v2.75h-.84v-2.66c0-.74-.27-1.35-1.06-1.35a1.23,1.23,0,0,0-1.18,1.24v2.77h-.84Z" style="fill:#79b8d1"/><path d="M161.82,274.62l1,2.71c.1.31.22.67.29.95h0c.09-.28.18-.63.3-1l.91-2.7h.88L164,277.9a7.12,7.12,0,0,1-1.58,2.88,2.33,2.33,0,0,1-1,.54l-.21-.71a2.06,2.06,0,0,0,.73-.4,2.61,2.61,0,0,0,.7-.94.53.53,0,0,0,.07-.2.69.69,0,0,0-.06-.21l-1.7-4.24Z" style="fill:#79b8d1"/><path d="M168,272.81h.83v3.09h0c.17-.25.34-.48.5-.69l2-2.4h1l-2.32,2.72,2.5,3.69h-1l-2.11-3.15-.61.7v2.45H168Z" style="fill:#79b8d1"/><path d="M173.26,276.05c0-.54,0-1,0-1.43H174l0,.9h0a1.39,1.39,0,0,1,1.28-1,.8.8,0,0,1,.23,0v.79a1.14,1.14,0,0,0-.28,0,1.17,1.17,0,0,0-1.12,1.07,2.34,2.34,0,0,0,0,.39v2.46h-.83Z" style="fill:#79b8d1"/><path d="M176.74,277.07a1.48,1.48,0,0,0,1.58,1.6,3,3,0,0,0,1.27-.24l.15.6a3.82,3.82,0,0,1-1.53.28,2.14,2.14,0,0,1-2.27-2.32,2.23,2.23,0,0,1,2.16-2.48,2,2,0,0,1,1.9,2.17c0,.17,0,.3,0,.39Zm2.46-.6a1.19,1.19,0,0,0-1.16-1.36,1.39,1.39,0,0,0-1.29,1.36Z" style="fill:#79b8d1"/><path d="M181,275.86c0-.47,0-.86,0-1.24h.74l0,.74h0a1.6,1.6,0,0,1,1.45-.85,1.37,1.37,0,0,1,1.3.92h0a2,2,0,0,1,.51-.6,1.63,1.63,0,0,1,1-.32c.61,0,1.51.4,1.51,2v2.71h-.82v-2.61c0-.88-.32-1.41-1-1.41a1.07,1.07,0,0,0-1,.76,1.25,1.25,0,0,0-.07.41v2.85h-.82v-2.76c0-.73-.32-1.26-1-1.26a1.13,1.13,0,0,0-1,.83,1.14,1.14,0,0,0-.07.41v2.78H181Z" style="fill:#79b8d1"/><path d="M189,275.86c0-.47,0-.86,0-1.24h.75l0,.76h0a1.69,1.69,0,0,1,1.52-.87c.64,0,1.63.38,1.63,2v2.75h-.84v-2.66c0-.74-.27-1.35-1.06-1.35a1.23,1.23,0,0,0-1.18,1.24v2.77H189Z" style="fill:#79b8d1"/><path d="M195.18,273.32a.52.52,0,1,1-1,0,.5.5,0,0,1,.52-.52A.5.5,0,0,1,195.18,273.32Zm-.93,5.9v-4.6h.84v4.6Z" style="fill:#79b8d1"/><path d="M199.76,279.05a3.21,3.21,0,0,1-1.33.26,2.19,2.19,0,0,1-2.29-2.35,2.34,2.34,0,0,1,2.48-2.44,2.64,2.64,0,0,1,1.15.24l-.19.65a1.83,1.83,0,0,0-1-.22,1.73,1.73,0,0,0,0,3.46,2.4,2.4,0,0,0,1-.23Z" style="fill:#79b8d1"/><path d="M203.28,279.22l-.06-.58h0a1.72,1.72,0,0,1-1.41.68,1.3,1.3,0,0,1-1.4-1.32c0-1.11,1-1.72,2.76-1.71v-.1a.94.94,0,0,0-1-1.06,2.28,2.28,0,0,0-1.2.34l-.19-.55a2.82,2.82,0,0,1,1.51-.41c1.41,0,1.75,1,1.75,1.88v1.72a7.5,7.5,0,0,0,.07,1.11Zm-.12-2.35c-.91,0-1.95.14-1.95,1a.73.73,0,0,0,.79.79,1.14,1.14,0,0,0,1.11-.77.8.8,0,0,0,0-.26Z" style="fill:#79b8d1"/><circle cx="256.5" cy="59.5" r="24.5" style="fill:none;stroke:#79b8d1;stroke-linecap:round;stroke-miterlimit:10;stroke-width:5px"/><path d="M242,82a13.26,13.26,0,0,1,.91-2.23,1.89,1.89,0,0,1,1.19-.68c1-.18,1.67-.58,1.78-1.69.06-.59.43-.87,1.1-1a3.17,3.17,0,0,0,1.64-1,1.34,1.34,0,0,1,1.42-.52c1.3.26,1.32.25,2-.87.77-1.36,1.91-1.46,2.93-.18.41-.86,1.23-1.36,1.19-2.56-.14-3.84-.13-7.7,0-11.54a6.89,6.89,0,0,0-2.46-5.61,21.5,21.5,0,0,0-5-3.42.46.46,0,0,0-.39,0c1,.91,2.08,1.76,3,2.76a17.46,17.46,0,0,1,2,2.83c.4.66.19.89-.59.87a6.65,6.65,0,0,1-3.9-1.45,18,18,0,0,1-5.34-6.61,16.68,16.68,0,0,1-.75-1.67A14.25,14.25,0,0,1,242.4,46a11.38,11.38,0,0,1,1.31,0,48.88,48.88,0,0,1,5.53.85c4.17,1.09,6.57,3.93,7.44,8.12.15.74.29,1.48.47,2.42a13.09,13.09,0,0,1,5.28-5.83,11.89,11.89,0,0,1,7.58-2,7.52,7.52,0,0,1-.24,1A20.11,20.11,0,0,1,265,58a6.3,6.3,0,0,1-4.13,1.65c-1.19.08-1.61-.61-1-1.64a4.81,4.81,0,0,1,1.11-1.27c.92-.74,1.89-1.41,2.84-2.1a3.92,3.92,0,0,0,.65-.58,7,7,0,0,0-4.15,1.87,5,5,0,0,0-1.84,3.8c0,3.89-.06,7.78-.07,11.67,0,.18.22.37.37.53A2.35,2.35,0,0,0,260.76,73c.56.84,1.43.7,2.26.74a2.77,2.77,0,0,1,2.63,1.41,1.73,1.73,0,0,0,1.42,1c.65.06,1,.68,1,1.36,1.77.16,2.25.91,1.58,2.52A2.78,2.78,0,0,1,270.9,82Z" style="fill:#79b8d1"/><path d="M264.89,158.54,261,160.89l-9.84,5.94-3,1.83c-.61.36-.65.5-.35,1.11a4,4,0,0,1-4.77,5.64,3.91,3.91,0,0,1-2.74-3.49,3.78,3.78,0,0,1,1.87-3.69c5.37-3.27,10.77-6.51,16.15-9.76a4.24,4.24,0,0,1,3-.63l3.62.59ZM244.28,174a2.35,2.35,0,1,0-2.38-2.31A2.35,2.35,0,0,0,244.28,174Zm6.29-8.25a.74.74,0,0,0-.79-.73.78.78,0,0,0-.71.78.74.74,0,0,0,.8.72A.72.72,0,0,0,250.57,165.71Z" style="fill:#eb6484"/><path d="M250.89,168.23c1.07-.65,2.07-1.24,3.05-1.86.32-.21.53,0,.76.11l7,4.25,2.76,1.66a1,1,0,0,1,.39.39c-1.41.2-2.82.44-4.23.59a3.52,3.52,0,0,1-2.23-.59l-6.91-4.19Z" style="fill:#eb6484"/><path d="M248.85,163l-3.19,1.9a.49.49,0,0,1-.42-.05c-1.06-.62-2.13-1.24-3.16-1.9A4,4,0,1,1,248.2,159a3.87,3.87,0,0,1-.42,2.39c-.29.57-.24.73.3,1.06Zm-6.95-3.4a2.36,2.36,0,1,0,2.34-2.35A2.35,2.35,0,0,0,241.9,159.56Z" style="fill:#eb6484"/><path d="M273.61,166.2a3.69,3.69,0,0,1-.88,0c-.18-.05-.45-.3-.43-.42a.71.71,0,0,1,.44-.48,13.06,13.06,0,0,1,1.77,0c.29,0,.55.18.48.49a.77.77,0,0,1-.5.43,3.67,3.67,0,0,1-.88,0Z" style="fill:#eb6484"/><path d="M260.27,166.19a3.23,3.23,0,0,1-.88,0c-.19,0-.33-.29-.49-.44.15-.16.29-.43.45-.44a11.55,11.55,0,0,1,1.86,0c.16,0,.44.32.41.44a.78.78,0,0,1-.47.45,3.22,3.22,0,0,1-.88,0Z" style="fill:#eb6484"/><path d="M269.14,166.2a2.87,2.87,0,0,1-.83,0c-.19-.05-.32-.29-.48-.45.16-.15.31-.43.48-.45a14.75,14.75,0,0,1,1.76,0c.27,0,.53.16.46.46a.79.79,0,0,1-.46.45,4.11,4.11,0,0,1-.93,0Z" style="fill:#eb6484"/><path d="M264.71,165.27a4,4,0,0,1,.92,0c.18.05.32.27.48.42-.16.16-.3.44-.47.46a12.47,12.47,0,0,1-1.73,0c-.31,0-.58-.21-.51-.52s.35-.31.57-.37a2.6,2.6,0,0,1,.74,0Z" style="fill:#eb6484"/><circle cx="256.5" cy="165.5" r="24.5" style="fill:none;stroke:#eb6484;stroke-linecap:round;stroke-miterlimit:10;stroke-width:5px"/><circle cx="256.5" cy="271.5" r="24.5" style="fill:none;stroke:#79b8d1;stroke-linecap:round;stroke-miterlimit:10;stroke-width:5px"/><path d="M267.36,276.5c-.76,1-1.45,1.93-2.24,2.8a11,11,0,0,1-4.48,3.06,9.73,9.73,0,0,1-6,.37,13.26,13.26,0,0,1-5.31-2.92c-.48-.43-.93-.91-1.42-1.4,1.1-.62,2.13-1.2,3.14-1.79.18-.11.44-.31.42-.45s-.24-.36-.42-.48-.67-.38-1-.57l-8.73-4.93c-.93-.52-1.2-.35-1.2.73q0,5.55,0,11.1c0,.23.06.62.18.65s.5-.07.75-.13c0,0,0,0,.08-.06.9-.51,1.79-1,2.68-1.53a.23.23,0,0,1,.35.07,18.16,18.16,0,0,0,5.08,4.28,14.59,14.59,0,0,0,8.44,2,13.78,13.78,0,0,0,7-2.31,23.4,23.4,0,0,0,4.84-4.37c.48-.57.91-1.17,1.38-1.77Zm-2.72-12.57-.39.23-2.86,1.64c-.43.25-.43.52,0,.78l.12.07,3.45,1.94q3.3,1.86,6.61,3.71c.52.29.79.14.88-.44a2.64,2.64,0,0,0,0-.28V260.15c0-.55-.28-.71-.77-.43l-3.14,1.78a15.26,15.26,0,0,0-3.22-3.1,17.05,17.05,0,0,0-3.78-2.26,15.14,15.14,0,0,0-6.41-1.13,13.3,13.3,0,0,0-5.26,1.24,19.45,19.45,0,0,0-6.17,4.75c-.71.78-1.35,1.63-2,2.47l3.59,2.42.45-.72c.15-.22.31-.45.47-.66a12.29,12.29,0,0,1,6.53-4.79,10.16,10.16,0,0,1,4.52-.28,11.94,11.94,0,0,1,3,1.07A13.67,13.67,0,0,1,264.64,263.93Z" style="fill:#79b8d1"/><path d="M267.36,276.5l3.48,2.37c-.47.6-.9,1.2-1.38,1.77a23.4,23.4,0,0,1-4.84,4.37,13.78,13.78,0,0,1-7,2.31,14.59,14.59,0,0,1-8.44-2,18.16,18.16,0,0,1-5.08-4.28.23.23,0,0,0-.35-.07c-.89.52-1.78,1-2.68,1.53,0,0,0,0-.08.06-.25.06-.53.2-.75.13s-.18-.42-.18-.65q0-5.55,0-11.1c0-1.08.27-1.25,1.2-.73l8.73,4.93c.34.19.69.35,1,.57s.4.31.42.48-.24.34-.42.45c-1,.59-2,1.17-3.14,1.79.49.49.94,1,1.42,1.4a13.26,13.26,0,0,0,5.31,2.92,9.73,9.73,0,0,0,6-.37,11,11,0,0,0,4.48-3.06C265.91,278.43,266.6,277.46,267.36,276.5Z" style="fill:#79b8d1"/><path d="M264.64,263.93a13.67,13.67,0,0,0-4.38-3.42,11.94,11.94,0,0,0-3-1.07,10.16,10.16,0,0,0-4.52.28,12.29,12.29,0,0,0-6.53,4.79c-.16.21-.32.44-.47.66l-.45.72-3.59-2.42c.69-.84,1.33-1.69,2-2.47a19.45,19.45,0,0,1,6.17-4.75,13.3,13.3,0,0,1,5.26-1.24,15.14,15.14,0,0,1,6.41,1.13,17.05,17.05,0,0,1,3.78,2.26,15.26,15.26,0,0,1,3.22,3.1l3.14-1.78c.49-.28.77-.12.77.43v11.43a2.64,2.64,0,0,1,0,.28c-.09.58-.36.73-.88.44q-3.31-1.85-6.61-3.71l-3.45-1.94-.12-.07c-.43-.26-.43-.53,0-.78l2.86-1.64Z" style="fill:#79b8d1"/></g></g></svg>