<svg xmlns="http://www.w3.org/2000/svg" xmlns:xlink="http://www.w3.org/1999/xlink" viewBox="0 0 512 331"><defs><linearGradient id="linear-gradient" y1="59" x2="303.5" y2="59" gradientUnits="userSpaceOnUse"><stop offset="0" stop-color="#fff" stop-opacity="0"/><stop offset="1" stop-color="#b2d49b" stop-opacity="0.4"/></linearGradient><linearGradient id="linear-gradient-2" x1="-104" y1="165" x2="201" y2="165" gradientTransform="matrix(-1, 0, 0, 1, 408, 0)" gradientUnits="userSpaceOnUse"><stop offset="0" stop-color="#fff" stop-opacity="0"/><stop offset="1" stop-color="#eb6484" stop-opacity="0.4"/></linearGradient><linearGradient id="linear-gradient-3" y1="272" x2="304" y2="272" gradientTransform="matrix(1, 0, 0, -1, 0, 544)" xlink:href="#linear-gradient"/></defs><title>history_3</title><g id="Layer_2" data-name="Layer 2"><g id="gradient"><polygon points="287 105 262 118 0 118 0 0 253 0 283 11 302 30 303.5 89.43 287 105" style="fill:url(#linear-gradient)"/><polygon points="223.5 211 248.5 224 512 224 512 106 257.5 106 227.5 117 208.5 136 207 195.43 223.5 211" style="fill:url(#linear-gradient-2)"/><polygon points="287.5 226 262.5 213 0 213 0 331 253.5 331 283.5 320 302.5 301 304 241.57 287.5 226" style="fill:url(#linear-gradient-3)"/></g><g id="graphic"><path d="M253.5,6.5a53,53,0,0,1,0,106" style="fill:none;stroke:#b2d49b;stroke-linecap:round;stroke-miterlimit:10;stroke-width:13px"/><path d="M257.5,112.5a53,53,0,0,0,0,106" style="fill:none;stroke:#eb6484;stroke-linecap:round;stroke-miterlimit:10;stroke-width:13px"/><path d="M253.5,218.5a53,53,0,0,1,0,106" style="fill:none;stroke:#b2d49b;stroke-linecap:round;stroke-miterlimit:10;stroke-width:13px"/><circle cx="253" cy="113" r="9" style="fill:none;stroke:#b2d49b;stroke-miterlimit:10;stroke-width:6px"/><circle cx="253" cy="219" r="9" style="fill:none;stroke:#eb6484;stroke-miterlimit:10;stroke-width:6px"/><text transform="translate(321.12 71.59)" style="font-size:37.16147994995117px;fill:#fff;font-family:BebasNeue-Regular, Bebas Neue">1903</text><text transform="translate(323.12 282.59)" style="font-size:37.16147994995117px;fill:#fff;font-family:BebasNeue-Regular, Bebas Neue">2019</text><text transform="translate(126.12 178.59)" style="font-size:37.16147994995117px;fill:#fff;font-family:BebasNeue-Regular, Bebas Neue">2005</text><text transform="translate(118.12 50.8)" style="font-size:9.511929512023926px;fill:#fff;font-family:MyriadPro-Regular, Myriad Pro">Zá<tspan x="9.84" y="0" style="letter-spacing:0.016991409949547728em">k</tspan><tspan x="14.47" y="0" style="letter-spacing:0.000051333564802258997em">ladná škola i</tspan><tspan x="63.06" y="0" style="letter-spacing:-0.004004018054576202em">n</tspan><tspan x="68.3" y="0" style="letter-spacing:-0.006006027081864302em">t</tspan><tspan x="71.4" y="0" style="letter-spacing:-0.000051333564802258997em">e</tspan><tspan x="76.16" y="0" style="letter-spacing:0.004004018054576202em">r</tspan><tspan x="79.31" y="0">n</tspan><tspan x="84.59" y="0" style="letter-spacing:-0.004004018054576202em">á</tspan><tspan x="89.13" y="0">tna</tspan><tspan x="-1.73" y="11.41">p</tspan><tspan x="3.68" y="11.41" style="letter-spacing:-0.010010045136440505em">r</tspan><tspan x="6.7" y="11.41">e sluch</tspan><tspan x="34.27" y="11.41" style="letter-spacing:-0.006981364813107223em">o</tspan><tspan x="39.43" y="11.41" style="letter-spacing:-0.010010045136440505em">v</tspan><tspan x="43.91" y="11.41">o postihnu</tspan><tspan x="86.72" y="11.41" style="letter-spacing:0.008983373840395324em">t</tspan><tspan x="89.95" y="11.41" style="letter-spacing:-0.010010045136440505em">ý</tspan><tspan x="94.34" y="11.41">ch</tspan><tspan x="24.93" y="22.83" style="letter-spacing:-0.01596473865350255em">V</tspan><tspan x="30.08" y="22.83">iliama </tspan><tspan x="55.9" y="22.83" style="letter-spacing:0.008008036109152404em">G</tspan><tspan x="62.12" y="22.83">aňu</tspan></text><text transform="translate(293.64 168.78)" style="font-size:9.510000228881836px;fill:#fff;font-family:MyriadPro-Regular, Myriad Pro"><tspan style="letter-spacing:0.004004830345254162em">D</tspan><tspan x="6.37" y="0" style="letter-spacing:-0.000051343978785309766em">ets</tspan><tspan x="18.05" y="0" style="letter-spacing:0.012990026632683371em">k</tspan><tspan x="22.63" y="0">ý dom</tspan><tspan x="47.64" y="0" style="letter-spacing:-0.006982781114802128em">o</tspan><tspan x="52.8" y="0">v </tspan><tspan x="59.39" y="0" style="letter-spacing:0.005955901539095932em">M</tspan><tspan x="67.09" y="0">au</tspan><tspan x="76.92" y="0" style="letter-spacing:0.004004830345254162em">r</tspan><tspan x="80.06" y="0">ícius</tspan></text><text transform="translate(135.15 267.8)" style="font-size:9.511929512023926px;fill:#fff;font-family:MyriadPro-Regular, Myriad Pro"><tspan style="letter-spacing:-0.010985382867683425em">C</tspan><tspan x="5.41" y="0">e</tspan><tspan x="10.18" y="0" style="letter-spacing:-0.0039526844897739425em">n</tspan><tspan x="15.42" y="0" style="letter-spacing:-0.000051333564802258997em">trum p</tspan><tspan x="42.28" y="0" style="letter-spacing:-0.009958711571638246em">r</tspan><tspan x="45.3" y="0" style="letter-spacing:-0.000051333564802258997em">e deti</tspan><tspan x="-1.91" y="11.41">a </tspan><tspan x="4.69" y="11.41" style="letter-spacing:-0.010010045136440505em">r</tspan><tspan x="7.71" y="11.41">odi</tspan><tspan x="20.52" y="11.41" style="letter-spacing:-0.012987391894971527em">n</tspan><tspan x="25.68" y="11.41">y </tspan><tspan x="32.17" y="11.41" style="letter-spacing:0.009958711571638246em">K</tspan><tspan x="37.42" y="11.41" style="letter-spacing:-0.009958711571638246em">r</tspan><tspan x="40.44" y="11.41" style="letter-spacing:-0.000051333564802258997em">emnica</tspan></text><path d="M242,82a13.26,13.26,0,0,1,.91-2.23,1.89,1.89,0,0,1,1.19-.68c1-.18,1.67-.58,1.78-1.69.06-.59.43-.87,1.1-1a3.17,3.17,0,0,0,1.64-1,1.34,1.34,0,0,1,1.42-.52c1.3.26,1.32.25,2-.87.77-1.36,1.91-1.46,2.93-.18.41-.86,1.23-1.36,1.19-2.56-.14-3.84-.13-7.7,0-11.54a6.89,6.89,0,0,0-2.46-5.61,21.5,21.5,0,0,0-5-3.42.46.46,0,0,0-.39,0c1,.91,2.08,1.76,3,2.76a17.46,17.46,0,0,1,2,2.83c.4.66.19.89-.59.87a6.65,6.65,0,0,1-3.9-1.45,18,18,0,0,1-5.34-6.61,16.68,16.68,0,0,1-.75-1.67A14.25,14.25,0,0,1,242.4,46a11.38,11.38,0,0,1,1.31,0,48.88,48.88,0,0,1,5.53.85c4.17,1.09,6.57,3.93,7.44,8.12.15.74.29,1.48.47,2.42a13.09,13.09,0,0,1,5.28-5.83,11.89,11.89,0,0,1,7.58-2,7.52,7.52,0,0,1-.24,1A20.11,20.11,0,0,1,265,58a6.3,6.3,0,0,1-4.13,1.65c-1.19.08-1.61-.61-1-1.64a4.81,4.81,0,0,1,1.11-1.27c.92-.74,1.89-1.41,2.84-2.1a3.92,3.92,0,0,0,.65-.58,7,7,0,0,0-4.15,1.87,5,5,0,0,0-1.84,3.8c0,3.89-.06,7.78-.07,11.67,0,.18.22.37.37.53A2.35,2.35,0,0,0,260.76,73c.56.84,1.43.7,2.26.74a2.77,2.77,0,0,1,2.63,1.41,1.73,1.73,0,0,0,1.42,1c.65.06,1,.68,1,1.36,1.77.16,2.25.91,1.58,2.52A2.78,2.78,0,0,1,270.9,82Z" style="fill:#fff"/><circle cx="256.5" cy="59.5" r="24.5" style="fill:none;stroke:#b2d49b;stroke-linecap:round;stroke-miterlimit:10;stroke-width:5px"/><path d="M264.89,158.54,261,160.89l-9.84,5.94-3,1.83c-.61.36-.65.5-.35,1.11a4,4,0,0,1-4.77,5.64,3.91,3.91,0,0,1-2.74-3.49,3.78,3.78,0,0,1,1.87-3.69c5.37-3.27,10.77-6.51,16.15-9.76a4.24,4.24,0,0,1,3-.63l3.62.59ZM244.28,174a2.35,2.35,0,1,0-2.38-2.31A2.35,2.35,0,0,0,244.28,174Zm6.29-8.25a.74.74,0,0,0-.79-.73.78.78,0,0,0-.71.78.74.74,0,0,0,.8.72A.72.72,0,0,0,250.57,165.71Z" style="fill:#fff"/><path d="M250.89,168.23c1.07-.65,2.07-1.24,3.05-1.86.32-.21.53,0,.76.11l7,4.25,2.76,1.66a1,1,0,0,1,.39.39c-1.41.2-2.82.44-4.23.59a3.52,3.52,0,0,1-2.23-.59l-6.91-4.19Z" style="fill:#fff"/><path d="M248.85,163l-3.19,1.9a.49.49,0,0,1-.42-.05c-1.06-.62-2.13-1.24-3.16-1.9A4,4,0,1,1,248.2,159a3.87,3.87,0,0,1-.42,2.39c-.29.57-.24.73.3,1.06Zm-6.95-3.4a2.36,2.36,0,1,0,2.34-2.35A2.35,2.35,0,0,0,241.9,159.56Z" style="fill:#fff"/><path d="M273.61,166.2a3.69,3.69,0,0,1-.88,0c-.18-.05-.45-.3-.43-.42a.71.71,0,0,1,.44-.48,13.06,13.06,0,0,1,1.77,0c.29,0,.55.18.48.49a.77.77,0,0,1-.5.43,3.67,3.67,0,0,1-.88,0Z" style="fill:#fff"/><path d="M260.27,166.19a3.23,3.23,0,0,1-.88,0c-.19,0-.33-.29-.49-.44.15-.16.29-.43.45-.44a11.55,11.55,0,0,1,1.86,0c.16,0,.44.32.41.44a.78.78,0,0,1-.47.45,3.22,3.22,0,0,1-.88,0Z" style="fill:#fff"/><path d="M269.14,166.2a2.87,2.87,0,0,1-.83,0c-.19-.05-.32-.29-.48-.45.16-.15.31-.43.48-.45a14.75,14.75,0,0,1,1.76,0c.27,0,.53.16.46.46a.79.79,0,0,1-.46.45,4.11,4.11,0,0,1-.93,0Z" style="fill:#fff"/><path d="M264.71,165.27a4,4,0,0,1,.92,0c.18.05.32.27.48.42-.16.16-.3.44-.47.46a12.47,12.47,0,0,1-1.73,0c-.31,0-.58-.21-.51-.52s.35-.31.57-.37a2.6,2.6,0,0,1,.74,0Z" style="fill:#fff"/><circle cx="256.5" cy="165.5" r="24.5" style="fill:none;stroke:#eb6484;stroke-linecap:round;stroke-miterlimit:10;stroke-width:5px"/><circle cx="256.5" cy="271.5" r="24.5" style="fill:none;stroke:#b2d49b;stroke-linecap:round;stroke-miterlimit:10;stroke-width:5px"/><path d="M267.36,276.5c-.76,1-1.45,1.93-2.24,2.8a11,11,0,0,1-4.48,3.06,9.73,9.73,0,0,1-6,.37,13.26,13.26,0,0,1-5.31-2.92c-.48-.43-.93-.91-1.42-1.4,1.1-.62,2.13-1.2,3.14-1.79.18-.11.44-.31.42-.45s-.24-.36-.42-.48-.67-.38-1-.57l-8.73-4.93c-.93-.52-1.2-.35-1.2.73q0,5.55,0,11.1c0,.23.06.62.18.65s.5-.07.75-.13c0,0,0,0,.08-.06.9-.51,1.79-1,2.68-1.53a.23.23,0,0,1,.35.07,18.16,18.16,0,0,0,5.08,4.28,14.59,14.59,0,0,0,8.44,2,13.78,13.78,0,0,0,7-2.31,23.4,23.4,0,0,0,4.84-4.37c.48-.57.91-1.17,1.38-1.77Zm-2.72-12.57-.39.23-2.86,1.64c-.43.25-.43.52,0,.78l.12.07,3.45,1.94q3.3,1.86,6.61,3.71c.52.29.79.14.88-.44a2.64,2.64,0,0,0,0-.28V260.15c0-.55-.28-.71-.77-.43l-3.14,1.78a15.26,15.26,0,0,0-3.22-3.1,17.05,17.05,0,0,0-3.78-2.26,15.14,15.14,0,0,0-6.41-1.13,13.3,13.3,0,0,0-5.26,1.24,19.45,19.45,0,0,0-6.17,4.75c-.71.78-1.35,1.63-2,2.47l3.59,2.42.45-.72c.15-.22.31-.45.47-.66a12.29,12.29,0,0,1,6.53-4.79,10.16,10.16,0,0,1,4.52-.28,11.94,11.94,0,0,1,3,1.07A13.67,13.67,0,0,1,264.64,263.93Z" style="fill:#fff"/><path d="M267.36,276.5l3.48,2.37c-.47.6-.9,1.2-1.38,1.77a23.4,23.4,0,0,1-4.84,4.37,13.78,13.78,0,0,1-7,2.31,14.59,14.59,0,0,1-8.44-2,18.16,18.16,0,0,1-5.08-4.28.23.23,0,0,0-.35-.07c-.89.52-1.78,1-2.68,1.53,0,0,0,0-.08.06-.25.06-.53.2-.75.13s-.18-.42-.18-.65q0-5.55,0-11.1c0-1.08.27-1.25,1.2-.73l8.73,4.93c.34.19.69.35,1,.57s.4.31.42.48-.24.34-.42.45c-1,.59-2,1.17-3.14,1.79.49.49.94,1,1.42,1.4a13.26,13.26,0,0,0,5.31,2.92,9.73,9.73,0,0,0,6-.37,11,11,0,0,0,4.48-3.06C265.91,278.43,266.6,277.46,267.36,276.5Z" style="fill:#fff"/><path d="M264.64,263.93a13.67,13.67,0,0,0-4.38-3.42,11.94,11.94,0,0,0-3-1.07,10.16,10.16,0,0,0-4.52.28,12.29,12.29,0,0,0-6.53,4.79c-.16.21-.32.44-.47.66l-.45.72-3.59-2.42c.69-.84,1.33-1.69,2-2.47a19.45,19.45,0,0,1,6.17-4.75,13.3,13.3,0,0,1,5.26-1.24,15.14,15.14,0,0,1,6.41,1.13,17.05,17.05,0,0,1,3.78,2.26,15.26,15.26,0,0,1,3.22,3.1l3.14-1.78c.49-.28.77-.12.77.43v11.43a2.64,2.64,0,0,1,0,.28c-.09.58-.36.73-.88.44q-3.31-1.85-6.61-3.71l-3.45-1.94-.12-.07c-.43-.26-.43-.53,0-.78l2.86-1.64Z" style="fill:#fff"/></g></g></svg>