<svg xmlns="http://www.w3.org/2000/svg" viewBox="0 0 291.75 331"><title>history</title><g id="Layer_2" data-name="Layer 2"><g id="Layer_1-2" data-name="Layer 1"><path d="M145.63,6.5a53,53,0,0,1,0,106" style="fill:none;stroke:#79b8d1;stroke-linecap:round;stroke-miterlimit:10;stroke-width:13px"/><path d="M149.63,112.5a53,53,0,0,0,0,106" style="fill:none;stroke:#b2d49b;stroke-linecap:round;stroke-miterlimit:10;stroke-width:13px"/><path d="M145.63,218.5a53,53,0,0,1,0,106" style="fill:none;stroke:#eb6484;stroke-linecap:round;stroke-miterlimit:10;stroke-width:13px"/><circle cx="145.13" cy="113" r="9" style="fill:none;stroke:#79b8d1;stroke-miterlimit:10;stroke-width:6px"/><circle cx="145.13" cy="219" r="9" style="fill:none;stroke:#b2d49b;stroke-miterlimit:10;stroke-width:6px"/><text transform="translate(213.25 71.59)" style="font-size:37.16147994995117px;fill:#79b8d1;stroke:#79b8d1;stroke-miterlimit:10;stroke-width:0.5px;font-family:MyriadPro-Regular, Myriad Pro">1903</text><text transform="translate(215.25 282.59)" style="font-size:37.16147994995117px;fill:#eb6484;stroke:#eb6484;stroke-miterlimit:10;stroke-width:0.5px;font-family:MyriadPro-Regular, Myriad Pro">2019</text><text transform="translate(0.25 178.59)" style="font-size:37.16147994995117px;fill:#b2d49b;stroke:#b2d49b;stroke-miterlimit:10;stroke-width:0.5px;font-family:MyriadPro-Regular, Myriad Pro">2005</text><text transform="translate(10.26 50.8)" style="font-size:9.51192855834961px;fill:#79b8d1;font-family:MyriadPro-Regular, Myriad Pro">Zá<tspan x="9.84" y="0" style="letter-spacing:0.016991411653121423em">k</tspan><tspan x="14.47" y="0" style="letter-spacing:0.00005133356994900732em">ladná škola i</tspan><tspan x="63.06" y="0" style="letter-spacing:-0.004004018456022571em">n</tspan><tspan x="68.3" y="0" style="letter-spacing:-0.006006027684033856em">t</tspan><tspan x="71.4" y="0" style="letter-spacing:-0.00005133356994900732em">e</tspan><tspan x="76.16" y="0" style="letter-spacing:0.004004018456022571em">r</tspan><tspan x="79.31" y="0">n</tspan><tspan x="84.59" y="0" style="letter-spacing:-0.004004018456022571em">á</tspan><tspan x="89.13" y="0">tna</tspan><tspan x="-1.73" y="11.41">p</tspan><tspan x="3.68" y="11.41" style="letter-spacing:-0.010010046140056426em">r</tspan><tspan x="6.7" y="11.41">e sluch</tspan><tspan x="34.27" y="11.41" style="letter-spacing:-0.006981365513064995em">o</tspan><tspan x="39.43" y="11.41" style="letter-spacing:-0.010010046140056426em">v</tspan><tspan x="43.91" y="11.41">o postihnu</tspan><tspan x="86.72" y="11.41" style="letter-spacing:0.00898337474107628em">t</tspan><tspan x="89.95" y="11.41" style="letter-spacing:-0.010010046140056426em">ý</tspan><tspan x="94.34" y="11.41">ch</tspan><tspan x="24.93" y="22.83" style="letter-spacing:-0.015964740254141276em">V</tspan><tspan x="30.08" y="22.83">iliama </tspan><tspan x="55.9" y="22.83" style="letter-spacing:0.008008036912045142em">G</tspan><tspan x="62.12" y="22.83">aňu</tspan></text><text transform="translate(185.77 168.78)" style="font-size:9.510000228881836px;fill:#b2d49b;font-family:MyriadPro-Regular, Myriad Pro"><tspan style="letter-spacing:0.004004830345254162em">D</tspan><tspan x="6.37" y="0" style="letter-spacing:-0.000051343978785309766em">ets</tspan><tspan x="18.05" y="0" style="letter-spacing:0.012990026632683371em">k</tspan><tspan x="22.63" y="0">ý dom</tspan><tspan x="47.64" y="0" style="letter-spacing:-0.006982781114802128em">o</tspan><tspan x="52.8" y="0">v </tspan><tspan x="59.39" y="0" style="letter-spacing:0.005955901539095932em">M</tspan><tspan x="67.09" y="0">au</tspan><tspan x="76.92" y="0" style="letter-spacing:0.004004830345254162em">r</tspan><tspan x="80.06" y="0">ícius</tspan></text><text transform="translate(27.28 267.8)" style="font-size:9.510000228881836px;fill:#eb6484;font-family:MyriadPro-Regular, Myriad Pro"><tspan style="letter-spacing:-0.01098761146005629em">C</tspan><tspan x="5.41" y="0">e</tspan><tspan x="10.18" y="0" style="letter-spacing:-0.004004830345254162em">n</tspan><tspan x="15.42" y="0">trum p</tspan><tspan x="42.27" y="0" style="letter-spacing:-0.010012075863135404em">r</tspan><tspan x="45.29" y="0" style="letter-spacing:-0.000051343978785309766em">e deti</tspan><tspan x="-1.91" y="11.41">a </tspan><tspan x="4.69" y="11.41" style="letter-spacing:-0.010012075863135404em">r</tspan><tspan x="7.71" y="11.41" style="letter-spacing:0.000051343978785309766em">odi</tspan><tspan x="20.52" y="11.41" style="letter-spacing:-0.012990026632683371em">n</tspan><tspan x="25.67" y="11.41" style="letter-spacing:0.000051343978785309766em">y </tspan><tspan x="32.17" y="11.41" style="letter-spacing:0.010012075863135404em">K</tspan><tspan x="37.42" y="11.41" style="letter-spacing:-0.010012075863135404em">r</tspan><tspan x="40.43" y="11.41">emnica</tspan></text><circle cx="148.63" cy="59.5" r="24.5" style="fill:none;stroke:#79b8d1;stroke-linecap:round;stroke-miterlimit:10;stroke-width:5px"/><path d="M134.13,82a13.26,13.26,0,0,1,.91-2.23,1.88,1.88,0,0,1,1.2-.68c1-.18,1.66-.58,1.78-1.69.06-.59.42-.87,1.09-1a3.2,3.2,0,0,0,1.65-1,1.32,1.32,0,0,1,1.41-.52c1.3.26,1.33.25,2-.87.78-1.36,1.91-1.46,2.93-.18.41-.86,1.23-1.36,1.19-2.56-.13-3.84-.13-7.7,0-11.54a6.87,6.87,0,0,0-2.47-5.61,21.44,21.44,0,0,0-5-3.42.47.47,0,0,0-.39,0c1,.91,2.07,1.76,3,2.76a17.51,17.51,0,0,1,2.06,2.83c.39.66.18.89-.6.87A6.63,6.63,0,0,1,141,55.72a17.89,17.89,0,0,1-5.34-6.61,14.69,14.69,0,0,1-.75-1.67,11.8,11.8,0,0,1-.35-1.42,11.37,11.37,0,0,1,1.31,0,48.54,48.54,0,0,1,5.53.85C145.54,48,148,50.8,148.81,55c.15.74.29,1.48.47,2.42a13.09,13.09,0,0,1,5.28-5.83,11.89,11.89,0,0,1,7.58-2,9.58,9.58,0,0,1-.23,1A20.26,20.26,0,0,1,157.08,58,6.28,6.28,0,0,1,153,59.66c-1.19.08-1.61-.61-1-1.64a4.61,4.61,0,0,1,1.1-1.27c.92-.74,1.89-1.41,2.84-2.1a3.56,3.56,0,0,0,.65-.58,7,7,0,0,0-4.15,1.87,5,5,0,0,0-1.83,3.8c0,3.89-.07,7.78-.07,11.67,0,.18.22.37.36.53A2.35,2.35,0,0,0,152.89,73c.56.84,1.43.7,2.27.74a2.75,2.75,0,0,1,2.62,1.41,1.74,1.74,0,0,0,1.42,1c.66.06,1,.68,1,1.36,1.78.16,2.25.91,1.58,2.52A2.75,2.75,0,0,1,163,82Z" style="fill:#79b8d1"/><path d="M157,158.54l-3.88,2.35-9.84,5.94-3,1.83c-.6.36-.65.5-.34,1.11a4,4,0,0,1-4.78,5.64,3.93,3.93,0,0,1-2.74-3.49,3.8,3.8,0,0,1,1.87-3.69q8.07-4.9,16.16-9.76a4.21,4.21,0,0,1,2.95-.63l3.62.59ZM136.41,174a2.35,2.35,0,1,0-2.37-2.31A2.35,2.35,0,0,0,136.41,174Zm6.29-8.25a.74.74,0,0,0-.79-.73.76.76,0,0,0-.7.78.74.74,0,0,0,.8.72A.72.72,0,0,0,142.7,165.71Z" style="fill:#b2d49b"/><path d="M143,168.23c1.07-.65,2.07-1.24,3-1.86.32-.21.53,0,.76.11q3.53,2.11,7,4.25l2.76,1.66a1,1,0,0,1,.39.39c-1.41.2-2.81.44-4.23.59a3.47,3.47,0,0,1-2.22-.59l-6.92-4.19Z" style="fill:#b2d49b"/><path d="M141,163c-1.11.66-2.14,1.29-3.19,1.9a.49.49,0,0,1-.42-.05c-1.06-.62-2.13-1.24-3.16-1.9a4,4,0,1,1,6.13-3.87,3.88,3.88,0,0,1-.43,2.39c-.28.57-.23.73.31,1.06Zm-6.94-3.4a2.35,2.35,0,0,0,4.7,0,2.35,2.35,0,1,0-4.7,0Z" style="fill:#b2d49b"/><path d="M165.75,166.2a3.67,3.67,0,0,1-.88,0c-.18-.05-.46-.3-.43-.42a.68.68,0,0,1,.43-.48,13.07,13.07,0,0,1,1.77,0c.3,0,.55.18.48.49a.76.76,0,0,1-.49.43,3.69,3.69,0,0,1-.88,0Z" style="fill:#b2d49b"/><path d="M152.41,166.19a3.22,3.22,0,0,1-.88,0c-.19,0-.33-.29-.5-.44.15-.16.29-.43.46-.44a11.43,11.43,0,0,1,1.85,0c.16,0,.44.32.41.44a.75.75,0,0,1-.47.45,3.15,3.15,0,0,1-.87,0Z" style="fill:#b2d49b"/><path d="M161.28,166.2a2.86,2.86,0,0,1-.83,0c-.19-.05-.33-.29-.49-.45.16-.15.31-.43.48-.45a14.76,14.76,0,0,1,1.76,0c.27,0,.54.16.46.46a.73.73,0,0,1-.46.45,4,4,0,0,1-.92,0Z" style="fill:#b2d49b"/><path d="M156.84,165.27a4,4,0,0,1,.92,0c.18.05.32.27.48.42-.16.16-.3.44-.47.46a12.47,12.47,0,0,1-1.73,0c-.31,0-.58-.21-.51-.52s.36-.31.58-.37a2.52,2.52,0,0,1,.73,0Z" style="fill:#b2d49b"/><circle cx="148.63" cy="165.5" r="24.5" style="fill:none;stroke:#b2d49b;stroke-linecap:round;stroke-miterlimit:10;stroke-width:5px"/><circle cx="148.63" cy="271.5" r="24.5" style="fill:none;stroke:#eb6484;stroke-linecap:round;stroke-miterlimit:10;stroke-width:5px"/><path d="M159.5,276.5c-.77,1-1.46,1.93-2.25,2.8a11.05,11.05,0,0,1-4.47,3.06,9.76,9.76,0,0,1-6,.37,13.26,13.26,0,0,1-5.31-2.92c-.48-.43-.93-.91-1.42-1.4,1.1-.62,2.13-1.2,3.15-1.79.17-.11.43-.31.42-.45s-.25-.36-.43-.48-.67-.38-1-.57l-8.74-4.93c-.92-.52-1.19-.35-1.19.73,0,3.7,0,7.4,0,11.1,0,.23.07.62.19.65s.49-.07.74-.13l.09-.06c.89-.51,1.79-1,2.68-1.53.14-.08.22-.08.34.07a18.3,18.3,0,0,0,5.08,4.28,14.59,14.59,0,0,0,8.44,2,13.78,13.78,0,0,0,7-2.31,23.4,23.4,0,0,0,4.84-4.37c.48-.57.92-1.17,1.39-1.77Zm-2.72-12.57-.4.23-2.86,1.64c-.43.25-.43.52,0,.78l.12.07,3.45,1.94,6.61,3.71c.52.29.79.14.88-.44a2.64,2.64,0,0,0,0-.28V260.15c0-.55-.28-.71-.76-.43l-3.15,1.78a15.26,15.26,0,0,0-3.22-3.1,16.83,16.83,0,0,0-3.78-2.26,15.11,15.11,0,0,0-6.41-1.13,13.25,13.25,0,0,0-5.25,1.24,19.23,19.23,0,0,0-6.17,4.75c-.72.78-1.36,1.63-2,2.47l3.58,2.42c.17-.27.31-.5.46-.72s.3-.45.46-.66a12.33,12.33,0,0,1,6.53-4.79,10.17,10.17,0,0,1,4.52-.28,11.94,11.94,0,0,1,3,1.07A13.6,13.6,0,0,1,156.78,263.93Z" style="fill:#eb6484"/><path d="M159.5,276.5l3.48,2.37c-.47.6-.91,1.2-1.39,1.77a23.4,23.4,0,0,1-4.84,4.37,13.78,13.78,0,0,1-7,2.31,14.59,14.59,0,0,1-8.44-2,18.3,18.3,0,0,1-5.08-4.28c-.12-.15-.2-.15-.34-.07-.89.52-1.79,1-2.68,1.53l-.09.06c-.25.06-.53.2-.74.13s-.19-.42-.19-.65c0-3.7,0-7.4,0-11.1,0-1.08.27-1.25,1.19-.73l8.74,4.93c.33.19.69.35,1,.57s.41.31.43.48-.25.34-.42.45c-1,.59-2,1.17-3.15,1.79.49.49.94,1,1.42,1.4a13.26,13.26,0,0,0,5.31,2.92,9.76,9.76,0,0,0,6-.37,11.05,11.05,0,0,0,4.47-3.06C158,278.43,158.73,277.46,159.5,276.5Z" style="fill:#eb6484"/><path d="M156.78,263.93a13.6,13.6,0,0,0-4.39-3.42,11.94,11.94,0,0,0-3-1.07,10.17,10.17,0,0,0-4.52.28,12.33,12.33,0,0,0-6.53,4.79c-.16.21-.31.44-.46.66s-.29.45-.46.72l-3.58-2.42c.68-.84,1.32-1.69,2-2.47a19.23,19.23,0,0,1,6.17-4.75,13.25,13.25,0,0,1,5.25-1.24,15.11,15.11,0,0,1,6.41,1.13,16.83,16.83,0,0,1,3.78,2.26,15.26,15.26,0,0,1,3.22,3.1l3.15-1.78c.48-.28.76-.12.76.43v11.43a2.64,2.64,0,0,1,0,.28c-.09.58-.36.73-.88.44l-6.61-3.71-3.45-1.94-.12-.07c-.43-.26-.43-.53,0-.78l2.86-1.64Z" style="fill:#eb6484"/></g></g></svg>