<svg xmlns="http://www.w3.org/2000/svg" viewBox="0 0 99.85 100.12"><title>iconPhone</title><g id="Layer_2" data-name="Layer 2"><g id="Layer_1-2" data-name="Layer 1"><path d="M80.91,100.12c-7.17-.79-13.53-3.4-19.6-6.82C50.21,87,40.67,78.8,31.67,69.89c-9.51-9.42-18.33-19.4-25-31.1C3.26,32.79.61,26.5,0,19.5a7.79,7.79,0,0,1,1.44-5.27,50.88,50.88,0,0,1,13.88-13C18.91-1.1,22.64,0,25,3.53c3.95,5.94,7.8,12,11.85,17.83A7.83,7.83,0,0,1,37.41,30c-1.42,2.78-3,5.5-4.54,8.2A1.86,1.86,0,0,0,33,40.7,156.59,156.59,0,0,0,59.13,66.84,1.85,1.85,0,0,0,61.6,67c2.45-1.46,5-2.82,7.46-4.2,3.3-1.82,6.41-1.93,9.7.38C84.55,67.19,90.53,71,96.43,74.91c3.32,2.21,4.47,5.73,2.33,9.12-3.65,5.79-8.05,11-13.91,14.72A17.65,17.65,0,0,1,80.91,100.12Z" style="fill:#f5f5f5"/></g></g></svg>