<svg xmlns="http://www.w3.org/2000/svg" viewBox="0 0 100 95.74"><title>iconHome</title><g id="Layer_2" data-name="Layer 2"><g id="Layer_1-2" data-name="Layer 1"><path d="M62.52,95.73V58.41H37.6V95.62c-.67,0-1.15.11-1.64.11H9.16c-2.37,0-2.91-.54-2.91-3q0-25.81,0-51.63V39L3.81,40.8c-1.3,1-2.57,1-3.35,0s-.54-2.25.73-3.24Q24.7,19.19,48.21.86c1.47-1.15,2.13-1.15,3.62,0q23.46,18.29,46.9,36.59c1.36,1.07,1.64,2.34.79,3.36s-2.07.93-3.37-.06L93.76,38.9V92.35c0,3-.39,3.38-3.42,3.38H62.52Z" style="fill:#f5f5f5"/><path d="M83.28,8.33V20c-.45-.3-.8-.5-1.12-.75-3.34-2.59-6.63-5.24-10-7.76A2.56,2.56,0,0,1,71,8.33Z" style="fill:#f5f5f5"/></g></g></svg>