<svg xmlns="http://www.w3.org/2000/svg" viewBox="0 0 62.49 81.31"><title>iconLocation</title><g id="Layer_2" data-name="Layer 2"><g id="Layer_1-2" data-name="Layer 1"><path d="M0,32.6C-.06,16.47,10,3.78,24.77.7A31.07,31.07,0,0,1,62.14,26.64a39,39,0,0,1-2.67,19.89A73.42,73.42,0,0,1,44,70.26c-3.29,3.5-6.9,6.71-10.44,10-1.61,1.48-3,1.4-4.7,0C19.67,72.49,11.75,63.69,6,53.05,2.39,46.32.08,39.2,0,32.6ZM31.24,74.38c3.3-3.39,6.47-6.44,9.4-9.7a66.29,66.29,0,0,0,13-20.37A32.74,32.74,0,0,0,56,27.69a25,25,0,0,0-49.59.9A33.68,33.68,0,0,0,8.87,44.34a65.7,65.7,0,0,0,12.68,20C24.57,67.73,27.85,70.89,31.24,74.38Z" style="fill:#f5f5f5"/><path d="M43.74,31.38A12.5,12.5,0,1,1,31.39,18.76,12.52,12.52,0,0,1,43.74,31.38ZM31.28,25a6.25,6.25,0,1,0,6.21,6.3A6.26,6.26,0,0,0,31.28,25Z" style="fill:#f5f5f5"/></g></g></svg>