<svg xmlns="http://www.w3.org/2000/svg" viewBox="0 0 98.12 100.03"><title>iconBank</title><g id="Layer_2" data-name="Layer 2"><g id="Layer_1-2" data-name="Layer 1"><path d="M9.28,79.26V41.49c-1.49,0-2.86,0-4.23,0-3.21-.11-4.9-1.74-5-4.92C0,34.25,0,31.94,0,29.62a4.83,4.83,0,0,1,2.73-4.48Q24.65,13,46.52.72a4.81,4.81,0,0,1,5.06,0L95.51,25.24a4.73,4.73,0,0,1,2.57,4.38c0,2.32.07,4.63,0,6.94-.11,3.18-1.8,4.8-5,4.92-1.37.05-2.74,0-4.23,0V79.22c.57.13,1.2.26,1.81.41A9.28,9.28,0,0,1,98,88,57.17,57.17,0,0,1,98,95.51c-.13,2.84-1.91,4.44-4.76,4.49-2.58,0-5.16,0-7.74,0H6.8C1.15,100,0,98.86,0,93.12V90.34C0,83.79,2.81,80.44,9.28,79.26Zm13-.06h9.22V41.62H22.27ZM44.48,41.61V79.2h9.18V41.61ZM75.83,79.27V41.61H66.64V79.27ZM57.08,20.41a8,8,0,1,0-8,8.12A8,8,0,0,0,57.08,20.41Z" style="fill:#f5f5f5"/></g></g></svg>