<svg xmlns="http://www.w3.org/2000/svg" viewBox="0 0 50.16 82.79"><title>iconFacebook_1</title><g id="Layer_2" data-name="Layer 2"><g id="Layer_1-2" data-name="Layer 1"><path d="M14.77,46.79c-3.13,0-6.12,0-9.11,0A5.07,5.07,0,0,1,.58,43a6.7,6.7,0,0,1-.19-1.73q0-3.95,0-7.9A5.07,5.07,0,0,1,5.83,28h8.86v-1c0-2.94-.12-5.89.1-8.81C15.32,11.06,18.42,5.54,25,2.3A18.25,18.25,0,0,1,32.73.43C36,.35,39.27.37,42.54.39a5,5,0,0,1,5.09,5c.08,3.49.07,7,0,10.48a5,5,0,0,1-5.16,5c-1.75,0-3.5,0-5.24,0h-1V28h.94c2.54,0,5.1,0,7.64,0a5,5,0,0,1,4.86,6.12c-.58,2.87-1.17,5.75-1.79,8.61a4.88,4.88,0,0,1-4.8,3.94c-2,0-3.94,0-5.91,0h-1v1.13c0,9.59-.06,19.18,0,28.77a5.49,5.49,0,0,1-5.85,5.83c-3.35-.13-6.71,0-10.06,0a5.13,5.13,0,0,1-5.51-5.5q0-14.51,0-29Zm4.67-4.62v1.07q0,16.71,0,33.42c0,.81.24,1.06,1,1,3.27,0,6.54,0,9.81,0,1.18,0,1.18,0,1.18-1.19V42h1.06c3.32,0,6.65,0,10,0,.56,0,.82-.13.93-.74.4-2.18.87-4.34,1.31-6.51.13-.66.25-1.32.4-2.11H31.55v-11c0-.59,0-1.17.05-1.75.26-2.34,1.47-3.57,3.82-3.7s4.49-.08,6.73-.09c.54,0,.82-.14.82-.74q0-4.87,0-9.73c0-.49-.18-.71-.68-.7-3.46,0-6.94-.09-10.39.17a12.77,12.77,0,0,0-9.53,5.09,15.27,15.27,0,0,0-3,9.5c0,4,0,7.93,0,11.89v.93h-1c-4.07,0-8.15,0-12.22,0-.78,0-1.08.24-1.06,1q.06,3.83,0,7.65c0,.72.18,1,.93,1,4.16,0,8.32,0,12.48,0Z" style="fill:#f5f5f5;stroke:#f5f5f5;stroke-miterlimit:10;stroke-width:0.75px"/></g></g></svg>