<svg xmlns="http://www.w3.org/2000/svg" viewBox="0 0 78.58 85.22"><title>iconBackup_1</title><g id="Layer_2" data-name="Layer 2"><g id="Layer_1-2" data-name="Layer 1"><path d="M36.06,84.22c-2-.38-4.12-.6-6.11-1.14C16.53,79.41,7.53,71,2.9,57.85a35.93,35.93,0,0,1-1.9-11V46H6.41c.31,10.45,4.34,19.14,12.53,25.74a31.47,31.47,0,0,0,18.3,7,32.8,32.8,0,1,0-13.56-61.5l5,8.74L6.07,23.23,15,2.23l5.85,10.12c1.18-.55,2.31-1.11,3.47-1.62A36.91,36.91,0,0,1,39.71,7.62a37.41,37.41,0,0,1,23.06,8.05A37,37,0,0,1,77.23,40.78,37.91,37.91,0,0,1,51.29,82.26a71.68,71.68,0,0,1-8.4,1.81l-.67.15Z" style="fill:#f5f5f5;stroke:#f5f5f5;stroke-miterlimit:10;stroke-width:2px"/><path d="M22.93,51.38V46H39.29V29.54h5.44V51.38Z" style="fill:#f5f5f5;stroke:#f5f5f5;stroke-miterlimit:10;stroke-width:2px"/></g></g></svg>