<svg xmlns="http://www.w3.org/2000/svg" viewBox="0 0 469.74 322.48"><defs><style>.cls-1{fill:#b3d59c;}.cls-2{fill:#7ab8d1;}.cls-3{fill:#e8e8e8;}</style></defs><title>logo_redless1</title><g id="Layer_2" data-name="Layer 2"><g id="Layer_2-2" data-name="Layer 2"><path class="cls-1" d="M258.28,217.36c-3.8-2.65-9-4.08-15-4.55-11.35-.6-35.5,3.37-48.34,13.06s-49.21,11.38-49.21,11.38-11.52-.85-11.77,6.25,2.26,9.87,2.26,9.87c3.89,5.08,14.34,5.36,14.34,5.36,12.2,2.37,66.12-2.76,66.12-2.76l.62,4.79c-9,1.64-30.6,2.94-49.58,3.51s-27.32-2.32-28.85-2.88-4.57-2.09-7.37-6.46-2.4-11.71-2.4-11.71l-6.44-1.2c-13.26-4-53.18-45.9-53.18-45.9-7.84-9.13-15.82-7.27-20.24-3.71s-6,7.56-5.7,15.4,29.79,35.78,29.79,35.78C107.26,277.52,143.47,302,172,302s28.7-3.33,46.57-8.65,27.37,2.28,27.37,2.28l43.72,24.71,33.74-58.83c-15.4-7.84-51.32-34.59-65.11-44.19"/><path class="cls-2" d="M150.9,207.62S74.45,185,0,36.78c0,0,68.69,93.73,92,79.11S127.19,70,134.72,0c0,0-20.83,186.13,16.18,207.62"/><path class="cls-2" d="M52.12,59.25A27.45,27.45,0,1,0,79.57,31.8,27.45,27.45,0,0,0,52.12,59.25"/><path class="cls-1" d="M164.46,204.78s-37.88-45.73-22.34-168.31c0,0,3.54,86.48,24,87.11S207,109.85,240.7,69.68c0,0-90.2,106.44-76.24,135.1"/><path class="cls-1" d="M165,72a20.45,20.45,0,1,0,28.38-5.57A20.45,20.45,0,0,0,165,72"/><path class="cls-3" d="M176.24,213s-4.21-44.92,58-115.24c0,0-34.79,55.82-22.21,65s31.52,8.86,69.89-1.92c0,0-102.17,28.23-105.68,52.2"/><path class="cls-3" d="M233.41,129.89a15.54,15.54,0,1,0,20.2,8.65,15.54,15.54,0,0,0-20.2-8.65"/><path class="cls-3" d="M469.6,121.79c0-77.16-45.49-114-96.74-114s-80,49.52-80,49.52V233.57L333,259.36l-36.16,63.12c26.64-13.59,59.21-37.68,80.11-54a299.25,299.25,0,0,0,55.42-56.22c41.65-55.67,37.19-90.44,37.19-90.44"/><path class="cls-2" d="M343,121.92,314.12,94a10.69,10.69,0,0,1-.27-15.12l17.39-18a10.68,10.68,0,0,1,15.11-.27L375.92,89.2"/><path class="cls-2" d="M406.71,121.58,437.17,152a10.67,10.67,0,0,1,0,15.11l-17.66,17.69a10.7,10.7,0,0,1-15.12,0L373.57,154"/><circle class="cls-1" cx="397.61" cy="158.68" r="2.05"/><circle class="cls-1" cx="411.01" cy="145.28" r="2.05"/><circle class="cls-1" cx="409.51" cy="170.57" r="2.05"/><circle class="cls-1" cx="422.92" cy="157.17" r="2.05"/><circle class="cls-1" cx="327.56" cy="88.62" r="2.05"/><circle class="cls-1" cx="340.96" cy="75.22" r="2.05"/><circle class="cls-1" cx="339.46" cy="100.52" r="2.05"/><circle class="cls-1" cx="352.86" cy="87.13" r="2.05"/><rect class="cls-1" x="299.24" y="99.33" width="151.24" height="46.38" rx="10.69" transform="translate(23.16 300.95) rotate(-45)"/><circle class="cls-2" cx="338.71" cy="145.28" r="2.05"/><circle class="cls-2" cx="352.11" cy="158.68" r="2.05"/><circle class="cls-2" cx="326.81" cy="157.18" r="2.05"/><circle class="cls-2" cx="340.21" cy="170.57" r="2.05"/><circle class="cls-2" cx="408.76" cy="75.22" r="2.05"/><circle class="cls-2" cx="422.16" cy="88.62" r="2.05"/><circle class="cls-2" cx="396.86" cy="87.13" r="2.05"/><circle class="cls-2" cx="410.26" cy="100.53" r="2.05"/></g></g></svg>