<svg xmlns="http://www.w3.org/2000/svg" viewBox="0 0 469.73 322.48"><title>logo_colorful</title><g id="Layer_2" data-name="Layer 2"><g id="_2" data-name="2"><path d="M258.28,217.36c-3.8-2.65-9-4.08-15-4.55-11.35-.6-35.5,3.37-48.34,13.06s-49.21,11.38-49.21,11.38-11.52-.85-11.77,6.25,2.26,9.87,2.26,9.87c3.89,5.08,14.34,5.36,14.34,5.36,12.19,2.37,66.12-2.76,66.12-2.76l.62,4.79c-9,1.64-30.61,2.94-49.58,3.51s-27.33-2.32-28.85-2.88-4.57-2.09-7.37-6.46-2.4-11.71-2.4-11.71h0l-6.44-1.2c-13.26-4-53.18-45.9-53.18-45.9-7.84-9.13-15.82-7.27-20.24-3.71s-6,7.56-5.71,15.4,29.8,35.78,29.8,35.78C107.26,277.52,143.47,302,172,302s28.71-3.33,46.58-8.65,27.37,2.28,27.37,2.28l43.72,24.71,33.74-58.83C308,253.71,272.06,227,258.28,217.36Z" style="fill:#b3d59c"/><path d="M150.9,207.62S74.45,185,0,36.78c0,0,68.69,93.73,92,79.11S127.19,70,134.72,0C134.72,0,113.89,186.13,150.9,207.62Z" style="fill:#7ab8d1"/><circle cx="79.57" cy="59.25" r="27.45" style="fill:#7ab8d1"/><path d="M164.46,204.78s-37.89-45.73-22.34-168.31c0,0,3.53,86.49,24,87.11S207,109.85,240.7,69.68C240.7,69.68,150.5,176.12,164.46,204.78Z" style="fill:#b3d59c"/><circle cx="181.98" cy="83.41" r="20.45" style="fill:#b3d59c"/><path d="M176.24,213s-4.21-44.92,58-115.24c0,0-34.79,55.82-22.21,65s31.52,8.86,69.89-1.92C281.92,160.82,179.75,189.05,176.24,213Z" style="fill:#ec6585"/><circle cx="239.18" cy="144.32" r="15.54" style="fill:#ec6585"/><path d="M469.6,121.79c0-77.16-45.5-114-96.74-114s-80,49.52-80,49.52V233.57L333,259.36l-36.16,63.12c26.64-13.59,59.21-37.68,80.1-54a299,299,0,0,0,55.43-56.22C474.06,156.56,469.6,121.79,469.6,121.79Z" style="fill:#ec6585"/><path d="M302.82,43.72S457,62.83,421.71,225.65c20.94-24.11,24.59-33.83,31.5-46C469.73,50.13,334,17.92,334,17.92S319.23,24.8,302.82,43.72Z" style="fill:#b3d59c"/><path d="M397,10.66S443.77,181.17,357.85,283c-7.85,5.74-21.9,17-39.65,27.26,97.28-168.84,37.41-300.6,37.41-300.6S371.77,4.51,397,10.66Z" style="fill:#7ab8d1"/></g></g></svg>