<svg xmlns="http://www.w3.org/2000/svg" xmlns:xlink="http://www.w3.org/1999/xlink" viewBox="0 0 469.73 322.48"><defs><linearGradient id="linear-gradient" x1="83.66" y1="152.68" x2="283.35" y2="327.58" gradientUnits="userSpaceOnUse"><stop offset="0.03" stop-color="#ec6586"/><stop offset="0.1" stop-color="#ed7190"/><stop offset="0.3" stop-color="#f08da7"/><stop offset="0.47" stop-color="#f29eb5"/><stop offset="0.6" stop-color="#f3a4ba"/><stop offset="0.68" stop-color="#f29cb4"/><stop offset="0.81" stop-color="#f087a3"/><stop offset="0.97" stop-color="#ec6588"/><stop offset="1" stop-color="#eb5d82"/></linearGradient><linearGradient id="linear-gradient-2" x1="11.14" y1="141.3" x2="155.79" y2="98.34" gradientUnits="userSpaceOnUse"><stop offset="0" stop-color="#ec6585"/><stop offset="0.22" stop-color="#ec6788"/><stop offset="0.37" stop-color="#ea6d91"/><stop offset="0.5" stop-color="#e777a0"/><stop offset="0.55" stop-color="#e67ba7"/><stop offset="0.75" stop-color="#e97096"/><stop offset="1" stop-color="#ec6585"/></linearGradient><linearGradient id="linear-gradient-3" x1="54.07" y1="68.25" x2="105.86" y2="49.97" gradientUnits="userSpaceOnUse"><stop offset="0" stop-color="#ec6585"/><stop offset="0.06" stop-color="#eb688a"/><stop offset="0.49" stop-color="#e67ba7"/><stop offset="0.83" stop-color="#ea6d92"/><stop offset="1" stop-color="#ec6585"/></linearGradient><linearGradient id="linear-gradient-4" x1="139.04" y1="117.53" x2="239.04" y2="139.23" gradientUnits="userSpaceOnUse"><stop offset="0" stop-color="#ec6585"/><stop offset="0.07" stop-color="#ea6c90"/><stop offset="0.21" stop-color="#e777a1"/><stop offset="0.32" stop-color="#e67ba7"/><stop offset="0.38" stop-color="#e7769f"/><stop offset="0.53" stop-color="#ea6c91"/><stop offset="0.72" stop-color="#ec6788"/><stop offset="1" stop-color="#ec6585"/></linearGradient><linearGradient id="linear-gradient-5" x1="166.99" y1="74.37" x2="202.01" y2="95.49" gradientUnits="userSpaceOnUse"><stop offset="0" stop-color="#ec6585"/><stop offset="0.2" stop-color="#e97197"/><stop offset="0.43" stop-color="#e67ba7"/><stop offset="1" stop-color="#ec6585"/></linearGradient><linearGradient id="linear-gradient-6" x1="191.93" y1="141.34" x2="264.64" y2="218.11" gradientUnits="userSpaceOnUse"><stop offset="0" stop-color="#ec6585"/><stop offset="0.15" stop-color="#e8739a"/><stop offset="0.28" stop-color="#e67ba7"/><stop offset="0.28" stop-color="#e67ba6"/><stop offset="0.51" stop-color="#e96f94"/><stop offset="0.75" stop-color="#eb6789"/><stop offset="1" stop-color="#ec6585"/></linearGradient><linearGradient id="linear-gradient-7" x1="232.04" y1="136.57" x2="253.11" y2="159.42" gradientUnits="userSpaceOnUse"><stop offset="0" stop-color="#ec6585"/><stop offset="0.1" stop-color="#e96e93"/><stop offset="0.24" stop-color="#e778a2"/><stop offset="0.37" stop-color="#e67ba7"/><stop offset="0.41" stop-color="#e779a4"/><stop offset="0.77" stop-color="#eb6a8d"/><stop offset="1" stop-color="#ec6585"/></linearGradient><linearGradient id="linear-gradient-8" x1="232.73" y1="203.11" x2="480.04" y2="103.72" gradientUnits="userSpaceOnUse"><stop offset="0" stop-color="#ec6585"/><stop offset="0.21" stop-color="#ec6887"/><stop offset="0.35" stop-color="#eb718f"/><stop offset="0.48" stop-color="#e9809d"/><stop offset="0.59" stop-color="#e796b0"/><stop offset="0.64" stop-color="#e6a0b9"/><stop offset="0.75" stop-color="#e88da8"/><stop offset="1" stop-color="#ec6585"/></linearGradient><linearGradient id="linear-gradient-9" x1="451.34" y1="208.54" x2="339.41" y2="14.67" gradientUnits="userSpaceOnUse"><stop offset="0" stop-color="#999"/><stop offset="0.01" stop-color="#9d9d9d"/><stop offset="0.05" stop-color="#b3b3b3"/><stop offset="0.11" stop-color="#c4c4c4"/><stop offset="0.18" stop-color="#d0d0d0"/><stop offset="0.27" stop-color="#d7d7d7"/><stop offset="0.5" stop-color="#d9d9d9"/><stop offset="0.75" stop-color="#d7d7d7"/><stop offset="0.84" stop-color="#d0d0d0"/><stop offset="0.9" stop-color="#c5c5c5"/><stop offset="0.95" stop-color="#b4b4b4"/><stop offset="0.99" stop-color="#9e9e9e"/><stop offset="1" stop-color="#999"/></linearGradient><linearGradient id="linear-gradient-10" x1="363.95" y1="310.29" x2="363.95" y2="7.65" gradientUnits="userSpaceOnUse"><stop offset="0" stop-color="#999"/><stop offset="0.03" stop-color="#b2b2b2"/><stop offset="0.08" stop-color="#c8c8c8"/><stop offset="0.12" stop-color="#d9d9d9"/><stop offset="0.18" stop-color="#e4e4e4"/><stop offset="0.27" stop-color="#ebebeb"/><stop offset="0.5" stop-color="#ededed"/><stop offset="0.73" stop-color="#ebebeb"/><stop offset="0.81" stop-color="#e4e4e4"/><stop offset="0.87" stop-color="#d8d8d8"/><stop offset="0.92" stop-color="#c7c7c7"/><stop offset="0.97" stop-color="#b1b1b1"/><stop offset="1" stop-color="#999"/></linearGradient></defs><title>logo_shiny</title><g id="Layer_2" data-name="Layer 2"><g id="_2" data-name="2"><path d="M217.44,257.56a536,536,0,0,1-56.63,3.57c-27.63,0-32.48-5.55-32.48-19.11" style="fill:none;stroke:#fff;stroke-miterlimit:10;stroke-width:5px"/><path d="M258.28,217.36c-3.8-2.65-9-4.08-15-4.55-11.35-.6-35.5,3.37-48.34,13.06s-49.21,11.38-49.21,11.38-11.52-.85-11.77,6.25,2.26,9.87,2.26,9.87c3.89,5.08,14.34,5.36,14.34,5.36,12.19,2.37,66.12-2.76,66.12-2.76l.62,4.79c-9,1.64-30.61,2.94-49.58,3.51s-27.33-2.32-28.85-2.88-4.57-2.09-7.37-6.46-2.4-11.71-2.4-11.71h0l-6.44-1.2c-13.26-4-53.18-45.9-53.18-45.9-7.84-9.13-15.82-7.27-20.24-3.71s-6,7.56-5.71,15.4,29.8,35.78,29.8,35.78C107.26,277.52,143.47,302,172,302s28.71-3.33,46.58-8.65,27.37,2.28,27.37,2.28l43.72,24.71,33.74-58.83C308,253.71,272.06,227,258.28,217.36Z" style="fill:url(#linear-gradient)"/><path d="M150.9,207.62S74.45,185,0,36.78c0,0,68.69,93.73,92,79.11S127.19,70,134.72,0C134.72,0,113.89,186.13,150.9,207.62Z" style="fill:url(#linear-gradient-2)"/><circle cx="79.57" cy="59.25" r="27.45" style="fill:url(#linear-gradient-3)"/><path d="M164.46,204.78s-37.89-45.73-22.34-168.31c0,0,3.53,86.49,24,87.11S207,109.85,240.7,69.68C240.7,69.68,150.5,176.12,164.46,204.78Z" style="fill:url(#linear-gradient-4)"/><circle cx="181.98" cy="83.41" r="20.45" style="fill:url(#linear-gradient-5)"/><path d="M176.24,213s-4.21-44.92,58-115.24c0,0-34.79,55.82-22.21,65s31.52,8.86,69.89-1.92C281.92,160.82,179.75,189.05,176.24,213Z" style="fill:url(#linear-gradient-6)"/><circle cx="239.18" cy="144.32" r="15.54" style="fill:url(#linear-gradient-7)"/><path d="M469.6,121.79c0-77.16-45.5-114-96.74-114s-80,49.52-80,49.52V233.57L333,259.36l-36.16,63.12c26.64-13.59,59.21-37.68,80.1-54a299,299,0,0,0,55.43-56.22C474.06,156.56,469.6,121.79,469.6,121.79Z" style="fill:url(#linear-gradient-8)"/><path d="M302.82,43.72S457,62.83,421.71,225.65c20.94-24.11,24.59-33.83,31.5-46C469.73,50.13,334,17.92,334,17.92S319.23,24.8,302.82,43.72Z" style="fill:url(#linear-gradient-9)"/><path d="M397,10.66S443.77,181.17,357.85,283c-7.85,5.74-21.9,17-39.65,27.26,97.28-168.84,37.41-300.6,37.41-300.6S371.77,4.51,397,10.66Z" style="fill:url(#linear-gradient-10)"/></g></g></svg>