<svg xmlns="http://www.w3.org/2000/svg" viewBox="0 0 100 100"><title>paperclip</title><g id="Layer_2" data-name="Layer 2"><g id="Layer_1-2" data-name="Layer 1"><path d="M28.47,100c-.07-.58-.13-1.16-.19-1.74a3.08,3.08,0,0,1,.34-2.11,1.62,1.62,0,0,1,1.68-.61c1.69.37,1.72,2.85,1.95,4.18,0,.09,0,.19,0,.28h-.19c-.13-.82-.25-1.65-.45-2.45S31,95.82,30,95.8c-2.14,0-1.45,2.89-1.29,4.17v0Zm1.09,0c0-.24-.07-.47-.11-.71a3.29,3.29,0,0,1,.31-2.41c.57-.76,1,.15,1.2.73a21,21,0,0,1,.43,2.39h-.16a16.18,16.18,0,0,0-.41-2.31,1.27,1.27,0,0,0-.3-.64c-.46-.39-.72.14-.84.46a3,3,0,0,0-.11,1.19c0,.44.09.87.16,1.3Zm29.34,0c0-.28,0-.56.05-.84.12-2,.25-3.93.38-5.89s.3-4.22.41-6.33a4,4,0,0,0-.38-2.47,1.78,1.78,0,0,0-2-.63c-1,.3-1.23,1.21-1.27,2.15s-.05,2-.07,2.92c-.05,2-.12,4.06-.15,6.09,0,.15-.16.16-.16,0,.1-2.82.14-5.64.21-8.45A3.32,3.32,0,0,1,56.63,84a2.06,2.06,0,0,1,2-.34c1.69.68,1.21,3.12,1.11,4.51-.19,2.57-.29,5.15-.46,7.73-.07,1.2-.16,2.41-.24,3.61,0,.16,0,.33,0,.51Zm-2.66,0c.26-2.33.46-4.65.54-7,0-1.24.06-2.48.09-3.72,0-.66,0-1.31,0-2A9.45,9.45,0,0,1,57,85.9c.11-.68.71-1.1,1.32-.6s.51,1.67.46,2.46c-.16,2.47-.31,4.94-.48,7.41,0,.14-.17.09-.16,0,.13-2.32.28-4.65.43-7,0-.52.1-1.06.08-1.58a1.38,1.38,0,0,0-.43-1,.64.64,0,0,0-1,.1,3.88,3.88,0,0,0-.17,1.74c0,.56,0,1.11,0,1.67,0,2-.07,4.05-.18,6.08-.05.95-.12,1.91-.21,2.86-.07.66-.19,1.33-.27,2ZM100,91.34v.29q-2.55.11-5.1.27c-1.93.12-3.85.29-5.76.53a9.11,9.11,0,0,0-2.75.51,1.9,1.9,0,0,0-.9,2.24c.3,1.06,1.35,1,2.26,1s1.89,0,2.83-.08a56.9,56.9,0,0,0,5.8-.67c.11,0,.11.24,0,.26a45.14,45.14,0,0,1-8,.76c-.88,0-2.11.19-2.73-.61a2.26,2.26,0,0,1-.26-2,2,2,0,0,1,1.58-1.38A29.39,29.39,0,0,1,90.3,92c2.4-.28,4.82-.43,7.24-.54Zm0,3.13c-2.24.21-4.49.3-6.73.47-1.17.09-2.34.2-3.5.36-.84.11-2,.53-2.76-.07a1,1,0,0,1-.19-1.38c.5-.6,1.53-.63,2.22-.71,2.41-.29,4.85-.34,7.27-.41.09,0,.09.2,0,.2-2.19.13-4.4.15-6.58.37-.55.06-1.11.12-1.65.23A2.07,2.07,0,0,0,87,94a.74.74,0,0,0,.26,1.12,1.57,1.57,0,0,0,.79.17,13.35,13.35,0,0,0,1.53-.2c3.46-.48,7-.56,10.43-.89ZM0,91.34l1,0a2.1,2.1,0,0,1,2,.77,1.54,1.54,0,0,1-.13,1.67c-.52.64-1.59.59-2.32.66l-.48,0v-.29l1.05-.11c.87-.09,2.12-.32,1.86-1.52-.22-1-1.44-1-2.23-1l-.68,0Zm17.6-15.2c-1.14-2-2.32-4.07-3.56-6.06-.39-.63-.82-1.47-1.6-1.68-.54-.15-1,.15-.94.74a3.26,3.26,0,0,0,.57,1.15L13,71.68c.58.91,1.16,1.82,1.73,2.73C15.85,76.26,17,78.13,18,80.07a5.77,5.77,0,0,0,1.39,2.21,1.35,1.35,0,0,0,1.67,0c.54-.5.22-1.3,0-1.87a18.09,18.09,0,0,0-1.44-2.93c-1.15-2-2.37-4-3.56-5.94-.56-.92-1.09-1.87-1.68-2.77a3.73,3.73,0,0,0-1.93-1.66A1.52,1.52,0,0,0,10.5,68a3.23,3.23,0,0,0,.73,2.58c1.37,2.27,2.75,4.53,4.13,6.8.07.11.17-.07.12-.15l-2.94-4.85c-.49-.8-1-1.59-1.46-2.4s-.89-2.33.43-2.67c1.87-.48,3.09,2.16,3.83,3.41q1.43,2.41,2.87,4.81a39.62,39.62,0,0,1,2.59,4.8c.22.52.64,1.35.09,1.79a1.26,1.26,0,0,1-1.13.11C19,82,18.61,81,18.27,80.35a95.85,95.85,0,0,0-5.34-9l-.78-1.25a4.88,4.88,0,0,1-.34-.58.74.74,0,0,1-.12-.31c-.06-.61.38-.59.7-.51.93.22,1.43,1.43,1.88,2.17,1.09,1.8,2.18,3.61,3.25,5.42C17.57,76.31,17.63,76.19,17.6,76.14Zm62.5,0c2.23-.83,4.47-1.71,6.67-2.64A3.92,3.92,0,0,0,88.83,72c.24-.48.08-1-.5-1.11a2.27,2.27,0,0,0-1.08.26L85.46,72l-3.19,1.36c-1.09.48-2.1,1.09-3.19,1.54s-2,.63-3.06,1a5,5,0,0,0-2.37,1.25,1.27,1.27,0,0,0-.06,1.68c.6.57,1.68.27,2.37.07,1.12-.33,2.21-.79,3.3-1.21,2.25-.88,4.47-1.82,6.69-2.76A24.37,24.37,0,0,0,89,73.44a3,3,0,0,0,1.51-1.86,1.55,1.55,0,0,0-1-1.86,2.62,2.62,0,0,0-1.49.14c-.59.18-1.17.4-1.74.61a63.56,63.56,0,0,0-7.16,3.17c-.09,0-.05.27,0,.22,1.66-.86,3.35-1.66,5.07-2.37.87-.36,1.74-.66,2.62-1s2-.94,2.9-.45c1.2.67.45,2.19-.36,2.83A11.13,11.13,0,0,1,87,74.14q-2.7,1.15-5.42,2.26c-1.79.72-3.58,1.45-5.41,2.08a5.33,5.33,0,0,1-1.42.33c-.63,0-1.43-.19-1.29-1s1.43-1.36,2.21-1.63,1.65-.48,2.48-.75a16.19,16.19,0,0,0,2.48-1.11c1.7-.87,3.49-1.56,5.24-2.3l1.52-.65a3,3,0,0,1,.64-.2,1.13,1.13,0,0,1,.26,0,.58.58,0,0,1,.26,0l.23.59c0,.47-.88.95-1.24,1.15s-.83.38-1.25.55c-2.08.83-4.17,1.63-6.22,2.5C80,76,80,76.18,80.1,76.15ZM39.86,72.64c-1-1.11-2-2.16-3.07-3.23a6.61,6.61,0,0,1-1.35-1.68c-.16-.35-.3-.88,0-1.2s.89.07,1.19.35C38.83,69,40.9,71.19,43,73.33c.51.51,1.23,1.13,1.24,1.92,0,1.24-1.37,1.16-2.08.65A24.21,24.21,0,0,1,39.13,73q-1.56-1.56-3.06-3.16c-.86-.94-2.88-2.76-1.46-4.07s2.91.79,3.8,1.68a24.43,24.43,0,0,1,3.12,3.62c0,.07.1-.06.06-.1a27.31,27.31,0,0,0-3.44-4c-.91-.89-2.11-2.44-3.5-1.46-1.18.84-.55,2.43.21,3.31,1.18,1.39,2.51,2.7,3.78,4,.66.68,1.35,1.34,2.06,2a7.59,7.59,0,0,0,1.87,1.47A1.31,1.31,0,0,0,44.15,76a1.4,1.4,0,0,0,.07-1.45,7.13,7.13,0,0,0-1.47-1.72c-.7-.71-1.4-1.4-2.08-2.12s-1.44-1.43-2.16-2.15a26,26,0,0,0-2-2c-.41-.34-1-.47-1.27.13a1.86,1.86,0,0,0,.34,1.57,14.4,14.4,0,0,0,1.92,2.14c.78.8,1.56,1.6,2.37,2.38C39.87,72.79,39.89,72.67,39.86,72.64ZM63.37,61.87c-.38-1.55-.74-3.11-1-4.68a6.53,6.53,0,0,1-.16-2.11,2.91,2.91,0,0,1,.22-.83,1.8,1.8,0,0,1,.38-.6c.53-.37.75.25.87.59a20.57,20.57,0,0,1,.6,2.34c.2.83.4,1.66.61,2.5.37,1.54.73,3.08,1.11,4.62A3.68,3.68,0,0,1,66,66.37a1.2,1.2,0,0,1-1.93.35A3.75,3.75,0,0,1,63.18,65c-.26-.81-.42-1.64-.6-2.47-.33-1.53-.65-3.05-.95-4.58s-1-3.56.25-4.78a1.46,1.46,0,0,1,2.06-.08,4.32,4.32,0,0,1,.91,2.54c.32,1.76.68,3.52,1.17,5.24,0,.11.13,0,.11,0-.48-2-.9-3.91-1.23-5.91-.19-1.19-.94-3-2.49-2.33s-1.54,2.31-1.3,3.67c.35,2,.84,4,1.22,6A23.18,23.18,0,0,0,63,65a4.34,4.34,0,0,0,1,1.88c1,.94,2.25.11,2.36-1.11a8.71,8.71,0,0,0-.49-2.85c-.24-1-.47-2-.7-3l-.72-3c-.22-.92-.38-1.88-.69-2.78-.2-.55-.66-1.18-1.19-.53A3.18,3.18,0,0,0,62,55.66a11.65,11.65,0,0,0,.48,2.81c.29,1.15.52,2.31.75,3.47C63.24,62.11,63.41,62,63.37,61.87ZM100,52.74a4.76,4.76,0,0,1-2.3-.86c-1-.51-2-1-3-1.54-1.93-1.05-3.88-2.09-5.79-3.19-1.08-.63-3.16-1.87-2.38-3.44s2.74-.74,3.78-.05a51.24,51.24,0,0,0,5.7,3.39c.06,0,0,.2,0,.17a51.69,51.69,0,0,1-4.9-2.81,7,7,0,0,0-2.58-1.34c-.82-.13-1.89.27-2,1.22s1,1.73,1.71,2.22,1.57.92,2.36,1.35c1.54.84,3.08,1.69,4.64,2.5l2.42,1.3a4.59,4.59,0,0,0,2.27.88ZM0,50.12a2.38,2.38,0,0,1,1,1.33,1.05,1.05,0,0,1-.85,1.27l-.15,0v-.2l.12,0a.94.94,0,0,0,.6-1.47A2.65,2.65,0,0,0,0,50.24Zm11.67-3.88c.41-1.7.77-3.41,1.14-5.12.18-.87.36-1.74.55-2.61a1.89,1.89,0,0,1,.52-1.13.67.67,0,0,1,.82-.06.85.85,0,0,1,.2.87c-.28,1.68-.72,3.35-1.09,5s-.79,3.36-1.19,5A13.84,13.84,0,0,1,12,50.81c-.4.85-1.68,1.36-2,.17a6.23,6.23,0,0,1,.11-2.68c.15-.8.36-1.59.55-2.39q.62-2.49,1.22-5c.2-.84.41-1.67.62-2.51s.38-1.78,1.26-2.14a1.63,1.63,0,0,1,2.15,1A3.25,3.25,0,0,1,15.73,39c-.11.48-.22,1-.34,1.44q-.66,2.88-1.38,5.76c0,.14.13.24.18.07Q15,43,15.76,39.75A5.1,5.1,0,0,0,16,37.16a1.83,1.83,0,0,0-1.39-1.24c-1.89-.34-2.25,1.83-2.57,3.17q-.76,3.09-1.52,6.18c-.26,1-.55,2.08-.73,3.14a6.17,6.17,0,0,0-.06,2.67,1,1,0,0,0,1.21.86c.74-.16,1.06-.88,1.26-1.54.6-2,1-4.07,1.48-6.1l.72-3.14a27.78,27.78,0,0,0,.67-3.11c.06-.58-.21-1.24-.91-1.07s-.94,1.19-1.09,1.85c-.55,2.45-1.11,4.89-1.6,7.35C11.48,46.31,11.63,46.41,11.67,46.24Zm88.33,4-.16-.12a12.23,12.23,0,0,0-2.11-1.28c-1.38-.69-2.81-1.24-4.17-2s-2.87-1.76-4.31-2.63c-.37-.23-1-.54-1.36-.18a.73.73,0,0,0,0,1,5,5,0,0,0,.44.48,8.72,8.72,0,0,0,2.1,1.34l4.79,2.48c.08,0,.06.28,0,.23l-3.4-1.75a18,18,0,0,1-3-1.66c-.46-.36-1.42-1.13-1.31-1.81s1.12-.66,1.63-.38c.87.48,1.68,1.08,2.52,1.6s1.9,1.13,2.9,1.62a28.5,28.5,0,0,1,5,2.6l.45.35ZM40.93,45.19c1.41-2,2.78-3.95,4.18-5.91a5.7,5.7,0,0,0,1.38-2.43,1,1,0,0,0-1-1.21c-.84,0-1.37,1-1.8,1.59-.71,1-1.38,2-2.06,3-1.33,2-2.65,4-4,6-.46.68-1.19,1.52-1.11,2.41a1.26,1.26,0,0,0,1.33,1.11,2.83,2.83,0,0,0,2-1.4c.68-.93,1.26-1.93,1.88-2.89,1.31-2,2.68-4,4.08-6,.78-1.1,2.52-3.15,1.08-4.46a2.13,2.13,0,0,0-2.21-.25A5.67,5.67,0,0,0,42.55,37a53.11,53.11,0,0,0-4.06,6.6c0,.07,0,.25.1.14a51.67,51.67,0,0,1,2.81-4.76c.51-.76,1-1.51,1.58-2.24A4.57,4.57,0,0,1,45,35a1.78,1.78,0,0,1,2.13.61c.55.94-.09,2-.63,2.8-1.11,1.59-2.23,3.17-3.32,4.78S41.05,46.33,40,47.92c-.48.72-1.19,1.66-2.17,1.63a1.05,1.05,0,0,1-1.09-1.15A3.11,3.11,0,0,1,37.4,47c2.14-3.23,4.21-6.53,6.49-9.66a5.14,5.14,0,0,1,1-1.19c.63-.47,1.53-.2,1.46.69a3.31,3.31,0,0,1-.79,1.53c-.3.41-.58.84-.87,1.26-1.27,1.84-2.56,3.66-3.81,5.5C40.85,45.15,40.89,45.25,40.93,45.19ZM68.68,34c.27-1.92.57-3.84,1-5.73.21-1,.44-1.94.71-2.89.1-.38.28-1,.75-1.05s.63.65.56,1a7.44,7.44,0,0,1-.22.81c-1,3.59-1.63,7.27-2.3,10.94a16.47,16.47,0,0,1-.55,2.6,2.58,2.58,0,0,1-.63,1,.9.9,0,0,1-.69.3c-.38,0-.49-.46-.55-.78-.3-1.91.29-4,.68-5.84l1.19-5.67c.2-1,.41-1.92.6-2.89a3.4,3.4,0,0,1,1.28-2.5c1.13-.64,2,.38,2,1.49a15.79,15.79,0,0,1-.6,3.24q-.7,3.32-1.39,6.65c0,.12.11.2.15.06.51-2.41,1-4.82,1.54-7.23a10.11,10.11,0,0,0,.45-3A1.75,1.75,0,0,0,71.42,23a1.78,1.78,0,0,0-1.75.92,8.56,8.56,0,0,0-.82,2.83c-.5,2.34-1,4.67-1.49,7-.24,1.17-.51,2.33-.68,3.51a10.41,10.41,0,0,0-.08,3.15c.09.55.45,1.15,1.09.83a2.69,2.69,0,0,0,1.22-1.91c.52-2.13.8-4.34,1.21-6.5.44-2.33,1-4.64,1.62-6.92.16-.54.34-1.85-.62-1.77s-1,1.45-1.13,2A56.48,56.48,0,0,0,68.54,34C68.53,34.09,68.66,34.17,68.68,34Zm-46.28-9q-1.57-1.62-3.09-3.29a11.58,11.58,0,0,1-1.37-1.6,1.5,1.5,0,0,1-.28-.77.6.6,0,0,1,.83-.62,3.09,3.09,0,0,1,1,.92c1,1.1,1.91,2.27,2.89,3.38s2,2.12,3,3.13a6.09,6.09,0,0,1,1.32,1.5c.44.9-.34,2-1.28,1.32A18,18,0,0,1,24,27.72L22.41,26.2q-1.62-1.61-3.13-3.31L18,21.37c-.51-.61-1.36-1.38-1.26-2.25A1.41,1.41,0,0,1,18.6,18c.72.28,1.29,1.12,1.8,1.67C21.65,21,23,22.3,24.15,23.74c.11.15.23-.14.11-.24-.75-.68-1.41-1.48-2.1-2.23L20.08,19c-.5-.55-1-1.26-1.81-1.37a1.58,1.58,0,0,0-1.58.81c-.74,1.37.76,2.68,1.56,3.63,1.19,1.4,2.45,2.75,3.75,4.06.66.67,1.34,1.33,2,2,.31.29.63.57.95.85a1.79,1.79,0,0,0,.9.56,1,1,0,0,0,1-.72,1.58,1.58,0,0,0-.21-1.47A11.23,11.23,0,0,0,25,25.53c-.69-.68-1.35-1.38-2-2.1-1.27-1.39-2.43-2.89-3.74-4.25-.42-.44-1.21-1.09-1.64-.27a1.66,1.66,0,0,0,.4,1.72,36.57,36.57,0,0,0,4.33,4.56C22.41,25.25,22.44,25.11,22.4,25.07ZM100,14.19v.61c-.1.31-.2.63-.29.95-.51,1.76-1.57,3.36-1.79,5.2a3.67,3.67,0,0,0,0,1.68c.23.63.93.42,1.35.08a2.6,2.6,0,0,0,.72-1.08v.45l-.15.28c-.34.59-1.08,1.18-1.77.78s-.41-1.39-.37-2a9.18,9.18,0,0,1,.88-3,25.79,25.79,0,0,0,1.13-3.08C99.8,14.77,99.9,14.48,100,14.19ZM0,21.63c.22-.54.36-1.15.53-1.63.63-1.82,1.2-3.63,2-5.38s1.37-3.5,2-5.25c.18-.48.82-1.83-.08-1.91-.61-.06-.88.6-1.07,1.07-.35.88-.68,1.76-1,2.64-.69,1.83-1.33,3.67-2,5.49,0,.12-.14,0-.12-.09C1.07,14,2.06,11.47,3,9c.24-.6.63-2.06,1.58-1.74S5,8.76,4.75,9.3L3.49,12.74c-.39,1-.87,2-1.32,3S1.35,18,1,19.16a23.78,23.78,0,0,1-1,2.92Zm81.14-7c-.47-1.65-1-3.29-1.44-4.94-.1-.39-.21-.77-.31-1.15a3.15,3.15,0,0,1-.24-1.67.63.63,0,0,1,1.16-.13,4,4,0,0,1,.41,1c.52,1.66,1,3.34,1.44,5s.69,3.24,1.17,4.82a6,6,0,0,1,.53,2.39c-.06.45-.28,1.05-.77,1.18s-.83-.36-1.07-.72a12.25,12.25,0,0,1-1.42-4.26c-.34-1.61-.76-3.21-1.21-4.8-.2-.71-.41-1.42-.64-2.12-.27-.87-.81-2-.41-2.9a1.57,1.57,0,0,1,2.33-.61c.73.54.85,1.59,1.08,2.41.52,1.87,1,3.76,1.43,5.65,0,.13.15,0,.12-.06-.53-2.11-1.07-4.21-1.58-6.33a3.15,3.15,0,0,0-.92-1.85,1.7,1.7,0,0,0-1.89-.15c-1.57.92-.59,2.94-.19,4.22.62,2,1.14,4.08,1.6,6.16A13.34,13.34,0,0,0,82,20.75c.33.48.83,1,1.42.57A1.87,1.87,0,0,0,84,19.65a15,15,0,0,0-.74-2.7c-.27-1-.48-2.08-.74-3.11-.5-2-1-4.05-1.67-6-.16-.54-.37-1.62-1.12-1.63s-.89,1-.78,1.55c.24,1.15.65,2.28,1,3.4s.66,2.43,1,3.63C81,14.92,81.18,14.81,81.14,14.67Zm-37.09.41c1.85-.63,3.7-1.28,5.56-1.9a15.71,15.71,0,0,1,2.83-.88,1.72,1.72,0,0,1,1.31.23c.52.49,0,.94-.37,1.12a4.66,4.66,0,0,1-.71.26C49,15.1,45.4,16.22,41.77,17.39a10.9,10.9,0,0,1-2.55.67,1.43,1.43,0,0,1-1-.21,1.08,1.08,0,0,1-.14-.93,1.24,1.24,0,0,1,.19-.26,3.19,3.19,0,0,1,.6-.56A13.7,13.7,0,0,1,43.74,14l5.57-1.67,2.75-.82c.93-.27,1.91-.57,2.73.15a1.68,1.68,0,0,1-.51,2.8,18.91,18.91,0,0,1-2.82.91C49.32,16,47.19,16.68,45,17.3c-.08,0-.06.25.05.21,2.32-.72,4.66-1.38,7-2.08,1.45-.43,3.79-.87,3.41-2.93A2,2,0,0,0,54.09,11a5.53,5.53,0,0,0-2.84.51c-2.33.7-4.67,1.38-7,2.07-2,.59-4.12,1.12-5.73,2.56-.45.4-.92,1-.6,1.64s1.12.6,1.68.5a23.07,23.07,0,0,0,3.14-.93c1.15-.36,2.3-.72,3.43-1.1,2.24-.74,4.49-1.45,6.73-2.17.61-.19,1.54-.68,1.16-1.49s-1.69-.57-2.37-.37c-1.26.37-2.49.86-3.73,1.29l-4,1.35C43.91,14.88,43.94,15.12,44.05,15.08ZM0,14.19c.28-.81.59-1.6.9-2.4.42-1.09.8-2.22,1.25-3.3A5,5,0,0,1,3.62,6.31a1.63,1.63,0,0,1,2.07.11,1.89,1.89,0,0,1,.41,2C5.78,9.51,5.38,10.63,5,11.75a21,21,0,0,1-1.16,3,20.88,20.88,0,0,0-1.35,3.11c0,.13-.15,0-.13-.11.58-1.91,1.69-3.61,2.31-5.52.34-1,.66-2,1-3.08A3.45,3.45,0,0,0,6,7.3a1.47,1.47,0,0,0-1.34-1c-.95,0-1.51.75-1.93,1.49a18.54,18.54,0,0,0-1.13,2.68C1,11.89.47,13.33,0,14.8ZM31.39,0l.12.76q.3,1.71.57,3.42c.19,1.15.38,2.29.56,3.43a9,9,0,0,1,.31,3A1.72,1.72,0,0,1,31.73,12a1.18,1.18,0,0,1-1.38-.83,20.64,20.64,0,0,1-.68-3.14c-.21-1.09-.39-2.18-.55-3.28C28.88,3.2,28.66,1.6,28.47,0h.19c.22,1.77.46,3.53.74,5.29s.57,3.61,1,5.38c.12.47.27.95.8,1.09a1.18,1.18,0,0,0,1.16-.37c.73-.78.4-2,.24-2.92-.29-1.79-.59-3.59-.88-5.38-.15-.92-.3-1.84-.44-2.75,0-.11,0-.23-.05-.34ZM29.73,0c.07.46.16.91.23,1.37.29,1.79.58,3.59.85,5.39,0,.13-.12.23-.15.07-.38-2.27-.76-4.55-1.1-6.83ZM32.3,0c.37,2.09.83,4.2,1,6.31,0,.07-.07.09-.09,0-.5-2-.75-4-1.09-6,0-.09,0-.19,0-.28ZM59.07,0a4.06,4.06,0,0,1-.57,2.5,1.21,1.21,0,0,1-1.74.19A2.42,2.42,0,0,1,56.18.45L56.24,0h.12c0,.32-.07.63-.08,1a1.9,1.9,0,0,0,.64,1.67,1,1,0,0,0,1.4-.16A2.75,2.75,0,0,0,58.86.65c0-.21,0-.43,0-.65Z" style="fill:#f5f5f5;opacity:0.25"/></g></g></svg>