<svg xmlns="http://www.w3.org/2000/svg" viewBox="0 0 100 100"><title>skateboards</title><g id="Layer_2" data-name="Layer 2"><g id="Layer_1-2" data-name="Layer 1"><path d="M95.11,100q0-2.23,0-4.47c0-1.72-.09-3.45-.06-5.16,0,0,0,0,0-.06a6.87,6.87,0,0,1,0-1.57,3.11,3.11,0,0,1,0-.32v0c.12-.94,0-1.87.22-2.8A7.68,7.68,0,0,1,96,83.4,4.54,4.54,0,0,1,99.79,81H100v.27h-.2a4.58,4.58,0,0,0-2.36.75A4.67,4.67,0,0,0,96,83.84a8.44,8.44,0,0,0-.66,2.37c-.08.61,0,1.23-.11,1.84a.78.78,0,0,1,.9-.2,1,1,0,0,1,.67,1h1.8a1.25,1.25,0,0,1,0-.43s0-.06,0-.06a3.8,3.8,0,0,1,1.4-.16v.25h-.26a3.75,3.75,0,0,0-.67,0c-.31.07-.38.11-.36.38.43,0,.86-.09,1.29-.07V89c-.5,0-1,0-1.5.07A12,12,0,0,1,96.81,89h0a5.23,5.23,0,0,1,0,.56,1.66,1.66,0,0,1,1.58.31c.23.24.28.58.48.84a1.46,1.46,0,0,0,1,.53H100v.25h0a1.7,1.7,0,0,1-1.21-.63l-.1-.15a5.86,5.86,0,0,0,0,.94v.18c0,.19.13.26.3.2a5.09,5.09,0,0,0,.55,0H100v.24h0c-.29,0-1,.13-1.21,0s-.14-.24-.15-.42c0-.45,0-.9,0-1.36a1.36,1.36,0,0,0-.36-.5,2.11,2.11,0,0,0-1.4-.2h0a1.19,1.19,0,0,1-.24.86,1.28,1.28,0,0,1-1,.19.57.57,0,0,1-.36-.19c.1,1.63.09,3.28.1,4.91s0,3,0,4.47ZM4.54,100c0-3.12,0-6.24.06-9.36l0,0a1.28,1.28,0,0,1-1.06.12A1,1,0,0,1,3,89.91c-.33,0-.68,0-1,.06a1.21,1.21,0,0,0-.81.65,4.58,4.58,0,0,1,0,1.43s0,.07,0,.08A5.26,5.26,0,0,1,0,92.25V92a2.59,2.59,0,0,0,.69,0c.36-.07.36-.18.38-.48a4.53,4.53,0,0,0,0-.64A1.18,1.18,0,0,1,0,91.47v-.25c.8,0,.9-.67,1.36-1.16s1.07-.34,1.65-.35c0-.27,0-.54,0-.76a.05.05,0,0,1,0,0,7.62,7.62,0,0,1-1.51,0C1,89,.55,89,.08,89H0v-.22H.07l.91,0c0-.41-.57-.39-1-.37v-.25l.69,0c.49,0,.49.14.43.59A10.53,10.53,0,0,0,3,88.73a.09.09,0,0,1,.06,0,.08.08,0,0,1,0,0A.83.83,0,0,1,3.29,88a1.43,1.43,0,0,1,1-.17.8.8,0,0,1,.23.1,14.06,14.06,0,0,0-.76-4.28,4.52,4.52,0,0,0-1.62-1.77A3.33,3.33,0,0,0,0,81.21v-.27a3.07,3.07,0,0,1,1.94.5,5.14,5.14,0,0,1,1.78,1.75c.83,1.5.69,3.29,1,4.93a.66.66,0,0,1,.08.26,9,9,0,0,1,0,1.64,1.23,1.23,0,0,1-.08.44v0c0,3.18,0,6.37,0,9.56Zm65.56,0c0-1.68,0-3.37,0-5a89.83,89.83,0,0,1,.32-9.28,6,6,0,0,1,1.18-3.44,4.13,4.13,0,0,1,3.08-1.35,5.06,5.06,0,0,1,3,.93,4.61,4.61,0,0,1,1.69,2.86.12.12,0,0,1,.07.1A20.61,20.61,0,0,1,79.68,90c-.08,1.77-.08,3.52-.05,5.29l.06,4.68h-.18c0-2.15,0-4.3-.08-6.46-.05-2.88.39-5.83-.21-8.67a.28.28,0,0,1,0-.13,4.28,4.28,0,0,0-2.49-3.17,4.88,4.88,0,0,0-3.77,0,4.24,4.24,0,0,0-2.3,3.63,41.57,41.57,0,0,0-.3,4.73c-.1,3.36-.12,6.73-.11,10.09ZM45,100c0-3.32.12-6.65,0-10A.15.15,0,0,1,45,90a9.81,9.81,0,0,1,0-1.21c0-.13,0-.27,0-.39v0a14.2,14.2,0,0,1,.8-4.62,4,4,0,0,1,.93-1.65,6.46,6.46,0,0,1,1.54-.86,4.38,4.38,0,0,1,3.61.21,4.6,4.6,0,0,1,2.28,2.74,9.32,9.32,0,0,1,.43,4,2.4,2.4,0,0,1,.13,1,3,3,0,0,1-.12,1.36v0c.17,3.15.11,6.33.12,9.49h-.17c0-3.16-.14-6.33-.06-9.48v.13a.86.86,0,0,1-.4.25.77.77,0,0,1-.91-.2A1.51,1.51,0,0,1,53,90l0,0a3.06,3.06,0,0,0-1.08.14,1.63,1.63,0,0,0-.72.49h0a7.46,7.46,0,0,1,0,1.16c0,.14,0,.4-.09.51s-.29.08-.41.09c-.34,0-.69.05-1,0l-.55,0a1.63,1.63,0,0,1-.44,0,.23.23,0,0,1-.12-.09c-.12-.16,0-.56-.05-.75s0-.64,0-1a1.74,1.74,0,0,0-.67-.6,2.68,2.68,0,0,0-1.13,0,.89.89,0,0,1-1.26,1,.42.42,0,0,1-.28-.22c.06,1.55,0,3.1,0,4.64s0,3.17,0,4.76Zm-24.94,0q0-3.81.05-7.62c0-1.66,0-3.31.05-5a10.07,10.07,0,0,1,.6-4,4.48,4.48,0,0,1,6-2.24c2.46,1.18,2.8,3.91,2.85,6.35a.12.12,0,0,1,0,.09c0,.85.05,1.7.06,2.54.07,3.25.14,6.52,0,9.77V100h-.22c0-4.13.09-8.25,0-12.38a.3.3,0,0,1,0-.1,9.22,9.22,0,0,0-.94-4.42,4.3,4.3,0,0,0-7.23-.23,8,8,0,0,0-1,4.54c-.06,4.19-.07,8.39-.07,12.59Zm28.59-9.34c0,.33,0,.67,0,1,0,.5.09.44.45.45h.65c.43,0,1.13.15,1.3-.39a3.93,3.93,0,0,0,0-1h0c-.31.47-.44.78-1.07.79a1.28,1.28,0,0,1-1.22-.67Zm50.26.94a.1.1,0,0,1,0,0c.18,0,.23.31.07.37s-.25-.23-.12-.32ZM49,91.72c0,.09,0,.21-.11.21s-.11-.09-.11-.15a.24.24,0,0,1,.07-.18.06.06,0,0,1,.09,0A.23.23,0,0,1,49,91.72Zm1.59.07h0a.24.24,0,0,1,0-.2.1.1,0,0,1,.12,0,.11.11,0,0,1,.09.07.23.23,0,0,1,0,.26.06.06,0,0,1-.07,0s0,0-.07,0l0-.06ZM.72,91.52c.05,0,.08,0,.09.08a.17.17,0,0,1,0,.17.16.16,0,0,1-.08.06c-.09,0-.13-.09-.14-.15s0-.19.13-.16Zm22.91,0a.24.24,0,0,1-.05-.14.5.5,0,0,1,0-.12s0-.1.1-.1a.21.21,0,0,1,.19.14c.05.1,0,.31-.1.34S23.65,91.62,23.63,91.54Zm2.54-.13a.16.16,0,0,1,0,.1s0,.16-.11.15-.19-.22-.12-.35a.11.11,0,0,1,.19,0A.19.19,0,0,1,26.17,91.41Zm47.6.1a.28.28,0,0,1,0-.25s0-.08.09-.08a.23.23,0,0,1,.21.21c0,.08,0,.26-.12.26a.18.18,0,0,1-.16-.13ZM76,91.18h0c.22,0,.24.43,0,.48s-.18-.09-.2-.19,0-.25.11-.28ZM52.93,89.13c-1,.06-2.1,0-3.15-.07s-2,.08-3,0a3,3,0,0,1,0,.53,1.81,1.81,0,0,1,1.62.41,8.11,8.11,0,0,1,.51.65,1.17,1.17,0,0,0,1.12.61c.8,0,.89-.85,1.45-1.25a1.94,1.94,0,0,1,1.5-.28A6,6,0,0,1,52.93,89.13Zm-3.2.34a.79.79,0,0,1,.88.54.7.7,0,0,1-.42.88.77.77,0,0,1-1-.48c-.09-.36.08-.93.52-1A.05.05,0,0,1,49.73,89.47Zm50.27.06v.2h-.08l-.18,0a.39.39,0,0,0-.11.06h0s0,.06,0,0a.5.5,0,0,0-.11.34c0,.26.32.33.53.29v.29c-.32,0-.7-.15-.69-.5a1,1,0,0,1,.22-.6c.07-.15.23-.14.39-.17Zm-100,0a.52.52,0,0,1,.44.18.72.72,0,0,1-.23,1,.48.48,0,0,1-.21.07v-.29H0c.29-.08.52-.47.25-.71A.3.3,0,0,0,0,89.73Zm53.1.32c.17.47.12,1,.86.91s.68-1.06.64-1.64c0-.34,0-.81-.42-1a1.3,1.3,0,0,0-.73,0C53,88.44,53.1,89.38,53.1,89.85Zm-3.42-.2a1.14,1.14,0,0,0-.3.23.59.59,0,0,0,0,.72.86.86,0,0,0,.75.1.52.52,0,0,0,.13-.89A.87.87,0,0,0,49.68,89.65Zm47-.05a2.25,2.25,0,0,0-.2-1.29.89.89,0,0,0-.86-.27c-.44.11-.43.43-.44.79,0,.54-.19,1.51.5,1.74a.74.74,0,0,0,.82-.25,1.55,1.55,0,0,0,.15-.65ZM45.18,88.43a4.46,4.46,0,0,0,0,.52c0,.41-.14,1.47.42,1.63a1.55,1.55,0,0,0,.48,0c.42-.08.46-.46.5-.81a.13.13,0,0,1,0-.06c0-.52.15-1.32-.44-1.6a1.27,1.27,0,0,0-.88.11.46.46,0,0,0,0,.1h0A.09.09,0,0,1,45.18,88.43Zm-42,.3a.12.12,0,0,1,0,.07,3.69,3.69,0,0,0,.06,1.37.59.59,0,0,0,.59.43.62.62,0,0,0,.67-.38,2.63,2.63,0,0,0,.11-1.45c-.1-.6-.25-.66-.7-.67A.65.65,0,0,0,3.18,88.73Zm41.87,1.35h0l0,0s0,0,0,0S45.05,90.11,45.05,90.08Zm31.07-1.39h0l0,0a.33.33,0,0,1,0,.14c0,.11-.09.29-.23.21a.33.33,0,0,1-.06-.42.14.14,0,0,1,.12-.07A.13.13,0,0,1,76.12,88.69Zm-52.42.42c.13,0,.17-.17.17-.26s-.05-.26-.18-.26-.17.17-.16.27S23.58,89.11,23.7,89.11Zm2.16-.1c-.08,0-.11-.2-.06-.27l0,0a.1.1,0,0,1,.13,0h0a.15.15,0,0,1,.12.11.27.27,0,0,1,0,.23c0,.07-.09.12-.16.07A.16.16,0,0,1,25.86,89Zm48-.4h0a.27.27,0,0,1,.07.14c0,.07,0,.17-.07.2a.14.14,0,0,1-.17,0s0,0,0,0a.05.05,0,0,1,0,0,.09.09,0,0,1,0-.07.28.28,0,0,1,0-.2.11.11,0,0,1,.14,0S73.84,88.59,73.86,88.61ZM54.51,88a10.78,10.78,0,0,0-.18-2.6,6.12,6.12,0,0,0-.81-2.32,4.36,4.36,0,0,0-3.8-2,4.27,4.27,0,0,0-2.16.68,4.92,4.92,0,0,0-.86.61,4.35,4.35,0,0,0-.62,1.19,13.5,13.5,0,0,0-.69,2.43,9.17,9.17,0,0,0-.11,1.38c0,.2-.05.4-.07.61a1.15,1.15,0,0,1,.94-.1c.41.11.57.52.61,1,.55,0,1.12-.06,1.69-.07,0-.14,0-.27,0-.41s0-.06,0-.06a11.5,11.5,0,0,1,2.27-.07c.33,0,.32.27.32.58.61,0,1.21,0,1.81,0,.05-.45.21-.87.64-1A1.25,1.25,0,0,1,54.51,88ZM51,88.87c0-.54-1.08-.36-1.46-.36-.18,0-.63-.08-.78,0s-.16.16-.17.31c.4,0,.8,0,1.19,0S50.58,88.87,51,88.87Zm22.89-.05v0ZM100,69.32a6,6,0,0,1-1.12,0c-2.57-.21-3.68-3.26-3.83-5.44-.11-1.61.08-3.24.08-4.85s0-3.3,0-4.95c0-3.24,0-6.48,0-9.71,0-1.66,0-3.31,0-5a22.63,22.63,0,0,1,.25-4.27A5.48,5.48,0,0,1,97,32a4.44,4.44,0,0,1,3-1.07v.19a4.31,4.31,0,0,0-1.23.14c-3,.78-3.41,4-3.46,6.59-.11,5.87,0,11.74,0,17.61,0,1.45,0,2.91,0,4.36a35.46,35.46,0,0,0,0,4.61,6.37,6.37,0,0,0,1.64,3.64,3.2,3.2,0,0,0,1.8,1A4.73,4.73,0,0,0,100,69ZM0,30.94l.26,0A4.49,4.49,0,0,1,3.11,32.4a5.37,5.37,0,0,1,1.28,3.2c.17,1.59.18,3.21.23,4.82s.1,3.16.12,4.74q.09,4.76,0,9.5c0,1.73,0,3.46,0,5.18a20.64,20.64,0,0,1-.33,5.09,6.65,6.65,0,0,1-1.64,3.19A4.69,4.69,0,0,1,0,69.32V69l.42-.07a4.06,4.06,0,0,0,3-2.05,8.94,8.94,0,0,0,1.1-3.66c.14-1.44,0-2.9,0-4.34l0-4.58a.12.12,0,0,1,0-.09c0-3,0-6.08,0-9.12,0-1.64,0-3.29-.1-4.94a42.78,42.78,0,0,0-.24-4.94A4.75,4.75,0,0,0,2.28,31.9,4.3,4.3,0,0,0,0,31.13Zm54.51,5.9a.2.2,0,0,1,0,.09,99.37,99.37,0,0,1,.15,10.64c-.16,3.51.14,7,0,10.53-.07,1.56-.07,3.12-.11,4.68a8.81,8.81,0,0,1-.62,3.81,4.67,4.67,0,0,1-6,2.35c-2.49-1.15-2.71-4.18-2.85-6.59-.09-1.54,0-3.07,0-4.6s0-3.26,0-4.88c0-3.19,0-6.39,0-9.58,0-1.6,0-3.19,0-4.79a14.91,14.91,0,0,1,.37-4.16,4.91,4.91,0,0,1,1.89-2.76A5.17,5.17,0,0,1,51,31.1C53.8,31.56,54.35,34.49,54.51,36.84ZM70,38.45v0a12.67,12.67,0,0,1,.17-2.75,7.63,7.63,0,0,1,.67-2.44A4.61,4.61,0,0,1,75,31a3.77,3.77,0,0,1,2.12.56,4.57,4.57,0,0,1,1.52,1.54,9.26,9.26,0,0,1,1,4.94,1,1,0,0,1,.14.49,4.25,4.25,0,0,1,0,1.84c0,.17,0,.31,0,.47,0,.44,0,.88,0,1.31,0,.93,0,1.86,0,2.8,0,1.82,0,3.65,0,5.48s0,3.51,0,5.26c0,.9,0,1.81,0,2.71s.07,1.63,0,2.44h0a2.8,2.8,0,0,1,0,.57A3.33,3.33,0,0,1,79.65,63s0,0,0,.07a7.73,7.73,0,0,1-1.17,4.37,4.3,4.3,0,0,1-3.62,1.81,4.2,4.2,0,0,1-3.42-1.93,10.32,10.32,0,0,1-1-2.1,4.71,4.71,0,0,1-.29-2.16,1.26,1.26,0,0,1-.1-.38,8.13,8.13,0,0,1,0-1.56,33.94,33.94,0,0,1,0-4.73c0-1.76.08-3.51.1-5.27s0-3.58,0-5.38-.07-3.58-.05-5.38a0,0,0,0,1,0,0,3.84,3.84,0,0,1-.06-.73A5.26,5.26,0,0,1,70,38.45ZM20.16,40.78h0a2.79,2.79,0,0,1-.09-1.54c0-.07,0-.14,0-.21a.43.43,0,0,1,0,0,9.47,9.47,0,0,1,.87-5.2,5.52,5.52,0,0,1,1.38-1.92A4.7,4.7,0,0,1,24.57,31a4.19,4.19,0,0,1,1.12,0,9.34,9.34,0,0,1,1.13.48,3.14,3.14,0,0,1,1.65,1.5,7.25,7.25,0,0,1,.83,2.35,17.48,17.48,0,0,1,.38,2.88h0a1.21,1.21,0,0,1,.07.43,9.39,9.39,0,0,1,0,1.5,1.31,1.31,0,0,1-.09.53c.07,3.3,0,6.61.05,9.9,0,3.44,0,6.88,0,10.31a.15.15,0,0,1,0,.08,4.34,4.34,0,0,1,.05,1.56,1,1,0,0,1-.2.66v0a9.39,9.39,0,0,1-1,3.74,4.8,4.8,0,0,1-1.22,1.6,4.47,4.47,0,0,1-2.17.65,3.79,3.79,0,0,1-3.65-1.72,10.45,10.45,0,0,1-1.37-4.39.36.36,0,0,1,0-.11A6.21,6.21,0,0,1,20,61.62a1.84,1.84,0,0,1,.11-.83h0v0c-.06-1.65,0-3.31-.09-5s.08-3.37.09-5.06c0-3.33-.08-6.66,0-10v0Zm.09,22.56a10.19,10.19,0,0,0,1.36,4A3.68,3.68,0,0,0,25.22,69a3.8,3.8,0,0,0,2.15-.7,5.78,5.78,0,0,0,1.16-1.69,8.77,8.77,0,0,0,.71-2.19c.07-.34.09-.68.14-1a1.37,1.37,0,0,1-1,0,1.26,1.26,0,0,1-.47-1H26.1c0,.14,0,.27,0,.41a.1.1,0,0,1-.07.1,14.91,14.91,0,0,1-2.5,0s-.07-.05-.07-.1v-.34a17.47,17.47,0,0,1-1.78,0h0a1.27,1.27,0,0,1-.17.83.89.89,0,0,1-1.25.14h0l0-.31c0,.1,0,.21,0,.31ZM54.34,36.85a7.25,7.25,0,0,0-1.3-4.3c-1-1.16-2.44-1.26-3.88-1.21A3.82,3.82,0,0,0,45.81,34a13.15,13.15,0,0,0-.52,4.67c0,5.77.08,11.55,0,17.32a49.94,49.94,0,0,0,.23,8.56,5.2,5.2,0,0,0,1.71,3.6,4.12,4.12,0,0,0,3.31.72,4.63,4.63,0,0,0,3.06-2.25,8.72,8.72,0,0,0,.72-4.26c.06-2.84.23-5.69.17-8.53,0-1.41-.1-2.82-.11-4.23s.12-2.71.13-4.06c0-2.88,0-5.76-.2-8.64A.19.19,0,0,1,54.34,36.85ZM78,62.36c-.63,0-1.25,0-1.87,0,0,.18,0,.32-.14.4s-.35,0-.49,0-.38.05-.57.06-.54,0-.8,0a1.29,1.29,0,0,1-.48,0,.34.34,0,0,1-.18-.38l-.37,0a5.63,5.63,0,0,1-1.36,0v.16s0,.06,0,.09v0s0,0,0,.06a.89.89,0,0,1-1.23.62.48.48,0,0,1-.17-.1,5.43,5.43,0,0,0,.52,2.23,9.88,9.88,0,0,0,.9,1.85A4,4,0,0,0,75,68.94a4.09,4.09,0,0,0,3.38-1.82,7.39,7.39,0,0,0,1.06-3.89.46.46,0,0,1-.16.07c-.31.07-.76.12-1-.15a1.51,1.51,0,0,1-.32-.78ZM21.43,61c-.08-.32-.37-.23-.6-.2s-.59,0-.67.51a3.51,3.51,0,0,0,0,1.37c.06.25.15.56.42.63a.65.65,0,0,0,.39,0c.47-.14.57-.61.52-1.05S21.46,61.39,21.43,61Zm8.09,0,0,0a.76.76,0,0,0-1.39.28,8.8,8.8,0,0,0,0,1.15c.05.42.25.88.74.9a.63.63,0,0,0,.68-.46,3.68,3.68,0,0,0,0-1.72A.13.13,0,0,1,29.52,61Zm48.62,1.35a1.09,1.09,0,0,0,.18.56.92.92,0,0,0,.92.24c.52-.19.39-1.22.37-1.62s0-.56-.23-.75a.93.93,0,0,0-.86-.06c-.56.25-.37,1.07-.36,1.55A.19.19,0,0,1,78.14,62.33Zm-6.59.08c0-.35,0-.71,0-1.06s-.11-.53-.48-.59-.41-.1-.64.25a1.16,1.16,0,0,0-.16.89,3.46,3.46,0,0,0,0,.79c.11.32.29.51.64.44a.71.71,0,0,0,.58-.64A.19.19,0,0,1,71.55,62.41ZM26,62.35H25l-1.46,0a1.94,1.94,0,0,1,0,.24c.45,0,.9,0,1.36,0,.23,0,.47,0,.7,0S26,62.64,26,62.35Zm50,0-1.17,0c-.39,0-.77,0-1.16,0,0,.34,1.24.21,1.45.19S75.89,62.6,76,62.35Zm2-.8a2,2,0,0,1-1.54-.33c-.54-.52-.63-1.23-1.55-1.17s-1,.76-1.53,1.18a2.42,2.42,0,0,1-1.54.47c0,.19,0,.38,0,.56a5.94,5.94,0,0,1,1.46-.07c.53,0,1.06,0,1.6,0,1,0,2.1,0,3.15,0C77.94,62,77.92,61.75,77.92,61.55Zm-50,0a2,2,0,0,1-1.5-.41c-.58-.44-.78-1.35-1.67-1.21a1.49,1.49,0,0,0-1,.75,2.07,2.07,0,0,1-.53.61,2.29,2.29,0,0,1-1.56.34c0,.18,0,.36,0,.55a30.51,30.51,0,0,1,3.45-.07,19.1,19.1,0,0,1,2.83,0C27.93,62,27.94,61.79,28,61.59Zm20.57.18h0a.2.2,0,0,1,0-.17.17.17,0,0,1,.22,0,.31.31,0,0,1,.07.28.16.16,0,0,1-.18.16c-.1,0-.14-.13-.15-.22Zm2.29.08a.23.23,0,0,1-.05-.27.14.14,0,0,1,.09-.08l.06,0,.05,0s0,.07.07.11a.16.16,0,0,1,0,.12.1.1,0,0,1,0,0,.1.1,0,0,1-.07.08A.09.09,0,0,1,50.81,61.85Zm48-.31h0c.09,0,.13.07.14.15a.18.18,0,0,1-.09.18.14.14,0,0,1-.14,0,.24.24,0,0,1,0-.23C98.67,61.55,98.73,61.5,98.79,61.54Zm-98,.23a.18.18,0,0,0,.09.1c.16.05.19-.29.06-.34h0a.08.08,0,0,0-.09,0h0A.23.23,0,0,0,.79,61.77Zm50,.08h0ZM24.33,60.56a1,1,0,0,1,1.06-.18.7.7,0,0,1,.14,1.08.72.72,0,0,1-.57.29.62.62,0,0,1-.56-.31.92.92,0,0,1-.19-.62s0,0,0-.06a.41.41,0,0,1,.07-.15Zm50.39-.16a.34.34,0,0,1,.14,0h.08l.15,0a.57.57,0,0,1,.43.29.64.64,0,0,1-.36.87.68.68,0,0,1-.89-.48A.58.58,0,0,1,74.72,60.4Zm-50.14.27a.15.15,0,0,1,0,.06c-.15.1-.14.07-.14.28s0,.16.07.27a.6.6,0,0,0,.34.26.65.65,0,0,0,.75-.35c.29-.6-.37-.72-.74-.61A.79.79,0,0,0,24.58,60.67Zm4.94,0c0-3.34,0-6.68,0-10s0-6.51,0-9.76l-.07,0a1.27,1.27,0,0,1-1.06-.07,1.18,1.18,0,0,1-.45-.87,4.29,4.29,0,0,0-1.07.13c-.38.11-.53.41-.75.71.05.45.07.91.08,1.36,0,0,0,.1-.06.1-.48,0-1,.06-1.43.07a3.73,3.73,0,0,1-1.16,0s-.06-.07-.06-.1c0-.58,0-1.16,0-1.74A1.33,1.33,0,0,0,23,40,1.69,1.69,0,0,0,21.72,40a2.62,2.62,0,0,1,0,.28s0,.08,0,.09a.69.69,0,0,1-.22.56,1.29,1.29,0,0,1-.94.15.68.68,0,0,1-.25-.14c0,1.6,0,3.2,0,4.81s.09,3.37.07,5.06-.2,3.38-.13,5.06.16,3.21.11,4.81v.22a1.62,1.62,0,0,0,0-.22h0a1.68,1.68,0,0,1,.67-.11h0l.27,0a.38.38,0,0,1,.34.37h0a3.09,3.09,0,0,1,.08.6h0a2,2,0,0,0,1.86-.77c-.05-.34-.07-.69-.09-1,0-.14-.08-.46,0-.6.18-.31,1-.17,1.32-.19a6.1,6.1,0,0,1,1.13,0c.12,0,.2,0,.27.11s.07.44.06.61c0,.35,0,.69,0,1a1.92,1.92,0,0,0,.81.65,2.44,2.44,0,0,0,1,.11l0-.26a.68.68,0,0,1,0-.2v0s0,0,0,0a.62.62,0,0,1,.26-.36,1,1,0,0,1,.92-.08,1,1,0,0,1,.32.24v0ZM71.76,39.84c0,.43-.14,1-.59,1.12a1.51,1.51,0,0,1-.91-.22l-.06-.07c.06,1.7,0,3.41.06,5.11s0,3.45,0,5.18-.05,3.38-.09,5.08c0,.86,0,1.73,0,2.6,0,.68,0,1.39,0,2.07a.53.53,0,0,1,.29-.19,1.4,1.4,0,0,1,.9.1.88.88,0,0,1,.34.65c0,.07,0,.14,0,.21a2.53,2.53,0,0,0,1.71-.71c0-.42,0-.84,0-1.26a1.56,1.56,0,0,1,0-.57c.19-.41,1-.19,1.39-.23a2.52,2.52,0,0,1,1.06,0c.12,0,.16,0,.23.16a1.42,1.42,0,0,1,0,.71c0,.35,0,.69,0,1,0,0,0,0,0,0a1.47,1.47,0,0,0,.64.54,3,3,0,0,0,1.11.07.9.9,0,0,1,.56-.88,1.25,1.25,0,0,1,1.08.12c0-.7,0-1.42,0-2.12,0-.91,0-1.81,0-2.71,0-1.76,0-3.51,0-5.27s0-3.65,0-5.48V42.17c0-.44,0-.88,0-1.31a1.5,1.5,0,0,1,0-.22.76.76,0,0,1-.4.26,1.15,1.15,0,0,1-.87-.11A1.21,1.21,0,0,1,78,40a3,3,0,0,0-1.12.13,1.55,1.55,0,0,0-.7.66s0,0,0,.05a6.27,6.27,0,0,1,0,1.3c0,.12,0,.17-.09.26s-1,.1-1.14.12a7,7,0,0,1-1.3-.09c-.06,0-.08-.07-.09-.12a14.92,14.92,0,0,1,0-1.64,1.53,1.53,0,0,0-.72-.68A3.82,3.82,0,0,0,71.76,39.84Zm2.92,20.82c-.16.08-.3.2-.21.42a.59.59,0,0,0,.57.27c.35-.05.53-.5.17-.68A.7.7,0,0,0,74.68,60.66ZM76,60.49c0-.24,0-.47,0-.71s.06-.66-.13-.79a1.87,1.87,0,0,0-.49,0c-.23,0-.46,0-.69,0a4.73,4.73,0,0,0-.65,0c-.29,0-.38,0-.46.36a5.73,5.73,0,0,0,0,1.31l.1-.11a1.48,1.48,0,0,1,1.13-.73A1.28,1.28,0,0,1,76,60.49Zm-50,0c0-.17,0-.34,0-.51a2.57,2.57,0,0,0,0-.62c-.12-.39-.88-.21-1.22-.22s-.45,0-.68,0-.59,0-.63.29a4.87,4.87,0,0,0,.07,1.2l.08-.12a1.64,1.64,0,0,1,1.18-.73C25.4,59.69,25.75,60.08,26.05,60.48Zm-2.33-1.07a.19.19,0,0,1,0-.07.07.07,0,0,1,.12,0v0a.18.18,0,0,1,0,.2.06.06,0,0,1-.07,0h0a.11.11,0,0,1-.06-.09v0A.28.28,0,0,1,23.72,59.41Zm50.08.1c0-.07-.06-.23,0-.28.25-.17.28.42,0,.33C73.83,59.55,73.82,59.53,73.8,59.51Zm-48.08-.25c.05,0,.08.05.1.09a.19.19,0,0,1,0,.15.08.08,0,0,1-.12,0,.2.2,0,0,1-.06-.14C25.61,59.33,25.66,59.23,25.72,59.26Zm50.1.18a.06.06,0,0,1-.08,0s-.07-.08-.08-.13a.18.18,0,0,1,0-.17.08.08,0,0,1,.12,0,.23.23,0,0,1,0,.25Zm-27.29-.29c0-.06,0-.14.12-.14s.13.08.14.14a.33.33,0,0,1,0,.14v0s0,0,0,0a.2.2,0,0,1,0,.08c-.08.08-.16,0-.2-.07A.31.31,0,0,1,48.53,59.15ZM50.78,59a.09.09,0,0,1,.11,0,.23.23,0,0,1,0,.35.14.14,0,0,1-.24,0,.26.26,0,0,1,0-.23A.13.13,0,0,1,50.78,59Zm48,.33c-.06,0-.11-.07-.13-.12a.21.21,0,0,1,.07-.25.11.11,0,0,1,.11,0s.09.05.11.1h0a.3.3,0,0,1,0,.23s-.11.09-.16,0ZM.88,59.29l.1,0s.08-.05.09-.08a.2.2,0,0,0,0-.13C1.06,59,1,58.91.92,59L.84,59a.18.18,0,0,0-.06.17C.78,59.21.81,59.29.88,59.29Zm73,0h0ZM73.7,40.85c0,.26,0,.53,0,.79s-.09.48.32.56a3.43,3.43,0,0,0,.64,0h.65a2.2,2.2,0,0,1,.37-.05c.27.09.38.05.34-.13A2.3,2.3,0,0,0,76,41a1.26,1.26,0,0,1-1.24.52A1.39,1.39,0,0,1,73.7,40.85Zm-50.08-.18c0,.48,0,1,0,1.45a10.59,10.59,0,0,0,1.69,0,2.27,2.27,0,0,0,.45,0c.28,0,.25,0,.26-.31A5.29,5.29,0,0,0,26,41a1.35,1.35,0,0,1-1.13.54,1.46,1.46,0,0,1-1.07-.63Zm.21,1.15a.17.17,0,0,1,0-.12h0a.09.09,0,0,1,.09,0c.11,0,.14.2.12.29s-.06.14-.14.09A.23.23,0,0,1,23.83,41.82Zm50.1.14a.28.28,0,0,1,0-.28s0-.06.08,0,.13.11.14.2-.06.23-.17.17Zm1.92-.06h0s-.06.1-.11.07-.14-.32,0-.35.12.14.11.19A.13.13,0,0,1,75.85,41.9Zm-50.26-.22s0,0,0,0a.07.07,0,0,1,.11,0,.24.24,0,0,1,0,.28c0,.06-.1.1-.16.07A.17.17,0,0,1,25.59,41.68Zm23.1-.4h0s.1,0,.13,0a.23.23,0,0,1,0,.14.2.2,0,0,1,0,.11.26.26,0,0,1-.07.15.07.07,0,0,1-.09,0,.29.29,0,0,1-.12-.34s0-.13.11-.12Zm2.14.3a.31.31,0,0,1,0-.1.26.26,0,0,1,0-.21.11.11,0,0,1,.13,0c.12.07.09.26,0,.35A.1.1,0,0,1,50.83,41.58ZM.92,41.52a.05.05,0,0,1,0,0c0-.08,0-.25.1-.26s.14.16.12.23-.08.18-.16.11Zm97.9-.25c.12,0,.11.33,0,.3s-.1-.09-.11-.14,0-.15.06-.18S98.79,41.24,98.82,41.27ZM1,41.55H1Zm26.93-2.29a7.43,7.43,0,0,1-1.49,0,12.36,12.36,0,0,0-1.49,0c-.57,0-1.15,0-1.72,0a13.2,13.2,0,0,0-1.54,0c0,.2,0,.41,0,.62a1.6,1.6,0,0,1,1.57.15,1.86,1.86,0,0,1,.5.58,1.32,1.32,0,0,0,.76.69c1,.32,1.3-.53,1.84-1.1s1-.31,1.53-.33A4.87,4.87,0,0,1,27.93,39.26Zm50-.19a11,11,0,0,1-1.62.06,12.29,12.29,0,0,0-1.49-.06,14.23,14.23,0,0,1-3.06,0,2.34,2.34,0,0,1,0,.53h0A1.93,1.93,0,0,1,73.3,40c.52.48.61,1.1,1.41,1.22a1.12,1.12,0,0,0,1.18-.42,4.12,4.12,0,0,1,.52-.72A2,2,0,0,1,78,39.74,4.75,4.75,0,0,1,77.93,39.07Zm-3.09.49c.32,0,.59.18.63.57a.75.75,0,0,1-.11.55.89.89,0,0,1-.47.22c-.2,0-.4.07-.55-.11a.86.86,0,0,1-.17-.56c0-.33.22-.91.66-.68Zm-50,.12a.09.09,0,0,1,.08,0,.85.85,0,0,1,.5.22.79.79,0,0,1,.11.5.5.5,0,0,1-.71.49c-.14-.05-.36-.1-.42-.25a.82.82,0,0,1,0-.49A.6.6,0,0,1,24.81,39.68Zm-3.24.2a3.84,3.84,0,0,0-.12-1.23.55.55,0,0,0-.6-.47c-.45,0-.59.41-.62.77s-.26,1.69.36,1.83a1.18,1.18,0,0,0,.59-.09c.34-.17.26-.44.33-.71A.13.13,0,0,1,21.57,39.88Zm56.53-.07a1.87,1.87,0,0,0,.12.58c.21.4.44.39.79.33.84-.15.68-1.21.63-1.83,0-.34-.12-.69-.51-.74a1.7,1.7,0,0,0-.64.06C78,38.45,78.08,39.31,78.1,39.81Zm-50-1a3.46,3.46,0,0,0,0,1.4.72.72,0,0,0,.86.55c.37,0,.52-.37.57-.73a4.58,4.58,0,0,0,0-1.28.59.59,0,0,0-.37-.52c-.39-.15-1,0-1.06.52A.13.13,0,0,1,28.13,38.78Zm43.47.83a2.64,2.64,0,0,0-.1-1,.72.72,0,0,0-.81-.42c-.71,0-.56,1-.53,1.55,0,.37.07.88.51,1a.8.8,0,0,0,.27,0,.56.56,0,0,0,.58-.47,1.79,1.79,0,0,0,.08-.63Zm3,.14a.5.5,0,0,0-.28.59c.06.27.35.33.59.3a.51.51,0,0,0,.32-.1.52.52,0,0,0,.08-.45.62.62,0,0,0-.69-.35Zm-49.76.07a.41.41,0,0,0-.34.31.83.83,0,0,0,0,.22c0,.12,0,.12.11.16l.25.08a.37.37,0,0,0,.38,0,.41.41,0,0,0,.13-.43c-.07-.22-.28-.24-.48-.29ZM48.51,39l0,0a.21.21,0,0,1,0-.29.09.09,0,0,1,0,0h.05c.07,0,.12.1.14.15a.32.32,0,0,1-.07.28.1.1,0,0,1-.15,0ZM.92,38.83a.08.08,0,0,1,0,0,.08.08,0,0,1,.1-.06H1a.08.08,0,0,1,.08.06c0,.07,0,.19,0,.23a.09.09,0,0,1-.1.06c-.07,0-.08-.12-.07-.19A.13.13,0,0,1,.92,38.83ZM50.76,39v0a.26.26,0,0,1,0-.27.1.1,0,0,1,.18,0h0a.19.19,0,0,1,.09.14c0,.06,0,.17-.08.19h0a.1.1,0,0,1-.14,0ZM29.5,38.08a17.81,17.81,0,0,0-.32-2.42,7.26,7.26,0,0,0-.82-2.44,3.12,3.12,0,0,0-1.71-1.44,8,8,0,0,0-.84-.39,3.39,3.39,0,0,0-1.23-.05,4.8,4.8,0,0,0-2.07.72A5.1,5.1,0,0,0,21.07,34a9.06,9.06,0,0,0-.82,4.35c.14-.27.4-.4.88-.28s.44.23.5.61c0,.12,0,.24.05.36A12.26,12.26,0,0,1,23.5,39c0-.1,0-.18,0-.31s0-.06,0-.07a6.68,6.68,0,0,1,2.14-.12c.42,0,.44.12.4.47a2.83,2.83,0,0,1,.41,0A9.92,9.92,0,0,0,28,39a4.6,4.6,0,0,1,.1-.53.08.08,0,0,1,0-.06A1.08,1.08,0,0,1,29.5,38.08Zm69.18.67s0,0,0,0a.07.07,0,0,1,.09,0h0c.1,0,.09.21,0,.25h-.07a0,0,0,0,1-.07,0,.11.11,0,0,1,0-.09v0A.14.14,0,0,1,98.68,38.75ZM26,38.93c-.1-.37-.85-.27-1.17-.27s-1-.06-1.16.3c.44,0,.89,0,1.33,0S25.62,38.94,26,38.93Zm53.54-1a9.79,9.79,0,0,0-1-4.65A4.11,4.11,0,0,0,75,31.14a4.52,4.52,0,0,0-4,2.28,7.75,7.75,0,0,0-.65,2.51,12.76,12.76,0,0,0-.14,2.14c.17-.16.44-.11.69-.09.57,0,.8.5.86,1h0c.53-.06,1.07,0,1.6,0h.16a1.45,1.45,0,0,1,0-.51.12.12,0,0,1,.05-.09,3.24,3.24,0,0,1,.88-.07c.4,0,.79,0,1.18,0s.53.16.55.61a15.31,15.31,0,0,0,1.79,0,1,1,0,0,1,.51-.87,2.81,2.81,0,0,1,.65,0,.59.59,0,0,1,.37,0ZM76,38.87c-.06-.35-.24-.39-.59-.37l-.69,0a5.3,5.3,0,0,0-.69,0c-.34.06-.37.09-.38.38.39,0,.78-.06,1.17-.07S75.61,38.86,76,38.87ZM29.69,0c-.1,3.07,0,6.16.06,9.23,0,1.46.05,2.95-.05,4.41a7.53,7.53,0,0,1-1.07,3.67A4.67,4.67,0,0,1,22.93,19c-2.43-1.23-2.84-4.26-2.87-6.68,0-3.3,0-6.6,0-9.9,0-.81,0-1.61,0-2.42h.18V10.15a26.43,26.43,0,0,0,.19,4.62c.43,2.45,2.18,4.73,4.91,4.34a4.67,4.67,0,0,0,2.85-1.58,6.54,6.54,0,0,0,1.3-3.72,42.66,42.66,0,0,0,0-4.38c0-1.47,0-2.95,0-4.42,0-1.67,0-3.34,0-5Zm50,0c0,2,0,4,0,6,0,1.56-.09,3.12-.06,4.68a23.83,23.83,0,0,1-.13,4.22,4.61,4.61,0,0,1-1.64,3.23,6.35,6.35,0,0,1-1.69,1,5.24,5.24,0,0,1-1.72.12,4,4,0,0,1-1.76-.41,3.56,3.56,0,0,1-1.24-1.26,9.42,9.42,0,0,1-1.1-3.73,36.93,36.93,0,0,1-.15-4.46c0-1.59,0-3.18,0-4.76s0-3.09-.05-4.63h.16c0,2.47,0,5,0,7.42,0,2.75-.2,5.63.55,8.31.37,1.31,1.05,2.75,2.47,3.15a6.48,6.48,0,0,0,2.06.14,3.29,3.29,0,0,0,1.83-.73A4.2,4.2,0,0,0,78.64,17a6.75,6.75,0,0,0,.68-2.15,22.21,22.21,0,0,0,.13-4.16c-.07-2.8.09-5.61.08-8.41,0-.75,0-1.5,0-2.25ZM95.26,0V.71c0,3.31,0,6.64,0,10h0a1,1,0,0,1,.84-.21.74.74,0,0,1,.59.51,1.34,1.34,0,0,1,0,.36,2,2,0,0,0,1.74-.65c0-.36,0-.73,0-1.1,0-.14-.07-.52,0-.65a.23.23,0,0,1,.17-.12,2.68,2.68,0,0,1,.56.08,3.59,3.59,0,0,0,.46,0H100V9h-.44a3,3,0,0,0-.73,0,.58.58,0,0,1-.19,0,.5.5,0,0,0,0,.32c0,.38,0,.77,0,1.15a1.71,1.71,0,0,0,.11-.14c.32-.43.66-.87,1.25-.82h0v.24h-.18c-.76.05-1,1-1.57,1.36a2.16,2.16,0,0,1-1.52.35v.16c0,.12,0,.23,0,.35a28.09,28.09,0,0,1,3.18,0H100v.24h-.06c-.42,0-.83,0-1.25,0v.37c.43,0,.87,0,1.31,0h0v.25a9.09,9.09,0,0,1-1.38,0c-.05,0-.06-.06-.07-.1s0-.32,0-.47c-.59,0-1.19,0-1.78,0,0,.11,0,.22,0,.32a.67.67,0,0,1-.18.52.85.85,0,0,1-.88.26.64.64,0,0,1-.37-.14c.3,2.61,1.41,5.63,4.47,5.71H100v.34h-.21c-3.29-.13-4.59-3.64-4.66-6.47v0a5,5,0,0,1-.07-1.28c0-.12,0-.25,0-.37a.14.14,0,0,1,0-.07c-.06-3.43,0-6.86,0-10.29,0-.24,0-.47,0-.71ZM4.75,0V1c0,1.78,0,3.56,0,5.35,0,.86,0,1.72,0,2.57,0,.47,0,.93,0,1.39,0,.29,0,.58,0,.86a5.35,5.35,0,0,1,0,1.05,2,2,0,0,1-.12.69,10.06,10.06,0,0,1-.18,2.39A6.71,6.71,0,0,1,3.38,17.4a3.55,3.55,0,0,1-1.46,1.31A5.7,5.7,0,0,1,0,19.23v-.34a5.58,5.58,0,0,0,1.71-.43,3.39,3.39,0,0,0,1.58-1.34,6.45,6.45,0,0,0,1-1.84,7.83,7.83,0,0,0,.24-2.16.78.78,0,0,1-.85.15c-.46-.13-.61-.58-.66-1.06a8.86,8.86,0,0,1-1.86.06,1.56,1.56,0,0,1,0,.37s0,.07-.05.08A4.25,4.25,0,0,1,0,12.8H0v-.25a4.1,4.1,0,0,0,.7,0c.27,0,.32-.06.32-.27l-1,0V12c1,0,2,0,3,0,0-.2,0-.39,0-.57-.37-.1-.76,0-1.11-.15a2.59,2.59,0,0,1-.5-.37A2.79,2.79,0,0,1,1,10.34a1.45,1.45,0,0,0-1-.55V9.55a1.59,1.59,0,0,1,1.09.71c0-.39.12-1-.23-1.24C.75,9,.27,9,.12,9H0V8.8l.76,0a.55.55,0,0,1,.43.1.47.47,0,0,1,.1.35,8.77,8.77,0,0,0-.05,1.15.14.14,0,0,1,0,.07,2,2,0,0,0,.71.65A5.51,5.51,0,0,0,3,11.22v-.05s0-.07,0-.08a.9.9,0,0,1,1.2-.78.57.57,0,0,1,.36.25c0-.16,0-.33,0-.49,0-.46,0-.93,0-1.39,0-.86,0-1.72,0-2.58,0-1.75,0-3.5,0-5.25V0Zm50,0V.64c0,3.35.06,6.71,0,10.06a.43.43,0,0,1,0,.05,1.7,1.7,0,0,1,0,.47c0,.44.16,1.42-.19,1.86,0,0,0,0,0,0a7.1,7.1,0,0,1-1.29,4.38,4.34,4.34,0,0,1-1.5,1.42,4.23,4.23,0,0,1-2.09.29,4,4,0,0,1-3.51-2,8.36,8.36,0,0,1-.71-1.94,7.1,7.1,0,0,1-.34-2.19A4,4,0,0,1,45,11.49c0-.13,0-.28,0-.42A.19.19,0,0,1,45,11c0-3.46,0-6.92,0-10.37V0h.2V.62c0,1.76,0,3.52,0,5.29,0,1.55,0,3.11,0,4.66V11c0-.14,0-.27,0-.41h0c.23-.24.65-.11.93-.06s.56.49.59.93a2.21,2.21,0,0,0,1.71-.59v0c0-.44,0-.87,0-1.31A1,1,0,0,1,48.53,9c.24-.3,1-.2,1.37-.19a3.41,3.41,0,0,1,1.06,0c.12,0,.14,0,.21.16s0,.24,0,.34c0,.42,0,.82,0,1.24,0,0,0,.05,0,.06a1.52,1.52,0,0,0,.52.52,2.3,2.3,0,0,0,1.22.19,1,1,0,0,1,.62-.93,1.29,1.29,0,0,1,.94.13l.06,0h0v0c0-3.29,0-6.6,0-9.9V0ZM51.12,12.28c0,.15,0,.36-.08.48s-.34,0-.48,0-.5,0-.76,0a6.48,6.48,0,0,1-.76-.06c-.12,0-.35,0-.45-.05s-.1-.23-.11-.36H46.74c-.06.67-.4,1.25-1.2,1.07a.59.59,0,0,1-.27-.15,10.72,10.72,0,0,0,.39,1.92,7.75,7.75,0,0,0,.74,2A3.75,3.75,0,0,0,49.79,19a4.18,4.18,0,0,0,2-.31,4.08,4.08,0,0,0,1.43-1.34,7,7,0,0,0,1.24-4.11l-.14,0a.94.94,0,0,1-1-.1,1.15,1.15,0,0,1-.28-.6s0,0,0-.06a1.5,1.5,0,0,1,0-.22C52.36,12.31,51.74,12.29,51.12,12.28Zm2,.1a1.06,1.06,0,0,0,.44.75.72.72,0,0,0,1-.48,2.9,2.9,0,0,0,0-1.52c-.11-.47-.33-.53-.73-.55a.69.69,0,0,0-.78.47A6.59,6.59,0,0,0,53.1,12.38Zm42.17.43c0,.13,0,.25,0,.37l0-.42Zm-48.69-.55c0-.5.1-1.43-.5-1.62a1,1,0,0,0-.66,0c-.29.18-.23.61-.22.89s-.1,1.32.25,1.5a1,1,0,0,0,.72,0C46.5,12.91,46.55,12.57,46.58,12.26Zm50,0v-.44c0-.42.08-.86-.35-1.09a.89.89,0,0,0-.76.07c-.29.21-.26.55-.23.87s0,.64.08,1,.12.45.46.49.71,0,.79-.4a.28.28,0,0,0,0-.09v-.37Zm-92-.9v-.05c-.17-1.07-1.54-1-1.41.13a.17.17,0,0,1,0,.07c0,.18,0,.39,0,.59a.12.12,0,0,1,0,.1,1.16,1.16,0,0,0,.22.72c.18.22.26.17.5.18s.57.06.71-.48a3.18,3.18,0,0,0,0-1.07.06.06,0,0,1,0,0A.76.76,0,0,1,4.61,11.31Zm46.36,1h-1.1l-1.24,0c0,.06,0,.12,0,.18a2.09,2.09,0,0,0,.55.05l.67,0a5.69,5.69,0,0,0,.83-.05C51,12.5,51,12.5,51,12.28Zm2-.81A2.23,2.23,0,0,1,51.3,11c-.21-.23-.34-.53-.57-.75A1.34,1.34,0,0,0,49.59,10c-.68.11-.88,1-1.4,1.36a2,2,0,0,1-1.44.33c0,.18,0,.35,0,.5h0c1-.08,2.09-.09,3.12-.08s2.07-.06,3.1,0C52.94,11.88,52.92,11.67,52.92,11.47Zm20.8.4a.3.3,0,0,1-.11-.31c0-.09.09-.21.19-.13a.27.27,0,0,1,.07.08s0,0,.06.06a.28.28,0,0,1,0,.18.21.21,0,0,1-.07.13h0s-.08,0-.12,0A.08.08,0,0,1,73.72,11.87Zm-47.78-.33s.1,0,.13.07a.25.25,0,0,1,0,.25s0,.05-.07.06-.12,0-.15-.09,0,0,0-.05a.24.24,0,0,1,.08-.23s0,0,0,0Zm-2.14,0h0a.14.14,0,0,1,.09.15v.06c0,.07-.06.22-.15.14s0,0-.05,0-.07-.08-.08-.13a.29.29,0,0,1,0-.16.11.11,0,0,1,.1-.07A.09.09,0,0,1,23.8,11.51ZM76,11.43s0,0,.05,0a.15.15,0,0,1,.12.07.24.24,0,0,1,0,.22v0s0,.06,0,0a.16.16,0,0,1-.12.15c-.12,0-.19-.15-.19-.25s0-.17.09-.2H76Zm-2.31.36h0Zm0,0ZM49.91,10.22a.41.41,0,0,1,.35.06.62.62,0,0,1,.27.46.72.72,0,0,1-.68.86.69.69,0,0,1-.69-.77A.66.66,0,0,1,49.91,10.22ZM100,10.06v.21a.73.73,0,0,0-.57.21.54.54,0,0,0-.09.26.66.66,0,0,0,.15.49.56.56,0,0,0,.51.12v.16a.63.63,0,0,1-.69-.24,1,1,0,0,1-.13-.56c0-.14,0-.38.2-.44A.92.92,0,0,1,100,10.06Zm-100,0a.61.61,0,0,1,.41.15.82.82,0,0,1,0,1.06.71.71,0,0,1-.45.24v-.16a.71.71,0,0,0,.37-.23A.52.52,0,0,0,.1,10.3l-.1,0Zm49.6.4a.53.53,0,0,0-.25.3c-.1.33.12.55.43.61a.53.53,0,0,0,.61-.56c0-.41-.46-.46-.76-.35Zm1.47,0A2.92,2.92,0,0,0,51,9.2c0-.2-.1-.27-.28-.21h-.39l-.68,0a3,3,0,0,0-.67,0c-.2,0-.31.06-.35.27s0,.26,0,.38a8.83,8.83,0,0,1,0,1l0-.06c.31-.41.4-.82,1-.92A1.41,1.41,0,0,1,51,10.3ZM48.82,9.23a.11.11,0,0,1,.09-.05s.07,0,.09,0a.28.28,0,0,1,0,.28.1.1,0,0,1-.07.05h0l0,0c-.05,0-.06-.08-.07-.12A.25.25,0,0,1,48.82,9.23Zm50,0c0-.05.07-.09.12-.06a.1.1,0,0,1,0,.08l0,0c0,.07,0,.21-.09.22s0,0-.07,0,0,0,0-.06A.2.2,0,0,1,98.81,9.23ZM50.68,9.15h.06c.11,0,.13.29,0,.33h0c-.06,0-.11,0-.12-.1a.2.2,0,0,1,0-.13v0a.16.16,0,0,1,0-.07ZM.7,9.21c0-.05.05-.08.1-.07s.07.06.08.1a.19.19,0,0,1,0,.18.07.07,0,0,1-.09,0,.12.12,0,0,1-.09-.11A.15.15,0,0,1,.7,9.21ZM76,8.94c.06-.09.15,0,.14.09a.42.42,0,0,1-.05.22.53.53,0,0,1-.12.14.08.08,0,0,1-.12,0,.29.29,0,0,1-.06-.22.2.2,0,0,1,0-.15A.22.22,0,0,1,76,8.93.09.09,0,0,1,76,8.94Zm-52.28.43a.1.1,0,0,1-.16,0,.32.32,0,0,1,0-.27c0-.07.09-.15.17-.11a.15.15,0,0,1,.08.12,0,0,0,0,1,0,0A.23.23,0,0,1,23.76,9.37Zm50-.46h.1a.18.18,0,0,1,.1.15.24.24,0,0,1-.11.28.11.11,0,0,1-.16,0c-.07,0-.1-.14-.08-.19V9a.16.16,0,0,1,.07-.11h.07Zm-47.68.21A.19.19,0,0,0,26,9s-.1,0-.14,0a.2.2,0,0,0,0,.27.14.14,0,0,0,.19,0A.19.19,0,0,0,26.07,9.12Zm-2.3.17v0Zm-.1-.12v0Z" style="fill:#f5f5f5;opacity:0.25"/></g></g></svg>